<?xml version="1.0" encoding="UTF-8"?>
<svg version="1.1" xmlns="http://www.w3.org/2000/svg" width="173" height="142">
<path d="M0 0 C0.99 0 1.98 0 3 0 C3 0.66 3 1.32 3 2 C4.65 2 6.3 2 8 2 C8 1.34 8 0.68 8 0 C10.3125 -0.1875 10.3125 -0.1875 13 0 C14.625 1.4375 14.625 1.4375 16 3 C16.99 3.33 17.98 3.66 19 4 C19 4.66 19 5.32 19 6 C21.97 6 24.94 6 28 6 C28 6.66 28 7.32 28 8 C28.99 8 29.98 8 31 8 C31 8.66 31 9.32 31 10 C31.66 10 32.32 10 33 10 C33 10.99 33 11.98 33 13 C34.98 13 36.96 13 39 13 C40.4606285 15.64738916 41 16.89448334 41 20 C41.66 20 42.32 20 43 20 C43 20.66 43 21.32 43 22 C43.66 22 44.32 22 45 22 C45 23.65 45 25.3 45 27 C45.66 27 46.32 27 47 27 C46.98839844 27.63808594 46.97679687 28.27617188 46.96484375 28.93359375 C46.95582031 29.75988281 46.94679688 30.58617188 46.9375 31.4375 C46.92589844 32.26121094 46.91429687 33.08492187 46.90234375 33.93359375 C46.76732652 35.99163938 46.76732652 35.99163938 48 37 C48.0991657 38.62257544 48.13079777 40.24939831 48.1328125 41.875 C48.13410156 42.85984375 48.13539063 43.8446875 48.13671875 44.859375 C48.13285156 45.89578125 48.12898438 46.9321875 48.125 48 C48.12886719 49.03640625 48.13273437 50.0728125 48.13671875 51.140625 C48.13542969 52.12546875 48.13414062 53.1103125 48.1328125 54.125 C48.13168457 55.03507812 48.13055664 55.94515625 48.12939453 56.8828125 C48 59 48 59 47 60 C46.76572222 62.01594582 46.58663876 64.038474 46.4375 66.0625 C46.31181641 67.71958984 46.31181641 67.71958984 46.18359375 69.41015625 C46.12300781 70.26480469 46.06242187 71.11945313 46 72 C45.34 72 44.68 72 44 72 C44 73.32 44 74.64 44 76 C43.34 76 42.68 76 42 76 C42 76.66 42 77.32 42 78 C41.34 78 40.68 78 40 78 C39.01 81.3 38.02 84.6 37 88 C32.545 88.495 32.545 88.495 28 89 C28 89.66 28 90.32 28 91 C27.34 91 26.68 91 26 91 C26 91.66 26 92.32 26 93 C25.34 93 24.68 93 24 93 C24 93.66 24 94.32 24 95 C14.58997722 98.44419134 14.58997722 98.44419134 10 98 C10 98.66 10 99.32 10 100 C6.37 100 2.74 100 -1 100 C-1 100.66 -1 101.32 -1 102 C-2.95901454 101.88617347 -4.9172338 101.75858875 -6.875 101.625 C-7.96554688 101.55539063 -9.05609375 101.48578125 -10.1796875 101.4140625 C-13 101 -13 101 -15 99 C-17.06161736 98.357366 -17.06161736 98.357366 -19.375 97.9375 C-22.27017212 97.35168758 -25.13934599 96.73802261 -28 96 C-28 95.34 -28 94.68 -28 94 C-29.65 94 -31.3 94 -33 94 C-33 93.34 -33 92.68 -33 92 C-33.680625 92.12375 -34.36125 92.2475 -35.0625 92.375 C-38.97907886 91.87501121 -40.63125909 90.05316498 -43.44921875 87.41015625 C-44.96326593 85.90550609 -44.96326593 85.90550609 -47 85 C-47 84.34 -47 83.68 -47 83 C-47.66 83 -48.32 83 -49 83 C-49 82.34 -49 81.68 -49 81 C-49.99 80.67 -50.98 80.34 -52 80 C-52 79.34 -52 78.68 -52 78 C-52.66 78 -53.32 78 -54 78 C-54 76.68 -54 75.36 -54 74 C-54.66 74 -55.32 74 -56 74 C-56 71.69 -56 69.38 -56 67 C-56.66 67 -57.32 67 -58 67 C-58.2137731 59.31604457 -58.01670288 52.43659188 -56 45 C-55.34 45 -54.68 45 -54 45 C-54 44.34 -54 43.68 -54 43 C-53.34 43 -52.68 43 -52 43 C-52 41.02 -52 39.04 -52 37 C-51.34 37 -50.68 37 -50 37 C-50 36.34 -50 35.68 -50 35 C-49.34 35 -48.68 35 -48 35 C-48 33.68 -48 32.36 -48 31 C-47.34 31 -46.68 31 -46 31 C-46 30.34 -46 29.68 -46 29 C-45.34 29 -44.68 29 -44 29 C-44 28.01 -44 27.02 -44 26 C-43.34 26 -42.68 26 -42 26 C-42 25.34 -42 24.68 -42 24 C-41.34 24 -40.68 24 -40 24 C-39.7525 23.05125 -39.505 22.1025 -39.25 21.125 C-38 18 -38 18 -35.875 16.625 C-35.25625 16.41875 -34.6375 16.2125 -34 16 C-34 15.34 -34 14.68 -34 14 C-32.68 14 -31.36 14 -30 14 C-30 13.34 -30 12.68 -30 12 C-29.34 12 -28.68 12 -28 12 C-28 11.34 -28 10.68 -28 10 C-24.535 9.505 -24.535 9.505 -21 9 C-21 8.34 -21 7.68 -21 7 C-20.34 7 -19.68 7 -19 7 C-19 6.34 -19 5.68 -19 5 C-16.36 5 -13.72 5 -11 5 C-11 4.34 -11 3.68 -11 3 C-8.59454362 1.79727181 -7.05003047 1.89928528 -4.375 1.9375 C-3.14910156 1.95103516 -3.14910156 1.95103516 -1.8984375 1.96484375 C-1.27195313 1.97644531 -0.64546875 1.98804687 0 2 C0 1.34 0 0.68 0 0 Z M-13 14 C-13 14.66 -13 15.32 -13 16 C-14.32 16 -15.64 16 -17 16 C-17 16.66 -17 17.32 -17 18 C-17.99 18 -18.98 18 -20 18 C-20 18.66 -20 19.32 -20 20 C-22.64 20.33 -25.28 20.66 -28 21 C-28 21.66 -28 22.32 -28 23 C-28.66 23 -29.32 23 -30 23 C-30.33 24.98 -30.66 26.96 -31 29 C-31.66 29 -32.32 29 -33 29 C-32.67 31.64 -32.34 34.28 -32 37 C-34.64 37 -37.28 37 -40 37 C-40 40.63 -40 44.26 -40 48 C-40.66 48 -41.32 48 -42 48 C-42 48.99 -42 49.98 -42 51 C-43.32 51 -44.64 51 -46 51 C-46 53.97 -46 56.94 -46 60 C-43.16786836 61.23577017 -43.16786836 61.23577017 -40.875 60.5 C-38.59931526 59.00648215 -38.59931526 59.00648215 -38.25 55.375 C-38.1675 54.26125 -38.085 53.1475 -38 52 C-37.01 52 -36.02 52 -35 52 C-34.34 53.98 -33.68 55.96 -33 58 C-30.36 58 -27.72 58 -25 58 C-25 58.66 -25 59.32 -25 60 C-25.763125 60.144375 -26.52625 60.28875 -27.3125 60.4375 C-30.08172908 60.9632594 -30.08172908 60.9632594 -33 62 C-32.67 63.32 -32.34 64.64 -32 66 C-31.34 66 -30.68 66 -30 66 C-30 68.31 -30 70.62 -30 73 C-30.66 73 -31.32 73 -32 73 C-32 73.99 -32 74.98 -32 76 C-32.66 76 -33.32 76 -34 76 C-33.67 77.65 -33.34 79.3 -33 81 C-32.01 81 -31.02 81 -30 81 C-30 80.34 -30 79.68 -30 79 C-29.34 79 -28.68 79 -28 79 C-28 78.34 -28 77.68 -28 77 C-27.04287109 77.01740234 -27.04287109 77.01740234 -26.06640625 77.03515625 C-24.82697266 77.04869141 -24.82697266 77.04869141 -23.5625 77.0625 C-22.73878906 77.07410156 -21.91507813 77.08570312 -21.06640625 77.09765625 C-19.00836062 77.23267348 -19.00836062 77.23267348 -18 76 C-17.95936168 74.33382885 -17.957279 72.66611905 -18 71 C-18.66 71 -19.32 71 -20 71 C-20 70.01 -20 69.02 -20 68 C-18.68 68 -17.36 68 -16 68 C-13.548356 66.09316578 -13.00671686 65.02015057 -12 62 C-9.36 62.33 -6.72 62.66 -4 63 C-4 62.34 -4 61.68 -4 61 C-3.34 61 -2.68 61 -2 61 C-2 61.66 -2 62.32 -2 63 C-1.34 63 -0.68 63 0 63 C0 63.66 0 64.32 0 65 C6.93 65.495 6.93 65.495 14 66 C14.99 68.64 15.98 71.28 17 74 C21.455 73.505 21.455 73.505 26 73 C26 72.34 26 71.68 26 71 C26.66 71 27.32 71 28 71 C28 71.66 28 72.32 28 73 C28.99 73 29.98 73 31 73 C31 71.35 31 69.7 31 68 C30.34 68 29.68 68 29 68 C28.505 66.02 28.505 66.02 28 64 C25.36 64 22.72 64 20 64 C20 63.34 20 62.68 20 62 C19.34 62 18.68 62 18 62 C18.495 61.01 18.495 61.01 19 60 C23.875 60.875 23.875 60.875 25 62 C26.9944482 62.26156698 28.98949877 62.52001961 30.98828125 62.74609375 C33.04849406 63.00612061 35.00636538 63.41852324 37 64 C36.690625 62.081875 36.690625 62.081875 36.375 60.125 C36.0234375 57.9453125 36.0234375 57.9453125 36 56 C36.99 55.01 36.99 55.01 38 54 C38.30936838 52.13172073 38.30936838 52.13172073 38.265625 50 C38.26989502 49.19965332 38.27416504 48.39930664 38.27856445 47.57470703 C38.26442505 46.30022705 38.26442505 46.30022705 38.25 45 C38.24250732 44.13874512 38.23501465 43.27749023 38.22729492 42.39013672 C38.19876408 31.46539249 38.19876408 31.46539249 33.625 21.875 C30.99515635 19.61250787 30.99515635 19.61250787 27 20 C26.505 18.515 26.505 18.515 26 17 C22.04 17 18.08 17 14 17 C14 16.34 14 15.68 14 15 C8.86345101 12.71708934 4.20951064 12.86815252 -1.29296875 13.02734375 C-7.15773311 12.58475582 -7.15773311 12.58475582 -13 14 Z M-10 66 C-9.835 66.61875 -9.67 67.2375 -9.5 67.875 C-9 70 -9 70 -9 72 C-9.99 72.33 -10.98 72.66 -12 73 C-12 76.3 -12 79.6 -12 83 C-9.36 83.33 -6.72 83.66 -4 84 C-4 84.66 -4 85.32 -4 86 C-3.34 86 -2.68 86 -2 86 C-2 86.66 -2 87.32 -2 88 C-1.01 88 -0.02 88 1 88 C1 86.68 1 85.36 1 84 C0.34 84 -0.32 84 -1 84 C-1 82.68 -1 81.36 -1 80 C-0.01 80 0.98 80 2 80 C2 80.66 2 81.32 2 82 C7.00593542 82.41953254 7.00593542 82.41953254 11.4375 80.375 C13.39644605 77.397402 13.31785906 75.49644963 13 72 C10.36 71.34 7.72 70.68 5 70 C5 69.34 5 68.68 5 68 C1.7 68 -1.6 68 -5 68 C-5 67.34 -5 66.68 -5 66 C-6.65 66 -8.3 66 -10 66 Z M5 83 C5 84.65 5 86.3 5 88 C6.65 88 8.3 88 10 88 C9.20882096 86.00016466 9.20882096 86.00016466 8 84 C7.01 83.67 6.02 83.34 5 83 Z " fill="#FDFDFD" transform="translate(84,18)"/>
<path d="M0 0 C4.875 0.875 4.875 0.875 6 2 C7.34747084 2.23075082 8.70377565 2.41153063 10.0625 2.5625 C11.361875 2.706875 12.66125 2.85125 14 3 C14 3.33 14 3.66 14 4 C7.565 4.495 7.565 4.495 1 5 C1 4.34 1 3.68 1 3 C0.34 3 -0.32 3 -1 3 C-0.67 2.01 -0.34 1.02 0 0 Z " fill="#F5F5F5" transform="translate(103,77)"/>
<path d="M0 0 C0.33 0.66 0.66 1.32 1 2 C1.66 2 2.32 2 3 2 C3 2.99 3 3.98 3 5 C1.02 5.33 -0.96 5.66 -3 6 C-3 5.34 -3 4.68 -3 4 C-2.34 4 -1.68 4 -1 4 C-0.67 2.68 -0.34 1.36 0 0 Z " fill="#FBFBFB" transform="translate(83,71)"/>
<path d="M0 0 C1.65 0 3.3 0 5 0 C5 0.99 5 1.98 5 3 C3.35 3 1.7 3 0 3 C0 2.01 0 1.02 0 0 Z " fill="#FCFCFC" transform="translate(64,65)"/>
<path d="M0 0 C0.99 0 1.98 0 3 0 C3 1.65 3 3.3 3 5 C2.67 4.34 2.34 3.68 2 3 C1.01 2.67 0.02 2.34 -1 2 C-0.67 1.34 -0.34 0.68 0 0 Z " fill="#FAFAFA" transform="translate(51,61)"/>
<path d="M0 0 C0.66 0.66 1.32 1.32 2 2 C1.67 2.66 1.34 3.32 1 4 C0.01 4 -0.98 4 -2 4 C-2 3.01 -2 2.02 -2 1 C-1.34 0.67 -0.68 0.34 0 0 Z " fill="#F7F7F7" transform="translate(64,76)"/>
<path d="M0 0 C1.32 0 2.64 0 4 0 C4 0.66 4 1.32 4 2 C2.68 2 1.36 2 0 2 C0 1.34 0 0.68 0 0 Z " fill="#FFFFFF" transform="translate(96,75)"/>
<path d="M0 0 C0.66 0 1.32 0 2 0 C2 0.99 2 1.98 2 3 C1.34 3 0.68 3 0 3 C0 2.01 0 1.02 0 0 Z " fill="#FFFFFF" transform="translate(116,66)"/>
</svg>
