<?xml version="1.0" encoding="UTF-8"?>
<svg version="1.1" xmlns="http://www.w3.org/2000/svg" width="54" height="41">
<path d="M0 0 C25.81946403 0.81564756 25.81946403 0.81564756 36 9 C38.46505708 12.69758561 38.78224434 15.71027299 38 20 C34.42767145 25.2394152 28.91973268 27.29545428 23 29 C18.93686712 29.4396549 14.95533989 29.38497308 10.875 29.25 C9.2971875 29.22292969 9.2971875 29.22292969 7.6875 29.1953125 C5.12400578 29.14870351 2.56251906 29.0833027 0 29 C-0.87562914 25.30584744 -1.06117252 22.04880677 -0.87890625 18.26171875 C-0.80639648 16.66166992 -0.80639648 16.66166992 -0.73242188 15.02929688 C-0.67634766 13.92650391 -0.62027344 12.82371094 -0.5625 11.6875 C-0.51029297 10.56537109 -0.45808594 9.44324219 -0.40429688 8.28710938 C-0.2749801 5.52443291 -0.14002857 2.76215082 0 0 Z " fill="#F0F0F0" transform="translate(8,5)"/>
</svg>
