<?xml version="1.0" encoding="UTF-8"?>
<svg version="1.1" xmlns="http://www.w3.org/2000/svg" width="675" height="385">
<path d="M0 0 C3.93978353 2.35177871 7.62793214 4.95886963 11.05761719 8.00683594 C11.05761719 8.66683594 11.05761719 9.32683594 11.05761719 10.00683594 C11.62867188 10.10351562 12.19972656 10.20019531 12.78808594 10.29980469 C20.92884315 12.83590977 25.62392663 21.08435594 29.42871094 28.12011719 C30.88967842 30.70921784 32.43882535 32.89393124 34.30761719 35.19433594 C36.95611262 38.56835006 38.26292858 41.81550989 39.41699219 45.92871094 C39.98469942 48.01803046 39.98469942 48.01803046 41.05102539 49.81762695 C42.19835519 52.31292317 42.50765338 54.38524976 42.80371094 57.11230469 C42.91908203 58.09650391 43.03445313 59.08070313 43.15332031 60.09472656 C43.37901019 62.14141136 43.60300238 64.18828417 43.82519531 66.23535156 C44.48108634 71.80498977 45.42785176 76.83611052 47.42578125 82.0871582 C48.05761719 84.00683594 48.05761719 84.00683594 48.37011719 87.75683594 C49.12997714 91.34890117 50.22858857 92.68693128 53.08081055 94.93652344 C56.98686964 97.05140093 61.32483474 96.9452458 65.68261719 97.13183594 C67.55045725 97.22650728 69.41775102 97.33284547 71.28417969 97.45214844 C72.1048291 97.48840332 72.92547852 97.5246582 73.77099609 97.56201172 C76.05761719 98.00683594 76.05761719 98.00683594 78.04345703 99.66650391 C79.04046631 100.32996826 79.04046631 100.32996826 80.05761719 101.00683594 C80.78370682 100.70916321 81.50979645 100.41149048 82.25788879 100.10479736 C85.63536643 98.78026168 88.24275601 98.76633552 91.86743164 98.77978516 C92.53140457 98.7794931 93.1953775 98.77920105 93.87947083 98.77890015 C96.06008262 98.78028634 98.24034681 98.79581355 100.42089844 98.81152344 C101.93832716 98.8152561 103.45575831 98.81810188 104.97319031 98.82009888 C108.95658078 98.82771539 112.93982416 98.84734671 116.92315674 98.86950684 C120.99204519 98.89000808 125.06095754 98.89910973 129.12988281 98.90917969 C137.10586158 98.9305946 145.08172106 98.96470645 153.05761719 99.00683594 C153.05761719 98.34683594 153.05761719 97.68683594 153.05761719 97.00683594 C153.72921875 97.07902344 154.40082031 97.15121094 155.09277344 97.22558594 C162.75692489 97.93761033 170.36328653 98.11731034 178.05761719 98.13183594 C179.06058838 98.13634766 180.06355957 98.14085937 181.09692383 98.14550781 C182.05332764 98.14357422 183.00973145 98.14164062 183.99511719 98.13964844 C184.84976562 98.13852051 185.70441406 98.13739258 186.58496094 98.13623047 C189.16129745 98.00141033 191.53525921 97.53180153 194.05761719 97.00683594 C196.32757137 96.94030739 198.59930413 96.92139843 200.87011719 96.94433594 C202.0315625 96.95335937 203.19300781 96.96238281 204.38964844 96.97167969 C205.27007812 96.98328125 206.15050781 96.99488281 207.05761719 97.00683594 C207.095 96.3171875 207.13238281 95.62753906 207.17089844 94.91699219 C207.80104239 85.9096404 210.04197749 79.03811534 214.05761719 71.00683594 C214.38761719 69.83121094 214.71761719 68.65558594 215.05761719 67.44433594 C216.01829445 64.14200785 217.30512941 61.9276489 219.05761719 59.00683594 C219.72950216 56.67499986 220.39677136 54.34182452 221.05761719 52.00683594 C221.71761719 51.34683594 222.37761719 50.68683594 223.05761719 50.00683594 C223.49074219 48.93433594 223.92386719 47.86183594 224.37011719 46.75683594 C225.98937477 42.81609172 228.12302711 40.09191781 231.05761719 37.00683594 C231.71761719 37.00683594 232.37761719 37.00683594 233.05761719 37.00683594 C233.34636719 36.42933594 233.63511719 35.85183594 233.93261719 35.25683594 C234.97428385 33.1735026 236.01595052 31.09016927 237.05761719 29.00683594 C237.71761719 29.00683594 238.37761719 29.00683594 239.05761719 29.00683594 C239.26386719 28.44996094 239.47011719 27.89308594 239.68261719 27.31933594 C241.56709181 24.14999225 243.91868975 21.89160952 247.05761719 20.00683594 C250.93261719 19.19433594 250.93261719 19.19433594 254.05761719 19.00683594 C254.05761719 18.34683594 254.05761719 17.68683594 254.05761719 17.00683594 C255.04761719 17.00683594 256.03761719 17.00683594 257.05761719 17.00683594 C257.38761719 16.01683594 257.71761719 15.02683594 258.05761719 14.00683594 C264.70972373 7.55630839 272.79345466 6.50606414 281.62011719 5.81933594 C282.52697266 5.73748047 283.43382812 5.655625 284.36816406 5.57128906 C297.41164602 4.4457094 297.41164602 4.4457094 301.80761719 5.94433594 C304.86940393 6.94530468 307.2444442 7.23354764 310.43261719 7.44433594 C315.47000697 7.83340263 319.46809425 8.96920419 324.05761719 11.00683594 C324.69828125 11.25691406 325.33894531 11.50699219 325.99902344 11.76464844 C329.35952071 13.0976223 331.58402457 14.4208073 334.05761719 17.00683594 C334.80011719 17.23371094 335.54261719 17.46058594 336.30761719 17.69433594 C342.50765665 20.65344568 346.46029512 27.33413575 350.05761719 33.00683594 C350.38761719 33.33683594 350.71761719 33.66683594 351.05761719 34.00683594 C351.18261719 36.50683594 351.18261719 36.50683594 351.05761719 39.00683594 C350.05761719 40.00683594 350.05761719 40.00683594 347.37011719 40.63183594 C344.05761719 40.00683594 344.05761719 40.00683594 342.46777344 38.17480469 C340.9326627 35.81940578 339.48050033 33.43146152 338.05761719 31.00683594 C333.17395882 23.844137 326.06162293 20.7885347 318.15917969 17.80371094 C316.05761719 17.00683594 316.05761719 17.00683594 314.05761719 16.00683594 C312.22798308 15.80354326 310.39353351 15.64211398 308.55761719 15.50683594 C303.27983941 15.11794705 303.27983941 15.11794705 301.05761719 14.00683594 C297.721825 13.91748436 294.38938926 14.15251882 291.05761719 14.31933594 C289.69443359 14.37250977 289.69443359 14.37250977 288.30371094 14.42675781 C276.11087763 15.00778188 266.58764656 17.03272973 257.05761719 25.00683594 C255.72215193 25.72999301 254.36656841 26.41699772 252.99511719 27.06933594 C247.41265475 29.72765138 243.81750301 33.11898437 240.05761719 38.00683594 C239.50074219 38.54308594 238.94386719 39.07933594 238.37011719 39.63183594 C236.79388881 41.08752491 236.79388881 41.08752491 236.05761719 44.00683594 C235.39761719 44.00683594 234.73761719 44.00683594 234.05761719 44.00683594 C233.74824219 44.62558594 233.43886719 45.24433594 233.12011719 45.88183594 C232.43261719 47.25683594 231.74511719 48.63183594 231.05761719 50.00683594 C230.39761719 50.00683594 229.73761719 50.00683594 229.05761719 50.00683594 C228.78949219 50.83183594 228.52136719 51.65683594 228.24511719 52.50683594 C224.54291131 63.41860064 224.54291131 63.41860064 222.05761719 68.00683594 C221.39761719 68.00683594 220.73761719 68.00683594 220.05761719 68.00683594 C220.00863281 68.59851563 219.95964844 69.19019531 219.90917969 69.79980469 C219.48645425 74.26757531 218.82043935 77.8590191 217.05761719 82.00683594 C216.49574651 84.36832138 215.99925632 86.73617448 215.52246094 89.11621094 C215.05761719 91.00683594 215.05761719 91.00683594 214.05761719 92.00683594 C213.98542969 92.99167969 213.91324219 93.97652344 213.83886719 94.99121094 C213.11466652 104.68745319 213.11466652 104.68745319 210.45214844 108.01074219 C204.36526396 111.83645757 197.38979811 111.73732498 190.4066925 111.92884827 C188.06630344 112.00654756 185.73097149 112.12206073 183.39282227 112.25 C171.85747812 112.8623474 160.34521999 113.09291744 148.79589844 113.06933594 C148.0894368 113.06791847 147.38297516 113.06650101 146.65510559 113.06504059 C141.56007536 113.0528135 136.46510408 113.03072901 131.37011719 113.00683594 C126.22827223 112.98295501 121.08645845 112.96272325 115.94457054 112.95089722 C113.92635229 112.94454966 111.90815659 112.93197797 109.88996887 112.91918945 C103.11817522 112.90124027 96.45676919 113.10778907 89.71578979 113.77044678 C85.10438318 114.18053547 80.49710355 114.2305649 75.87011719 114.25683594 C74.49049805 114.28777344 74.49049805 114.28777344 73.08300781 114.31933594 C67.04875582 114.35354856 61.52688525 113.7402822 56.05761719 111.00683594 C55.72761719 110.34683594 55.39761719 109.68683594 55.05761719 109.00683594 C54.17074219 108.65621094 53.28386719 108.30558594 52.37011719 107.94433594 C47.42258737 105.05049774 44.00961616 100.26367453 42.38964844 94.72167969 C42.28007812 94.15578125 42.17050781 93.58988281 42.05761719 93.00683594 C41.06761719 93.50183594 41.06761719 93.50183594 40.05761719 94.00683594 C40.11949219 94.93496094 40.18136719 95.86308594 40.24511719 96.81933594 C40.21881861 103.28878564 38.71001037 110.35102491 34.74511719 115.56933594 C31.86313727 118.1832247 29.71404823 118.86927961 26.05761719 120.00683594 C24.83233771 121.95704677 24.83233771 121.95704677 24.05761719 124.00683594 C20.56826247 126.33307241 19.15279121 126.25756088 15.05761719 126.00683594 C14.37699219 125.73871094 13.69636719 125.47058594 12.99511719 125.19433594 C12.35574219 125.13246094 11.71636719 125.07058594 11.05761719 125.00683594 C8.4742849 127.25641928 8.4742849 127.25641928 6.05761719 130.00683594 C3.20758213 132.41155302 0.50974853 133.64415251 -2.94238281 135.00683594 C-3.60238281 135.66683594 -4.26238281 136.32683594 -4.94238281 137.00683594 C-6.71411133 137.58520508 -6.71411133 137.58520508 -8.82128906 138.04199219 C-9.57732422 138.21150391 -10.33335937 138.38101563 -11.11230469 138.55566406 C-11.90185547 138.72517578 -12.69140625 138.8946875 -13.50488281 139.06933594 C-18.632035 139.77568181 -18.632035 139.77568181 -22.94238281 142.00683594 C-28.99109028 142.97132232 -34.94924059 143.22014543 -41.06738281 143.25683594 C-42.36869141 143.28777344 -42.36869141 143.28777344 -43.69628906 143.31933594 C-49.00327451 143.35164635 -52.23780781 142.65934527 -56.94238281 140.00683594 C-59.07459658 139.48882572 -61.22221023 139.03073339 -63.37988281 138.63183594 C-69.15829439 137.38937884 -72.3991708 135.6981957 -76.94238281 132.00683594 C-77.80863281 131.67683594 -78.67488281 131.34683594 -79.56738281 131.00683594 C-82.79913396 129.64609861 -84.5654862 127.56199979 -86.94238281 125.00683594 C-87.82925781 124.18183594 -88.71613281 123.35683594 -89.62988281 122.50683594 C-91.98444045 119.96136822 -92.83750728 118.24254284 -93.94238281 115.00683594 C-94.41675781 114.16121094 -94.89113281 113.31558594 -95.37988281 112.44433594 C-97.96331775 106.76077906 -99.94238281 100.2863954 -99.94238281 94.00683594 C-100.26021298 91.98350639 -100.59592055 89.96295982 -100.94238281 87.94433594 C-102.71621728 76.61713583 -102.71621728 76.61713583 -101.94238281 71.00683594 C-101.28238281 70.34683594 -100.62238281 69.68683594 -99.94238281 69.00683594 C-99.50519814 67.39261561 -99.0703043 65.77772506 -98.64941406 64.15917969 C-97.24860836 59.89484853 -95.03074819 55.96835347 -92.94238281 52.00683594 C-92.28238281 52.00683594 -91.62238281 52.00683594 -90.94238281 52.00683594 C-90.94238281 51.34683594 -90.94238281 50.68683594 -90.94238281 50.00683594 C-90.32621094 49.7709375 -89.71003906 49.53503906 -89.07519531 49.29199219 C-86.38521587 47.67110714 -85.92503065 46.34376705 -84.81738281 43.44433594 C-83.13682726 39.10405816 -83.13682726 39.10405816 -80.94238281 38.00683594 C-79.904487 36.3635009 -78.90670357 34.69439727 -77.94238281 33.00683594 C-75.94238281 30.00683594 -75.94238281 30.00683594 -73.69238281 29.13183594 C-70.77431851 28.11341654 -70.77431851 28.11341654 -68.31738281 25.69433594 C-64.80826421 22.6055805 -60.79175022 20.95327262 -56.52832031 19.12011719 C-53.99264671 18.08231561 -53.99264671 18.08231561 -51.89941406 16.85839844 C-49.50070629 15.81464935 -47.85412905 15.90609825 -45.25488281 16.06933594 C-40.70887384 16.17598717 -37.38044549 15.30159093 -33.14941406 13.75292969 C-25.56295528 11.1883038 -18.20405824 11.54603746 -10.94238281 15.00683594 C-7.91777539 17.39554207 -5.19415851 19.94258554 -2.45019531 22.64746094 C-0.32559157 24.64630932 1.35347841 25.92151421 3.93261719 27.19433594 C7.00495175 28.97628998 7.74830338 29.77778932 9.55761719 32.63183594 C12.05912857 36.52032394 14.58092527 36.94870876 19.05761719 38.00683594 C21.30761719 40.06933594 21.30761719 40.06933594 23.05761719 42.00683594 C24.04761719 42.33683594 25.03761719 42.66683594 26.05761719 43.00683594 C26.11949219 44.07933594 26.18136719 45.15183594 26.24511719 46.25683594 C26.6364523 50.12572619 26.6364523 50.12572619 29.49511719 51.69433594 C33.18847413 55.02736538 33.05994616 58.42314518 33.60058594 63.22949219 C33.89497256 66.20945836 33.89497256 66.20945836 36.05761719 69.00683594 C35.1372723 53.52940967 35.1372723 53.52940967 28.05761719 40.00683594 C27.12976653 38.36728164 26.21332577 36.72122489 25.30761719 35.06933594 C17.9008605 22.7698653 6.55702586 12.2005671 -6.94238281 7.00683594 C-13.65389384 5.67074257 -20.31107779 5.78423445 -27.12988281 5.75683594 C-28.39380859 5.73621094 -29.65773438 5.71558594 -30.95996094 5.69433594 C-38.79653241 5.66190315 -45.52211991 6.4930138 -52.94238281 9.00683594 C-53.80226807 9.28197021 -54.66215332 9.55710449 -55.5480957 9.84057617 C-58.69415393 10.85090256 -61.7624909 11.93253276 -64.81738281 13.19433594 C-66.94238281 14.00683594 -66.94238281 14.00683594 -69.94238281 14.00683594 C-69.94238281 14.66683594 -69.94238281 15.32683594 -69.94238281 16.00683594 C-70.55726563 16.26078125 -71.17214844 16.51472656 -71.80566406 16.77636719 C-72.61390625 17.12054688 -73.42214844 17.46472656 -74.25488281 17.81933594 C-75.45564453 18.32400391 -75.45564453 18.32400391 -76.68066406 18.83886719 C-78.92831902 19.99957329 -80.1965385 21.21697874 -81.94238281 23.00683594 C-82.93238281 23.35746094 -83.92238281 23.70808594 -84.94238281 24.06933594 C-89.97303397 26.05370793 -93.53012869 29.96152509 -97.39160156 33.63183594 C-99.94238281 36.00683594 -99.94238281 36.00683594 -102.20019531 37.67480469 C-105.41149949 40.13008434 -105.85028256 43.40818426 -106.44238281 47.25683594 C-106.60738281 48.16433594 -106.77238281 49.07183594 -106.94238281 50.00683594 C-107.93238281 50.50183594 -107.93238281 50.50183594 -108.94238281 51.00683594 C-108.96300781 52.30621094 -108.98363281 53.60558594 -109.00488281 54.94433594 C-109.01648438 55.67523438 -109.02808594 56.40613281 -109.04003906 57.15917969 C-109.14799465 59.02415735 -109.14799465 59.02415735 -107.94238281 60.00683594 C-107.69692624 62.38867375 -107.514302 64.74299131 -107.37988281 67.13183594 C-107.31728271 68.19978394 -107.31728271 68.19978394 -107.25341797 69.28930664 C-106.23671239 88.1025096 -106.23671239 88.1025096 -107.94238281 96.00683594 C-107.88050781 96.81121094 -107.81863281 97.61558594 -107.75488281 98.44433594 C-108.02943178 102.19650517 -109.58295504 104.13726162 -111.94238281 107.00683594 C-115.44947905 108.73971903 -118.58261014 109.33623919 -122.46191406 109.63964844 C-123.48349609 109.7234375 -124.50507812 109.80722656 -125.55761719 109.89355469 C-126.61271484 109.9721875 -127.6678125 110.05082031 -128.75488281 110.13183594 C-129.82931641 110.21820313 -130.90375 110.30457031 -132.01074219 110.39355469 C-134.65414924 110.60502725 -137.29791071 110.80920748 -139.94238281 111.00683594 C-140.63646071 107.69152841 -141.07876292 104.64810772 -141.06738281 101.25683594 C-141.06996094 100.47824219 -141.07253906 99.69964844 -141.07519531 98.89746094 C-140.94238281 97.00683594 -140.94238281 97.00683594 -139.94238281 96.00683594 C-137.92326995 95.87341438 -135.90176733 95.77558273 -133.87988281 95.69433594 C-127.85194222 95.29688931 -124.1110449 94.03001565 -118.94238281 91.00683594 C-118.28238281 91.00683594 -117.62238281 91.00683594 -116.94238281 91.00683594 C-114.87427834 85.96583129 -114.4799403 81.38407451 -114.94238281 76.00683594 C-115.43738281 75.01683594 -115.43738281 75.01683594 -115.94238281 74.00683594 C-116.39044797 70.50004443 -116.5508448 66.97258878 -116.75488281 63.44433594 C-116.86993164 61.99704102 -116.86993164 61.99704102 -116.98730469 60.52050781 C-117.32467081 54.50075812 -116.73217793 50.29613545 -113.91552734 44.93359375 C-112.74514104 42.78946988 -112.74514104 42.78946988 -112.00488281 39.31933594 C-110.67262058 35.16581249 -108.93721918 33.15141412 -105.94238281 30.00683594 C-105.28238281 29.67683594 -104.62238281 29.34683594 -103.94238281 29.00683594 C-102.93595531 27.34404267 -101.93652874 25.6770011 -100.94238281 24.00683594 C-98.63702361 21.17753147 -96.29471728 20.33012586 -92.94238281 19.00683594 C-92.61238281 18.34683594 -92.28238281 17.68683594 -91.94238281 17.00683594 C-90.62238281 17.00683594 -89.30238281 17.00683594 -87.94238281 17.00683594 C-87.94238281 16.34683594 -87.94238281 15.68683594 -87.94238281 15.00683594 C-81.94238281 12.00683594 -81.94238281 12.00683594 -78.94238281 10.56933594 C-75.90417688 9.08046455 -75.90417688 9.08046455 -73.23535156 7.04199219 C-69.6696783 4.83829614 -66.28970999 3.79974914 -62.25488281 2.88183594 C-58.41572117 1.97894272 -55.28331403 1.23412341 -51.94238281 -0.99316406 C-45.91542152 -3.06613164 -39.95576567 -3.15565793 -33.64160156 -2.96582031 C-6.34129026 -3.24237918 -6.34129026 -3.24237918 0 0 Z M-47.96972656 25.67480469 C-49.94238281 27.00683594 -49.94238281 27.00683594 -52.81738281 26.49902344 C-58.67163571 25.57697861 -63.22830273 29.87278546 -67.94238281 33.00683594 C-68.55726563 33.40128906 -69.17214844 33.79574219 -69.80566406 34.20214844 C-74.13073098 37.34977126 -76.49390875 41.87683567 -79.20800781 46.36230469 C-80.73109933 48.68467622 -82.16200447 50.39230533 -84.19238281 52.25683594 C-87.39858362 55.46303674 -88.29326292 57.84477146 -89.94238281 62.00683594 C-90.43963867 62.48580322 -90.93689453 62.96477051 -91.44921875 63.45825195 C-94.63286075 66.76005725 -94.86395367 71.9705984 -95.03417969 76.39013672 C-94.98866359 78.79210011 -94.85953146 81.17289084 -94.69238281 83.56933594 C-94.65242188 84.36791016 -94.61246094 85.16648437 -94.57128906 85.98925781 C-94.18527257 92.38982857 -93.56891139 98.56704308 -89.94238281 104.00683594 C-89.54019531 105.33714844 -89.54019531 105.33714844 -89.12988281 106.69433594 C-87.45091993 111.37775871 -85.29825099 116.52746202 -80.95800781 119.25292969 C-78.85053574 120.19839962 -78.85053574 120.19839962 -76.06738281 119.81933594 C-72.94238281 120.00683594 -72.94238281 120.00683594 -70.39160156 122.37402344 C-66.30857118 125.92030859 -61.85463932 126.50173323 -56.62988281 127.31933594 C-55.63964111 127.48320801 -54.64939941 127.64708008 -53.62915039 127.81591797 C-42.47035169 129.4883862 -30.17776306 130.52014692 -18.94238281 129.00683594 C-18.28238281 128.34683594 -17.62238281 127.68683594 -16.94238281 127.00683594 C-15.11852116 126.69516338 -13.28193698 126.45596294 -11.44238281 126.25683594 C-5.7567768 125.40569731 -1.93061112 123.614216 2.80761719 120.43261719 C4.86900128 119.12635817 6.55690245 118.44980328 8.87011719 117.75683594 C15.30287247 114.22512715 17.3827751 105.93617243 19.42871094 99.19042969 C19.63625 98.46984375 19.84378906 97.74925781 20.05761719 97.00683594 C20.27546875 96.3584375 20.49332031 95.71003906 20.71777344 95.04199219 C22.24039663 89.78843801 22.10253759 84.78793582 21.80761719 79.38183594 C21.76926758 78.66511719 21.73091797 77.94839844 21.69140625 77.20996094 C21.30090573 71.67659408 20.77241376 66.12175171 17.18261719 61.69433594 C13.56818795 57.12314601 11.73117803 51.54564219 10.24511719 45.94433594 C6.28847996 36.15686491 -3.1479034 27.81082778 -12.25878906 22.70996094 C-21.78392018 18.99112522 -39.87927271 19.0184968 -47.96972656 25.67480469 Z " fill="#F7F7F7" transform="translate(215.9423828125,228.9931640625)"/>
<path d="M0 0 C1.875 0.75 1.875 0.75 2.875 1.75 C3.03234817 3.16837873 3.1259336 4.59395417 3.19140625 6.01953125 C3.23354248 6.90278076 3.27567871 7.78603027 3.3190918 8.69604492 C3.3581665 9.6419751 3.39724121 10.58790527 3.4375 11.5625 C3.49901245 12.9997644 3.49901245 12.9997644 3.56176758 14.46606445 C3.67460267 17.22713684 3.77738188 19.98835181 3.875 22.75 C3.91882813 23.97460938 3.96265625 25.19921875 4.0078125 26.4609375 C4.24418569 39.32639235 1.30515259 52.73919379 -7.125 62.75 C-7.640625 63.61625 -8.15625 64.4825 -8.6875 65.375 C-12.10581413 71.02264943 -16.92062184 72.9683676 -23.125 74.75 C-25.5426746 74.92401333 -27.8018129 74.89676335 -30.21484375 74.6953125 C-32.46067953 74.59053099 -32.46067953 74.59053099 -35.125 76.75 C-42.83504099 78.15278447 -49.060399 78.21303971 -56.125 74.75 C-55.795 77.39 -55.465 80.03 -55.125 82.75 C-53.805 82.75 -52.485 82.75 -51.125 82.75 C-50.13655049 86.69647618 -50.16308095 90.02392964 -50.5625 94.0625 C-50.66433594 95.13113281 -50.76617188 96.19976562 -50.87109375 97.30078125 C-50.95488281 98.10902344 -51.03867187 98.91726563 -51.125 99.75 C-39.43743776 99.48226716 -39.43743776 99.48226716 -28.2109375 96.56640625 C-25.80342145 95.62413873 -23.37125828 94.9823171 -20.875 94.3125 C-16.82228834 93.11979133 -14.34023333 91.53074234 -11.125 88.75 C-8.79375071 87.74515117 -6.46056463 86.74477753 -4.125 85.75 C-2.24470761 84.21048953 -2.24470761 84.21048953 -1.125 82.75 C-2.383125 82.6675 -3.64125 82.585 -4.9375 82.5 C-7.91089542 82.12568958 -8.87782172 81.96721728 -11.1875 79.9375 C-12.28692618 77.37217225 -12.13016936 76.30861291 -11.125 73.75 C-7.28346512 73.54781395 -3.65801544 73.87498006 0.125 74.5 C0.97578125 74.63921875 1.8265625 74.7784375 2.703125 74.921875 C4.875 75.75 4.875 75.75 6.2265625 77.5 C7.04626102 80.3442551 6.67906047 82.13285579 6 85 C5.79632812 85.89203125 5.59265625 86.7840625 5.3828125 87.703125 C5.21523438 88.37859375 5.04765625 89.0540625 4.875 89.75 C4.215 89.75 3.555 89.75 2.875 89.75 C2.813125 90.636875 2.75125 91.52375 2.6875 92.4375 C1.63495226 96.72865615 0.3328498 97.99783383 -3.125 100.75 C-5.71949036 102.14177312 -8.33498596 103.41932794 -11.015625 104.63671875 C-13.27681344 105.56839608 -13.27681344 105.56839608 -14.125 107.75 C-21.62695445 113.31596621 -30.03059062 114.02597827 -39.0625 114.0625 C-40.32441162 114.07059692 -40.32441162 114.07059692 -41.61181641 114.07885742 C-47.73853198 114.00764534 -47.73853198 114.00764534 -51.125 111.75 C-53.44608669 111.04187186 -55.77877147 110.36975848 -58.125 109.75 C-58.125 106.12 -58.125 102.49 -58.125 98.75 C-59.115 98.75 -60.105 98.75 -61.125 98.75 C-61.310625 100.4515625 -61.310625 100.4515625 -61.5 102.1875 C-62.88212589 113.26425178 -62.88212589 113.26425178 -65.125 117.75 C-65.785 117.75 -66.445 117.75 -67.125 117.75 C-67.125 118.41 -67.125 119.07 -67.125 119.75 C-67.87265625 119.89695312 -68.6203125 120.04390625 -69.390625 120.1953125 C-70.37546875 120.41960937 -71.3603125 120.64390625 -72.375 120.875 C-73.34953125 121.08382812 -74.3240625 121.29265625 -75.328125 121.5078125 C-79.00773085 123.14205085 -79.91637898 125.43498879 -82.125 128.75 C-84.47404516 130.19190495 -86.57286794 131.33828416 -89.0625 132.4375 C-93.9787848 134.697083 -93.9787848 134.697083 -98.703125 137.328125 C-101.38731021 138.90400148 -103.97836911 139.85456379 -106.9375 140.8125 C-107.91332031 141.13347656 -108.88914062 141.45445312 -109.89453125 141.78515625 C-117.81966174 144.15215411 -124.8578715 145.15613115 -133.125 145.4375 C-134.68734375 145.50807617 -134.68734375 145.50807617 -136.28125 145.58007812 C-147.7970998 146.02355466 -157.9730691 145.25927664 -167.125 137.75 C-169.04554261 136.91026484 -170.97522138 136.21635392 -172.96484375 135.55859375 C-178.96932742 133.31098413 -183.12689347 130.24759566 -187.6875 125.875 C-188.23857422 125.35808594 -188.78964844 124.84117187 -189.35742188 124.30859375 C-190.95831215 122.80075641 -192.54406204 121.27871933 -194.125 119.75 C-195.52492188 118.40035156 -195.52492188 118.40035156 -196.953125 117.0234375 C-199.25088343 114.61822993 -200.10682287 112.88285271 -201.125 109.75 C-201.45371094 109.069375 -201.78242188 108.38875 -202.12109375 107.6875 C-206.85885725 93.82447218 -203.83820752 79.27004039 -197.6875 66.5 C-196.84397395 64.91097233 -195.98997193 63.3274564 -195.125 61.75 C-194.71121094 60.9559375 -194.29742187 60.161875 -193.87109375 59.34375 C-191.36740051 54.63460911 -188.59705559 50.78509163 -185.125 46.75 C-184.44322584 45.42432801 -183.77308564 44.09246312 -183.125 42.75 C-182.13213749 41.7429131 -181.13098428 40.74397969 -180.125 39.75 C-179.10024572 38.52410031 -178.07971891 37.29465952 -177.0625 36.0625 C-168.51494625 26.33474008 -158.4897457 19.16962139 -145.28881836 18.05737305 C-142.57336064 17.89771675 -139.8628146 17.81800064 -137.14306641 17.78076172 C-135.15066366 17.7503912 -133.15912784 17.67431489 -131.16796875 17.59765625 C-120.86760779 17.32801329 -120.86760779 17.32801329 -116.125 20.75 C-115.135 21.74 -115.135 21.74 -114.125 22.75 C-112.949375 23.183125 -112.949375 23.183125 -111.75 23.625 C-108.77124905 24.90160755 -107.40410057 26.47089943 -105.125 28.75 C-99.79467245 32.52564868 -95.28303111 33.2920928 -88.86328125 34.1875 C-85.42649256 34.89348798 -83.61989299 36.33070982 -81.125 38.75 C-78.4455355 39.99016669 -78.4455355 39.99016669 -76.125 40.75 C-75.9703125 39.8528125 -75.9703125 39.8528125 -75.8125 38.9375 C-75.03076469 36.45016036 -73.9985926 35.50303972 -72.125 33.75 C-63.75783561 38.37864413 -56.78690389 44.06626814 -52.9140625 52.98828125 C-52.05782402 55.03073594 -52.05782402 55.03073594 -50.125 57.75 C-49.9296875 60.66796875 -49.9296875 60.66796875 -50 63.9375 C-50.01804687 65.02417969 -50.03609375 66.11085938 -50.0546875 67.23046875 C-50.07789063 68.06191406 -50.10109375 68.89335937 -50.125 69.75 C-48.47828588 69.44217504 -46.83264424 69.12860766 -45.1875 68.8125 C-43.81271484 68.55146484 -43.81271484 68.55146484 -42.41015625 68.28515625 C-40.17210156 67.97285012 -40.17210156 67.97285012 -39.125 66.75 C-35.79206516 66.30184266 -32.46032925 65.92983366 -29.11523438 65.58789062 C-25.35698117 65.1649582 -22.42520639 64.58857652 -19.125 62.75 C-18.135 62.75 -17.145 62.75 -16.125 62.75 C-15.898125 62.028125 -15.67125 61.30625 -15.4375 60.5625 C-14.125 57.75 -14.125 57.75 -11.6875 55.75 C-3.74996868 46.4572804 -5.02597519 29.90277677 -5.17578125 18.16796875 C-5.19161255 16.74291016 -5.19161255 16.74291016 -5.20776367 15.2890625 C-5.23552053 13.41507377 -5.27820578 11.54123563 -5.3371582 9.66796875 C-5.35222412 8.81203125 -5.36729004 7.95609375 -5.3828125 7.07421875 C-5.4048877 6.31197998 -5.42696289 5.54974121 -5.44970703 4.7644043 C-4.9226158 1.49445713 -3.38998442 -0.3988217 0 0 Z M-166.125 35.75 C-167.115 36.08 -168.105 36.41 -169.125 36.75 C-170.91859351 38.66533273 -170.91859351 38.66533273 -172.625 41 C-173.23859375 41.80953125 -173.8521875 42.6190625 -174.484375 43.453125 C-176.22440988 45.81467526 -176.22440988 45.81467526 -177.875 48.75 C-179.125 50.75 -179.125 50.75 -182.125 51.75 C-183.1913717 53.7154138 -184.18216532 55.72242441 -185.125 57.75 C-186.28226061 59.6515896 -187.44913924 61.5473554 -188.625 63.4375 C-191.49653821 68.29795625 -193.28444391 72.78161954 -194.51953125 78.27734375 C-195.125 80.75 -195.125 80.75 -196.23046875 82.921875 C-197.62808002 87.34052374 -197.0457461 91.49485482 -196.625 96.0625 C-196.57085937 96.97451172 -196.51671875 97.88652344 -196.4609375 98.82617188 C-195.72150421 107.14479642 -192.20311509 112.20815202 -186 117.625 C-182.02662864 120.27391424 -177.83525525 120.55228896 -173.18359375 121.15625 C-169.14661832 121.9399285 -166.00934794 123.63126476 -162.42578125 125.5859375 C-159.69684502 126.9666217 -157.10821365 127.65273293 -154.1328125 128.28515625 C-151.11112775 128.98472918 -148.22304063 130.03533484 -145.30078125 131.06640625 C-139.73506811 132.81505939 -134.83071398 132.77951821 -129.0625 132.4375 C-128.22138672 132.38972412 -127.38027344 132.34194824 -126.51367188 132.29272461 C-114.76218655 131.9137375 -114.76218655 131.9137375 -104.125 127.75 C-102.61465132 127.42576001 -101.09104024 127.16076992 -99.5625 126.9375 C-91.95019157 125.47060261 -85.34847115 123.03378731 -80.625 116.625 C-78.02915118 112.29131402 -77.1773086 108.1196085 -76.64453125 103.1328125 C-76.04411627 100.3790295 -75.19980497 99.5734755 -73.125 97.75 C-69.5110655 89.4592091 -68.03016238 80.29764677 -71.125 71.75 C-72.06204257 69.7197411 -73.05425408 67.71303418 -74.125 65.75 C-74.79166667 64.41666667 -75.45833333 63.08333333 -76.125 61.75 C-76.785 61.75 -77.445 61.75 -78.125 61.75 C-78.48271484 60.64591797 -78.48271484 60.64591797 -78.84765625 59.51953125 C-80.31405204 56.34009819 -81.93442802 54.72897163 -84.5625 52.4375 C-85.34496094 51.74011719 -86.12742187 51.04273438 -86.93359375 50.32421875 C-89.0813783 48.45828639 -89.0813783 48.45828639 -92.125 48.75 C-92.393125 48.110625 -92.66125 47.47125 -92.9375 46.8125 C-94.01167752 44.41868314 -94.01167752 44.41868314 -97.125 43.75 C-97.125 43.09 -97.125 42.43 -97.125 41.75 C-98.97543427 40.55179216 -100.88290262 39.44105018 -102.8125 38.375 C-105.97782511 36.62035092 -108.88767367 34.94072146 -111.7109375 32.671875 C-115.46385349 29.68411664 -119.49465743 27.96020317 -124.125 26.75 C-127.16504569 27.20673719 -127.16504569 27.20673719 -130.125 28.75 C-132.9539821 29.49403864 -135.79368536 30.18294597 -138.63671875 30.87109375 C-141.2554805 31.79608809 -142.23955603 32.7984001 -144.125 34.75 C-146.8125 34.4375 -146.8125 34.4375 -149.125 33.75 C-147.375 29.875 -147.375 29.875 -145.125 28.75 C-145.125 28.09 -145.125 27.43 -145.125 26.75 C-153.34322655 25.65423646 -160.44538153 30.05406079 -166.125 35.75 Z " fill="#F7F7F7" transform="translate(646.125,236.25)"/>
<path d="M0 0 C10.34423031 -0.11587892 20.68830608 -0.2047078 31.0330534 -0.25906086 C35.83664065 -0.28514854 40.63978366 -0.32053133 45.44311523 -0.37719727 C50.07913894 -0.43154682 54.71473552 -0.46142677 59.35105324 -0.47438622 C61.11932919 -0.48362084 62.8875819 -0.50165429 64.65567589 -0.52865028 C67.13383766 -0.56498111 69.61023757 -0.56994387 72.08862305 -0.56762695 C72.81870575 -0.58560333 73.54878845 -0.60357971 74.30099487 -0.62210083 C78.21619727 -0.58252697 79.82995628 -0.14069736 82.88728333 2.38899231 C86.90740704 7.35727512 88.45395871 11.16547836 89.5625 17.5 C90.40909675 22.55913525 90.40909675 22.55913525 92.0234375 27.39453125 C93.47003329 31.25404881 93.7131396 35.0983269 94.0625 39.1875 C94.14628906 40.11933105 94.23007812 41.05116211 94.31640625 42.01123047 C95.18645425 52.64382883 95.40136347 63.30607921 95.57055664 73.96948242 C95.74192273 83.11157657 96.08414026 92.25242079 99 101 C99.08869803 102.65690643 99.11928131 104.31721075 99.11593628 105.97648621 C99.11612259 107.00398987 99.1163089 108.03149353 99.11650085 109.09013367 C99.11141006 110.21692032 99.10631927 111.34370697 99.10107422 112.50463867 C99.09949814 113.69191559 99.09792206 114.8791925 99.09629822 116.10244751 C99.08878909 120.04099339 99.07290378 123.97946215 99.0546875 127.91796875 C99.04889482 129.27581585 99.04312837 130.63366307 99.03738785 131.99151039 C99.01271089 137.64220813 98.98516537 143.29287923 98.95004082 148.94352245 C98.89985822 157.029968 98.86642494 165.11607621 98.85675228 173.20267504 C98.84859055 178.89467502 98.82138149 184.58639412 98.78014576 190.27824956 C98.75602429 193.67453193 98.74006388 197.0703815 98.74441147 200.46675682 C98.744591 204.26118642 98.71364623 208.05417955 98.67529297 211.84838867 C98.68234756 212.96505417 98.68940216 214.08171967 98.69667053 215.23222351 C98.58646571 222.09244861 97.48323875 226.69782889 93 232 C89.71875 235 89.71875 235 87 235 C87 235.66 87 236.32 87 237 C85.82244141 237.29003906 85.82244141 237.29003906 84.62109375 237.5859375 C83.57050781 237.84632813 82.51992188 238.10671875 81.4375 238.375 C80.40496094 238.63023437 79.37242187 238.88546875 78.30859375 239.1484375 C76.07192437 239.72410919 73.84850179 240.35348317 71.640625 241.03125 C67.52202342 242.1271869 63.54534324 242.7023226 59.3125 243.125 C58.46526367 243.21064209 57.61802734 243.29628418 56.74511719 243.38452148 C47.87513917 244.17529883 39.02687525 244.10733085 30.12915039 244.03173828 C21.36777671 243.96276538 12.729033 244.24095365 4 245 C4 243.35 4 241.7 4 240 C9.93703127 237.50917653 15.22571741 236.34208325 21.625 235.8125 C22.53741455 235.72991943 23.4498291 235.64733887 24.38989258 235.56225586 C30.84187497 235.03336868 37.21871239 234.95744122 43.6875 235.0625 C52.24605887 235.18845263 60.61779723 234.6309092 69.125 233.6875 C70.24608154 233.56963135 71.36716309 233.4517627 72.5222168 233.33032227 C73.56933838 233.20455811 74.61645996 233.07879395 75.6953125 232.94921875 C76.62359863 232.83924561 77.55188477 232.72927246 78.50830078 232.6159668 C81.29886193 231.92611908 82.75508322 230.74260114 85 229 C85.99 229 86.98 229 88 229 C88.4803318 227.41701974 88.95921612 225.83360022 89.4375 224.25 C89.70433594 223.36828125 89.97117187 222.4865625 90.24609375 221.578125 C90.49488281 220.72734375 90.74367188 219.8765625 91 219 C91.18377197 218.38979004 91.36754395 217.77958008 91.55688477 217.15087891 C92.06874258 214.66632389 92.00073193 212.53890968 91.84375 210.0078125 C91.79089844 209.05519531 91.73804688 208.10257813 91.68359375 207.12109375 C91.56167485 205.13148113 91.43928276 203.14189745 91.31640625 201.15234375 C91.23712891 199.71955078 91.23712891 199.71955078 91.15625 198.2578125 C91.07600586 196.96061279 91.07600586 196.96061279 90.99414062 195.63720703 C91.00074689 192.6638353 91.50338505 189.92894243 92 187 C92.06572472 185.09086114 92.08570582 183.17966015 92.0625 181.26953125 C92.05476562 180.21958984 92.04703125 179.16964844 92.0390625 178.08789062 C92.02617187 177.00701172 92.01328125 175.92613281 92 174.8125 C91.97451202 172.65239366 91.95347189 170.49222891 91.9375 168.33203125 C91.92589844 167.38046143 91.91429687 166.4288916 91.90234375 165.44848633 C92 163 92 163 93 160 C92.34 160 91.68 160 91 160 C90.874342 146.31724029 91.11053376 132.68935547 91.73217773 119.01855469 C91.78059814 117.87290039 91.82901855 116.72724609 91.87890625 115.546875 C91.9260376 114.52432617 91.97316895 113.50177734 92.02172852 112.44824219 C92.17918094 109.99231345 92.17918094 109.99231345 91 108 C90.76649933 104.5197281 90.60636332 101.04602226 90.48242188 97.56054688 C90.25950348 92.76149235 89.47977772 88.60812911 88 84 C87.15747315 81.06816872 86.84237662 78.39350093 86.75048828 75.34594727 C86.72020538 74.42721329 86.68992249 73.50847931 86.65872192 72.56190491 C86.61495926 71.07913307 86.61495926 71.07913307 86.5703125 69.56640625 C86.49658712 67.45115462 86.42235157 65.33592072 86.34765625 63.22070312 C86.23482899 59.90353275 86.12571885 56.58638682 86.02587891 53.26879883 C85.69893429 34.4310093 85.69893429 34.4310093 80.91064453 16.34594727 C79.90009685 13.74263556 79.84183231 11.76793461 80 9 C78.72382813 9.01160156 77.44765625 9.02320312 76.1328125 9.03515625 C74.46354313 9.04453417 72.79427217 9.05363437 71.125 9.0625 C69.86236328 9.07506836 69.86236328 9.07506836 68.57421875 9.08789062 C67.76855469 9.09111328 66.96289062 9.09433594 66.1328125 9.09765625 C65.38918457 9.10289307 64.64555664 9.10812988 63.87939453 9.11352539 C62 9 62 9 60 8 C58.53149906 7.84720904 57.05693744 7.75061485 55.58203125 7.68359375 C54.21183838 7.62051025 54.21183838 7.62051025 52.81396484 7.55615234 C51.82348145 7.51699707 50.83299805 7.4778418 49.8125 7.4375 C48.28036865 7.3748999 48.28036865 7.3748999 46.71728516 7.31103516 C19.63250732 6.00301592 19.63250732 6.00301592 -7 10 C-10 10.125 -10 10.125 -12 10 C-12 10.66 -12 11.32 -12 12 C-13.11117187 12.18175781 -14.22234375 12.36351563 -15.3671875 12.55078125 C-29.26925062 14.87691694 -43.34269823 17.59589872 -55 26 C-56.36125 26.804375 -56.36125 26.804375 -57.75 27.625 C-60.35961648 29.21976563 -61.7301291 30.32532274 -62.875 33.1875 C-64 36 -64 36 -65.9375 39.25 C-67.89072314 42.58705651 -69.06726207 45.93475599 -70.22265625 49.61328125 C-71.59570838 53.82903429 -73.2955232 57.90925567 -75 62 C-75.33128906 62.79921875 -75.66257813 63.5984375 -76.00390625 64.421875 C-77.48298297 67.87885431 -78.9542522 70.93207145 -81.0625 74.0625 C-89.08608059 86.22728347 -92.81983288 104.44496928 -90.375 118.625 C-87.34860784 126.05341712 -83.10529021 132.29301429 -77.61328125 138.11328125 C-71.31495209 145.47912383 -67.53821321 155.4235619 -64.125 164.375 C-62.14715348 169.53912107 -59.84007048 174.25694153 -57 179 C-52.82667808 186.01943899 -49.77566233 193.33297287 -47 201 C-46.70706055 201.80872559 -46.41412109 202.61745117 -46.11230469 203.45068359 C-43.07241401 211.90030642 -40.10568598 220.32034333 -37.765625 228.99438477 C-37.1247488 231.23436965 -37.1247488 231.23436965 -34.6875 232.625 C-28.81330386 233.44465528 -23.85962644 232.75336365 -18.16796875 231.25390625 C-10.24033983 229.41486258 -10.24033983 229.41486258 -6.44140625 231.20703125 C-4.47717799 232.70208556 -2.70868997 234.22095221 -1 236 C-2.625 238 -2.625 238 -5 240 C-8.125 240.125 -8.125 240.125 -11 240 C-11.66 240.66 -12.32 241.32 -13 242 C-21.26309616 243.33231285 -31.35333466 243.5726332 -39.3125 240.87890625 C-46.97968611 235.11520558 -48.68788277 223.81616951 -51 215 C-51.5741324 212.97653339 -52.15507296 210.95495061 -52.75 208.9375 C-52.95109375 208.20402344 -53.1521875 207.47054687 -53.359375 206.71484375 C-53.94923181 204.7741419 -53.94923181 204.7741419 -56 203 C-57.10321446 200.20748839 -58.04163154 197.37640637 -59 194.53125 C-59.85246096 191.88231552 -59.85246096 191.88231552 -62 190 C-62.70442291 188.1215389 -63.40467396 186.24134858 -64.078125 184.3515625 C-65.0913729 181.76692167 -66.29438945 179.34408583 -67.5625 176.875 C-69.3931601 173.30085408 -70.75414289 169.82062848 -72 166 C-73.23049784 163.27835699 -74.6121671 160.64413916 -76 158 C-76.45632812 157.09378906 -76.91265625 156.18757812 -77.3828125 155.25390625 C-79.61331029 150.95056365 -81.64065375 147.04072189 -85.1875 143.6875 C-88.10681707 140.89793036 -89.33462813 138.63353863 -91 135 C-91.66 134.030625 -92.32 133.06125 -93 132.0625 C-99.48857495 122.1268696 -100.60065311 113.06550146 -98.60546875 101.58984375 C-98 99 -98 99 -97 98 C-96.835 96.845 -96.67 95.69 -96.5 94.5 C-96 91 -96 91 -95 90 C-94.57918426 86.80271519 -94.22783346 83.6016769 -93.890625 80.39453125 C-92.97406651 76.90115701 -91.70021947 75.1897795 -89.29248047 72.55639648 C-87.07217338 69.88271728 -85.8167432 66.79049599 -84.4375 63.625 C-82.59120087 59.50968849 -80.74420236 55.42160043 -78.625 51.4375 C-77.07738783 48.16370503 -76.57491127 45.53159779 -76 42 C-75.52691406 41.53980469 -75.05382812 41.07960937 -74.56640625 40.60546875 C-72.69264287 38.6849781 -72.23485482 37.1882436 -71.5 34.625 C-69.26543947 27.45578496 -65.85225501 23.29002482 -59.9375 18.8125 C-59.24527344 18.28269531 -58.55304688 17.75289062 -57.83984375 17.20703125 C-56 16 -56 16 -54 16 C-54 15.34 -54 14.68 -54 14 C-52.19015625 13.51080078 -52.19015625 13.51080078 -50.34375 13.01171875 C-48.72911276 12.57050974 -47.11453245 12.12909234 -45.5 11.6875 C-44.70851563 11.47416016 -43.91703125 11.26082031 -43.1015625 11.04101562 C-39.28783227 9.99380282 -35.59283974 8.87829865 -31.921875 7.40234375 C-27.90542793 5.84757388 -24.0184712 5.28886318 -19.75 4.875 C-15.7602842 4.45229777 -11.89481361 3.98224466 -8 3 C-6.58465222 2.93543121 -5.16662311 2.91388961 -3.75 2.9375 C-1.89375 2.9684375 -1.89375 2.9684375 0 3 C0 2.01 0 1.02 0 0 Z " fill="#F6F6F6" transform="translate(319,62)"/>
<path d="M0 0 C1.1029113 -0.0049926 1.1029113 -0.0049926 2.22810364 -0.01008606 C3.77014547 -0.01511507 5.31219803 -0.01749564 6.85424805 -0.01733398 C9.21095466 -0.01953491 11.56720319 -0.03777194 13.92382812 -0.05664062 C15.42838383 -0.05957255 16.93294174 -0.06155869 18.4375 -0.0625 C19.13860397 -0.06968552 19.83970795 -0.07687103 20.5620575 -0.08427429 C24.31003609 -0.06674469 26.81108559 0.25119872 30.01953125 2.16796875 C36.22100317 5.45025245 41.37007525 5.53789354 48.31640625 5.390625 C49.92228607 5.37714272 49.92228607 5.37714272 51.56060791 5.36338806 C54.96391942 5.33347754 58.36650988 5.28366352 61.76953125 5.23046875 C65.18678198 5.18266663 68.60385608 5.13936199 72.02130127 5.10826111 C74.1437759 5.08847424 76.26618601 5.05881274 78.3883667 5.01832581 C79.34656311 5.00849167 80.30475952 4.99865753 81.29199219 4.98852539 C82.13469666 4.97503555 82.97740112 4.96154572 83.84564209 4.94764709 C86.01953125 5.16796875 86.01953125 5.16796875 89.01953125 7.16796875 C92.23302043 7.68384661 95.42258999 8.05017039 98.65820312 8.37890625 C103.81782513 8.96626263 103.81782513 8.96626263 106.01953125 11.16796875 C108.68195946 11.63087096 108.68195946 11.63087096 111.64453125 11.79296875 C112.64742188 11.86773437 113.6503125 11.9425 114.68359375 12.01953125 C115.83988281 12.09300781 115.83988281 12.09300781 117.01953125 12.16796875 C117.01953125 12.82796875 117.01953125 13.48796875 117.01953125 14.16796875 C117.70015625 14.39484375 118.38078125 14.62171875 119.08203125 14.85546875 C123.56890715 16.86024309 127.82115501 19.2401461 130.45703125 23.48046875 C130.64265625 24.03734375 130.82828125 24.59421875 131.01953125 25.16796875 C129.83203125 27.16796875 129.83203125 27.16796875 128.01953125 29.16796875 C125.64453125 29.73046875 125.64453125 29.73046875 123.01953125 29.16796875 C120.33203125 26.73046875 120.33203125 26.73046875 118.01953125 24.16796875 C117.35953125 23.83796875 116.69953125 23.50796875 116.01953125 23.16796875 C116.01953125 22.17796875 116.01953125 21.18796875 116.01953125 20.16796875 C115.13265625 20.04421875 114.24578125 19.92046875 113.33203125 19.79296875 C110.31565623 19.22384139 107.81627071 18.40182439 105.01953125 17.16796875 C105.01953125 16.50796875 105.01953125 15.84796875 105.01953125 15.16796875 C103.82457031 15.18537109 103.82457031 15.18537109 102.60546875 15.203125 C101.54585938 15.21214844 100.48625 15.22117187 99.39453125 15.23046875 C97.82832031 15.24787109 97.82832031 15.24787109 96.23046875 15.265625 C93.01953125 15.16796875 93.01953125 15.16796875 90.2578125 14.69921875 C85.79218169 13.96661828 81.34965311 13.79310655 76.83203125 13.60546875 C75.84549561 13.56446045 74.85895996 13.52345215 73.8425293 13.48120117 C65.67360388 13.17398393 57.50638702 13.02950937 49.33203125 12.98046875 C48.16841064 12.96749756 47.00479004 12.95452637 45.8059082 12.94116211 C44.71753662 12.93995361 43.62916504 12.93874512 42.5078125 12.9375 C41.54399658 12.93339111 40.58018066 12.92928223 39.5871582 12.92504883 C36.89540986 13.17971172 35.38241401 13.92689866 33.01953125 15.16796875 C30.68749313 15.24570335 28.35114066 15.25764603 26.01953125 15.16796875 C26.01953125 14.50796875 26.01953125 13.84796875 26.01953125 13.16796875 C25.35953125 13.16796875 24.69953125 13.16796875 24.01953125 13.16796875 C24.01953125 11.84796875 24.01953125 10.52796875 24.01953125 9.16796875 C7.72359589 7.83400944 -8.90643625 7.75239397 -24.98046875 11.16796875 C-24.98046875 12.15796875 -24.98046875 13.14796875 -24.98046875 14.16796875 C-30.37920482 17.84370394 -34.43584311 19.02466867 -40.98046875 18.16796875 C-41.31046875 17.83796875 -41.64046875 17.50796875 -41.98046875 17.16796875 C-44.04002223 17.04127233 -46.10455493 16.99212646 -48.16796875 16.98046875 C-49.29589844 16.96628906 -50.42382812 16.95210937 -51.5859375 16.9375 C-55.06329402 17.1735921 -57.70181467 18.04025108 -60.98046875 19.16796875 C-62.93392413 19.35426558 -64.89426783 19.47674638 -66.85546875 19.54296875 C-72.23737114 19.88939005 -77.26235505 20.75135645 -82.48046875 22.04296875 C-83.15062012 22.20458496 -83.82077148 22.36620117 -84.51123047 22.53271484 C-88.47055706 23.55920692 -91.51310642 25.05540362 -94.98046875 27.16796875 C-96.71612359 27.60457758 -98.46904866 27.97591313 -100.23046875 28.29296875 C-108.23447025 30.13468551 -115.06421831 34.1545007 -122.15625 38.16235352 C-123.98046875 39.16796875 -123.98046875 39.16796875 -126.0859375 40.10913086 C-128.30437903 41.16016783 -128.30437903 41.16016783 -129.98046875 44.16796875 C-130.97046875 44.47734375 -131.96046875 44.78671875 -132.98046875 45.10546875 C-136.08995124 45.86346459 -136.08995124 45.86346459 -137.35546875 48.29296875 C-137.56171875 48.91171875 -137.76796875 49.53046875 -137.98046875 50.16796875 C-138.64046875 50.16796875 -139.30046875 50.16796875 -139.98046875 50.16796875 C-139.98046875 50.82796875 -139.98046875 51.48796875 -139.98046875 52.16796875 C-142.47101947 54.14763727 -145.02281738 55.97835128 -147.62695312 57.80273438 C-151.15777557 60.30395613 -151.15777557 60.30395613 -152.98046875 64.16796875 C-155.34375 65.74609375 -155.34375 65.74609375 -158.29296875 67.41796875 C-163.39570638 70.53374128 -165.50652189 72.80775055 -167.98046875 78.16796875 C-168.45226562 78.63847656 -168.9240625 79.10898438 -169.41015625 79.59375 C-171.25152739 81.43970166 -172.35084246 83.32328044 -173.60546875 85.60546875 C-174.03085938 86.36730469 -174.45625 87.12914063 -174.89453125 87.9140625 C-176.04589592 90.08482757 -176.04589592 90.08482757 -176.44921875 92.2734375 C-177.7243364 96.82073206 -182.84597986 99.48990231 -186.6796875 101.78125 C-189.42488901 103.29054906 -192.18880084 104.74667886 -194.98046875 106.16796875 C-196.03234375 106.70421875 -197.08421875 107.24046875 -198.16796875 107.79296875 C-199.09609375 108.24671875 -200.02421875 108.70046875 -200.98046875 109.16796875 C-201.59277344 109.49667969 -202.20507812 109.82539063 -202.8359375 110.1640625 C-206.32177975 112.00474903 -209.49182638 113.3905465 -213.35546875 114.23046875 C-217.21609508 114.79919377 -217.21609508 114.79919377 -218.98046875 118.16796875 C-222.1328125 119.265625 -222.1328125 119.265625 -225.91796875 120.23046875 C-231.21956143 121.58116553 -231.21956143 121.58116553 -235.98046875 124.16796875 C-238.27469409 124.9858744 -240.59057108 125.68235106 -242.921875 126.38671875 C-245.16171117 127.07573904 -245.16171117 127.07573904 -246.98046875 129.16796875 C-248.49640625 129.57015625 -248.49640625 129.57015625 -250.04296875 129.98046875 C-261.26437032 133.01140402 -271.92340441 141.38405669 -279.54296875 149.91796875 C-280.98046875 151.16796875 -280.98046875 151.16796875 -283.98046875 151.16796875 C-284.47546875 153.14796875 -284.47546875 153.14796875 -284.98046875 155.16796875 C-286.63661532 155.55015642 -288.30503899 155.88191977 -289.98046875 156.16796875 C-290.98046875 155.16796875 -290.98046875 155.16796875 -291.29296875 151.35546875 C-291.26393668 148.12129621 -291.12941295 147.36656101 -289.10546875 144.66796875 C-286.98046875 143.16796875 -286.98046875 143.16796875 -284.98046875 143.16796875 C-284.65046875 142.17796875 -284.32046875 141.18796875 -283.98046875 140.16796875 C-281.37804461 138.5197668 -280.11798096 138.16796875 -276.98046875 138.16796875 C-276.65046875 137.17796875 -276.32046875 136.18796875 -275.98046875 135.16796875 C-274.99046875 135.16796875 -274.00046875 135.16796875 -272.98046875 135.16796875 C-272.65046875 134.17796875 -272.32046875 133.18796875 -271.98046875 132.16796875 C-267.31091509 127.26493741 -263.6669875 126.33141699 -256.98046875 126.16796875 C-256.48546875 124.68296875 -256.48546875 124.68296875 -255.98046875 123.16796875 C-254.23046875 122.10546875 -254.23046875 122.10546875 -251.98046875 121.16796875 C-251.16707031 120.82894531 -250.35367188 120.48992187 -249.515625 120.140625 C-246.43051066 118.95696788 -243.32039188 117.89631941 -240.17578125 116.8828125 C-235.61384582 115.39734242 -231.1946711 113.78745974 -226.91796875 111.60546875 C-223.98046875 110.16796875 -223.98046875 110.16796875 -220.23046875 109.10546875 C-216.92616536 108.43594716 -216.92616536 108.43594716 -214.98046875 106.16796875 C-213.17578125 105.38671875 -213.17578125 105.38671875 -211.10546875 104.66796875 C-208.8742812 103.87599767 -206.87777725 103.11222194 -204.79296875 101.98046875 C-202.45053946 100.93041424 -200.51634473 101.02708675 -197.98046875 101.16796875 C-197.63822266 100.27464844 -197.63822266 100.27464844 -197.2890625 99.36328125 C-195.62040383 96.56391954 -193.87027639 95.62891812 -191.04296875 94.04296875 C-190.16769531 93.54539062 -189.29242188 93.0478125 -188.390625 92.53515625 C-187.19759766 91.85839844 -187.19759766 91.85839844 -185.98046875 91.16796875 C-182.41869594 88.79345354 -181.81350776 86.9806899 -179.98046875 83.16796875 C-179.29984375 82.15734375 -178.61921875 81.14671875 -177.91796875 80.10546875 C-175.95254888 77.372663 -175.95254888 77.372663 -175.12890625 74.828125 C-173.74391183 71.62002569 -171.90663321 69.34684118 -169.66796875 66.66796875 C-168.90871094 65.75015625 -168.14945312 64.83234375 -167.3671875 63.88671875 C-160.61961283 56.20044712 -160.61961283 56.20044712 -155.73046875 53.85546875 C-149.297981 50.45697106 -144.33948421 45.52698421 -139.23046875 40.41796875 C-134.79433775 35.98183775 -130.74244491 33.62214378 -124.98046875 31.16796875 C-124.54863281 30.69746094 -124.11679688 30.22695313 -123.671875 29.7421875 C-121.25237274 27.49031819 -118.62889899 26.68486802 -115.54296875 25.54296875 C-114.40988281 25.11757813 -113.27679688 24.6921875 -112.109375 24.25390625 C-109.73142495 23.42860024 -107.43345309 22.71039772 -104.98046875 22.16796875 C-104.98046875 21.50796875 -104.98046875 20.84796875 -104.98046875 20.16796875 C-104.0884375 19.90242188 -103.19640625 19.636875 -102.27734375 19.36328125 C-101.106875 19.01007812 -99.93640625 18.656875 -98.73046875 18.29296875 C-97.5703125 17.94492187 -96.41015625 17.596875 -95.21484375 17.23828125 C-92.14331409 16.32763333 -92.14331409 16.32763333 -90.11328125 15.15429688 C-87.58423015 13.98472654 -85.384976 13.65747905 -82.62109375 13.31640625 C-81.58726562 13.1875 -80.5534375 13.05859375 -79.48828125 12.92578125 C-78.41320312 12.79945312 -77.338125 12.673125 -76.23046875 12.54296875 C-74.64105469 12.341875 -74.64105469 12.341875 -73.01953125 12.13671875 C-67.28583356 11.4395694 -61.75206934 11.07656331 -55.98046875 11.16796875 C-53.97325952 10.88122457 -51.96868188 10.56561138 -49.98046875 10.16796875 C-49.98046875 9.50796875 -49.98046875 8.84796875 -49.98046875 8.16796875 C-48.67335938 8.14669922 -48.67335938 8.14669922 -47.33984375 8.125 C-39.58739655 7.81456651 -33.75348061 6.55860456 -26.73046875 3.30859375 C-23.50982155 1.97275713 -20.6699781 1.50191338 -17.2109375 1.30859375 C-14.81941552 1.19298885 -14.81941552 1.19298885 -11.83984375 0.66967773 C-7.87318953 0.15402272 -3.99132691 0.00639056 0 0 Z " fill="#F4F4F4" transform="translate(339.98046875,25.83203125)"/>
<path d="M0 0 C2.14449699 0.22166676 4.29038797 0.43028641 6.4375 0.625 C7.36433594 0.72039062 8.29117188 0.81578125 9.24609375 0.9140625 C11.99731506 1.09533105 11.99731506 1.09533105 14.65429688 0.52246094 C20.89996209 -0.45285456 27.24840714 -0.30410417 33.55883789 -0.35009766 C35.22987739 -0.36671843 36.90084406 -0.3940885 38.5715332 -0.43212891 C40.99727725 -0.4869399 43.42137632 -0.50876581 45.84765625 -0.5234375 C46.59048355 -0.54610687 47.33331085 -0.56877625 48.09864807 -0.59213257 C52.06192168 -0.57601927 53.79893741 -0.16093381 56.9309082 2.34594727 C67.27553865 15.61514816 67.65431255 42.50589969 66.125 58.375 C65.98771484 59.95474609 65.98771484 59.95474609 65.84765625 61.56640625 C64.96816561 71.33990086 64.96816561 71.33990086 64 75 C63.01 75.495 63.01 75.495 62 76 C61.67 76.99 61.34 77.98 61 79 C59.96875 79.12375 58.9375 79.2475 57.875 79.375 C54.15231551 79.84739175 54.15231551 79.84739175 51.37109375 80.97265625 C47.0000196 82.3047449 42.72577434 82.66741934 38.1875 83.0625 C36.47229944 83.216119 34.7574272 83.37346531 33.04296875 83.53515625 C32.29039795 83.600979 31.53782715 83.66680176 30.76245117 83.73461914 C28.97697347 83.8250469 28.97697347 83.8250469 28 85 C25.5 85.125 25.5 85.125 23 85 C22.67 84.67 22.34 84.34 22 84 C14.01256594 82.90781738 5.96355193 82.87278443 -2.08203125 82.9375 C-3.72965706 82.94317993 -3.72965706 82.94317993 -5.41056824 82.94897461 C-8.87792131 82.96106345 -12.34518593 82.97969645 -15.8125 83 C-20.40234154 83.0266722 -24.99214115 83.04660786 -29.58203125 83.0625 C-30.62382034 83.07079834 -31.66560944 83.07909668 -32.7389679 83.08764648 C-38.67099175 83.10760457 -44.38960764 83.06188011 -50.125 81.375 C-52.07125585 80.86029619 -52.07125585 80.86029619 -54.30126953 81.46386719 C-58.79894167 82.35737976 -63.30256816 82.2258392 -67.875 82.25 C-68.84308594 82.270625 -69.81117188 82.29125 -70.80859375 82.3125 C-77.5895984 82.34940343 -82.27777394 81.63057524 -87.91796875 77.64453125 C-90.29610338 74.03011002 -89.34945373 69.14013821 -89 65 C-88.07657953 61.30631812 -87.11148106 59.1672216 -85 56 C-84.19221932 52.95496288 -83.53945635 49.89255075 -82.87890625 46.8125 C-81.95780602 43.86497926 -81.16624641 43.05400567 -79 41 C-78.06154761 38.71577288 -78.06154761 38.71577288 -77.3125 36.125 C-75.26713947 30.14809045 -72.20072984 25.12113331 -68.8046875 19.84765625 C-67.37923512 17.59840347 -66.12536861 15.40736069 -65 13 C-64.34 13 -63.68 13 -63 13 C-62.896875 12.401875 -62.79375 11.80375 -62.6875 11.1875 C-61.86730065 8.57777481 -61.29783199 7.50547613 -59 6 C-58.11183594 6.15726562 -57.22367187 6.31453125 -56.30859375 6.4765625 C-52.68076245 7.05050511 -49.86715738 6.76674525 -46.25 6.1875 C-44.55617188 5.93033203 -44.55617188 5.93033203 -42.828125 5.66796875 C-39.88368636 5.23410937 -39.88368636 5.23410937 -38 3 C-36.33382885 2.95936168 -34.66611905 2.957279 -33 3 C-32.67 2.67 -32.34 2.34 -32 2 C-21.11913769 -0.26124916 -11.08106287 -1.47170366 0 0 Z M2 11 C1.67 11.33 1.34 11.66 1 12 C-2.06390865 12.36351459 -5.11483286 12.66903041 -8.1875 12.9375 C-9.58718018 13.06608398 -9.58718018 13.06608398 -11.01513672 13.19726562 C-15.97602119 13.65088897 -20.93873732 14.08124288 -25.90234375 14.50390625 C-38.51072561 15.53718482 -38.51072561 15.53718482 -50.9765625 17.6328125 C-53 18 -53 18 -57 18 C-57.33 17.67 -57.66 17.34 -58 17 C-59.66617115 16.95936168 -61.33388095 16.957279 -63 17 C-63.103125 18.093125 -63.20625 19.18625 -63.3125 20.3125 C-64.05257732 24.28200561 -64.38568344 24.39888706 -67 27 C-67.85367894 29.06078952 -67.85367894 29.06078952 -68.4375 31.3125 C-69.6906425 35.41854139 -71.59636629 38.4359914 -74 42 C-74 43.32 -74 44.64 -74 46 C-75.485 46.495 -75.485 46.495 -77 47 C-77.88962402 49.55944981 -77.88962402 49.55944981 -78.4375 52.625 C-79.28562239 56.4325282 -80.08090013 59.58158331 -82.1875 62.875 C-84.16162081 66.27865657 -84.37677716 68.13803409 -84 72 C-75.45980601 76.75313964 -63.99806635 75.0731657 -54.52978516 74.87548828 C-53.13832275 74.85784424 -53.13832275 74.85784424 -51.71875 74.83984375 C-50.88279297 74.82300537 -50.04683594 74.80616699 -49.18554688 74.78881836 C-47 75 -47 75 -44 77 C-41.09993117 77.18464344 -38.29727968 77.25214711 -35.39770508 77.22705078 C-34.51944565 77.22734283 -33.64118622 77.22763489 -32.73631287 77.22793579 C-29.83061882 77.2265414 -26.92518055 77.210975 -24.01953125 77.1953125 C-22.00599813 77.19158276 -19.9924632 77.1887356 -17.97892761 77.18673706 C-12.67704261 77.17909753 -7.37526703 77.15944626 -2.07342529 77.1373291 C3.33580037 77.11687758 8.7450437 77.10773683 14.15429688 77.09765625 C24.76957935 77.07620071 35.38478058 77.04206087 46 77 C46.33 76.34 46.66 75.68 47 75 C48.6173974 74.73912945 50.24506586 74.54035564 51.875 74.375 C55.6766007 73.76458305 55.6766007 73.76458305 58.36328125 71.234375 C59.87875809 67.35590348 60.0858531 65.01331304 59 61 C59.33 60.67 59.66 60.34 60 60 C61.45390046 50.10172818 60.93197161 40.77895218 59 31 C58.67 30.67 58.34 30.34 58 30 C57.3761148 26.39574757 56.80142325 22.79044588 56.28125 19.16992188 C55.94883662 17.09587458 55.4817895 15.04451699 55 13 C51.83057116 10.88704744 51.00370047 10.74749071 47.375 10.8125 C46.57835937 10.81894531 45.78171875 10.82539062 44.9609375 10.83203125 C42.99710266 10.78817102 42.99710266 10.78817102 42 12 C39.66706666 12.04320247 37.3329866 12.04022391 35 12 C33.25777309 12 31.51544728 12.00765083 29.7734375 12.03515625 C28.98195313 12.04417969 28.19046875 12.05320312 27.375 12.0625 C26.57835937 12.07410156 25.78171875 12.08570312 24.9609375 12.09765625 C23 12 23 12 22 11 C20.12678052 10.83946185 20.12678052 10.83946185 18 10.875 C17.278125 10.87242188 16.55625 10.86984375 15.8125 10.8671875 C13.97910585 10.80304724 13.97910585 10.80304724 13 12 C10.67182036 12.36760731 8.3381615 12.70241581 6 13 C6 12.34 6 11.68 6 11 C4.68 11 3.36 11 2 11 Z " fill="#F7F7F7" transform="translate(337,79)"/>
<path d="M0 0 C2.1151535 2.07447747 2.87518478 3.73081917 3.625 6.59375 C3.19086182 10.71127931 1.81825846 13.03503187 -0.6875 16.28125 C-3.77362359 20.50569786 -5.80601901 24.5463511 -7.55078125 29.46484375 C-8.375 31.59375 -8.375 31.59375 -10.375 34.59375 C-10.85805228 36.47849157 -11.28999283 38.37662974 -11.6875 40.28125 C-12.82949524 45.06156173 -14.27038717 48.57308789 -17.04296875 52.59375 C-20.70659731 58.09456472 -23.53921744 64.25195571 -25.375 70.59375 C-26.365 70.59375 -27.355 70.59375 -28.375 70.59375 C-28.4575 71.150625 -28.54 71.7075 -28.625 72.28125 C-29.94963358 76.36553686 -32.07483427 78.91116299 -35.875 80.90625 C-41.9769888 82.10485494 -48.24283699 83.10646873 -54.01171875 80.3203125 C-55.52178427 79.29696231 -57.00200167 78.22712369 -58.4375 77.1015625 C-60.31504169 75.52508953 -60.31504169 75.52508953 -62.515625 74.59375 C-65.08776879 73.21041216 -65.82211229 71.25989932 -66.83984375 68.6015625 C-67.76638862 65.12532845 -67.67428815 62.18520782 -67.375 58.59375 C-66.715 57.60375 -66.055 56.61375 -65.375 55.59375 C-65.395625 54.8925 -65.41625 54.19125 -65.4375 53.46875 C-65.34530361 49.22771607 -63.8227888 45.54931584 -62.375 41.59375 C-61.385 41.59375 -60.395 41.59375 -59.375 41.59375 C-59.2925 40.8925 -59.21 40.19125 -59.125 39.46875 C-58.19891569 35.91876013 -56.50374711 33.56109446 -54.375 30.59375 C-52.38333085 27.69166688 -52.38333085 27.69166688 -50.875 24.90625 C-50.38 24.143125 -49.885 23.38 -49.375 22.59375 C-48.715 22.59375 -48.055 22.59375 -47.375 22.59375 C-47.0346875 21.789375 -47.0346875 21.789375 -46.6875 20.96875 C-43.27727627 14.79786897 -39.67214283 11.98984281 -33.52734375 8.8203125 C-30.64240528 7.17626408 -28.57404576 5.05934676 -26.375 2.59375 C-20.07520495 -3.70604505 -7.63398285 -4.52012143 0 0 Z M-17.9375 14.09375 C-22.4436041 15.12039846 -26.21642854 15.69843187 -30.8125 15.28125 C-33.8493756 15.16655683 -34.96490384 15.27847376 -37.40234375 17.15234375 C-39.24408674 19.21213664 -40.83058925 21.3040472 -42.375 23.59375 C-43.096875 24.645625 -43.81875 25.6975 -44.5625 26.78125 C-45.160625 27.709375 -45.75875 28.6375 -46.375 29.59375 C-47.07625 30.439375 -47.7775 31.285 -48.5 32.15625 C-50.38779164 34.61037914 -51.29529756 36.7145435 -52.375 39.59375 C-53.3623454 41.26794438 -54.36312105 42.93426852 -55.375 44.59375 C-59.11032921 50.86910307 -60.30098331 57.67086529 -60.4375 64.90625 C-58.79226052 69.06773809 -56.33711665 71.51971782 -52.375 73.59375 C-46.89553886 74.57901588 -41.41499196 73.99374617 -36.375 71.59375 C-33.99780307 69.71873069 -33.99780307 69.71873069 -32.375 67.59375 C-32.375 66.93375 -32.375 66.27375 -32.375 65.59375 C-34.0146875 65.3153125 -34.0146875 65.3153125 -35.6875 65.03125 C-39.375 63.59375 -39.375 63.59375 -41.3125 60.78125 C-43.1691207 55.3718366 -42.98065648 49.21770302 -42.375 43.59375 C-41.715 42.93375 -41.055 42.27375 -40.375 41.59375 C-39.81971389 40.15555897 -39.32562801 38.69308731 -38.875 37.21875 C-37.93791909 34.17323703 -36.86774932 31.41195777 -35.375 28.59375 C-34.385 28.92375 -33.395 29.25375 -32.375 29.59375 C-33.12789575 35.11498552 -33.12789575 35.11498552 -34.375 37.53125 C-37.05594697 43.06070313 -36.97382809 50.53442173 -36.375 56.59375 C-35.62566875 58.83904912 -35.62566875 58.83904912 -34.375 60.59375 C-31.81980079 61.40546228 -31.81980079 61.40546228 -29.375 61.59375 C-26.54539004 58.22516671 -25.08924879 54.61850802 -23.375 50.59375 C-22.715 49.93375 -22.055 49.27375 -21.375 48.59375 C-20.67856015 46.60392187 -20.020124 44.60080243 -19.375 42.59375 C-18.36274192 40.07318705 -17.32625742 37.56411207 -16.27734375 35.05859375 C-15.30711123 32.63371503 -15.30711123 32.63371503 -14.9453125 30.1328125 C-14.03005136 26.05801975 -11.75667369 22.7847776 -9.65234375 19.21484375 C-8.08294635 16.48042187 -8.08294635 16.48042187 -8.375 12.59375 C-11.78499141 12.59375 -14.61845403 13.30679728 -17.9375 14.09375 Z " fill="#F6F6F6" transform="translate(240.375,80.40625)"/>
<path d="M0 0 C9.29999571 5.88949647 14.06304429 16.12000503 16.41796875 26.53125 C17.87716507 37.48125215 15.72251621 48.29723222 8.91796875 57.21875 C6.38639058 59.5604598 4.65619949 60.47882501 1.41796875 61.53125 C0.63421875 62.02625 -0.14953125 62.52125 -0.95703125 63.03125 C-9.22816731 67.75761346 -17.5667713 66.65556629 -26.64453125 64.84375 C-33.0244637 63.03810874 -40.4175139 59.87421469 -44.26953125 54.28125 C-45.58203125 51.53125 -45.58203125 51.53125 -45.58203125 49.53125 C-46.24203125 49.53125 -46.90203125 49.53125 -47.58203125 49.53125 C-50.45878989 43.17840801 -51.58050553 37.5098337 -50.58203125 30.53125 C-48.70703125 27.28125 -48.70703125 27.28125 -46.58203125 24.53125 C-45.88846702 22.20576993 -45.22053913 19.87244555 -44.58203125 17.53125 C-42.22199311 12.2867208 -37.93071702 9.11101294 -33.58203125 5.53125 C-32.69515625 4.78875 -31.80828125 4.04625 -30.89453125 3.28125 C-20.9914148 -4.21300028 -11.44485271 -5.09468801 0 0 Z M-26.58203125 14.53125 C-29.15354762 15.00564394 -31.7246479 15.39976915 -34.3125 15.7734375 C-38.12067934 17.04501546 -39.28082703 20.02924296 -41.26953125 23.34375 C-43.66375527 29.15829404 -43.27585291 36.39568983 -42.58203125 42.53125 C-39.01826227 49.76984024 -32.85162766 54.85689847 -25.39453125 57.78125 C-16.40394348 59.54989022 -9.63737444 58.90187185 -1.58203125 54.53125 C-0.86917969 54.20898438 -0.15632813 53.88671875 0.578125 53.5546875 C2.66207392 52.59592579 2.66207392 52.59592579 3.91796875 50.03125 C5.41796875 47.53125 5.41796875 47.53125 7.45703125 46.81640625 C9.78639361 45.61796458 9.78639361 45.61796458 10.09765625 42.37109375 C11.22766507 30.49511492 11.22766507 30.49511492 7.03125 19.890625 C5.29910302 18.31968414 5.29910302 18.31968414 2.35546875 17.03125 C-0.58203125 15.53125 -0.58203125 15.53125 -2.58203125 12.53125 C-5.57930371 12.2536142 -8.3394579 12.15956144 -11.33203125 12.21875 C-12.13125 12.21552734 -12.93046875 12.21230469 -13.75390625 12.20898438 C-18.44838922 12.25145092 -22.14807013 12.85984218 -26.58203125 14.53125 Z " fill="#F7F7F7" transform="translate(199.58203125,272.46875)"/>
<path d="M0 0 C2.44997918 2.77664307 2.98843453 4.42172626 3.0625 8.125 C2 11 2 11 -0.375 12.75 C-5.17233415 14.40425316 -9.99162512 15.24250558 -15 16 C-15 16.66 -15 17.32 -15 18 C-15.84304688 18.39832031 -16.68609375 18.79664062 -17.5546875 19.20703125 C-18.65039062 19.73683594 -19.74609375 20.26664063 -20.875 20.8125 C-21.96554687 21.33457031 -23.05609375 21.85664062 -24.1796875 22.39453125 C-27.22221402 23.84724897 -27.22221402 23.84724897 -29 27 C-29.928125 27.45375 -30.85625 27.9075 -31.8125 28.375 C-35.46978229 30.23949685 -37.59607887 31.64907964 -40 35 C-40.53695274 39.75851217 -39.20144512 43.83689379 -37.125 48.0625 C-34.67983303 53.04142694 -33.88570051 58.1573457 -33.03955078 63.59204102 C-32.44952145 67.72721391 -32.44952145 67.72721391 -30 71 C-29.30553447 73.68740654 -28.6914745 76.34838338 -28.125 79.0625 C-26.86316499 84.81555081 -25.46098445 90.07148387 -22.734375 95.3359375 C-22 97 -22 97 -22 100 C-21.278125 99.979375 -20.55625 99.95875 -19.8125 99.9375 C-17 100 -17 100 -14.625 100.5625 C-11.2009096 101.13318173 -8.3844725 100.70243769 -5 100 C-4.34 99.34 -3.68 98.68 -3 98 C-1.14128126 97.47955875 0.73799036 97.03106536 2.625 96.625 C9.05062702 95.10131838 14.15839444 92.7437125 19.75 89.3125 C21.87482994 88.07301587 23.59632085 87.44512577 26 87 C28.3337991 89.42715107 28.97873239 90.65262908 29.1875 94.0625 C28 97 28 97 24.6875 98.6875 C20.19824366 100.06880964 15.60198353 101.08459243 11.03515625 102.17578125 C7.29199228 103.19226465 3.80434918 104.58287295 0.25390625 106.1328125 C-5.10855784 108.19601359 -10.44927579 108.24417266 -16.125 108.3125 C-17.34123047 108.35600586 -17.34123047 108.35600586 -18.58203125 108.40039062 C-24.48640269 108.46382602 -24.48640269 108.46382602 -26.89453125 106.2890625 C-27.44173828 105.15597656 -27.44173828 105.15597656 -28 104 C-28.65162109 102.81083984 -28.65162109 102.81083984 -29.31640625 101.59765625 C-29.72761719 100.76105469 -30.13882812 99.92445313 -30.5625 99.0625 C-30.97628906 98.22847656 -31.39007813 97.39445312 -31.81640625 96.53515625 C-32.62821252 94.79633687 -33.38369925 93.03043738 -34.08984375 91.24609375 C-34.8029078 89.06716263 -34.8029078 89.06716263 -36 88 C-36.41517362 86.22403158 -36.77934685 84.43607863 -37.12109375 82.64453125 C-37.33443359 81.54689453 -37.54777344 80.44925781 -37.76757812 79.31835938 C-38.21045442 77.00068313 -38.65316562 74.68297533 -39.09570312 72.36523438 C-39.41764648 70.70911133 -39.41764648 70.70911133 -39.74609375 69.01953125 C-39.93872803 68.00995361 -40.1313623 67.00037598 -40.32983398 65.96020508 C-40.9608967 62.93602882 -40.9608967 62.93602882 -42.07055664 59.8347168 C-43.08507169 56.74053916 -43.15403185 54.23466892 -43 51 C-43.66 51 -44.32 51 -45 51 C-45.89478866 44.96017656 -46.16550842 38.97206137 -46.25 32.875 C-46.27126953 32.1113916 -46.29253906 31.3477832 -46.31445312 30.56103516 C-46.34637769 25.29234207 -45.37352928 21.70958179 -43 17 C-42.01 17 -41.02 17 -40 17 C-40 16.34 -40 15.68 -40 15 C-37.94037148 14.32451422 -35.87715678 13.65995688 -33.8125 13 C-32.66394531 12.62875 -31.51539063 12.2575 -30.33203125 11.875 C-27.35679188 11.09369447 -25.04716104 10.81636694 -22 11 C-21.67 10.01 -21.34 9.02 -21 8 C-19.43359375 6.97265625 -19.43359375 6.97265625 -17.4375 6.0625 C-14.50899862 4.70321352 -11.65561914 3.27966296 -8.8125 1.75 C-5.75413406 0.24480421 -3.43922909 -0.88437319 0 0 Z " fill="#F8F8F8" transform="translate(467,59)"/>
<path d="M0 0 C3.15593459 1.658283 4.39769634 3.35305577 6.359375 6.30859375 C6.95234375 7.18386719 7.5453125 8.05914062 8.15625 8.9609375 C11.58654238 14.65042782 11.13217822 21.10357365 10.109375 27.49609375 C9.944375 28.11484375 9.779375 28.73359375 9.609375 29.37109375 C10.599375 29.70109375 11.589375 30.03109375 12.609375 30.37109375 C17.8235068 37.24174077 21.42059334 44.7975938 24.44702148 52.82348633 C26.44676776 58.11231615 28.87668546 63.07898363 31.5078125 68.078125 C32.609375 70.37109375 32.609375 70.37109375 32.609375 72.37109375 C33.269375 72.37109375 33.929375 72.37109375 34.609375 72.37109375 C35.609375 74.03776042 36.609375 75.70442708 37.609375 77.37109375 C39.69845733 80.11709455 41.30299447 82.08057319 44.7644043 82.8503418 C47.28472092 83.05102096 49.76869434 83.11728338 52.296875 83.12109375 C54.00918279 83.15419412 55.7214326 83.19049612 57.43359375 83.23046875 C58.18729248 83.23530273 58.94099121 83.24013672 59.7175293 83.24511719 C61.609375 83.37109375 61.609375 83.37109375 63.609375 84.37109375 C66.01538705 84.57308132 68.40206595 84.72349707 70.8125 84.8359375 C72.28256338 84.91450243 73.75261512 84.99328548 75.22265625 85.07226562 C77.53745835 85.19155754 79.85233327 85.30825187 82.16748047 85.4206543 C84.40376565 85.53096111 86.63931649 85.6516172 88.875 85.7734375 C89.5595929 85.80372543 90.24418579 85.83401337 90.94952393 85.86521912 C95.15182404 86.10087754 98.67147125 86.91600545 102.609375 88.37109375 C104.62235432 88.76747192 106.64400752 89.12221797 108.671875 89.43359375 C110.65169835 89.74190601 112.63090406 90.05421886 114.609375 90.37109375 C115.51558594 90.51417969 116.42179688 90.65726562 117.35546875 90.8046875 C119.609375 91.37109375 119.609375 91.37109375 121.609375 93.37109375 C123.32259182 93.71083687 125.03841491 94.04229528 126.76464844 94.30810547 C133.71609845 95.37871562 139.07385222 96.66557943 143.609375 102.37109375 C145.94128149 105.55803261 147.39959066 108.38519121 147.609375 112.37109375 C146.171875 114.18359375 146.171875 114.18359375 144.609375 115.37109375 C141.20310725 113.94934721 139.57065875 112.29084705 137.359375 109.37109375 C133.76361586 105.06554267 131.09575877 104.14111252 125.609375 103.37109375 C125.609375 102.71109375 125.609375 102.05109375 125.609375 101.37109375 C124.660625 101.43296875 123.711875 101.49484375 122.734375 101.55859375 C118.58927333 101.57530787 115.09379205 100.37701769 111.18359375 99.1015625 C107.3551305 98.01518522 103.56459929 97.74778178 99.609375 97.37109375 C99.279375 97.04109375 98.949375 96.71109375 98.609375 96.37109375 C97.454375 96.20609375 96.299375 96.04109375 95.109375 95.87109375 C91.609375 95.37109375 91.609375 95.37109375 90.609375 94.37109375 C88.75581561 94.32364263 86.90067002 94.33397145 85.046875 94.37109375 C80.14900145 94.40566698 75.44556679 94.14864402 70.609375 93.37109375 C68.33866672 93.01612623 66.06782376 92.66201955 63.796875 92.30859375 C62.69730469 92.13199219 61.59773437 91.95539063 60.46484375 91.7734375 C57.17052949 91.30925916 54.24662449 91.39568701 50.921875 91.62109375 C46.16097003 91.63869414 42.56578049 89.91582404 38.609375 87.37109375 C37.619375 86.38109375 37.619375 86.38109375 36.609375 85.37109375 C35.805 85.10296875 35.000625 84.83484375 34.171875 84.55859375 C30.9556823 83.06816299 30.10862169 81.52740256 28.609375 78.37109375 C28.609375 77.71109375 28.609375 77.05109375 28.609375 76.37109375 C27.619375 76.37109375 26.629375 76.37109375 25.609375 76.37109375 C25.24585938 75.15873047 25.24585938 75.15873047 24.875 73.921875 C23.07024395 68.16747974 21.44401248 64.04455818 17.609375 59.37109375 C16.93961446 57.67980767 16.32050412 55.96815079 15.734375 54.24609375 C13.3047109 47.16754478 10.13675452 40.37662616 5.296875 34.62109375 C3.04142597 31.61382838 2.82295827 29.07320383 2.609375 25.37109375 C2.939375 25.04109375 3.269375 24.71109375 3.609375 24.37109375 C4.00058025 19.28542544 3.48225452 16.56070972 0.609375 12.37109375 C0.609375 11.71109375 0.609375 11.05109375 0.609375 10.37109375 C-0.009375 10.10296875 -0.628125 9.83484375 -1.265625 9.55859375 C-3.390625 8.37109375 -3.390625 8.37109375 -5.390625 5.37109375 C-5.140625 2.74609375 -5.140625 2.74609375 -4.390625 0.37109375 C-2.390625 -0.62890625 -2.390625 -0.62890625 0 0 Z " fill="#F5F5F5" transform="translate(476.390625,64.62890625)"/>
<path d="M0 0 C2.171875 1.484375 2.171875 1.484375 4 3 C5.03125 3.20625 6.0625 3.4125 7.125 3.625 C13.87157042 5.35899974 19.97251338 11.79870187 23.5 17.625 C26.98657653 25.4697972 27.78700642 32.10307117 26.4375 40.5 C23.53792229 47.55984138 18.78725439 53.38975831 12 57 C10.01548229 57.71143088 8.01797888 58.38991336 6 59 C5.67 59.33 5.34 59.66 5 60 C1.24343849 60.41202092 -2.53820776 60.51707741 -6.3125 60.6875 C-7.37146484 60.74744141 -8.43042969 60.80738281 -9.52148438 60.86914062 C-10.54177734 60.91619141 -11.56207031 60.96324219 -12.61328125 61.01171875 C-14.01767456 61.08072388 -14.01767456 61.08072388 -15.45043945 61.15112305 C-18.17641368 60.98954323 -19.66061149 60.34968388 -22 59 C-23.45444527 58.59011088 -24.91302537 58.1946653 -26.375 57.8125 C-31.44283134 56.14270384 -34.29573374 53.57715337 -37 49 C-39.21169861 43.78817317 -39.09036352 39.55094154 -38 34 C-37.80191921 32.52221305 -37.61442769 31.04296846 -37.4375 29.5625 C-37.293125 28.386875 -37.14875 27.21125 -37 26 C-36.01 25.67 -35.02 25.34 -34 25 C-33.95875 24.01 -33.9175 23.02 -33.875 22 C-32.83836739 15.05175979 -27.76423586 10.4113379 -22.5 6.1875 C-21.01275771 5.10721456 -19.51401295 4.04243515 -18 3 C-16.6078125 2.0409375 -16.6078125 2.0409375 -15.1875 1.0625 C-10.24222239 -0.58592587 -5.15514558 -0.73234659 0 0 Z M-18 16 C-19.7325 16.185625 -19.7325 16.185625 -21.5 16.375 C-24.92755436 16.67247392 -24.92755436 16.67247392 -26.6875 18.5 C-27.3371875 19.7375 -27.3371875 19.7375 -28 21 C-28.350625 21.62003906 -28.70125 22.24007813 -29.0625 22.87890625 C-32.46229783 29.4778194 -33.1516327 35.85096453 -31.52734375 43.11328125 C-29.87850852 47.72409594 -27.26554645 49.82540769 -23 52 C-17.76494354 53.42774267 -12.38370678 53.12623864 -7 53 C-5.97261719 53.02964844 -4.94523437 53.05929687 -3.88671875 53.08984375 C4.23609519 53.0217483 9.32021437 50.86225309 15.58203125 45.67578125 C20.14818638 40.62276629 21.12618724 35.34396185 20.875 28.6875 C19.23935937 23.66374663 17.32580112 19.21345226 13 16 C9.95826106 15.83329727 9.95826106 15.83329727 7 16 C6.01 15.34 5.02 14.68 4 14 C1.92375936 13.69377611 1.92375936 13.69377611 -0.34375 13.734375 C-1.17777344 13.73179687 -2.01179687 13.72921875 -2.87109375 13.7265625 C-4.17240234 13.73816406 -4.17240234 13.73816406 -5.5 13.75 C-6.36753906 13.74226563 -7.23507812 13.73453125 -8.12890625 13.7265625 C-8.96292969 13.72914063 -9.79695313 13.73171875 -10.65625 13.734375 C-11.41744141 13.73663086 -12.17863281 13.73888672 -12.96289062 13.74121094 C-15.31136746 13.88588689 -15.31136746 13.88588689 -18 16 Z " fill="#F6F6F6" transform="translate(516,285)"/>
<path d="M0 0 C0.88429688 -0.02578125 1.76859375 -0.0515625 2.6796875 -0.078125 C5.125 0.25 5.125 0.25 6.9453125 1.578125 C8.125 3.25 8.125 3.25 8.125 6.25 C7.29355469 6.42015625 6.46210937 6.5903125 5.60546875 6.765625 C4.51878906 7.00796875 3.43210937 7.2503125 2.3125 7.5 C1.23355469 7.73203125 0.15460937 7.9640625 -0.95703125 8.203125 C-4.24953611 9.38437172 -5.24828951 10.19576806 -6.875 13.25 C-7.84642196 17.25617428 -7.52424001 20.83261156 -5.80859375 24.578125 C-3.89169431 27.48220154 -2.29408687 29.78260234 1.09375 30.8984375 C3.0949387 31.16106058 3.0949387 31.16106058 5 31.1171875 C7.125 31.25 7.125 31.25 9.9140625 32.28125 C13.70838523 33.42600917 16.56764656 33.24597674 20.5 32.875 C21.74523438 32.76414062 22.99046875 32.65328125 24.2734375 32.5390625 C25.21445312 32.44367188 26.15546875 32.34828125 27.125 32.25 C27.92180303 27.92998359 28.38784289 24.30137156 27.3125 20 C24.51550863 16.48378228 21.54410879 15.24686155 17.51171875 13.3984375 C14.72879121 12.05935289 12.8850062 10.81000902 11.125 8.25 C10.875 5.5 10.875 5.5 11.125 3.25 C15.63345246 2.85219537 18.21599808 4.06095892 22.125 6.25 C23.300625 6.806875 24.47625 7.36375 25.6875 7.9375 C30.33469031 10.60628557 33.09283232 15.10123532 34.7421875 20.1328125 C35.81571492 26.07007641 35.86706801 32.20047882 33.8125 37.875 C30.45067839 42.60645264 26.04951553 43.15038863 20.71875 44.46875 C17.92525967 45.17287683 17.92525967 45.17287683 15.125 47.25 C13.805 47.25 12.485 47.25 11.125 47.25 C11.125 46.59 11.125 45.93 11.125 45.25 C9.1759375 45.4046875 9.1759375 45.4046875 7.1875 45.5625 C1.54542041 45.5625 -2.38411335 43.54813607 -6.875 40.25 C-9.25 37.75 -9.25 37.75 -10.875 35.25 C-11.41125 34.528125 -11.9475 33.80625 -12.5 33.0625 C-16.57497484 24.7273242 -16.35590886 16.65747897 -13.6875 7.9375 C-12.40648661 4.68716752 -11.92628147 4.28179451 -8.75 2.3125 C-7.326875 1.7865625 -7.326875 1.7865625 -5.875 1.25 C-4.21733202 -0.40766798 -2.27153595 0.03950497 0 0 Z " fill="#F7F7F7" transform="translate(34.875,295.75)"/>
<path d="M0 0 C0.38063221 2.3260857 0.71269945 4.66055264 1 7 C0 8 0 8 -1.94262695 8.09765625 C-2.78269287 8.08605469 -3.62275879 8.07445312 -4.48828125 8.0625 C-5.89110352 8.05089844 -5.89110352 8.05089844 -7.32226562 8.0390625 C-9.27279387 8.01358205 -11.22331521 7.98756566 -13.17382812 7.9609375 C-18.00005683 7.92161995 -22.72623773 8.02179017 -27.53125 8.4921875 C-35.23019015 9.19976242 -42.92155663 9.14980426 -50.64624023 9.13037109 C-53.19325653 9.12498783 -55.74009825 9.13035917 -58.28710938 9.13671875 C-59.93489622 9.13605821 -61.58268295 9.13477756 -63.23046875 9.1328125 C-63.97757614 9.13483673 -64.72468353 9.13686096 -65.49443054 9.13894653 C-69.07409001 9.12330468 -72.54078598 8.96515555 -76.09082031 8.49780273 C-82.80506238 7.68894391 -89.56518108 7.87689533 -96.31640625 7.90234375 C-97.78327893 7.90421239 -99.25015223 7.90563419 -100.71702576 7.90663147 C-104.54905975 7.91042152 -108.38105492 7.92022118 -112.21307373 7.93133545 C-116.13488235 7.9416257 -120.05669735 7.94614529 -123.97851562 7.95117188 C-131.65236131 7.96184714 -139.32617518 7.97888057 -147 8 C-147.38218767 6.34385343 -147.71395102 4.67542976 -148 3 C-146.32704729 1.32704729 -144.29084249 1.86994018 -141.99609375 1.8671875 C-140.95187256 1.86525391 -139.90765137 1.86332031 -138.83178711 1.86132812 C-137.15161499 1.8680957 -137.15161499 1.8680957 -135.4375 1.875 C-134.30900635 1.87693359 -133.1805127 1.87886719 -132.01782227 1.88085938 C-123.3109234 1.92555789 -114.67660828 2.27587174 -106 3 C-106 2.01 -106 1.02 -106 0 C-98.08 0 -90.16 0 -82 0 C-81.505 0.99 -81.505 0.99 -81 2 C-64.17 2 -47.34 2 -30 2 C-29.67 1.34 -29.34 0.68 -29 0 C-19.8294238 -1.65039232 -9.11139223 -2.08354886 0 0 Z " fill="#F4F4F4" transform="translate(589,181)"/>
<path d="M0 0 C3.21245843 0.2604696 4.6147565 0.57490372 6.8125 3 C9.20167386 9.03580764 8.52591087 14.21555839 6.1875 20.1875 C5.47068851 21.79722545 4.74276949 23.4020863 4 25 C3.38125 26.546875 3.38125 26.546875 2.75 28.125 C0.13902676 32.41445604 -3.33095293 35.60466514 -7 39 C-7.73605469 39.68191406 -8.47210938 40.36382812 -9.23046875 41.06640625 C-14.70227273 46 -14.70227273 46 -17 46 C-17 46.66 -17 47.32 -17 48 C-22.19230769 52.73076923 -22.19230769 52.73076923 -26 54 C-26.66 54.99 -27.32 55.98 -28 57 C-28.66 57 -29.32 57 -30 57 C-29.81824219 58.00933594 -29.63648438 59.01867187 -29.44921875 60.05859375 C-27.79758893 69.4676774 -26.45073402 78.88971646 -25.3125 88.375 C-25.18125732 89.46224365 -25.05001465 90.5494873 -24.91479492 91.66967773 C-24.42751274 95.82448552 -24 99.81072296 -24 104 C-24.99 104.99 -24.99 104.99 -26 106 C-28.61580479 105.6730244 -30.64078137 105.17960932 -33 104 C-33.37890625 101.12890625 -33.37890625 101.12890625 -33.5625 97.5625 C-33.66007452 93.1215332 -33.66007452 93.1215332 -35 89 C-35.65168467 85.37421139 -36.08511416 81.71484431 -36.5625 78.0625 C-36.70107422 77.06669922 -36.83964844 76.07089844 -36.98242188 75.04492188 C-39.27372356 57.65134602 -39.27372356 57.65134602 -36.70703125 52.30859375 C-35.76923828 51.38240234 -35.76923828 51.38240234 -34.8125 50.4375 C-33.72775391 49.36242187 -33.72775391 49.36242187 -32.62109375 48.265625 C-15.56314312 33.52104771 -15.56314312 33.52104771 -8 31 C-8 30.34 -8 29.68 -8 29 C-7.38125 28.5875 -6.7625 28.175 -6.125 27.75 C-3.3473089 25.46248968 -3.02259757 23.40865858 -2 20 C-1.46375 19.21625 -0.9275 18.4325 -0.375 17.625 C1.60241993 13.84992559 1.34732863 11.23740928 1 7 C0.34 6.34 -0.32 5.68 -1 5 C-0.625 2.375 -0.625 2.375 0 0 Z " fill="#F7F7F7" transform="translate(65,184)"/>
<path d="M0 0 C1.8125 0.0859375 1.8125 0.0859375 4 0.375 C5.0828125 0.51035156 5.0828125 0.51035156 6.1875 0.6484375 C8 1 8 1 9 2 C11.18639453 2.07258946 13.37500389 2.08373783 15.5625 2.0625 C16.76003906 2.05347656 17.95757812 2.04445312 19.19140625 2.03515625 C20.58166016 2.01775391 20.58166016 2.01775391 22 2 C22 2.66 22 3.32 22 4 C48.73 3.505 48.73 3.505 76 3 C76.33 2.34 76.66 1.68 77 1 C79.47923801 0.97314905 81.9581884 0.95323453 84.4375 0.9375 C85.14455078 0.92912109 85.85160156 0.92074219 86.58007812 0.91210938 C88.38693559 0.90346412 90.19387603 0.94779989 92 1 C92.495 1.495 92.495 1.495 93 2 C94.63472882 2.08700342 96.27314055 2.10701063 97.91015625 2.09765625 C98.89951172 2.09443359 99.88886719 2.09121094 100.90820312 2.08789062 C101.94912109 2.07951172 102.99003906 2.07113281 104.0625 2.0625 C105.10728516 2.05798828 106.15207031 2.05347656 107.22851562 2.04882812 C109.8190666 2.03699913 112.40950559 2.02051689 115 2 C115 1.34 115 0.68 115 0 C122.14677104 -0.32485323 122.14677104 -0.32485323 125 2 C125.39037493 3.98965287 125.72796934 5.99074381 126 8 C125.36497559 8.01981934 124.72995117 8.03963867 124.07568359 8.06005859 C121.17506674 8.15581122 118.27512095 8.26528546 115.375 8.375 C113.87646484 8.42140625 113.87646484 8.42140625 112.34765625 8.46875 C107.19328525 8.67355944 102.84564749 9.06483726 98 11 C94.91139542 11.30886046 93.16400422 11.06336527 90.25 9.9375 C85.99358978 8.70968936 82.30976983 9.10175324 78 10 C77.67 10.33 77.34 10.66 77 11 C73.46928271 11.07308082 69.94878436 10.99604202 66.41796875 10.9375 C63.19306627 10.83737737 63.19306627 10.83737737 60.98828125 11.625 C59 12 59 12 56.1328125 11.0625 C50.24430869 9.19869317 43.97517137 9.88483047 37.875 10 C28.46401624 10.10775936 19.1296414 10.02004857 9.75 9.125 C8.44844971 9.00705078 8.44844971 9.00705078 7.12060547 8.88671875 C1.26349432 8.26349432 1.26349432 8.26349432 -1 6 C-1.1875 3.4375 -1.1875 3.4375 -1 1 C-0.67 0.67 -0.34 0.34 0 0 Z " fill="#F7F7F7" transform="translate(74,179)"/>
<path d="M0 0 C3.85764458 1.51550323 5.70039708 3.58031216 8 7 C8.73563405 9.75223703 9.27841982 12.26701466 9.6875 15.0625 C9.80851074 15.80822266 9.92952148 16.55394531 10.05419922 17.32226562 C10.91426072 22.82005246 11.47196085 28.31817115 11.7890625 33.875 C11.77161804 35.98288508 11.77161804 35.98288508 13 37 C13.6178497 43.28882726 10.40051941 47.93892972 7 53 C3.4718588 57.14111118 0.64746404 59.67050719 -4.75 60.75 C-9.61657388 59.62694449 -11.11650301 56.39616841 -13.703125 52.30859375 C-17.57471603 45.12268616 -19.23232594 39.16415935 -18 31 C-16.4 26.4 -16.4 26.4 -15 25 C-14.76924918 23.65252916 -14.58846937 22.29622435 -14.4375 20.9375 C-14.293125 19.638125 -14.14875 18.33875 -14 17 C-13.34 17 -12.68 17 -12 17 C-11.773125 15.783125 -11.54625 14.56625 -11.3125 13.3125 C-9.72217661 6.96240589 -5.00657287 3.86221336 0 0 Z M-3 9 C-8.90410637 20.19744311 -13.54250279 32.21958308 -9.75 44.875 C-8.50486844 48.28868606 -7.34098761 50.27190296 -4 52 C0.79232861 49.23109902 2.94580735 47.13548162 5 42 C6.06894606 31.75880711 5.85160529 18.89444005 0 10 C-0.99 9.67 -1.98 9.34 -3 9 Z " fill="#F5F5F5" transform="translate(622,181)"/>
<path d="M0 0 C0.680625 -0.01224609 1.36125 -0.02449219 2.0625 -0.03710938 C3.83490756 -0.04236355 5.6067994 0.06534094 7.375 0.1875 C9.375 2.1875 9.375 2.1875 9.625 4.6875 C9.375 7.1875 9.375 7.1875 7.375 9.1875 C5.4140625 9.3828125 5.4140625 9.3828125 3 9.3125 C2.10547119 9.29574219 1.21094238 9.27898437 0.28930664 9.26171875 C-0.67241455 9.23722656 -1.63413574 9.21273437 -2.625 9.1875 C-10.76849679 9.07002967 -18.65215909 9.39731892 -26.72460938 10.4765625 C-32.38323852 11.23032851 -37.65877611 11.48743246 -43.3125 10.625 C-46.45353648 10.21014612 -47.69462488 10.40933071 -50.625 11.1875 C-53.92824998 11.52079733 -57.24571946 11.617905 -60.5625 11.75 C-61.60559326 11.7917334 -62.64868652 11.8334668 -63.72338867 11.87646484 C-75.62525808 12.28289846 -87.52987621 12.29822524 -99.4375 12.3125 C-100.45278778 12.3150882 -101.46807556 12.31767639 -102.51412964 12.32034302 C-105.43263248 12.3262066 -108.35102752 12.32461025 -111.26953125 12.3203125 C-112.15397919 12.32229141 -113.03842712 12.32427032 -113.94967651 12.3263092 C-115.18078659 12.32164894 -115.18078659 12.32164894 -116.43676758 12.31689453 C-117.15190018 12.31609894 -117.86703278 12.31530334 -118.60383606 12.31448364 C-120.71574351 12.18179886 -122.59254513 11.76267561 -124.625 11.1875 C-124.625 10.1975 -124.625 9.2075 -124.625 8.1875 C-123.305 8.1875 -121.985 8.1875 -120.625 8.1875 C-120.625 7.5275 -120.625 6.8675 -120.625 6.1875 C-75.58 5.6925 -75.58 5.6925 -29.625 5.1875 C-29.295 4.5275 -28.965 3.8675 -28.625 3.1875 C-24.22405548 1.60980291 -19.33866195 1.76544159 -14.71875 1.46875 C-11.79324981 1.29194715 -11.79324981 1.29194715 -9.6953125 0.66796875 C-6.4898952 -0.07592998 -3.27267415 0.00313475 0 0 Z " fill="#F9F9F9" transform="translate(377.625,180.8125)"/>
<path d="M0 0 C1.134375 0.020625 2.26875 0.04125 3.4375 0.0625 C2.97818005 2.2059931 2.47959263 3.98415466 1.43798828 5.92285156 C0.35884926 8.2307028 0.04661008 10.01918279 -0.1953125 12.546875 C-0.27910156 13.40023437 -0.36289062 14.25359375 -0.44921875 15.1328125 C-0.56716797 16.45925781 -0.56716797 16.45925781 -0.6875 17.8125 C-0.77386719 18.68132812 -0.86023438 19.55015625 -0.94921875 20.4453125 C-1.72119388 28.60619245 -2.22796094 36.19939024 0.4375 44.0625 C3.26958581 47.46100298 7.13283006 47.76022628 11.31640625 48.4375 C13.80041093 49.16943508 14.86262567 50.02681035 16.4375 52.0625 C16.3125 54.1875 16.3125 54.1875 15.4375 56.0625 C10.46832853 57.71889049 5.421344 57.98829387 0.625 55.75 C-0.096875 55.193125 -0.81875 54.63625 -1.5625 54.0625 C-2.614375 53.44375 -2.614375 53.44375 -3.6875 52.8125 C-8.57981968 48.24633497 -9.84020403 40.4716051 -10.5625 34.0625 C-10.40545729 32.14657894 -10.24571786 30.22555195 -9.9140625 28.33203125 C-9.29282771 24.32161554 -9.17179435 20.25988586 -8.94140625 16.2109375 C-8.54605777 12.92587696 -7.70047011 10.16174435 -6.5625 7.0625 C-6.211875 5.969375 -5.86125 4.87625 -5.5 3.75 C-4.21767241 0.07399425 -4.21767241 0.07399425 0 0 Z " fill="#F4F4F4" transform="translate(595.5625,189.9375)"/>
<path d="M0 0 C2.375 1.8125 2.375 1.8125 4 4 C4.77923828 4.65935547 4.77923828 4.65935547 5.57421875 5.33203125 C7.96964015 8.13434615 7.45907779 11.00681109 7.37109375 14.546875 C6.86357446 17.9018446 5.44335512 19.70935458 3 22 C1.0625 21.375 1.0625 21.375 -1 20 C-1.99184231 16.41410857 -2.18429132 14.55287397 -1 11 C-1.38932856 8.85744207 -1.38932856 8.85744207 -2 7 C-7.92649881 7.21974281 -7.92649881 7.21974281 -12.75 10.375 C-13.4925 11.24125 -14.235 12.1075 -15 13 C-15.99966797 13.66515625 -15.99966797 13.66515625 -17.01953125 14.34375 C-20.07708035 16.90075359 -20.6201484 20.10652279 -21.77734375 23.8203125 C-23 26 -23 26 -25.62890625 26.8046875 C-26.41136719 26.86914062 -27.19382812 26.93359375 -28 27 C-28.75 24.375 -28.75 24.375 -29 21 C-27.25 17.9375 -27.25 17.9375 -25 15 C-24.3503125 13.824375 -24.3503125 13.824375 -23.6875 12.625 C-20.58929744 7.80557379 -17.27049992 3.18460865 -12.125 0.5 C-8.02868334 -0.15541067 -4.12457192 -0.6533196 0 0 Z " fill="#F3F3F3" transform="translate(484,118)"/>
<path d="M0 0 C1.9375 2.0625 1.9375 2.0625 3 4 C2.34 5.32 1.68 6.64 1 8 C-0.13888672 7.98259766 -0.13888672 7.98259766 -1.30078125 7.96484375 C-2.29464844 7.95582031 -3.28851563 7.94679687 -4.3125 7.9375 C-5.29863281 7.92589844 -6.28476562 7.91429687 -7.30078125 7.90234375 C-10.09963849 7.87670138 -10.09963849 7.87670138 -13 9 C-12.67 9.99 -12.34 10.98 -12 12 C-11.08476562 12.09796875 -10.16953125 12.1959375 -9.2265625 12.296875 C-8.03804688 12.44640625 -6.84953125 12.5959375 -5.625 12.75 C-4.44164062 12.88921875 -3.25828125 13.0284375 -2.0390625 13.171875 C1 14 1 14 2.4140625 16.078125 C2.60742188 16.71234375 2.80078125 17.3465625 3 18 C1.12694353 20.50405067 0.19314042 20.9717169 -2.9609375 21.43359375 C-4.08757812 21.43488281 -5.21421875 21.43617188 -6.375 21.4375 C-7.49648438 21.45683594 -8.61796875 21.47617188 -9.7734375 21.49609375 C-13.6410557 20.90143575 -15.22787914 19.70845024 -18 17 C-20.23054053 13.65418921 -20.29683128 12.35990189 -20.3125 8.4375 C-20.32925781 7.46683594 -20.34601563 6.49617187 -20.36328125 5.49609375 C-20.18345703 4.26052734 -20.18345703 4.26052734 -20 3 C-14.21125087 -0.85916609 -6.69877411 -1.91393546 0 0 Z " fill="#F4F4F4" transform="translate(273,164)"/>
<path d="M0 0 C1.32 0.66 2.64 1.32 4 2 C3.48877304 6.47323588 1.83334969 8.58331362 -1 12 C-2.03291676 13.98320018 -3.0337499 15.98347806 -4 18 C-4.53625 18.86625 -5.0725 19.7325 -5.625 20.625 C-8.19642128 25.06654584 -8.19290514 28.88801369 -8 34 C-7.67 34.33 -7.34 34.66 -7 35 C-6.95936168 36.66617115 -6.957279 38.33388095 -7 40 C-10.28696233 40.79953138 -11.71023192 41.09658936 -15 40 C-16.49357569 37.01284862 -16.22503435 33.96112064 -16.25 30.6875 C-16.27578125 29.37136719 -16.3015625 28.05523437 -16.328125 26.69921875 C-15.98956793 22.88239083 -15.37031935 20.97440559 -13 18 C-12.34 18 -11.68 18 -11 18 C-11.05542969 17.2575 -11.11085938 16.515 -11.16796875 15.75 C-10.97304313 12.55865963 -10.28479565 11.46412756 -8.3125 9 C-7.76980469 8.319375 -7.22710937 7.63875 -6.66796875 6.9375 C-4.55484899 4.48291592 -2.35826999 2.21954823 0 0 Z " fill="#F5F5F5" transform="translate(44,185)"/>
<path d="M0 0 C1.65 0.33 3.3 0.66 5 1 C5.68631098 10.76086733 4.40001777 18.15454418 1.23046875 27.2734375 C-0.07728768 31.23407124 -0.83676526 35.05056855 -1.34765625 39.1796875 C-2 41 -2 41 -4.05859375 42.2578125 C-4.69925781 42.50273437 -5.33992188 42.74765625 -6 43 C-7.8291543 39.91154332 -8.2064877 37.98729251 -7.75 34.4375 C-7.66234375 33.67308594 -7.5746875 32.90867188 -7.484375 32.12109375 C-7 30 -7 30 -5 27 C-4.48903278 25.0128852 -4.48903278 25.0128852 -4.21875 22.83203125 C-4.03892578 21.61483398 -4.03892578 21.61483398 -3.85546875 20.37304688 C-3.73816406 19.52806641 -3.62085938 18.68308594 -3.5 17.8125 C-2.63997208 11.75922659 -1.58145528 5.91000747 0 0 Z " fill="#EFEFEF" transform="translate(324,99)"/>
<path d="M0 0 C2.0625 0.4375 2.0625 0.4375 4 1 C5.26130824 4.56014423 5.05013123 5.8839555 3.5234375 9.41796875 C2.8208562 10.68211384 2.10394816 11.93837316 1.375 13.1875 C0.62811826 14.52690466 -0.11797511 15.86674922 -0.86328125 17.20703125 C-1.23018066 17.85623535 -1.59708008 18.50543945 -1.97509766 19.17431641 C-5.75269169 25.90343699 -8.80122003 32.59922841 -11 40 C-12.32 39.67 -13.64 39.34 -15 39 C-15.42725553 33.76611978 -14.72949189 30.9588444 -12.00390625 26.67578125 C-10.84192758 24.87718495 -10.84192758 24.87718495 -10.0625 22.125 C-9.11485703 19.3378148 -8.03338698 17.21339818 -6.5625 14.6875 C-4.33658277 10.82005088 -2.85272226 7.01841874 -1.578125 2.75 C-1 1 -1 1 0 0 Z " fill="#F2F2F2" transform="translate(305,104)"/>
<path d="M0 0 C2.74148672 0.37047118 4.58593199 0.68587944 6.8125 2.375 C8 4 8 4 8 7 C6.02 7.66 4.04 8.32 2 9 C2.10613836 11.45224694 2.10613836 11.45224694 3 14 C3.825 14.33 4.65 14.66 5.5 15 C6.325 15.33 7.15 15.66 8 16 C8.875 18.5 8.875 18.5 9 21 C8.67 21.66 8.34 22.32 8 23 C5.07093421 23.2978711 2.85647449 23.50159903 0 23 C-3.63956086 19.89120843 -4.89914537 18.16991368 -5.3125 13.375 C-5.209375 12.26125 -5.10625 11.1475 -5 10 C-5 8.68 -5 7.36 -5 6 C-3.55713083 3.75324658 -1.80620014 1.98682015 0 0 Z " fill="#F3F3F3" transform="translate(180,295)"/>
<path d="M0 0 C3.27078876 0.5639291 4.86371562 1.45680431 7 4 C8.76004416 7.52008832 7.92086734 11.27267981 7 15 C4.9339132 18.67562259 2.09259685 21.72106349 -2 23 C-4.75 23.125 -4.75 23.125 -7 23 C-7 21.68 -7 20.36 -7 19 C-5.25 17.76171875 -5.25 17.76171875 -3 16.6875 C-0.7897004 15.50122077 -0.7897004 15.50122077 1 14 C1.77425013 9.50934923 1.53206711 7.79810066 -1 4 C-0.625 1.8125 -0.625 1.8125 0 0 Z " fill="#F1F1F1" transform="translate(48,193)"/>
<path d="M0 0 C2.4375 0.75 2.4375 0.75 4.4375 2.75 C4.0625 4.875 4.0625 4.875 3.4375 6.75 C2.4475 6.75 1.4575 6.75 0.4375 6.75 C0.4375 7.41 0.4375 8.07 0.4375 8.75 C1.7575 9.08 3.0775 9.41 4.4375 9.75 C3.6875 14.5 3.6875 14.5 1.4375 16.75 C-1.5 16.6875 -1.5 16.6875 -4.5625 15.75 C-6.68684543 13.20078548 -7.47401085 11.47561101 -7.875 8.1875 C-7.53890938 5.56599318 -7.00822238 3.95662889 -5.5625 1.75 C-2.5625 -0.25 -2.5625 -0.25 0 0 Z " fill="#F3F3F3" transform="translate(502.5625,310.25)"/>
<path d="M0 0 C-0.33 0.99 -0.66 1.98 -1 3 C-3.64 3 -6.28 3 -9 3 C-9 2.34 -9 1.68 -9 1 C-5.92677456 0.08941469 -3.19902639 -0.08886184 0 0 Z " fill="#8B8B8B" transform="translate(372,332)"/>
<path d="M0 0 C-0.33 0.99 -0.66 1.98 -1 3 C-3.64 3 -6.28 3 -9 3 C-9 2.34 -9 1.68 -9 1 C-5.92677456 0.08941469 -3.19902639 -0.08886184 0 0 Z " fill="#969696" transform="translate(339,332)"/>
<path d="M0 0 C4 1 4 1 4 1 Z " fill="#FFFFFF" transform="translate(369,42)"/>
<path d="M0 0 C4 1 4 1 4 1 Z " fill="#F3F3F3" transform="translate(306,30)"/>
<path d="M0 0 C4 1 4 1 4 1 Z " fill="#E4E4E4" transform="translate(320,25)"/>
<path d="M0 0 C4 1 4 1 4 1 Z " fill="#ECECEC" transform="translate(337,24)"/>
<path d="M0 0 C2 1 2 1 2 1 Z " fill="#E1E1E1" transform="translate(302,32)"/>
<path d="M0 0 C2 1 2 1 2 1 Z " fill="#EFEFEF" transform="translate(304,31)"/>
<path d="M0 0 C2 1 2 1 2 1 Z " fill="#FFFFFF" transform="translate(370,27)"/>
<path d="" fill="#BDBDBD" transform="translate(0,0)"/>
<path d="" fill="#FFFFFF" transform="translate(0,0)"/>
<path d="" fill="#FFFFFF" transform="translate(0,0)"/>
<path d="" fill="#FFFFFF" transform="translate(0,0)"/>
<path d="" fill="#FAFAFA" transform="translate(0,0)"/>
<path d="" fill="#FFFFFF" transform="translate(0,0)"/>
<path d="" fill="#9A9A9A" transform="translate(0,0)"/>
</svg>
