<?xml version="1.0" encoding="UTF-8"?>
<svg version="1.1" xmlns="http://www.w3.org/2000/svg" width="420" height="313">
<path d="M0 0 C5.34052233 4.50977441 8.42002019 9.13674259 11.375 15.4375 C14.35780582 21.90978263 14.35780582 21.90978263 18.8125 27.375 C21.85264274 27.97720011 21.85264274 27.97720011 25.0625 27.6875 C26.14015625 27.64238281 27.2178125 27.59726563 28.328125 27.55078125 C29.14796875 27.49277344 29.9678125 27.43476562 30.8125 27.375 C31.493125 25.7971875 31.493125 25.7971875 32.1875 24.1875 C32.46207031 23.55199219 32.73664063 22.91648437 33.01953125 22.26171875 C33.67956264 20.69129924 34.28448692 19.09785893 34.875 17.5 C35.8125 15.375 35.8125 15.375 37.8125 14.375 C40.08333333 14.375 42.35416667 14.375 44.625 14.375 C49.73902322 14.22099618 49.73902322 14.22099618 53.70703125 11.4140625 C54.97494563 9.04429406 54.97494563 9.04429406 55.8203125 6.6015625 C57.23361649 3.42997481 59.3707438 1.94140422 62.5625 0.6875 C66.04239994 0.20418056 69.34261883 -0.25275186 72.8125 0.375 C75.84972197 2.81798288 77.65674433 5.1413665 79.8125 8.375 C79.9375 11.0625 79.9375 11.0625 79.8125 13.375 C100.2922442 13.39836868 120.77198569 13.41599869 141.25174046 13.42681217 C150.76101185 13.43196669 160.27027495 13.43899332 169.77954102 13.45043945 C178.06858527 13.46041207 186.35762353 13.46685958 194.64667362 13.46908849 C199.03493457 13.47039121 203.42317835 13.47344937 207.81143379 13.48073006 C211.9440683 13.48753091 216.07667859 13.48960868 220.20931816 13.48810768 C221.72379564 13.48838218 223.23827395 13.49036314 224.75274658 13.49420547 C226.82600293 13.49920629 228.89916877 13.49797487 230.97242737 13.49525452 C232.71046804 13.49663721 232.71046804 13.49663721 234.48362064 13.49804783 C237.9853759 13.36860986 241.35458654 12.92926197 244.8125 12.375 C244.97685547 11.43527344 244.97685547 11.43527344 245.14453125 10.4765625 C245.30308594 9.65929688 245.46164062 8.84203125 245.625 8 C245.85123047 6.78183594 245.85123047 6.78183594 246.08203125 5.5390625 C246.8125 3.375 246.8125 3.375 249.8125 1.375 C256.3135608 1.48518747 260.77708166 3.25714678 265.8125 7.375 C269.97697374 12.08743081 271.2047305 17.23652809 271.8125 23.375 C271.50746569 25.37951121 271.17169321 27.37948218 270.8125 29.375 C270.83123349 36.22209156 270.86572318 41.27832085 275.8125 46.375 C279.7258277 55.84937232 280.41374668 67.71711117 276.8125 77.375 C275.78125 78.138125 274.75 78.90125 273.6875 79.6875 C270.59622686 82.02855338 270.59622686 82.02855338 270.38671875 84.984375 C270.37247143 88.57469996 270.37225918 91.97690189 271.45703125 95.421875 C271.95110504 98.13656617 271.11701369 99.60179042 269.9375 102.0625 C269.56882812 102.85011719 269.20015625 103.63773437 268.8203125 104.44921875 C267.8125 106.375 267.8125 106.375 266.8125 107.375 C264.27990245 107.47779344 261.77539888 107.5144012 259.2421875 107.5078125 C258.03565521 107.50985939 258.03565521 107.50985939 256.80474854 107.51194763 C254.0989602 107.5140107 251.39327768 107.50755311 248.6875 107.5 C247.75887146 107.49878143 246.83024292 107.49756287 245.87347412 107.49630737 C228.5593651 107.47001649 211.24887069 107.2331206 193.9375 106.9375 C192.71947693 106.9179425 191.50145386 106.89838501 190.246521 106.87823486 C186.77100229 106.82112637 183.29567194 106.75743381 179.8203125 106.69140625 C178.77941467 106.67468369 177.73851685 106.65796112 176.66607666 106.64073181 C175.70264343 106.62079666 174.73921021 106.60086151 173.74658203 106.58032227 C172.49217819 106.55700584 172.49217819 106.55700584 171.21243286 106.53321838 C168.67531169 106.3659557 166.29222989 105.92621031 163.8125 105.375 C164.10125 105.89449219 164.39 106.41398437 164.6875 106.94921875 C168.37489016 113.87587873 168.37489016 113.87587873 167.8125 118.375 C165.23166539 117.93257121 162.96541509 117.44243131 160.5625 116.3828125 C149.99513102 112.51011194 137.62390997 114.62369169 126.8125 116.375 C125.86632812 116.48585938 124.92015625 116.59671875 123.9453125 116.7109375 C121.00404698 117.14489471 118.55623618 117.64348962 116.38671875 119.77734375 C114.09559678 123.24945642 113.08175992 126.94252473 113.28515625 131.140625 C114.20334407 135.0310208 116.27316215 138.27505008 118.28125 141.69921875 C121.9885522 148.17754019 124.3376081 154.75758861 123.25 162.25 C121.86286379 167.00852026 119.61013153 171.13066578 115.8125 174.375 C107.11338244 175.89389354 100.8097154 171.56194181 93.828125 166.875 C90.14705952 164.13560243 88.28493796 161.65982108 86.3125 157.5 C85.87550781 156.613125 85.43851563 155.72625 84.98828125 154.8125 C84.13870206 153.05124613 83.31208505 151.27885296 82.5 149.5 C79.92500543 146.25741425 76.6029104 144.89514708 72.8125 143.375 C71.93851563 143.01535156 71.06453125 142.65570313 70.1640625 142.28515625 C65.72746824 141.08034685 61.57728896 141.00683688 57 141 C56.14857422 140.97550781 55.29714844 140.95101562 54.41992188 140.92578125 C46.97482984 140.8917595 40.9495775 142.76076875 35.1875 147.5625 C31.93657029 151.41228519 28.81898138 155.33154366 25.8125 159.375 C25.214375 160.15875 24.61625 160.9425 24 161.75 C19.76960186 171.10140642 19.31893234 183.58165937 22.45898438 193.39550781 C25.01950976 199.95806343 28.51052096 205.98104411 32.25 211.9375 C33.95471492 214.71283102 34.8331707 216.46629559 35.5625 219.6875 C34.66396351 222.90725577 33.2118123 224.04807694 30.55859375 225.984375 C28.6613035 227.495416 27.32492754 229.10657927 25.8125 231 C16.8678775 241.40255656 3.67344852 251.39783767 -10.1875 253.375 C-28.02506363 254.56677588 -39.53408368 249.12201014 -54.29638672 239.56591797 C-56.30164805 238.26889782 -56.30164805 238.26889782 -58.97265625 236.91015625 C-63.83805052 233.53784594 -66.0578945 227.82235039 -68.5625 222.625 C-70.66432648 218.30578075 -72.87770214 214.13143241 -75.4375 210.0625 C-78.86749487 204.45895223 -81.42167275 198.98642352 -81.1875 192.3125 C-81.1875 188.45110564 -82.02454501 186.29362231 -83.4453125 182.7890625 C-86.22379904 173.75166942 -85.25929025 163.78385375 -84.4375 154.5 C-84.36378174 153.63286377 -84.29006348 152.76572754 -84.21411133 151.87231445 C-83.61669567 146.03060646 -82.20982993 140.87312255 -80.1875 135.375 C-79.8575 134.3025 -79.5275 133.23 -79.1875 132.125 C-78.146958 129.26350949 -76.7699309 126.97018667 -75.1875 124.375 C-74.45044854 122.67657708 -73.71447541 120.97757403 -73 119.26953125 C-70.62880505 113.74054303 -68.08122739 108.99880127 -64.1875 104.375 C-63.548125 103.385 -62.90875 102.395 -62.25 101.375 C-60.13975705 98.30555571 -57.81821816 96.00571816 -55.1875 93.375 C-54.04552182 91.95095047 -52.92197525 90.51201576 -51.8125 89.0625 C-45.97303818 81.4611316 -39.84138747 74.23622544 -32.1875 68.375 C-31.5275 68.375 -30.8675 68.375 -30.1875 68.375 C-29.6925 66.89 -29.6925 66.89 -29.1875 65.375 C-27.47265625 63.99633789 -27.47265625 63.99633789 -25.25 62.59765625 C-24.43660156 62.08396484 -23.62320313 61.57027344 -22.78515625 61.04101562 C-21.49931641 60.24727539 -21.49931641 60.24727539 -20.1875 59.4375 C-19.36121094 58.91220703 -18.53492187 58.38691406 -17.68359375 57.84570312 C-12.36392108 54.51986708 -6.99343708 51.75119194 -1.1875 49.375 C-1.34347656 48.71886719 -1.49945313 48.06273437 -1.66015625 47.38671875 C-2.43668766 42.95186156 -2.54108923 38.48583633 -2.70507812 33.99414062 C-2.77794891 29.72514985 -2.77794891 29.72514985 -5.1875 26.375 C-7.15279922 25.96780131 -9.13620265 25.64499431 -11.125 25.375 C-14.98211942 24.85009432 -16.90561971 24.56292019 -20.1875 22.375 C-21.1780333 15.01675261 -19.25424095 7.0708642 -16.1875 0.375 C-10.90793677 -2.68611484 -5.32618735 -2.7153112 0 0 Z M-10.1875 5.375 C-12.54198165 7.92568845 -13.17077924 9.08517358 -13.375 12.625 C-13.2821875 13.98625 -13.2821875 13.98625 -13.1875 15.375 C-11.970625 15.6225 -10.75375 15.87 -9.5 16.125 C-5.56862689 17.12697828 -3.02852478 18.36685612 -0.1875 21.375 C2.19649406 27.03596184 1.85839417 32.00259676 1.58984375 38.03515625 C1.83273867 41.67858006 2.69559454 43.45112797 4.8125 46.375 C9.48773036 45.78705436 13.25758664 44.45187864 17.5625 42.5625 C21.86877873 40.68150262 25.87337291 39.25517576 30.546875 38.6171875 C38.65544865 37.86606269 38.65544865 37.86606269 45.28613281 33.73974609 C47.91011894 29.55835812 49.46066117 25.10055835 50.8125 20.375 C46.8525 20.375 42.8925 20.375 38.8125 20.375 C38.420625 21.591875 38.02875 22.80875 37.625 24.0625 C36.04389869 28.16462 34.51014147 30.80272768 30.8125 33.375 C25.19882371 34.45415404 20.59965736 33.5301719 15.8125 30.375 C10.96347942 26.08909148 8.59870196 21.52649311 5.8515625 15.81445312 C3.76589018 11.6639652 1.85773976 8.91503427 -2.1875 6.375 C-4.37436956 5.70075564 -4.37436956 5.70075564 -6.5 5.625 C-7.716875 5.5425 -8.93375 5.46 -10.1875 5.375 Z M58.8125 10.375 C57.1455964 13.2518568 55.99462647 16.27302904 54.8125 19.375 C54.17441406 20.94121094 54.17441406 20.94121094 53.5234375 22.5390625 C51.02629747 28.77461099 49.04372412 34.77116155 47.8125 41.375 C46.7915625 41.35695312 45.770625 41.33890625 44.71875 41.3203125 C29.477457 41.5336906 16.37039933 48.03074901 2.8125 54.375 C1.81065674 54.8385791 1.81065674 54.8385791 0.78857422 55.31152344 C-9.21385474 59.9697249 -18.51513506 65.46881546 -26.62890625 72.9921875 C-28.1875 74.375 -28.1875 74.375 -30.1875 75.375 C-30.1875 76.035 -30.1875 76.695 -30.1875 77.375 C-30.8475 77.375 -31.5075 77.375 -32.1875 77.375 C-32.1875 78.035 -32.1875 78.695 -32.1875 79.375 C-32.77789062 79.65085937 -33.36828125 79.92671875 -33.9765625 80.2109375 C-38.91590404 82.81150955 -42.77966329 86.62009388 -46.046875 91.109375 C-48.04010381 93.81984299 -50.05158011 96.50828158 -52.1171875 99.1640625 C-60.0583147 109.46308545 -67.74070182 119.66014448 -71.1875 132.375 C-71.661875 133.138125 -72.13625 133.90125 -72.625 134.6875 C-77.2171423 142.58598475 -77.93237838 151.41607786 -78.1875 160.375 C-78.21473145 161.29313477 -78.24196289 162.21126953 -78.27001953 163.15722656 C-78.34984755 166.31319456 -78.39840671 169.46827681 -78.4375 172.625 C-78.45901123 173.64287598 -78.48052246 174.66075195 -78.50268555 175.70947266 C-78.5307259 182.19684559 -77.63926376 187.37917556 -75.1875 193.375 C-74.77628906 194.47328125 -74.36507812 195.5715625 -73.94140625 196.703125 C-73.54824219 197.66734375 -73.15507813 198.6315625 -72.75 199.625 C-72.35941406 200.59953125 -71.96882813 201.5740625 -71.56640625 202.578125 C-70.10032311 205.55182338 -68.26214133 207.80295491 -66.1875 210.375 C-65.836875 211.550625 -65.48625 212.72625 -65.125 213.9375 C-61.155454 225.16685739 -49.397352 233.38295934 -39.1875 238.375 C-23.89721605 244.60437494 -8.88993374 242.54204245 6.27734375 237.56640625 C12.6615336 234.83778523 18.09382085 229.35390042 22.8125 224.375 C22.8125 223.715 22.8125 223.055 22.8125 222.375 C23.4725 222.375 24.1325 222.375 24.8125 222.375 C26.4571674 219.91173288 26.4571674 219.91173288 27.8125 217.375 C27.28462891 216.69630859 27.28462891 216.69630859 26.74609375 216.00390625 C15.90933058 201.03615764 12.70248963 186.16208882 15.296875 167.98046875 C17.6928426 157.53463441 24.6898493 150.02137502 31.8125 142.375 C32.575625 141.488125 33.33875 140.60125 34.125 139.6875 C41.98570016 132.92364172 52.69542894 127.58036144 63.23046875 127.96875 C70.79360474 129.15871391 76.4318131 133.19371153 81.15625 139.0546875 C83.65356796 142.55328861 85.92949858 146.171895 88.13671875 149.859375 C89.8110458 152.37281701 91.65755329 154.27403943 93.8125 156.375 C94.43125 157.5815625 94.43125 157.5815625 95.0625 158.8125 C98.38306088 163.67474986 103.03454973 165.97352736 108.6875 167.25 C111.71866019 167.62300522 111.71866019 167.62300522 113.8125 166.375 C113.05302887 163.26241502 113.05302887 163.26241502 110.625 161.4375 C104.91213216 155.92449925 101.15380757 147.41854452 100.76953125 139.51953125 C100.9399349 131.01483975 102.28574687 123.31376224 106.9375 116.0625 C117.5342661 106.15682734 134.03388472 105.20181751 147.75 105.3125 C149.34811523 105.31926758 149.34811523 105.31926758 150.97851562 105.32617188 C153.58990291 105.33788213 156.20117124 105.35428276 158.8125 105.375 C158.4825 104.776875 158.1525 104.17875 157.8125 103.5625 C156.8125 101.375 156.8125 101.375 156.8125 98.375 C203.12670964 98.184924 203.12670964 98.184924 223.375 98.875 C224.74014866 98.92029695 226.1053016 98.96546493 227.47045898 99.01049805 C228.77184814 99.05343994 230.0732373 99.09638184 231.4140625 99.140625 C238.35914402 99.36797763 245.30151675 99.54991111 252.25 99.625 C253.19238525 99.64626953 254.13477051 99.66753906 255.10571289 99.68945312 C255.95641357 99.69396484 256.80711426 99.69847656 257.68359375 99.703125 C258.78078735 99.71714355 258.78078735 99.71714355 259.90014648 99.73144531 C261.86697083 99.47882237 261.86697083 99.47882237 263.55883789 98.33496094 C265.50351012 95.29468272 265.12678774 92.16928649 265 88.6875 C264.97969727 87.6346582 264.97969727 87.6346582 264.95898438 86.56054688 C264.92370182 84.83170171 264.86989583 83.10325235 264.8125 81.375 C263.05788452 81.38285522 263.05788452 81.38285522 261.26782227 81.39086914 C226.45575274 81.5300286 191.65576224 81.2155044 156.84698582 80.7664423 C152.26259085 80.70748795 147.67817812 80.65006452 143.09375 80.59375 C142.2066931 80.58283766 141.31963619 80.57192532 140.40569878 80.5606823 C121.54117589 80.33371216 102.67810485 80.3215004 83.8125 80.375 C83.8434375 82.045625 83.8434375 82.045625 83.875 83.75 C83.8125 87.375 83.8125 87.375 82.8125 89.375 C80.75 90 80.75 90 78.8125 90.375 C77.12045211 69.49633764 76.45217873 48.10698213 79.8125 27.375 C80.8025 27.705 81.7925 28.035 82.8125 28.375 C83.1425 31.345 83.4725 34.315 83.8125 37.375 C87.85145044 38.333082 91.63636542 38.51387282 95.78256226 38.53994751 C96.47201577 38.54559105 97.16146928 38.5512346 97.87181532 38.55704916 C100.17544153 38.57470766 102.47904677 38.58545075 104.78271484 38.59619141 C106.43710096 38.60741227 108.09148432 38.61904474 109.74586487 38.63105774 C114.23554488 38.6623506 118.7252399 38.68749421 123.21496534 38.7112546 C126.96493029 38.73169422 130.71487313 38.755228 134.46481955 38.77879179 C143.31311311 38.83438358 152.16142522 38.88510995 161.00976562 38.93261719 C170.13302077 38.98166692 179.25620991 39.03797929 188.3793987 39.09803832 C196.21646602 39.1494256 204.05355037 39.1967496 211.89066279 39.24072587 C216.56949406 39.26699264 221.24830514 39.29468652 225.92710495 39.3260994 C230.32817637 39.35543277 234.72924729 39.37966154 239.13036919 39.39999962 C240.74322589 39.40828245 242.35607469 39.41832724 243.96890831 39.43028831 C246.17543518 39.44636277 248.38190172 39.4559796 250.58847046 39.46401978 C251.82178793 39.47101709 253.0551054 39.47801441 254.32579613 39.48522377 C257.90968331 39.37192778 261.29459315 39.07545656 264.8125 38.375 C267.69145477 32.61709046 266.199462 23.78099003 264.625 17.75 C263.54506166 14.62172791 262.99091829 13.5299422 260.4375 11.3125 C257.89138205 10.40317216 255.48825759 9.75725108 252.8125 9.375 C250.6613117 12.82334316 250.6613117 12.82334316 249.125 16.5625 C246.92032854 19.60704631 243.34577998 19.80110941 239.8125 20.375 C235.95431679 20.64261621 232.11225672 20.63141173 228.24609375 20.60546875 C227.09549469 20.6054184 225.94489563 20.60536804 224.75942993 20.60531616 C220.92284996 20.60166418 217.08652684 20.58257264 213.25 20.5625 C211.22562909 20.55615829 209.20125738 20.55118093 207.17688274 20.54619122 C184.27191199 20.48638156 161.36748485 20.24284395 138.46422195 19.9683876 C135.90200716 19.93782218 133.33978315 19.90813858 130.77755737 19.87850952 C112.439279 19.66305361 94.12954768 19.35256492 75.8125 18.375 C75.67972656 17.66472656 75.54695312 16.95445313 75.41015625 16.22265625 C75.14525391 14.84400391 75.14525391 14.84400391 74.875 13.4375 C74.70097656 12.52097656 74.52695313 11.60445312 74.34765625 10.66015625 C74.03535012 8.42210156 74.03535012 8.42210156 72.8125 7.375 C67.59037233 6.81394496 62.79924427 6.61606969 58.8125 10.375 Z M97.02978516 43.80712891 C95.20970223 43.86644624 95.20970223 43.86644624 93.35284996 43.9269619 C92.24549303 43.9694034 91.1381361 44.0118449 89.9972229 44.05557251 C88.52737159 44.11137954 88.52737159 44.11137954 87.02782631 44.16831398 C84.84002947 44.13468298 84.84002947 44.13468298 83.8125 45.375 C81.84178723 54.7906277 82.18516046 64.17931161 84.8125 73.375 C89.7625 73.375 94.7125 73.375 99.8125 73.375 C100.1425 72.715 100.4725 72.055 100.8125 71.375 C101.1425 72.035 101.4725 72.695 101.8125 73.375 C147.6825 73.375 193.5525 73.375 240.8125 73.375 C240.8125 74.035 240.8125 74.695 240.8125 75.375 C247.7425 75.375 254.6725 75.375 261.8125 75.375 C261.4825 65.475 261.1525 55.575 260.8125 45.375 C243.89577082 44.49645362 227.02337978 44.15331426 210.0859375 44.0234375 C208.0516787 44.00636482 206.0174245 43.98880225 203.98317015 43.97120821 C197.60811032 43.91616004 191.23302665 43.86538326 184.85791016 43.81738281 C178.37209554 43.76847008 171.88637677 43.71206995 165.40065706 43.65196168 C159.75059916 43.59988687 154.10051333 43.5527576 148.45038283 43.50927413 C145.11194883 43.48353175 141.77357788 43.45559799 138.43519211 43.4239006 C124.62260915 43.29542853 110.83565673 43.34144017 97.02978516 43.80712891 Z M267.8125 48.375 C267.75435915 51.95826501 267.71885643 55.54140838 267.6875 59.125 C267.67074219 60.14078125 267.65398437 61.1565625 267.63671875 62.203125 C267.63027344 63.1828125 267.62382812 64.1625 267.6171875 65.171875 C267.60671387 66.07260742 267.59624023 66.97333984 267.58544922 67.90136719 C267.82528324 70.51426856 268.48937936 72.13164666 269.8125 74.375 C273.20118212 69.29197682 272.25609311 63.31529031 271.8125 57.375 C271.069566 54.16277671 270.07819507 51.43376309 268.8125 48.375 C268.4825 48.375 268.1525 48.375 267.8125 48.375 Z M105.8125 127.375 C103.22363564 132.55272873 104.10047991 140.58388123 105.49609375 146.0546875 C107.66393325 151.25390423 110.92239551 155.34225835 114.8125 159.375 C115.8025 159.045 116.7925 158.715 117.8125 158.375 C117.35869698 152.12648155 115.8683742 147.77474567 112.875 142.3125 C110.21684031 137.38135223 108.16648986 132.82640419 106.8125 127.375 C106.4825 127.375 106.1525 127.375 105.8125 127.375 Z " fill="#DADADA" transform="translate(118.1875,36.625)"/>
<path d="M0 0 C5.20230767 1.42808446 9.03138742 4.28890962 12.56640625 8.2890625 C15.08679277 13.42677348 16.66863861 18.76126025 15.70703125 24.484375 C15.1312421 27.96528212 15.30675134 30.96865352 15.62890625 34.4765625 C15.78166016 36.20519531 15.78166016 36.20519531 15.9375 37.96875 C16.02128906 38.83757812 16.10507812 39.70640625 16.19140625 40.6015625 C13.88140625 40.2715625 11.57140625 39.9415625 9.19140625 39.6015625 C8.62923983 40.57806369 8.62923983 40.57806369 8.05571651 41.57429218 C6.19140625 43.6015625 6.19140625 43.6015625 3.57348728 44.07534313 C2.51384234 44.0629828 1.45419741 44.05062246 0.36244202 44.03788757 C-1.46361069 44.03134659 -1.46361069 44.03134659 -3.32655334 44.02467346 C-4.6785651 43.99947449 -6.03056996 43.97390339 -7.38256836 43.94799805 C-8.80552758 43.93536896 -10.22850364 43.92452871 -11.65148926 43.91534424 C-14.72263181 43.89161732 -17.79326561 43.85508993 -20.86414909 43.80872154 C-25.74886904 43.73497666 -30.633614 43.68908136 -35.51869202 43.64668274 C-43.28051041 43.57592265 -51.04196803 43.485733 -58.80348545 43.38771421 C-72.60546577 43.21403274 -86.40780462 43.07359632 -100.21021658 42.9391883 C-105.03475284 42.89146388 -109.85910351 42.83561011 -114.68346721 42.77290207 C-133.43038114 42.53316969 -152.0748561 42.70788598 -170.80859375 43.6015625 C-171.51964458 48.34343128 -171.94422081 52.86594656 -171.93359375 57.6640625 C-171.93617188 58.83066406 -171.93875 59.99726562 -171.94140625 61.19921875 C-171.86234447 65.05481688 -171.86234447 65.05481688 -170.80859375 70.6015625 C-165.85859375 70.9315625 -160.90859375 71.2615625 -155.80859375 71.6015625 C-155.31359375 70.1165625 -155.31359375 70.1165625 -154.80859375 68.6015625 C-154.47859375 69.5915625 -154.14859375 70.5815625 -153.80859375 71.6015625 C-152.16503906 71.49328125 -152.16503906 71.49328125 -150.48828125 71.3828125 C-140.64432088 70.78520633 -130.82661631 70.51942388 -120.96484375 70.5390625 C-119.69796722 70.54039185 -118.4310907 70.54172119 -117.12582397 70.54309082 C-98.24698051 70.57897398 -79.36892426 70.83878728 -60.49163818 71.06512451 C-55.32126329 71.12673188 -50.15086504 71.18631429 -44.98046875 71.24609375 C-34.92315396 71.36266025 -24.86586592 71.48137877 -14.80859375 71.6015625 C-14.80859375 72.2615625 -14.80859375 72.9215625 -14.80859375 73.6015625 C-54.73859375 73.6015625 -94.66859375 73.6015625 -135.80859375 73.6015625 C-136.30359375 75.5815625 -136.30359375 75.5815625 -136.80859375 77.6015625 C-135.98810547 77.59934189 -135.16761719 77.59712128 -134.32226562 77.59483337 C-123.81771789 77.56774908 -113.31317106 77.54971931 -102.80859375 77.5390625 C-101.55185223 77.53777847 -101.55185223 77.53777847 -100.26972198 77.53646851 C-71.77080149 77.51074754 -43.29768431 77.79238452 -14.80859375 78.6015625 C-14.47859375 79.2615625 -14.14859375 79.9215625 -13.80859375 80.6015625 C-36.90318026 80.67626188 -59.99177919 80.49272876 -83.0847168 80.22924805 C-86.92974932 80.18546605 -90.77479488 80.14381723 -94.61987305 80.10424805 C-120.35778745 79.83912244 -146.08058352 79.36983939 -171.80859375 78.6015625 C-171.49921875 80.24125 -171.49921875 80.24125 -171.18359375 81.9140625 C-170.80859375 85.6015625 -170.80859375 85.6015625 -172.80859375 88.6015625 C-174.12859375 88.6015625 -175.44859375 88.6015625 -176.80859375 88.6015625 C-179.19375635 80.44279201 -179.1129403 72.36082656 -179.06933594 63.93847656 C-179.05870909 61.50299643 -179.06922343 59.06826883 -179.08203125 56.6328125 C-179.10312831 32.19063161 -179.10312831 32.19063161 -175.80859375 25.6015625 C-174.48859375 25.9315625 -173.16859375 26.2615625 -171.80859375 26.6015625 C-171.80859375 29.5715625 -171.80859375 32.5415625 -171.80859375 35.6015625 C-170.33392136 35.59861679 -168.85924896 35.59567108 -167.33988953 35.59263611 C-150.18034982 35.56958556 -133.02336111 35.67714771 -115.86457253 35.81732368 C-111.02567 35.85669837 -106.18675012 35.8935592 -101.3478241 35.92991638 C-100.11018215 35.93923174 -100.11018215 35.93923174 -98.84753734 35.9487353 C-97.16475236 35.9613981 -95.48196735 35.97405613 -93.7991823 35.98670948 C-82.57971769 36.07118621 -71.36027179 36.15738789 -60.14086914 36.24975586 C-52.50282696 36.31261967 -44.86476588 36.37176114 -37.22666186 36.42661804 C-33.2054137 36.45564883 -29.18420035 36.48656757 -25.16300392 36.52209663 C-21.39940408 36.55532864 -17.63579907 36.58366219 -13.87213326 36.60826874 C-11.84239026 36.62281946 -9.81268672 36.64258314 -7.7829895 36.66252136 C-2.01616031 36.69586901 3.51689487 36.67866593 9.19140625 35.6015625 C10.0678384 23.12958757 10.0678384 23.12958757 6.19140625 11.6015625 C3.28967681 9.91917682 0.48793376 9.14061731 -2.80859375 8.6015625 C-2.99292969 9.14425781 -3.17726563 9.68695313 -3.3671875 10.24609375 C-3.65722656 10.96152344 -3.94726562 11.67695312 -4.24609375 12.4140625 C-4.51292969 13.12175781 -4.77976562 13.82945313 -5.0546875 14.55859375 C-8.37493164 18.42604962 -12.82416467 19.36599814 -17.73751831 19.7538147 C-23.34381528 20.00501383 -28.94897454 19.92379756 -34.55859375 19.8515625 C-36.31322696 19.83966074 -38.06786605 19.82859586 -39.82250977 19.81835938 C-51.83269971 19.72782557 -63.82367896 19.41508399 -75.80859375 18.6015625 C-75.80859375 18.2715625 -75.80859375 17.9415625 -75.80859375 17.6015625 C-63.92859375 17.6015625 -52.04859375 17.6015625 -39.80859375 17.6015625 C-39.47859375 16.6115625 -39.14859375 15.6215625 -38.80859375 14.6015625 C-71.76536704 13.91408806 -104.72208459 13.42569676 -137.68359375 13.0390625 C-138.62986759 13.0279607 -139.57614143 13.0168589 -140.55109024 13.00542068 C-152.30355778 12.8678144 -164.05605839 12.73324699 -175.80859375 12.6015625 C-175.80859375 12.2715625 -175.80859375 11.9415625 -175.80859375 11.6015625 C-175.0007566 11.60248429 -174.19291945 11.60340609 -173.36060238 11.60435581 C-153.69685511 11.62644788 -134.03311033 11.64299204 -114.36935329 11.65337467 C-104.8600819 11.65852919 -95.3508188 11.66555582 -85.84155273 11.67700195 C-77.55250848 11.68697457 -69.26347022 11.69342208 -60.97442013 11.69565099 C-56.58615918 11.69695371 -52.1979154 11.70001187 -47.80965996 11.70729256 C-43.67702545 11.71409341 -39.54441516 11.71617118 -35.41177559 11.71467018 C-33.89729811 11.71494468 -32.3828198 11.71692564 -30.86834717 11.72076797 C-28.79509082 11.72576879 -26.72192498 11.72453737 -24.64866638 11.72181702 C-22.91062571 11.72319971 -22.91062571 11.72319971 -21.13747311 11.72461033 C-17.63571785 11.59517236 -14.26650721 11.15582447 -10.80859375 10.6015625 C-10.69902344 9.97507812 -10.58945312 9.34859375 -10.4765625 8.703125 C-10.31800781 7.88585938 -10.15945313 7.06859375 -9.99609375 6.2265625 C-9.76986328 5.00839844 -9.76986328 5.00839844 -9.5390625 3.765625 C-7.92557786 -1.01443111 -4.34537559 -0.68821787 0 0 Z " fill="#D8D8D8" transform="translate(373.80859375,38.3984375)"/>
<path d="M0 0 C3.98570112 0.56938587 6.85678248 1.43579623 10 4 C14.70297291 12.60916116 15.14922366 23.81413093 13.375 33.3125 C12 37 12 37 8.875 39.3125 C5.78372686 41.65355338 5.78372686 41.65355338 5.57421875 44.609375 C5.55997143 48.19969996 5.55975918 51.60190189 6.64453125 55.046875 C7.13860504 57.76156617 6.30451369 59.22679042 5.125 61.6875 C4.75632812 62.47511719 4.38765625 63.26273438 4.0078125 64.07421875 C3 66 3 66 2 67 C-0.53259755 67.10279344 -3.03710112 67.1394012 -5.5703125 67.1328125 C-6.77684479 67.13485939 -6.77684479 67.13485939 -8.00775146 67.13694763 C-10.7135398 67.1390107 -13.41922232 67.13255311 -16.125 67.125 C-17.05362854 67.12378143 -17.98225708 67.12256287 -18.93902588 67.12130737 C-36.2531349 67.09501649 -53.56362931 66.8581206 -70.875 66.5625 C-72.09302307 66.5429425 -73.31104614 66.52338501 -74.565979 66.50323486 C-78.04149771 66.44612637 -81.51682806 66.38243381 -84.9921875 66.31640625 C-86.03308533 66.29968369 -87.07398315 66.28296112 -88.14642334 66.26573181 C-89.10985657 66.24579666 -90.07328979 66.22586151 -91.06591797 66.20532227 C-92.32032181 66.18200584 -92.32032181 66.18200584 -93.60006714 66.15821838 C-96.13718831 65.9909557 -98.52027011 65.55121031 -101 65 C-100.71125 65.51949219 -100.4225 66.03898437 -100.125 66.57421875 C-96.43760984 73.50087873 -96.43760984 73.50087873 -97 78 C-99.58083461 77.55757121 -101.84708491 77.06743131 -104.25 76.0078125 C-114.81736898 72.13511194 -127.18859003 74.24869169 -138 76 C-138.94617188 76.11085938 -139.89234375 76.22171875 -140.8671875 76.3359375 C-145.01297747 76.94761143 -146.75719974 77.71470969 -149.5 80.9375 C-151.70460541 85.6673807 -151.81399428 90.85694193 -152 96 C-153.98 96.495 -153.98 96.495 -156 97 C-157.47075246 92.58774263 -158.36884358 89.51718381 -157 85 C-157.99 85 -158.98 85 -160 85 C-160.33 86.32 -160.66 87.64 -161 89 C-161.33 89 -161.66 89 -162 89 C-162.68564318 83.61280357 -162.27259612 80.7101105 -159.0625 76.25 C-155.25639131 71.80189707 -151.50833969 69.77021683 -146 68 C-145.15824219 67.71511719 -144.31648438 67.43023437 -143.44921875 67.13671875 C-134.78653076 64.36308117 -126.60442355 63.86102309 -117.5625 63.9375 C-116.54478516 63.94201172 -115.52707031 63.94652344 -114.47851562 63.95117188 C-111.98561491 63.96287563 -109.49283926 63.97927152 -107 64 C-107.66 63.01 -108.32 62.02 -109 61 C-108.625 58.8125 -108.625 58.8125 -108 57 C-84.48589027 56.90349683 -60.99158616 56.82171351 -37.48925781 57.64208984 C-25.32264249 58.0590847 -13.17229766 58.10013773 -1 58 C-0.67 52.39 -0.34 46.78 0 41 C-1.49031738 41.00507568 -2.98063477 41.01015137 -4.51611328 41.01538086 C-17.05182756 41.04496974 -29.57228124 40.93590425 -42.10400391 40.62960815 C-65.40028549 40.06541737 -88.69921948 39.74272315 -112 39.4375 C-112.84539085 39.4263982 -113.69078171 39.4152964 -114.56179047 39.40385818 C-125.04115733 39.26635084 -135.52055791 39.13164902 -146 39 C-145.67 37.68 -145.34 36.36 -145 35 C-98.14 35 -51.28 35 -3 35 C-3.33 33.02 -3.66 31.04 -4 29 C-4.25362461 24.98083704 -4.27618263 20.96388556 -4.3125 16.9375 C-4.34150391 15.86177734 -4.37050781 14.78605469 -4.40039062 13.67773438 C-4.46431403 5.7463152 -4.46431403 5.7463152 -1.98046875 1.75390625 C-1.32691406 1.17511719 -0.67335938 0.59632812 0 0 Z M3 8 C2.94185915 11.58326501 2.90635643 15.16640838 2.875 18.75 C2.85824219 19.76578125 2.84148437 20.7815625 2.82421875 21.828125 C2.81777344 22.8078125 2.81132812 23.7875 2.8046875 24.796875 C2.79421387 25.69760742 2.78374023 26.59833984 2.77294922 27.52636719 C3.01278324 30.13926856 3.67687936 31.75664666 5 34 C8.38868212 28.91697682 7.44359311 22.94029031 7 17 C6.257066 13.78777671 5.26569507 11.05876309 4 8 C3.67 8 3.34 8 3 8 Z " fill="#E3E3E3" transform="translate(383,77)"/>
<path d="M0 0 C4.76435179 3.67327886 9.20323547 8.88988482 10.22265625 14.93359375 C11.36619692 32.25542291 11.36619692 32.25542291 6.22265625 38.93359375 C5.10890625 40.38765625 5.10890625 40.38765625 3.97265625 41.87109375 C0.40161942 44.54937137 -2.46300845 44.83231827 -6.77734375 44.93359375 C-7.85886719 44.98386719 -8.94039062 45.03414062 -10.0546875 45.0859375 C-18.78462217 45.32290641 -26.88456254 45.32942417 -33.71484375 39.37109375 C-39.65209846 30.71786082 -39.71934998 20.02046944 -38.77734375 9.93359375 C-37.20437196 3.95274621 -33.82883684 0.33561971 -28.77734375 -3.06640625 C-19.45145274 -5.51484252 -8.39518181 -5.03710909 0 0 Z M-30.56640625 8.1953125 C-33.3623576 14.51777024 -32.75001767 23.07375941 -30.52734375 29.55859375 C-28.24093954 33.96808759 -26.52642455 36.35056682 -21.77734375 37.93359375 C-19.13623898 38.10757581 -16.54487263 38.2103839 -13.90234375 38.24609375 C-13.19464844 38.27509766 -12.48695312 38.30410156 -11.7578125 38.33398438 C-8.03962162 38.37899041 -5.97549138 38.05926106 -2.80859375 36.05078125 C-0.69216318 33.84480939 -0.3744309 32.81951497 0.22265625 29.93359375 C1.21265625 29.60359375 2.20265625 29.27359375 3.22265625 28.93359375 C5.22700918 24.92488788 4.11939465 20.1818919 3.22265625 15.93359375 C0.79214013 10.3467824 -2.66716911 5.91673674 -8.36328125 3.51953125 C-16.43781904 1.55969198 -25.0628925 1.23781367 -30.56640625 8.1953125 Z " fill="#FFFFFF" transform="translate(110.77734375,207.06640625)"/>
<path d="M0 0 C3.03722197 2.44298288 4.84424433 4.7663665 7 8 C7.125 11.1875 7.125 11.1875 7 14 C8.37321411 13.99666908 8.37321411 13.99666908 9.77416992 13.99327087 C21.51610469 13.96614414 33.25803867 13.94814126 45 13.9375 C45.93787479 13.93664398 46.87574959 13.93578796 47.84204483 13.93490601 C80.57335685 13.90852252 113.27727545 14.21437045 146 15 C145.01049805 16.97558594 145.01049805 16.97558594 143 19 C140.14470106 19.35569326 137.68082619 19.46681139 134.83203125 19.390625 C134.03721848 19.38496521 133.2424057 19.37930542 132.42350769 19.37347412 C129.88589134 19.35109004 127.3496892 19.30089262 124.8125 19.25 C123.09181727 19.2299375 121.37111241 19.21168629 119.65039062 19.1953125 C115.43304918 19.15121894 111.21676431 19.08217965 107 19 C107 19.66 107 20.32 107 21 C96.76700053 20.89155031 86.53405867 20.77874431 76.30116558 20.66066074 C71.54755793 20.6059368 66.79394388 20.55260899 62.0402832 20.50268555 C57.43661494 20.4542824 52.83300569 20.40193308 48.22941017 20.34705925 C46.48953572 20.32697318 44.74964534 20.30821341 43.00974083 20.29092598 C33.83978687 20.19889768 24.68643828 19.99878976 15.52661133 19.54272461 C14.72936236 19.50469254 13.9321134 19.46666048 13.11070538 19.42747593 C6.05528076 19.04464687 6.05528076 19.04464687 3 18 C1.953125 15.71484375 1.953125 15.71484375 1.25 12.9375 C1.00765625 12.01839844 0.7653125 11.09929688 0.515625 10.15234375 C0.34546875 9.44207031 0.1753125 8.73179688 0 8 C-1.41623216 7.94552953 -2.83308191 7.90699492 -4.25 7.875 C-5.43335938 7.84019531 -5.43335938 7.84019531 -6.640625 7.8046875 C-9.35196439 8.02913612 -10.75723711 8.4558026 -13 10 C-14.76841423 12.38454329 -14.76841423 12.38454329 -16.25 15.125 C-16.77078125 16.03507812 -17.2915625 16.94515625 -17.828125 17.8828125 C-18.21484375 18.58148438 -18.6015625 19.28015625 -19 20 C-21.31 19.67 -23.62 19.34 -26 19 C-26.33 17.68 -26.66 16.36 -27 15 C-24.69 15 -22.38 15 -20 15 C-20.103125 14.319375 -20.20625 13.63875 -20.3125 12.9375 C-19.85803211 8.66550188 -17.9734219 6.04099967 -15 3 C-9.8696228 -0.00078666 -5.79131093 -0.74726593 0 0 Z " fill="#E5E5E5" transform="translate(191,37)"/>
<path d="M0 0 C0.66 0.33 1.32 0.66 2 1 C2 1.66 2 2.32 2 3 C3.64355469 2.89171875 3.64355469 2.89171875 5.3203125 2.78125 C15.16427287 2.18364383 24.98197744 1.91786138 34.84375 1.9375 C36.11062653 1.93882935 37.37750305 1.94015869 38.68276978 1.94152832 C57.56161324 1.97741148 76.43966949 2.23722478 95.31695557 2.46356201 C100.48733046 2.52516938 105.65772871 2.58475179 110.828125 2.64453125 C120.88543979 2.76109775 130.94272783 2.87981627 141 3 C141 3.66 141 4.32 141 5 C101.07 5 61.14 5 20 5 C19.67 6.32 19.34 7.64 19 9 C19.82048828 8.99777939 20.64097656 8.99555878 21.48632812 8.99327087 C31.99087586 8.96618658 42.49542269 8.94815681 53 8.9375 C54.25674152 8.93621597 54.25674152 8.93621597 55.53887177 8.93490601 C84.03779226 8.90918504 112.51090944 9.19082202 141 10 C141.33 10.66 141.66 11.32 142 12 C118.90541349 12.07469938 95.81681456 11.89116626 72.72387695 11.62768555 C68.87884443 11.58390355 65.03379887 11.54225473 61.1887207 11.50268555 C35.4508063 11.23755994 9.72801023 10.76827689 -16 10 C-15.690625 11.6396875 -15.690625 11.6396875 -15.375 13.3125 C-15 17 -15 17 -17 20 C-18.32 20 -19.64 20 -21 20 C-22.26305335 14.92523206 -23.27036084 10.27203646 -23 5 C-22.34 4.67 -21.68 4.34 -21 4 C-20.34 5.32 -19.68 6.64 -19 8 C-18.01 8 -17.02 8 -16 8 C-16 6.35 -16 4.7 -16 3 C-10.72 3 -5.44 3 0 3 C0 2.01 0 1.02 0 0 Z " fill="#B8B8B8" transform="translate(218,107)"/>
<path d="M0 0 C2.67691337 0.9518988 4.52875491 2.36287222 6.7890625 4.08203125 C17.82338187 11.93151792 30.79960021 14.96240981 44.3046875 13.32421875 C48.89831078 12.43310604 53.34246893 11.10533016 57.8046875 9.70703125 C61.25501191 8.74415002 64.61783151 8.24488606 68.1640625 7.76953125 C70.17822812 7.14697097 72.18421769 6.49386472 74.1640625 5.76953125 C73.1979259 11.42833134 70.36348327 13.80216602 65.94140625 17.02734375 C53.31553502 24.94736987 40.81886476 27.57751981 26.1171875 25.296875 C19.24244301 23.36456687 13.14371155 19.70440762 7.0390625 16.08203125 C6.19625732 15.6015332 5.35345215 15.12103516 4.48510742 14.62597656 C-1.32729561 10.99671092 -1.32729561 10.99671092 -2.83105469 7.36865234 C-3.32817615 5.15329518 -3.67338919 3.03224162 -3.8359375 0.76953125 C-1.8359375 -0.23046875 -1.8359375 -0.23046875 0 0 Z " fill="#E5E5E5" transform="translate(62.8359375,264.23046875)"/>
<path d="M0 0 C0.66 0.99 1.32 1.98 2 3 C2.33 2.01 2.66 1.02 3 0 C3.99 0 4.98 0 6 0 C5 3 5 3 4 4 C3.12289175 14.46778366 4.12171511 22.24524247 10.625 30.5625 C11.40875 31.366875 12.1925 32.17125 13 33 C13.66 33 14.32 33 15 33 C14.74922726 26.35452233 12.65200485 22.02150466 9.27734375 16.3203125 C8 14 8 14 8 12 C8.66 11.67 9.32 11.34 10 11 C10.66 10.01 11.32 9.02 12 8 C22.85495136 27.11033508 22.85495136 27.11033508 21.4375 36.875 C20.05036379 41.63352026 17.79763153 45.75566578 14 49 C5.30088244 50.51889354 -1.0027846 46.18694181 -7.984375 41.5 C-11.66544048 38.76060243 -13.52756204 36.28482108 -15.5 32.125 C-18.57542958 25.60948344 -18.57542958 25.60948344 -23 20 C-22.01 20 -21.02 20 -20 20 C-19.34 18.68 -18.68 17.36 -18 16 C-17.54109375 16.74765625 -17.0821875 17.4953125 -16.609375 18.265625 C-15.99578125 19.25046875 -15.3821875 20.2353125 -14.75 21.25 C-14.14671875 22.22453125 -13.5434375 23.1990625 -12.921875 24.203125 C-11.13557256 26.80270334 -9.25122957 28.81064354 -7 31 C-6.566875 31.825 -6.13375 32.65 -5.6875 33.5 C-3.41986622 36.85945745 -0.72198532 38.58210083 3 40 C5.99723417 40.57180938 8.95365977 40.86184398 12 41 C11.56429687 40.56171875 11.12859375 40.1234375 10.6796875 39.671875 C3.49808545 32.02393516 -2.2525877 22.78355175 -2 12 C-1.7527919 7.81082492 -1.32989228 3.98967683 0 0 Z " fill="#E0E0E0" transform="translate(220,162)"/>
<path d="M0 0 C0.515625 0.165 1.03125 0.33 1.5625 0.5 C4.73363876 1.15049 7.77218334 1.0620734 11 1 C11 1.33 11 1.66 11 2 C9.35 2 7.7 2 6 2 C6.28875 2.51949219 6.5775 3.03898438 6.875 3.57421875 C10.56239016 10.50087873 10.56239016 10.50087873 10 15 C7.41916539 14.55757121 5.15291509 14.06743131 2.75 13.0078125 C-7.81736898 9.13511194 -20.18859003 11.24869169 -31 13 C-31.94617188 13.11085937 -32.89234375 13.22171875 -33.8671875 13.3359375 C-38.01297747 13.94761143 -39.75719974 14.71470969 -42.5 17.9375 C-44.70460541 22.6673807 -44.81399428 27.85694193 -45 33 C-46.98 33.495 -46.98 33.495 -49 34 C-50.47075246 29.58774263 -51.36884358 26.51718381 -50 22 C-50.99 22 -51.98 22 -53 22 C-53.33 23.32 -53.66 24.64 -54 26 C-54.33 26 -54.66 26 -55 26 C-55.68564318 20.61280357 -55.27259612 17.7101105 -52.0625 13.25 C-48.25639131 8.80189707 -44.50833969 6.77021683 -39 5 C-38.15824219 4.71511719 -37.31648438 4.43023437 -36.44921875 4.13671875 C-27.78653076 1.36308117 -19.60442355 0.86102309 -10.5625 0.9375 C-9.54478516 0.94201172 -8.52707031 0.94652344 -7.47851562 0.95117188 C-4.98561491 0.96287563 -2.49283926 0.97927152 0 1 C0 0.67 0 0.34 0 0 Z " fill="#E5E5E5" transform="translate(276,140)"/>
<path d="M0 0 C3.98570112 0.56938587 6.85678248 1.43579623 10 4 C14.70297291 12.60916116 15.14922366 23.81413093 13.375 33.3125 C11.65506219 37.92506049 10.00818386 39.27102376 6 42 C5.67 42 5.34 42 5 42 C4.67 45.63 4.34 49.26 4 53 C3.01 53 2.02 53 1 53 C1 48.71 1 44.42 1 40 C-5.6 40 -12.2 40 -19 40 C-19.66 38.68 -20.32 37.36 -21 36 C-15.06 35.67 -9.12 35.34 -3 35 C-3.33 33.02 -3.66 31.04 -4 29 C-4.25362461 24.98083704 -4.27618263 20.96388556 -4.3125 16.9375 C-4.34150391 15.86177734 -4.37050781 14.78605469 -4.40039062 13.67773438 C-4.46431403 5.7463152 -4.46431403 5.7463152 -1.98046875 1.75390625 C-1.32691406 1.17511719 -0.67335938 0.59632812 0 0 Z M3 8 C2.94185915 11.58326501 2.90635643 15.16640838 2.875 18.75 C2.85824219 19.76578125 2.84148437 20.7815625 2.82421875 21.828125 C2.81777344 22.8078125 2.81132812 23.7875 2.8046875 24.796875 C2.79421387 25.69760742 2.78374023 26.59833984 2.77294922 27.52636719 C3.01278324 30.13926856 3.67687936 31.75664666 5 34 C8.38868212 28.91697682 7.44359311 22.94029031 7 17 C6.257066 13.78777671 5.26569507 11.05876309 4 8 C3.67 8 3.34 8 3 8 Z " fill="#FEFEFE" transform="translate(383,77)"/>
<path d="M0 0 C3.25292656 0.87602354 5.42462613 2.50515947 8.07421875 4.55859375 C6.62065213 8.31364086 6.62065213 8.31364086 4.26171875 9.37109375 C1.68656997 9.59182079 -0.4280081 9.18303704 -2.92578125 8.55859375 C-3.11011719 9.10128906 -3.29445313 9.64398438 -3.484375 10.203125 C-3.77441406 10.91855469 -4.06445312 11.63398437 -4.36328125 12.37109375 C-4.63011719 13.07878906 -4.89695312 13.78648438 -5.171875 14.515625 C-8.49211914 18.38308087 -12.94135217 19.32302939 -17.85470581 19.71084595 C-23.46100278 19.96204508 -29.06616204 19.88082881 -34.67578125 19.80859375 C-36.43041446 19.79669199 -38.18505355 19.78562711 -39.93969727 19.77539062 C-51.94988721 19.68485682 -63.94086646 19.37211524 -75.92578125 18.55859375 C-75.92578125 18.22859375 -75.92578125 17.89859375 -75.92578125 17.55859375 C-64.04578125 17.55859375 -52.16578125 17.55859375 -39.92578125 17.55859375 C-39.59578125 16.56859375 -39.26578125 15.57859375 -38.92578125 14.55859375 C-71.88255454 13.87111931 -104.83927209 13.38272801 -137.80078125 12.99609375 C-138.74705509 12.98499195 -139.69332893 12.97389015 -140.66827774 12.96245193 C-152.42074528 12.82484565 -164.17324589 12.69027824 -175.92578125 12.55859375 C-175.92578125 12.22859375 -175.92578125 11.89859375 -175.92578125 11.55859375 C-175.1179441 11.55951554 -174.31010695 11.56043734 -173.47778988 11.56138706 C-153.81404261 11.58347913 -134.15029783 11.60002329 -114.48654079 11.61040592 C-104.9772694 11.61556044 -95.4680063 11.62258707 -85.95874023 11.6340332 C-77.66969598 11.64400582 -69.38065772 11.65045333 -61.09160763 11.65268224 C-56.70334668 11.65398496 -52.3151029 11.65704312 -47.92684746 11.66432381 C-43.79421295 11.67112466 -39.66160266 11.67320243 -35.52896309 11.67170143 C-34.01448561 11.67197593 -32.5000073 11.67395689 -30.98553467 11.67779922 C-28.91227832 11.68280004 -26.83911248 11.68156862 -24.76585388 11.67884827 C-23.02781321 11.68023096 -23.02781321 11.68023096 -21.25466061 11.68164158 C-17.75290535 11.55220361 -14.38369471 11.11285572 -10.92578125 10.55859375 C-10.81621094 9.93210937 -10.70664062 9.305625 -10.59375 8.66015625 C-10.43519531 7.84289063 -10.27664063 7.025625 -10.11328125 6.18359375 C-9.88705078 4.96542969 -9.88705078 4.96542969 -9.65625 3.72265625 C-8.01320389 -1.14497768 -4.39339184 -0.65779064 0 0 Z " fill="#CDCDCD" transform="translate(373.92578125,38.44140625)"/>
<path d="M0 0 C39.93 0 79.86 0 121 0 C121 0.33 121 0.66 121 1 C99.88 1.33 78.76 1.66 57 2 C76.84990447 2.28909705 76.84990447 2.28909705 96.69995117 2.56811523 C99.18929599 2.60624282 101.6786356 2.64471235 104.16796875 2.68359375 C106.10524841 2.7083075 106.10524841 2.7083075 108.08166504 2.73352051 C109.93845886 2.76379333 109.93845886 2.76379333 111.83276367 2.79467773 C112.90531906 2.81022202 113.97787445 2.8257663 115.08293152 2.84178162 C117.82028181 2.9902523 120.3325838 3.38545813 123 4 C123 4.66 123 5.32 123 6 C121.87287598 5.97494385 120.74575195 5.9498877 119.58447266 5.92407227 C90.68286837 5.28823241 61.78091149 4.81852238 32.875 4.4375 C31.61188366 4.4208473 31.61188366 4.4208473 30.32324982 4.40385818 C19.88220179 4.26646072 9.44111914 4.13188145 -1 4 C-0.67 2.68 -0.34 1.36 0 0 Z " fill="#F9F9F9" transform="translate(238,112)"/>
<path d="M0 0 C1.82359454 2.7353918 3.33994945 5.47192513 4.875 8.375 C5.68710938 9.83486328 5.68710938 9.83486328 6.515625 11.32421875 C7.58878737 13.25873513 8.62022577 15.21659669 9.625 17.1875 C13.78413473 20.3615765 18.96584254 19.35619039 24 19 C24.680625 17.4221875 24.680625 17.4221875 25.375 15.8125 C25.64957031 15.17699219 25.92414063 14.54148437 26.20703125 13.88671875 C26.86706264 12.31629924 27.47198692 10.72285893 28.0625 9.125 C29 7 29 7 31 6 C33.54615009 5.76827173 36.07396225 5.58105471 38.625 5.4375 C39.33140625 5.39431641 40.0378125 5.35113281 40.765625 5.30664062 C42.51018537 5.20055249 44.25506697 5.09977111 46 5 C46 5.66 46 6.32 46 7 C43.69 7 41.38 7 39 7 C39.495 8.98 39.495 8.98 40 11 C41.65 11 43.3 11 45 11 C45.33 10.34 45.66 9.68 46 9 C46.99 9 47.98 9 49 9 C48.06248654 13.11063592 47.11037604 16.74392759 45.4375 20.625 C44.0762302 23.82102476 43.41851369 26.56818773 43 30 C42.67 30 42.34 30 42 30 C41.93941406 29.37351562 41.87882812 28.74703125 41.81640625 28.1015625 C41.73261719 27.28429687 41.64882812 26.46703125 41.5625 25.625 C41.48128906 24.81289062 41.40007812 24.00078125 41.31640625 23.1640625 C41.10909886 20.95727195 41.10909886 20.95727195 40 19 C40.93446535 16.96855359 41.93224776 14.96466413 43 13 C37.555 12.505 37.555 12.505 32 12 C31.9071875 13.546875 31.9071875 13.546875 31.8125 15.125 C30.80509918 19.92952697 29.38220746 21.53529968 26 25 C22.54455666 26.72772167 18.78533358 26.3580721 15 26 C7.30024985 23.03855763 3.29137738 18.51437 -0.3125 11.375 C-0.67150391 10.694375 -1.03050781 10.01375 -1.40039062 9.3125 C-4 4.30144345 -4 4.30144345 -4 2 C-2.68 2.33 -1.36 2.66 0 3 C0 2.01 0 1.02 0 0 Z " fill="#DCDCDC" transform="translate(125,45)"/>
<path d="M0 0 C4.77010108 2.65676516 9.23623567 6.08928676 11.8125 11 C11.48828125 13.75 11.48828125 13.75 10.8125 16 C6.61618189 15.64286654 3.64877134 14.99670739 -0.0625 13 C-6.89165252 9.71056528 -14.75295818 10.17071279 -22.1875 10 C-22.5175 9.34 -22.8475 8.68 -23.1875 8 C-22.1975 7.67 -21.2075 7.34 -20.1875 7 C-20.5175 6.34 -20.8475 5.68 -21.1875 5 C-21.8475 5 -22.5075 5 -23.1875 5 C-23.1875 3.68 -23.1875 2.36 -23.1875 1 C-15.17046062 -2.56312861 -8.22079937 -3.69249866 0 0 Z " fill="#E7E7E7" transform="translate(189.1875,166)"/>
<path d="M0 0 C0.9075 0.7425 1.815 1.485 2.75 2.25 C3.53375 2.889375 4.3175 3.52875 5.125 4.1875 C7.1208244 6.72066174 7.09970428 8.10266146 6.75 11.25 C3.34687262 10.19124926 0.73646769 9.24097846 -2.25 7.25 C-4.2992094 6.79860541 -4.2992094 6.79860541 -6.4375 6.625 C-7.695625 6.50125 -8.95375 6.3775 -10.25 6.25 C-12.37508244 9.43762365 -12.7520163 11.51512223 -13.25 15.25 C-11.27 15.25 -9.29 15.25 -7.25 15.25 C-7.25 18.22 -7.25 21.19 -7.25 24.25 C-7.91 24.25 -8.57 24.25 -9.25 24.25 C-9.25 23.59 -9.25 22.93 -9.25 22.25 C-10.3225 22.435625 -11.395 22.62125 -12.5 22.8125 C-15.65391546 23.1804568 -17.34818492 23.29465343 -20.25 22.25 C-20.85336238 14.7079703 -19.40440043 7.13725825 -16.25 0.25 C-10.90866984 -2.84692759 -5.32115428 -2.86523692 0 0 Z " fill="#D9D9D9" transform="translate(118.25,36.75)"/>
<path d="M0 0 C1.32 0.33 2.64 0.66 4 1 C4.19647038 3.68711024 4.38239615 6.37428331 4.5625 9.0625 C4.61857422 9.81466797 4.67464844 10.56683594 4.73242188 11.34179688 C5.03937084 16.06881092 4.74862801 20.30058331 4 25 C3.65204956 33.70899473 4.11146085 42.33674324 5 51 C3.02 51.495 3.02 51.495 1 52 C-4.41217993 46.17067577 -3.52917331 39.64965192 -3.375 32.0625 C-3.36138428 30.76465576 -3.34776855 29.46681152 -3.33374023 28.12963867 C-2.96790009 5.93580018 -2.96790009 5.93580018 0 0 Z " fill="#F8F8F8" transform="translate(198,64)"/>
<path d="M0 0 C0 0.33 0 0.66 0 1 C-5.94 1.33 -11.88 1.66 -18 2 C-17.505 3.485 -17.505 3.485 -17 5 C-10.4 5 -3.8 5 3 5 C3 5.33 3 5.66 3 6 C-4.59 6 -12.18 6 -20 6 C-20 5.34 -20 4.68 -20 4 C-21.21696312 3.9845388 -21.21696312 3.9845388 -22.45851135 3.96876526 C-30.12351057 3.87057898 -37.7884335 3.76803557 -45.45330906 3.66066074 C-49.39340627 3.60561717 -53.33351111 3.55222813 -57.27368164 3.50268555 C-61.07979839 3.45476655 -64.88583127 3.40241614 -68.69184685 3.34705925 C-70.14019607 3.32675973 -71.58856818 3.30802722 -73.03695869 3.29092598 C-75.07363223 3.26660479 -77.11015137 3.23659182 -79.14672852 3.20532227 C-80.30366714 3.18977798 -81.46060577 3.1742337 -82.65260315 3.15821838 C-86.15309714 2.9927637 -89.5405544 2.54866854 -93 2 C-93 1.67 -93 1.34 -93 1 C-92.0824292 1.00580078 -91.1648584 1.01160156 -90.21948242 1.01757812 C-75.4080192 1.07927921 -60.60463002 0.73370059 -45.79711914 0.42724609 C-30.5287192 0.11397164 -15.27171247 -0.06968523 0 0 Z " fill="#E4E4E4" transform="translate(381,112)"/>
<path d="M0 0 C0.33 0 0.66 0 1 0 C1.03738281 0.97839844 1.07476562 1.95679688 1.11328125 2.96484375 C1.48665991 10.41045351 2.07034937 17.07537124 5 24 C5.75332173 25.81112192 6.50327233 27.62364939 7.25 29.4375 C7.60578125 30.26121094 7.9615625 31.08492187 8.328125 31.93359375 C9 34 9 34 8 36 C7.01 35.34 6.02 34.68 5 34 C4.34 34.99 3.68 35.98 3 37 C4.98 36.505 4.98 36.505 7 36 C7.99 37.65 8.98 39.3 10 41 C7.03 41.495 7.03 41.495 4 42 C-0.17505291 34.19710985 -2 27.94640048 -2 19 C-2.51258822 16.58351267 -3.21689351 14.34931947 -4 12 C-3.01 12.33 -2.02 12.66 -1 13 C-0.67 8.71 -0.34 4.42 0 0 Z " fill="#D8D8D8" transform="translate(39,206)"/>
<path d="M0 0 C0.33 0 0.66 0 1 0 C1.33 3.63 1.66 7.26 2 11 C2.33 11 2.66 11 3 11 C3.33 7.37 3.66 3.74 4 0 C4.33 0 4.66 0 5 0 C5.06058594 0.81984375 5.12117188 1.6396875 5.18359375 2.484375 C5.30927734 4.10085937 5.30927734 4.10085937 5.4375 5.75 C5.51871094 6.81734375 5.59992188 7.8846875 5.68359375 8.984375 C5.88813312 11.88155997 5.88813312 11.88155997 6.65234375 14.09765625 C7.14221775 16.77820274 6.28897443 18.25920852 5.125 20.6875 C4.57199219 21.86892578 4.57199219 21.86892578 4.0078125 23.07421875 C3 25 3 25 2 26 C0.5112814 26.08669432 -0.981445 26.10703494 -2.47265625 26.09765625 C-3.37177734 26.09443359 -4.27089844 26.09121094 -5.19726562 26.08789062 C-6.14279297 26.07951172 -7.08832031 26.07113281 -8.0625 26.0625 C-9.01189453 26.05798828 -9.96128906 26.05347656 -10.93945312 26.04882812 C-13.29303065 26.0370011 -15.64648477 26.02052025 -18 26 C-18 25.67 -18 25.34 -18 25 C-12.06 24.67 -6.12 24.34 0 24 C-0.66 23.01 -1.32 22.02 -2 21 C-3.32 21.33 -4.64 21.66 -6 22 C-6.33 20.68 -6.66 19.36 -7 18 C-13.27 18 -19.54 18 -26 18 C-26 17.67 -26 17.34 -26 17 C-17.75 17 -9.5 17 -1 17 C-0.67 11.39 -0.34 5.78 0 0 Z " fill="#B8B8B8" transform="translate(383,118)"/>
<path d="M0 0 C0.33 0.99 0.66 1.98 1 3 C1.99 3.33 2.98 3.66 4 4 C3.01 4 2.02 4 1 4 C1 4.66 1 5.32 1 6 C0.01 6.33 -0.98 6.66 -2 7 C-2.33 7.66 -2.66 8.32 -3 9 C-2.01 9.33 -1.02 9.66 0 10 C-5.63611702 13.42402934 -11.29752927 16.76816476 -17.08984375 19.921875 C-18.77211898 20.87138004 -20.39269724 21.92846483 -22 23 C-22.33 22.34 -22.66 21.68 -23 21 C-22.34 21 -21.68 21 -21 21 C-21 20.34 -21 19.68 -21 19 C-21.66 18.67 -22.32 18.34 -23 18 C-23 17.01 -23 16.02 -23 15 C-20.6700355 13.34473565 -18.40910373 11.91167941 -15.9375 10.5 C-15.28072266 10.10941406 -14.62394531 9.71882813 -13.94726562 9.31640625 C-10.71937725 7.42737601 -7.54963741 5.77354953 -4.06640625 4.40625 C-3.05449219 3.9421875 -2.04257813 3.478125 -1 3 C-0.67 2.01 -0.34 1.02 0 0 Z " fill="#DDDDDD" transform="translate(118,83)"/>
<path d="M0 0 C6.51832344 8.36680322 11.74915219 17.75819546 10.625 28.625 C10.41875 29.40875 10.2125 30.1925 10 31 C9.67 31 9.34 31 9 31 C9 29.02 9 27.04 9 25 C8.4225 25.33 7.845 25.66 7.25 26 C5 27 5 27 1 27 C1.33 26.34 1.66 25.68 2 25 C2.66 25 3.32 25 4 25 C3.74922726 18.35452233 1.65200485 14.02150466 -1.72265625 8.3203125 C-3 6 -3 6 -3 4 C-2.34 3.67 -1.68 3.34 -1 3 C-0.67 2.01 -0.34 1.02 0 0 Z " fill="#E1E1E1" transform="translate(231,170)"/>
<path d="M0 0 C11.88 0 23.76 0 36 0 C35.01 1.32 34.02 2.64 33 4 C30.28369557 4.35632458 27.97857076 4.46742617 25.26953125 4.390625 C24.51911057 4.38496521 23.76868988 4.37930542 22.99552917 4.37347412 C20.60053496 4.35109668 18.20704131 4.30090171 15.8125 4.25 C14.18817266 4.22993659 12.56382185 4.21168553 10.93945312 4.1953125 C6.95905793 4.15122794 2.97978329 4.08219427 -1 4 C-0.67 2.68 -0.34 1.36 0 0 Z " fill="#F5F5F5" transform="translate(301,52)"/>
<path d="M0 0 C1.65 0.33 3.3 0.66 5 1 C5.27067669 19.37593985 5.27067669 19.37593985 4 27 C3.34 27.33 2.68 27.66 2 28 C2 27.34 2 26.68 2 26 C1.01 25.67 0.02 25.34 -1 25 C-1.33 20.05 -1.66 15.1 -2 10 C-1.34 10 -0.68 10 0 10 C0 6.7 0 3.4 0 0 Z " fill="#DFDFDF" transform="translate(35,192)"/>
<path d="M0 0 C1.05745695 2.74938807 1.04112491 3.88073777 0.0625 6.71875 C-1.06275653 10.19380692 -1.4022485 13.23672544 -1.625 16.875 C-1.73714844 18.60363281 -1.73714844 18.60363281 -1.8515625 20.3671875 C-1.90054688 21.23601562 -1.94953125 22.10484375 -2 23 C-2.28617188 22.35546875 -2.57234375 21.7109375 -2.8671875 21.046875 C-3.81418662 18.80115872 -3.81418662 18.80115872 -6.125 18.25 C-6.74375 18.1675 -7.3625 18.085 -8 18 C-7.79375 19.093125 -7.5875 20.18625 -7.375 21.3125 C-7 25 -7 25 -9 28 C-9.43945469 12.42377261 -9.43945469 12.42377261 -7 5 C-4.84365964 2.84365964 -2.62901288 1.52206009 0 0 Z " fill="#CBCBCB" transform="translate(43,174)"/>
<path d="M0 0 C0 1.65 0 3.3 0 5 C2.31 5 4.62 5 7 5 C7 7.97 7 10.94 7 14 C6.34 14 5.68 14 5 14 C5 13.34 5 12.68 5 12 C3.9275 12.185625 2.855 12.37125 1.75 12.5625 C-1.40391546 12.9304568 -3.09818492 13.04465343 -6 12 C-6.125 4.375 -6.125 4.375 -5 1 C-3 0 -3 0 0 0 Z " fill="#E7E7E7" transform="translate(104,47)"/>
<path d="M0 0 C6.99271078 0.11799295 13.98527612 0.24281467 20.9777832 0.37231445 C23.35503396 0.41554308 25.73231335 0.45722636 28.10961914 0.49731445 C31.5328025 0.55531024 34.95584334 0.61891954 38.37890625 0.68359375 C39.9652462 0.70866249 39.9652462 0.70866249 41.58363342 0.73423767 C46.81262957 0.83847811 51.8443473 1.10737005 57 2 C57 2.33 57 2.66 57 3 C28.29 3.495 28.29 3.495 -1 4 C-0.67 2.68 -0.34 1.36 0 0 Z " fill="#F0F0F0" transform="translate(238,112)"/>
<path d="M0 0 C1.98567708 0.29296875 3.97135417 0.5859375 5.95703125 0.87890625 C8.2025342 1.13904799 8.2025342 1.13904799 11 0 C13.33299825 -0.03954234 15.66708189 -0.04401732 18 0 C17.34 1.32 16.68 2.64 16 4 C15.01 4 14.02 4 13 4 C12.67 4.99 12.34 5.98 12 7 C7.30406574 9.95596704 2.57686747 11.57198641 -3 11 C-2.67 10.01 -2.34 9.02 -2 8 C-1.01 8 -0.02 8 1 8 C0.67 5.36 0.34 2.72 0 0 Z " fill="#E3E3E3" transform="translate(118,81)"/>
<path d="M0 0 C0.66 0 1.32 0 2 0 C3.61310032 3.22620063 3.45294589 6.50225121 3 10 C1.99219165 12.8700629 0.88533743 14.50320178 -1 17 C-3.75 17.9375 -3.75 17.9375 -6 18 C-6.33 18.99 -6.66 19.98 -7 21 C-7.33 21 -7.66 21 -8 21 C-7.88610125 19.20759337 -7.75852313 17.41605165 -7.625 15.625 C-7.55539063 14.62726563 -7.48578125 13.62953125 -7.4140625 12.6015625 C-7 10 -7 10 -5 8 C-3.68252676 7.30251417 -2.35085807 6.63040043 -1 6 C-1.020625 5.195625 -1.04125 4.39125 -1.0625 3.5625 C-1 1 -1 1 0 0 Z " fill="#D3D3D3" transform="translate(46,157)"/>
<path d="M0 0 C2.93200474 2.85276137 5.64315404 5.65079784 8 9 C6.68 9.33 5.36 9.66 4 10 C4 10.99 4 11.98 4 13 C4.66 13.33 5.32 13.66 6 14 C6 15.65 6 17.3 6 19 C0.69898563 17.10678058 -1.21213862 12.46317114 -3.75 7.75 C-5 5 -5 5 -5 3 C-3.68 3 -2.36 3 -1 3 C-0.67 2.01 -0.34 1.02 0 0 Z " fill="#E0E0E0" transform="translate(55,255)"/>
<path d="M0 0 C0.66 0.99 1.32 1.98 2 3 C2.33 2.01 2.66 1.02 3 0 C3.99 0 4.98 0 6 0 C5 3 5 3 4 4 C3.92680379 6.69654854 3.90757463 9.36691458 3.9375 12.0625 C3.94201172 12.82111328 3.94652344 13.57972656 3.95117188 14.36132812 C3.9629932 16.24091871 3.98092922 18.12046899 4 20 C3.34 20.33 2.68 20.66 2 21 C2.33 21.66 2.66 22.32 3 23 C2.34 23.66 1.68 24.32 1 25 C-3.38542071 16.5946103 -2.63789973 8.90291159 0 0 Z " fill="#C9C9C9" transform="translate(220,162)"/>
<path d="M0 0 C0.99 0.33 1.98 0.66 3 1 C2.48679584 5.46647995 0.87931999 7.78887409 -2 11.1875 C-4.78631875 14.40595972 -4.78631875 14.40595972 -7 18 C-8.65 18 -10.3 18 -12 18 C-10.36986301 11.24657534 -10.36986301 11.24657534 -7 9 C-6.8453125 8.1028125 -6.8453125 8.1028125 -6.6875 7.1875 C-5.54489765 3.55194706 -3.08442742 2.1590992 0 0 Z " fill="#E8E8E8" transform="translate(148,183)"/>
<path d="M0 0 C-1 1 -1 1 -3.5625 1.0625 C-4.7690625 1.0315625 -4.7690625 1.0315625 -6 1 C-6 1.66 -6 2.32 -6 3 C-6.99 3.495 -6.99 3.495 -8 4 C-6.68 4.66 -5.36 5.32 -4 6 C-9.61 7.98 -15.22 9.96 -21 12 C-21.33 11.01 -21.66 10.02 -22 9 C-20.68 9.33 -19.36 9.66 -18 10 C-17.67 9.01 -17.34 8.02 -17 7 C-18.32 6.34 -19.64 5.68 -21 5 C-18.93950145 4.18243762 -16.87651147 3.37115266 -14.8125 2.5625 C-13.08966797 1.88380859 -13.08966797 1.88380859 -11.33203125 1.19140625 C-4.14027149 -1.3800905 -4.14027149 -1.3800905 0 0 Z " fill="#D4D4D4" transform="translate(152,75)"/>
<path d="M0 0 C1.12894876 0.93274109 2.25300876 1.87140122 3.375 2.8125 C4.00148437 3.33457031 4.62796875 3.85664063 5.2734375 4.39453125 C7 6 7 6 9 9 C8.625 11.6875 8.625 11.6875 8 14 C5.69 13.67 3.38 13.34 1 13 C1.33 11.35 1.66 9.7 2 8 C0.35 8 -1.3 8 -3 8 C-2.01 5.36 -1.02 2.72 0 0 Z " fill="#DFDFDF" transform="translate(192,168)"/>
<path d="M0 0 C2.57563 0.90904588 4.18624858 1.81124858 6.125 3.75 C6.375 6.4375 6.375 6.4375 6.125 8.75 C7.445 9.41 8.765 10.07 10.125 10.75 C8.33406809 10.83086147 6.54210372 10.88912702 4.75 10.9375 C3.25339844 10.98970703 3.25339844 10.98970703 1.7265625 11.04296875 C0.86804687 10.94628906 0.00953125 10.84960938 -0.875 10.75 C-3.17133824 7.30549263 -3.41516485 4.81187717 -3.875 0.75 C-1.875 -0.25 -1.875 -0.25 0 0 Z " fill="#EAEAEA" transform="translate(62.875,264.25)"/>
<path d="M0 0 C0.66 0.33 1.32 0.66 2 1 C0.625 2.5 0.625 2.5 -1 4 C-1.66 4 -2.32 4 -3 4 C-3 4.66 -3 5.32 -3 6 C-3.33 6.33 -3.66 6.66 -4 7 C-2.35 7.33 -0.7 7.66 1 8 C-1.46941056 10.59937954 -4.18060883 12.79020692 -7 15 C-7.33 14.34 -7.66 13.68 -8 13 C-8.5775 13.28875 -9.155 13.5775 -9.75 13.875 C-11.83333333 14.91666667 -13.91666667 15.95833333 -16 17 C-14.01940324 14.31836728 -12.01780606 11.65374968 -10 9 C-9.55914062 8.41863281 -9.11828125 7.83726562 -8.6640625 7.23828125 C-6.12357889 4.02626854 -3.74206599 1.71932762 0 0 Z " fill="#DCDCDC" transform="translate(158,171)"/>
<path d="M0 0 C0.433125 0.639375 0.86625 1.27875 1.3125 1.9375 C2.91239177 4.26746003 2.91239177 4.26746003 6 5 C7.25 12.625 7.25 12.625 5 16 C3.68 16 2.36 16 1 16 C-0.25447333 10.95970539 -1.39277298 6.23697313 -1 1 C-0.67 0.67 -0.34 0.34 0 0 Z " fill="#E2E2E2" transform="translate(196,111)"/>
<path d="M0 0 C3 1 3 1 4.5 3.75 C4.995 4.8225 5.49 5.895 6 7 C6.804375 8.2065625 6.804375 8.2065625 7.625 9.4375 C9.32419277 12.60417744 9.65181111 15.44847331 10 19 C4.86437134 16.65228404 2.34215829 12.98684536 0 8 C-0.3125 5.1875 -0.3125 5.1875 0 3 C0 2.01 0 1.02 0 0 Z " fill="#DEDEDE" transform="translate(222,182)"/>
<path d="M0 0 C3.12498063 -0.02895976 6.2499269 -0.04678483 9.375 -0.0625 C10.70917969 -0.07506836 10.70917969 -0.07506836 12.0703125 -0.08789062 C13.34648437 -0.09272461 13.34648437 -0.09272461 14.6484375 -0.09765625 C15.43395996 -0.10289307 16.21948242 -0.10812988 17.02880859 -0.11352539 C19 0 19 0 21 1 C20.67 1.99 20.34 2.98 20 4 C14.06 4 8.12 4 2 4 C1.34 2.68 0.68 1.36 0 0 Z " fill="#F4F4F4" transform="translate(362,113)"/>
<path d="M0 0 C3.03722197 2.44298288 4.84424433 4.7663665 7 8 C7.125 10.6875 7.125 10.6875 7 13 C6.34 13 5.68 13 5 13 C4.67 14.32 4.34 15.64 4 17 C4.99 17.33 5.98 17.66 7 18 C5.68 18 4.36 18 3 18 C2.34 14.7 1.68 11.4 1 8 C1.99 7.67 2.98 7.34 4 7 C3.01 6.34 2.02 5.68 1 5 C1 4.01 1 3.02 1 2 C-3.62 2.33 -8.24 2.66 -13 3 C-12 1 -12 1 -10.4375 0.375 C-6.90044924 -0.16916166 -3.53510173 -0.63955121 0 0 Z " fill="#C1C1C1" transform="translate(191,37)"/>
<path d="M0 0 C0.99 0 1.98 0 3 0 C3.33 0.66 3.66 1.32 4 2 C3.2829999 4.11019543 2.47617048 6.1902615 1.625 8.25 C-0.14018466 12.5298332 -1.40086471 16.40198498 -2 21 C-2.33 21 -2.66 21 -3 21 C-3.06058594 20.37351562 -3.12117187 19.74703125 -3.18359375 19.1015625 C-3.26738281 18.28429687 -3.35117188 17.46703125 -3.4375 16.625 C-3.51871094 15.81289062 -3.59992188 15.00078125 -3.68359375 14.1640625 C-3.89090114 11.95727195 -3.89090114 11.95727195 -5 10 C-4.06553465 7.96855359 -3.06775224 5.96466413 -2 4 C-5.63 3.67 -9.26 3.34 -13 3 C-13 2.67 -13 2.34 -13 2 C-8.71 2 -4.42 2 0 2 C0 1.34 0 0.68 0 0 Z " fill="#C3C3C3" transform="translate(170,54)"/>
<path d="M0 0 C0.33 0 0.66 0 1 0 C1.03738281 0.79664063 1.07476562 1.59328125 1.11328125 2.4140625 C1.47933932 8.31405732 1.87455649 12.83622377 5 18 C5 18.66 5 19.32 5 20 C4.38125 20.103125 3.7625 20.20625 3.125 20.3125 C0.63473516 20.87525373 0.63473516 20.87525373 -1 24 C-1.99 21.03 -2.98 18.06 -4 15 C-3.01 14.01 -2.02 13.02 -1 12 C-0.42052719 9.03756274 -0.42052719 9.03756274 -0.3125 5.8125 C-0.24675781 4.72582031 -0.18101562 3.63914063 -0.11328125 2.51953125 C-0.07589844 1.68808594 -0.03851563 0.85664063 0 0 Z " fill="#D0D0D0" transform="translate(138,216)"/>
<path d="M0 0 C0.66 0.33 1.32 0.66 2 1 C2.88671875 3.73046875 2.88671875 3.73046875 3.6875 7.1875 C3.95949219 8.31542969 4.23148438 9.44335938 4.51171875 10.60546875 C5.00816219 14.05674352 4.76447629 16.61885991 4 20 C3.67 20 3.34 20 3 20 C3 18.02 3 16.04 3 14 C2.4225 14.33 1.845 14.66 1.25 15 C-1 16 -1 16 -5 16 C-4.67 15.34 -4.34 14.68 -4 14 C-3.34 14 -2.68 14 -2 14 C-2 11.36 -2 8.72 -2 6 C-1.34 5.67 -0.68 5.34 0 5 C0 3.35 0 1.7 0 0 Z " fill="#D0D0D0" transform="translate(237,181)"/>
<path d="M0 0 C1.67542976 0.28604898 3.34385343 0.61781233 5 1 C5.66 3.97 6.32 6.94 7 10 C6.01 10.66 5.02 11.32 4 12 C2.0625 11 2.0625 11 0 9 C-0.73623421 6.263846 -0.86138593 3.86469075 -1 1 C-0.67 0.67 -0.34 0.34 0 0 Z " fill="#D2D2D2" transform="translate(139,236)"/>
<path d="M0 0 C0.33 0 0.66 0 1 0 C1.33 3.63 1.66 7.26 2 11 C2.33 11 2.66 11 3 11 C3.33 7.37 3.66 3.74 4 0 C4.33 0 4.66 0 5 0 C5.06058594 0.81984375 5.12117188 1.6396875 5.18359375 2.484375 C5.26738281 3.56203125 5.35117187 4.6396875 5.4375 5.75 C5.51871094 6.81734375 5.59992188 7.8846875 5.68359375 8.984375 C5.90704041 11.88799589 5.90704041 11.88799589 6.59375 14.1875 C7.24124671 17.07633147 6.03930045 19.3100459 5 22 C4.67 20.68 4.34 19.36 4 18 C2.35 17.67 0.7 17.34 -1 17 C-0.67 11.39 -0.34 5.78 0 0 Z " fill="#C0C0C0" transform="translate(383,118)"/>
<path d="M0 0 C0.33 0.99 0.66 1.98 1 3 C1.99 3.33 2.98 3.66 4 4 C3.01 4 2.02 4 1 4 C1 4.66 1 5.32 1 6 C0.01 6.33 -0.98 6.66 -2 7 C-2.33 7.66 -2.66 8.32 -3 9 C-2.01 9.33 -1.02 9.66 0 10 C-4.95 12.475 -4.95 12.475 -10 15 C-9.814375 14.05125 -9.62875 13.1025 -9.4375 12.125 C-8.71313368 9.10131207 -8.71313368 9.10131207 -10 7 C-9.04287109 6.61908203 -9.04287109 6.61908203 -8.06640625 6.23046875 C-6.82697266 5.71419922 -6.82697266 5.71419922 -5.5625 5.1875 C-4.73878906 4.85105469 -3.91507812 4.51460938 -3.06640625 4.16796875 C-0.66627512 3.11596912 -0.66627512 3.11596912 0 0 Z " fill="#D3D3D3" transform="translate(118,83)"/>
<path d="M0 0 C0.33 0 0.66 0 1 0 C1.33 4.62 1.66 9.24 2 14 C3.96822886 12.03177114 3.66248381 8.65191291 4 6 C4.33 6 4.66 6 5 6 C5.33 10.29 5.66 14.58 6 19 C1.38 18.01 -3.24 17.02 -8 16 C-8 15.67 -8 15.34 -8 15 C-4.535 14.505 -4.535 14.505 -1 14 C-1.01160156 13.07316406 -1.02320313 12.14632812 -1.03515625 11.19140625 C-1.04417969 9.99386719 -1.05320312 8.79632813 -1.0625 7.5625 C-1.07410156 6.36753906 -1.08570313 5.17257813 -1.09765625 3.94140625 C-1 1 -1 1 0 0 Z " fill="#BCBCBC" transform="translate(384,60)"/>
<path d="M0 0 C1.125 3.75 1.125 3.75 0 6 C-0.99 6 -1.98 6 -3 6 C-3.33 7.98 -3.66 9.96 -4 12 C-3.01 12.33 -2.02 12.66 -1 13 C-1.11470137 14.75070517 -1.24219028 16.50057536 -1.375 18.25 C-1.44460937 19.22453125 -1.51421875 20.1990625 -1.5859375 21.203125 C-2 24 -2 24 -4 28 C-4 24.37 -4 20.74 -4 17 C-4.99 17 -5.98 17 -7 17 C-8.01971445 10.54180847 -4.47580226 6.11260664 -1 1 C-0.67 0.67 -0.34 0.34 0 0 Z " fill="#D0D0D0" transform="translate(141,188)"/>
<path d="M0 0 C3.96 0 7.92 0 12 0 C12.33 1.32 12.66 2.64 13 4 C12 5 12 5 10.0390625 5.1328125 C9.24242187 5.13023438 8.44578125 5.12765625 7.625 5.125 C6.83351562 5.12757812 6.04203125 5.13015625 5.2265625 5.1328125 C3 5 3 5 0 4 C0 2.68 0 1.36 0 0 Z " fill="#D6D6D6" transform="translate(137,66)"/>
<path d="M0 0 C0.33 0 0.66 0 1 0 C1.06058594 0.99 1.12117188 1.98 1.18359375 3 C1.60460466 9.69466638 2.05074129 16.35518903 3 23 C2.01 23 1.02 23 0 23 C-0.66 24.32 -1.32 25.64 -2 27 C-1.95875 25.824375 -1.9175 24.64875 -1.875 23.4375 C-1.86016365 19.27590326 -2.68829222 15.93512333 -4 12 C-3.01 12.33 -2.02 12.66 -1 13 C-0.67 8.71 -0.34 4.42 0 0 Z " fill="#C7C7C7" transform="translate(39,206)"/>
<path d="M0 0 C0.02696365 1.79158489 0.04637917 3.58328473 0.0625 5.375 C0.07410156 6.37273437 0.08570313 7.37046875 0.09765625 8.3984375 C0 11 0 11 -1 13 C-2.32 12.67 -3.64 12.34 -5 12 C-4.67 11.34 -4.34 10.68 -4 10 C-6.64 9.67 -9.28 9.34 -12 9 C-9 7 -9 7 -6.9375 6.6875 C-5.9784375 6.3471875 -5.9784375 6.3471875 -5 6 C-3.84478498 3.52869082 -3.84478498 3.52869082 -3 1 C-1 0 -1 0 0 0 Z " fill="#D2D2D2" transform="translate(167,65)"/>
<path d="M0 0 C2.94721162 2.74395564 5.19168608 5.38337216 7 9 C6.67 9.66 6.34 10.32 6 11 C5.34 10.67 4.68 10.34 4 10 C3.01 10.495 3.01 10.495 2 11 C1.34786708 13.02463255 1.34786708 13.02463255 1 15 C0.34 14.67 -0.32 14.34 -1 14 C-0.67 13.34 -0.34 12.68 0 12 C-0.76501555 10.20459489 -0.76501555 10.20459489 -1.9375 8.375 C-2.618125 7.26125 -3.29875 6.1475 -4 5 C-2.68 4.67 -1.36 4.34 0 4 C0 2.68 0 1.36 0 0 Z " fill="#D0D0D0" transform="translate(145,242)"/>
<path d="M0 0 C1.05745695 2.74938807 1.04112491 3.88073777 0.0625 6.71875 C-1.06275653 10.19380692 -1.4022485 13.23672544 -1.625 16.875 C-1.73714844 18.60363281 -1.73714844 18.60363281 -1.8515625 20.3671875 C-1.90054688 21.23601562 -1.94953125 22.10484375 -2 23 C-2.33 23 -2.66 23 -3 23 C-3.33 18.05 -3.66 13.1 -4 8 C-4.99 7.67 -5.98 7.34 -7 7 C-5.54744301 3.17053157 -3.57104439 1.87949705 0 0 Z " fill="#C7C7C7" transform="translate(43,174)"/>
<path d="M0 0 C0.99 0.66 1.98 1.32 3 2 C-0.96 7.94 -0.96 7.94 -5 14 C-5.66 12.68 -6.32 11.36 -7 10 C-6.34 9.34 -5.68 8.68 -5 8 C-5.99 8 -6.98 8 -8 8 C-8.66 7.67 -9.32 7.34 -10 7 C-5.69230769 3.06153846 -5.69230769 3.06153846 -2.1875 2.75 C-1.465625 2.8325 -0.74375 2.915 0 3 C0 2.01 0 1.02 0 0 Z M-9 12 C-7 13 -7 13 -7 13 Z " fill="#D2D2D2" transform="translate(60,139)"/>
<path d="M0 0 C2 2 2 2 2.1953125 4.8203125 C2.16050781 6.45613281 2.16050781 6.45613281 2.125 8.125 C2.10695312 9.22070312 2.08890625 10.31640625 2.0703125 11.4453125 C2.04710937 12.28835937 2.02390625 13.13140625 2 14 C1.01 14.33 0.02 14.66 -1 15 C-1.33 15.66 -1.66 16.32 -2 17 C-2.05398987 14.72942623 -2.09278742 12.45848712 -2.125 10.1875 C-2.14820313 8.92292969 -2.17140625 7.65835938 -2.1953125 6.35546875 C-2 3 -2 3 0 0 Z " fill="#EEEEEE" transform="translate(136,214)"/>
<path d="M0 0 C1.32 0.33 2.64 0.66 4 1 C3.34 1 2.68 1 2 1 C1.67 1.99 1.34 2.98 1 4 C0.67 4.33 0.34 4.66 0 5 C1.32 5 2.64 5 4 5 C3.34 8.63 2.68 12.26 2 16 C1.67 16 1.34 16 1 16 C1 14.35 1 12.7 1 11 C-0.32 11.33 -1.64 11.66 -3 12 C-2.88541307 10.56163249 -2.75790884 9.12429034 -2.625 7.6875 C-2.55539063 6.88699219 -2.48578125 6.08648437 -2.4140625 5.26171875 C-2 3 -2 3 0 0 Z " fill="#D1D1D1" transform="translate(103,36)"/>
<path d="M0 0 C0.66 0.33 1.32 0.66 2 1 C2.25 3.25 2.25 3.25 2 6 C0 8.3125 0 8.3125 -2 10 C-2.33 9.67 -2.66 9.34 -3 9 C-4.66617115 8.95936168 -6.33388095 8.957279 -8 9 C-8.33 7.68 -8.66 6.36 -9 5 C-6.69 5 -4.38 5 -2 5 C-1.855625 4.360625 -1.71125 3.72125 -1.5625 3.0625 C-1 1 -1 1 0 0 Z " fill="#EDEDED" transform="translate(173,47)"/>
<path d="M0 0 C1.10844919 3.32534757 0.84454356 5.62182575 0 9 C0.66 9 1.32 9 2 9 C2.33 8.01 2.66 7.02 3 6 C2.58578031 10.83256305 0.53586014 12.82679218 -3 16 C-3.33 14.68 -3.66 13.36 -4 12 C-6.97 12 -9.94 12 -13 12 C-13 11.67 -13 11.34 -13 11 C-8.545 10.505 -8.545 10.505 -4 10 C-3.525625 8.906875 -3.05125 7.81375 -2.5625 6.6875 C-2.29566406 6.07261719 -2.02882812 5.45773438 -1.75390625 4.82421875 C-1.10038058 3.24288979 -0.54108198 1.62324594 0 0 Z " fill="#BDBDBD" transform="translate(153,54)"/>
<path d="M0 0 C1.65 1.65 3.3 3.3 5 5 C4.01 5.66 3.02 6.32 2 7 C1.26393501 10.56769552 1.26393501 10.56769552 1 14 C-1.97246802 11.45217026 -3.41535288 8.54659117 -5 5 C-5 4.34 -5 3.68 -5 3 C-3.68 3 -2.36 3 -1 3 C-0.67 2.01 -0.34 1.02 0 0 Z " fill="#D0D0D0" transform="translate(55,255)"/>
<path d="M0 0 C1.98 0.66 3.96 1.32 6 2 C6 4.31 6 6.62 6 9 C5.01 9.33 4.02 9.66 3 10 C2.34 10.66 1.68 11.32 1 12 C0.01751476 7.9472484 -0.08159574 4.16138263 0 0 Z " fill="#D8D8D8" transform="translate(38,228)"/>
<path d="M0 0 C3.3 0.66 6.6 1.32 10 2 C9.01 2.99 8.02 3.98 7 5 C6.34 5 5.68 5 5 5 C5 5.66 5 6.32 5 7 C3.25 9.125 3.25 9.125 1 11 C-0.32 11 -1.64 11 -3 11 C-2.67 10.01 -2.34 9.02 -2 8 C-1.01 8 -0.02 8 1 8 C0.67 5.36 0.34 2.72 0 0 Z " fill="#F2F2F2" transform="translate(118,81)"/>
<path d="M0 0 C1.73378263 1.50763707 2.91542947 2.84143025 4 4.875 C4 7 4 7 1.6875 9.6875 C-1 12 -1 12 -3 13 C-2.67 10.36 -2.34 7.72 -2 5 C-2.66 4.67 -3.32 4.34 -4 4 C-2.68 2.68 -1.36 1.36 0 0 Z " fill="#D8D8D8" transform="translate(76,114)"/>
<path d="M0 0 C0.99 0.33 1.98 0.66 3 1 C3.04254356 2.99954746 3.04080783 5.00041636 3 7 C2 8 2 8 -0.06640625 8.09765625 C-0.89011719 8.08605469 -1.71382812 8.07445312 -2.5625 8.0625 C-3.38878906 8.05347656 -4.21507812 8.04445312 -5.06640625 8.03515625 C-5.70449219 8.02355469 -6.34257812 8.01195312 -7 8 C-7.33 7.34 -7.66 6.68 -8 6 C-7.01 6 -6.02 6 -5 6 C-5 5.34 -5 4.68 -5 4 C-4.360625 3.896875 -3.72125 3.79375 -3.0625 3.6875 C-2.381875 3.460625 -1.70125 3.23375 -1 3 C-0.67 2.01 -0.34 1.02 0 0 Z " fill="#EDEDED" transform="translate(160,171)"/>
<path d="M0 0 C0.66 0 1.32 0 2 0 C3.58512383 3.17024765 3.42372144 6.54667028 3 10 C1.5 12 1.5 12 0 13 C-0.66 12.01 -1.32 11.02 -2 10 C-2.66 10 -3.32 10 -4 10 C-4 9.34 -4 8.68 -4 8 C-3.01 7.34 -2.02 6.68 -1 6 C-0.83328148 3.4582293 -0.83328148 3.4582293 -1 1 C-0.67 0.67 -0.34 0.34 0 0 Z " fill="#DEDEDE" transform="translate(46,157)"/>
<path d="M0 0 C2.74277578 3.19990508 4.6302836 6.00499382 6 10 C5.34 9.67 4.68 9.34 4 9 C3.34 10.32 2.68 11.64 2 13 C1.0234375 11.2421875 0.046875 9.484375 -0.9296875 7.7265625 C-2.00897274 5.8387386 -2.00897274 5.8387386 -4 4 C-3.01 4 -2.02 4 -1 4 C-0.67 2.68 -0.34 1.36 0 0 Z " fill="#CECECE" transform="translate(201,178)"/>
<path d="M0 0 C0.66 0.99 1.32 1.98 2 3 C2.99 3.33 3.98 3.66 5 4 C4.1875 5.9375 4.1875 5.9375 3 8 C2.01 8.33 1.02 8.66 0 9 C-0.33 8.01 -0.66 7.02 -1 6 C-2.98 6.99 -2.98 6.99 -5 8 C-5.66 7.34 -6.32 6.68 -7 6 C-4.69 4.02 -2.38 2.04 0 0 Z " fill="#DEDEDE" transform="translate(136,265)"/>
<path d="M0 0 C-1 1 -1 1 -3.5625 1.0625 C-4.7690625 1.0315625 -4.7690625 1.0315625 -6 1 C-6 1.66 -6 2.32 -6 3 C-6.99 3.495 -6.99 3.495 -8 4 C-6.68 4.66 -5.36 5.32 -4 6 C-6.31 6.66 -8.62 7.32 -11 8 C-11 7.34 -11 6.68 -11 6 C-11.66 6 -12.32 6 -13 6 C-12.7734375 4.11328125 -12.7734375 4.11328125 -12 2 C-10.0390625 0.91796875 -10.0390625 0.91796875 -7.625 0.1875 C-6.83351562 -0.06644531 -6.04203125 -0.32039063 -5.2265625 -0.58203125 C-3 -1 -3 -1 0 0 Z " fill="#CDCDCD" transform="translate(152,75)"/>
<path d="M0 0 C3.3 0 6.6 0 10 0 C8.25 4.875 8.25 4.875 6 6 C7.32 6.66 8.64 7.32 10 8 C7.36 8 4.72 8 2 8 C2.66 6.02 3.32 4.04 4 2 C2.68 2 1.36 2 0 2 C0 1.34 0 0.68 0 0 Z " fill="#CBCBCB" transform="translate(224,203)"/>
<path d="M0 0 C2 0.875 2 0.875 4 2 C4.66 2.33 5.32 2.66 6 3 C6 2.01 6 1.02 6 0 C6.66 0.33 7.32 0.66 8 1 C6.82255415 4.53233755 6.04394359 4.86308075 2.9375 6.6875 C2.20402344 7.12449219 1.47054687 7.56148438 0.71484375 8.01171875 C0.14894531 8.33785156 -0.41695313 8.66398437 -1 9 C-1.33 8.34 -1.66 7.68 -2 7 C-1.34 7 -0.68 7 0 7 C0 6.34 0 5.68 0 5 C-0.66 4.67 -1.32 4.34 -2 4 C-2 3.01 -2 2.02 -2 1 C-1.34 0.67 -0.68 0.34 0 0 Z " fill="#D5D5D5" transform="translate(97,97)"/>
<path d="M0 0 C2.15059309 3.53186832 2.3797728 6.66287993 2.625 10.75 C2.69976562 11.92046875 2.77453125 13.0909375 2.8515625 14.296875 C2.90054687 15.18890625 2.94953125 16.0809375 3 17 C2.01 17.66 1.02 18.32 0 19 C-0.1938211 16.02111874 -0.38035102 13.04209754 -0.5625 10.0625 C-0.61857422 9.21236328 -0.67464844 8.36222656 -0.73242188 7.48632812 C-0.80493164 6.27299805 -0.80493164 6.27299805 -0.87890625 5.03515625 C-0.9260376 4.2862915 -0.97316895 3.53742676 -1.02172852 2.76586914 C-1 1 -1 1 0 0 Z " fill="#F0F0F0" transform="translate(385,56)"/>
<path d="M0 0 C3.53586014 3.17320782 5.58578031 5.16743695 6 10 C5.67 9.34 5.34 8.68 5 8 C1.2236068 7.7018576 1.2236068 7.7018576 -1 9 C-1.99 7.35 -2.98 5.7 -4 4 C-2.68 2.68 -1.36 1.36 0 0 Z " fill="#D2D2D2" transform="translate(382,43)"/>
<path d="M0 0 C4 4.75 4 4.75 4 7 C3.01 7 2.02 7 1 7 C1.33 9.64 1.66 12.28 2 15 C2.99 15.33 3.98 15.66 5 16 C3.68 16 2.36 16 1 16 C-0.25447333 10.95970539 -1.39277298 6.23697313 -1 1 C-0.67 0.67 -0.34 0.34 0 0 Z " fill="#C5C5C5" transform="translate(196,111)"/>
<path d="M0 0 C1.65 1.32 3.3 2.64 5 4 C4.01 4.66 3.02 5.32 2 6 C2.33 6.99 2.66 7.98 3 9 C-0.91402949 7.73058503 -2.79072873 6.48832306 -5 3 C-3.35 2.67 -1.7 2.34 0 2 C0 1.34 0 0.68 0 0 Z " fill="#CECECE" transform="translate(213,196)"/>
<path d="M0 0 C0.598125 0.226875 1.19625 0.45375 1.8125 0.6875 C1.28981534 3.45026177 0.70380413 6.0135876 -0.1875 8.6875 C-0.5175 7.6975 -0.8475 6.7075 -1.1875 5.6875 C-2.1775 6.0175 -3.1675 6.3475 -4.1875 6.6875 C-4.875 4.875 -4.875 4.875 -5.1875 2.6875 C-3.58493056 0.24147296 -2.95482043 -0.4221172 0 0 Z " fill="#EBEBEB" transform="translate(95.1875,99.3125)"/>
<path d="M0 0 C-0.33 1.32 -0.66 2.64 -1 4 C-3.64 4 -6.28 4 -9 4 C-9.33 3.01 -9.66 2.02 -10 1 C-3.71428571 -1.42857143 -3.71428571 -1.42857143 0 0 Z " fill="#F3F3F3" transform="translate(163,74)"/>
<path d="M0 0 C2.46800047 1.15173355 4.04783565 2.04783565 6 4 C6.125 6.625 6.125 6.625 6 9 C4.1875 8.9375 4.1875 8.9375 2 8 C0.25 4.4375 0.25 4.4375 -1 1 C-0.67 0.67 -0.34 0.34 0 0 Z " fill="#E9E9E9" transform="translate(119,39)"/>
<path d="M0 0 C0.99 0.99 1.98 1.98 3 3 C2.01 3.495 2.01 3.495 1 4 C1 5.32 1 6.64 1 8 C-0.98 8 -2.96 8 -5 8 C-4.75 5.125 -4.75 5.125 -4 2 C-1.9375 0.625 -1.9375 0.625 0 0 Z " fill="#E6E6E6" transform="translate(53,145)"/>
<path d="M0 0 C0.99 0 1.98 0 3 0 C3 3.96 3 7.92 3 12 C2.01 12 1.02 12 0 12 C0 8.04 0 4.08 0 0 Z " fill="#EFEFEF" transform="translate(384,118)"/>
<path d="M0 0 C0.99 0.33 1.98 0.66 3 1 C2.5206753 5.31392226 1.2542015 7.16569547 -2 10 C-2.6875 6.6875 -2.6875 6.6875 -3 3 C-1.5625 1.0625 -1.5625 1.0625 0 0 Z " fill="#E2E2E2" transform="translate(148,183)"/>
<path d="M0 0 C1.32 0 2.64 0 4 0 C3.67 0.99 3.34 1.98 3 3 C3 3.66 3 4.32 3 5 C3 6.32 3 7.64 3 9 C2.01 9 1.02 9 0 9 C0 8.34 0 7.68 0 7 C-0.66 6.67 -1.32 6.34 -2 6 C-1.34 4.02 -0.68 2.04 0 0 Z " fill="#EFEFEF" transform="translate(232,148)"/>
<path d="M0 0 C0.99 0.33 1.98 0.66 3 1 C3 5.29 3 9.58 3 14 C2.01 14 1.02 14 0 14 C0 9.38 0 4.76 0 0 Z " fill="#F1F1F1" transform="translate(117,66)"/>
<path d="M0 0 C-0.7109375 1.921875 -0.7109375 1.921875 -2 4 C-4.1640625 4.828125 -4.1640625 4.828125 -6.625 5.25 C-7.85089844 5.47429688 -7.85089844 5.47429688 -9.1015625 5.703125 C-9.72804688 5.80109375 -10.35453125 5.8990625 -11 6 C-11 5.34 -11 4.68 -11 4 C-7.37287308 0.37287308 -5.09424101 -0.47388288 0 0 Z " fill="#F4F4F4" transform="translate(113,36)"/>
<path d="M0 0 C2.67927341 4.01891012 2.15601248 6.24161923 2 11 C1.67 10.01 1.34 9.02 1 8 C0.34 7.690625 -0.32 7.38125 -1 7.0625 C-3 6 -3 6 -3.75 3.875 C-3.8325 3.25625 -3.915 2.6375 -4 2 C-2.68 2.33 -1.36 2.66 0 3 C0 2.01 0 1.02 0 0 Z " fill="#DDDDDD" transform="translate(125,45)"/>
<path d="M0 0 C0.99 0.66 1.98 1.32 3 2 C2.67 3.65 2.34 5.3 2 7 C0.35 6.67 -1.3 6.34 -3 6 C-3 4.35 -3 2.7 -3 1 C-2.01 0.67 -1.02 0.34 0 0 Z " fill="#F3F3F3" transform="translate(149,251)"/>
<path d="M0 0 C0 1.32 0 2.64 0 4 C-0.66 4 -1.32 4 -2 4 C-2.33 4.66 -2.66 5.32 -3 6 C-3.99 5.67 -4.98 5.34 -6 5 C-6 3.35 -6 1.7 -6 0 C-3.50907189 -1.24546405 -2.58919267 -0.7767578 0 0 Z " fill="#E7E7E7" transform="translate(213,194)"/>
<path d="M0 0 C2.475 0.495 2.475 0.495 5 1 C4.01 1.495 4.01 1.495 3 2 C3.33 4.31 3.66 6.62 4 9 C3.67 8.34 3.34 7.68 3 7 C2.01 7 1.02 7 0 7 C0 4.69 0 2.38 0 0 Z " fill="#F2F2F2" transform="translate(36,181)"/>
<path d="M0 0 C1.5 1.1875 1.5 1.1875 3 3 C3.1875 5.6875 3.1875 5.6875 3 8 C-0.37462715 7.45276317 -2.08235 6.9451 -5 5 C-3.35 5 -1.7 5 0 5 C0 3.35 0 1.7 0 0 Z " fill="#C7C7C7" transform="translate(283,147)"/>
<path d="M0 0 C1.32 0.33 2.64 0.66 4 1 C3.67 2.65 3.34 4.3 3 6 C1.35 6 -0.3 6 -2 6 C-1.34 4.02 -0.68 2.04 0 0 Z " fill="#EAEAEA" transform="translate(138,263)"/>
<path d="M0 0 C1.32 0 2.64 0 4 0 C4.33 1.65 4.66 3.3 5 5 C3.68 5.33 2.36 5.66 1 6 C0.34 4.35 -0.32 2.7 -1 1 C-0.67 0.67 -0.34 0.34 0 0 Z " fill="#EEEEEE" transform="translate(215,200)"/>
<path d="M0 0 C3.93355482 3.31893688 3.93355482 3.31893688 4.25 6.5625 C4.1675 7.366875 4.085 8.17125 4 9 C4 9.99 4 10.98 4 12 C2 10.625 2 10.625 0 9 C0 8.34 0 7.68 0 7 C0.66 7 1.32 7 2 7 C2 6.34 2 5.68 2 5 C1.34 4.67 0.68 4.34 0 4 C0 2.68 0 1.36 0 0 Z " fill="#CFCFCF" transform="translate(227,189)"/>
<path d="M0 0 C1.42944945 2.35438733 2.08661261 3.48032433 1.625 6.25 C1.41875 6.8275 1.2125 7.405 1 8 C-0.32 7.67 -1.64 7.34 -3 7 C-2.67 6.34 -2.34 5.68 -2 5 C-2.99 4.67 -3.98 4.34 -5 4 C-4.360625 3.71125 -3.72125 3.4225 -3.0625 3.125 C-0.84793921 2.17176549 -0.84793921 2.17176549 0 0 Z " fill="#E0E0E0" transform="translate(165,70)"/>
<path d="M0 0 C0.66 0 1.32 0 2 0 C2 2.64 2 5.28 2 8 C1.01 8.33 0.02 8.66 -1 9 C-1.09765625 2.84765625 -1.09765625 2.84765625 -1 1 C-0.67 0.67 -0.34 0.34 0 0 Z " fill="#F6F6F6" transform="translate(199,66)"/>
<path d="M0 0 C2.31 0.33 4.62 0.66 7 1 C7 1.66 7 2.32 7 3 C7.99 3.33 8.98 3.66 10 4 C6.7 3.67 3.4 3.34 0 3 C0 2.01 0 1.02 0 0 Z " fill="#F2F2F2" transform="translate(137,66)"/>
<path d="M0 0 C0 1.65 0 3.3 0 5 C-0.99 5.495 -0.99 5.495 -2 6 C-2.99 5.67 -3.98 5.34 -5 5 C-4.625 3.0625 -4.625 3.0625 -4 1 C-2 0 -2 0 0 0 Z " fill="#EDEDED" transform="translate(55,253)"/>
<path d="M0 0 C1.32 0 2.64 0 4 0 C4 1.65 4 3.3 4 5 C2.35 5 0.7 5 -1 5 C-0.67 3.35 -0.34 1.7 0 0 Z " fill="#F1F1F1" transform="translate(139,236)"/>
<path d="M0 0 C0.66 0.33 1.32 0.66 2 1 C0.625 2.5 0.625 2.5 -1 4 C-1.66 4 -2.32 4 -3 4 C-3 4.66 -3 5.32 -3 6 C-4.65 6.66 -6.3 7.32 -8 8 C-6.49776416 3.79373966 -3.71449966 2.26099979 0 0 Z " fill="#C5C5C5" transform="translate(158,171)"/>
<path d="M0 0 C1.125 3.75 1.125 3.75 0 6 C-0.99 6 -1.98 6 -3 6 C-3.12375 6.639375 -3.2475 7.27875 -3.375 7.9375 C-3.58125 8.618125 -3.7875 9.29875 -4 10 C-4.99 10.495 -4.99 10.495 -6 11 C-4.74194623 6.49197399 -3.09592835 3.5087188 0 0 Z " fill="#C4C4C4" transform="translate(141,188)"/>
<path d="M0 0 C0.66 0.33 1.32 0.66 2 1 C2.40729228 3.32156597 2.74438677 5.6568787 3 8 C1.35 8.33 -0.3 8.66 -2 9 C-2 8.01 -2 7.02 -2 6 C-1.34 5.67 -0.68 5.34 0 5 C0 3.35 0 1.7 0 0 Z " fill="#C9C9C9" transform="translate(237,181)"/>
<path d="M0 0 C0.99 1.32 1.98 2.64 3 4 C2 6 2 6 0 7 C-0.33 7.99 -0.66 8.98 -1 10 C-1.66 8.02 -2.32 6.04 -3 4 C-2.34 3.67 -1.68 3.34 -1 3 C-0.67 2.01 -0.34 1.02 0 0 Z " fill="#C1C1C1" transform="translate(231,170)"/>
<path d="M0 0 C3.37462715 0.54723683 5.08235 1.0549 8 3 C5.35261084 4.4606285 4.10551666 5 1 5 C0.67 3.35 0.34 1.7 0 0 Z " fill="#E8E8E8" transform="translate(118,81)"/>
<path d="M0 0 C0.66 0.33 1.32 0.66 2 1 C2 1.99 2 2.98 2 4 C3.32 4.66 4.64 5.32 6 6 C3.03 5.67 0.06 5.34 -3 5 C-2.67 3.68 -2.34 2.36 -2 1 C-1.34 0.67 -0.68 0.34 0 0 Z " fill="#F1F1F1" transform="translate(67,269)"/>
<path d="M0 0 C0.66 0.33 1.32 0.66 2 1 C2.625 4.0625 2.625 4.0625 3 7 C1.35 8.32 -0.3 9.64 -2 11 C-2.66 9.68 -3.32 8.36 -4 7 C-2.35 7 -0.7 7 1 7 C0.67 4.69 0.34 2.38 0 0 Z " fill="#C7C7C7" transform="translate(51,246)"/>
<path d="M0 0 C0.66 0 1.32 0 2 0 C2.33 0.99 2.66 1.98 3 3 C3.66 3.33 4.32 3.66 5 4 C5 5.32 5 6.64 5 8 C2 7 2 7 0 5 C-0.125 2.375 -0.125 2.375 0 0 Z " fill="#F1F1F1" transform="translate(230,194)"/>
<path d="M0 0 C0.66 0.33 1.32 0.66 2 1 C1.67 2.65 1.34 4.3 1 6 C0.01 6 -0.98 6 -2 6 C-2.33 6.66 -2.66 7.32 -3 8 C-3 6.68 -3 5.36 -3 4 C-2.34 4 -1.68 4 -1 4 C-0.67 2.68 -0.34 1.36 0 0 Z " fill="#F3F3F3" transform="translate(42,169)"/>
<path d="M0 0 C1.98 0.66 3.96 1.32 6 2 C5.01 2.33 4.02 2.66 3 3 C3 3.99 3 4.98 3 6 C1.68 5.34 0.36 4.68 -1 4 C-0.67 2.68 -0.34 1.36 0 0 Z " fill="#E0E0E0" transform="translate(134,63)"/>
<path d="M0 0 C2.97 0 5.94 0 9 0 C9 0.66 9 1.32 9 2 C10.32 2.33 11.64 2.66 13 3 C8.07872966 3.16682272 4.49656104 3.24828052 0 1 C0 0.67 0 0.34 0 0 Z " fill="#C8C8C8" transform="translate(100,59)"/>
<path d="M0 0 C2 2 2 2 2.3125 4.5 C2.209375 5.325 2.10625 6.15 2 7 C1.01 7.66 0.02 8.32 -1 9 C-1.66 7.02 -2.32 5.04 -3 3 C-2.34 3 -1.68 3 -1 3 C-0.67 2.01 -0.34 1.02 0 0 Z " fill="#CCCCCC" transform="translate(127,50)"/>
<path d="M0 0 C0.66 0 1.32 0 2 0 C2.33 1.32 2.66 2.64 3 4 C2.01 4.66 1.02 5.32 0 6 C-0.99 5.01 -1.98 4.02 -3 3 C-2.34 3 -1.68 3 -1 3 C-0.67 2.01 -0.34 1.02 0 0 Z " fill="#EAEAEA" transform="translate(143,242)"/>
<path d="M0 0 C0.33 0.66 0.66 1.32 1 2 C3.02463255 2.65213292 3.02463255 2.65213292 5 3 C5 3.99 5 4.98 5 6 C3.35 6 1.7 6 0 6 C0 4.02 0 2.04 0 0 Z " fill="#F5F5F5" transform="translate(195,48)"/>
<path d="M0 0 C2.64 0.33 5.28 0.66 8 1 C8 1.33 8 1.66 8 2 C5.03 2.66 2.06 3.32 -1 4 C-0.67 2.68 -0.34 1.36 0 0 Z " fill="#D2D2D2" transform="translate(82,276)"/>
<path d="M0 0 C-0.66 1.32 -1.32 2.64 -2 4 C-2.99 3.67 -3.98 3.34 -5 3 C-5.33 2.01 -5.66 1.02 -6 0 C-3.50907189 -1.24546405 -2.58919267 -0.7767578 0 0 Z " fill="#ECECEC" transform="translate(82,276)"/>
<path d="M0 0 C0 0.99 0 1.98 0 3 C-0.99 3.33 -1.98 3.66 -3 4 C-3 5.32 -3 6.64 -3 8 C-4.32 7.34 -5.64 6.68 -7 6 C-4.69 4.02 -2.38 2.04 0 0 Z " fill="#CBCBCB" transform="translate(136,265)"/>
<path d="M0 0 C1.98 0.99 3.96 1.98 6 3 C4.1875 4.0625 4.1875 4.0625 2 5 C1.01 4.67 0.02 4.34 -1 4 C-0.67 2.68 -0.34 1.36 0 0 Z " fill="#D9D9D9" transform="translate(69,269)"/>
<path d="M0 0 C0.66 0.33 1.32 0.66 2 1 C2 2.65 2 4.3 2 6 C1.01 6.495 1.01 6.495 0 7 C0 6.34 0 5.68 0 5 C-0.66 5 -1.32 5 -2 5 C-1.125 1.125 -1.125 1.125 0 0 Z " fill="#F0F0F0" transform="translate(37,213)"/>
<path d="M0 0 C0.66 0 1.32 0 2 0 C2.33 1.65 2.66 3.3 3 5 C1.68 5.33 0.36 5.66 -1 6 C-1.042721 4.33388095 -1.04063832 2.66617115 -1 1 C-0.67 0.67 -0.34 0.34 0 0 Z " fill="#F0F0F0" transform="translate(46,157)"/>
<path d="M0 0 C0.99 0 1.98 0 3 0 C2.67 2.31 2.34 4.62 2 7 C1.01 6.67 0.02 6.34 -1 6 C-0.67 4.02 -0.34 2.04 0 0 Z " fill="#F0F0F0" transform="translate(71,119)"/>
<path d="M0 0 C2 2 2 2 2.3125 4.5 C2.209375 5.325 2.10625 6.15 2 7 C1.01 7.66 0.02 8.32 -1 9 C-1.09765625 2.84765625 -1.09765625 2.84765625 -1 1 C-0.67 0.67 -0.34 0.34 0 0 Z " fill="#F7F7F7" transform="translate(386,66)"/>
<path d="M0 0 C1.5625 1.8125 1.5625 1.8125 3 4 C2.67 4.99 2.34 5.98 2 7 C1.01 6.34 0.02 5.68 -1 5 C-1.99 5.495 -1.99 5.495 -3 6 C-1.125 1.125 -1.125 1.125 0 0 Z " fill="#C9C9C9" transform="translate(174,43)"/>
<path d="M0 0 C-0.66 1.32 -1.32 2.64 -2 4 C-3.65 3.67 -5.3 3.34 -7 3 C-7 2.34 -7 1.68 -7 1 C-4.50935112 0.31292445 -2.62113708 0 0 0 Z " fill="#F1F1F1" transform="translate(382,43)"/>
<path d="M0 0 C2.475 0.495 2.475 0.495 5 1 C5 1.66 5 2.32 5 3 C5.66 3 6.32 3 7 3 C7 3.66 7 4.32 7 5 C2.25 3.125 2.25 3.125 0 2 C0 1.34 0 0.68 0 0 Z " fill="#DADADA" transform="translate(64,274)"/>
<path d="M0 0 C-1.36983503 3.16115776 -1.9890638 3.9927092 -5 6 C-5 4.35 -5 2.7 -5 1 C-3 0 -3 0 0 0 Z " fill="#D1D1D1" transform="translate(146,264)"/>
<path d="M0 0 C0.99 0 1.98 0 3 0 C3 1.65 3 3.3 3 5 C1.68 5.33 0.36 5.66 -1 6 C-0.67 4.02 -0.34 2.04 0 0 Z " fill="#F2F2F2" transform="translate(41,232)"/>
<path d="M0 0 C0.33 0.99 0.66 1.98 1 3 C-0.98 4.98 -2.96 6.96 -5 9 C-5.66 8.67 -6.32 8.34 -7 8 C-4.69 5.36 -2.38 2.72 0 0 Z " fill="#C1C1C1" transform="translate(149,179)"/>
<path d="M0 0 C0.66 0.33 1.32 0.66 2 1 C-0.31 3.64 -2.62 6.28 -5 9 C-5 4.61031544 -2.87194899 3.23094261 0 0 Z " fill="#BCBCBC" transform="translate(228,149)"/>
<path d="M0 0 C1.65 0.99 3.3 1.98 5 3 C4.67 3.99 4.34 4.98 4 6 C1.525 5.01 1.525 5.01 -1 4 C-0.67 2.68 -0.34 1.36 0 0 Z " fill="#F4F4F4" transform="translate(43,239)"/>
<path d="M0 0 C1.32 0 2.64 0 4 0 C4 0.99 4 1.98 4 3 C3.01 3 2.02 3 1 3 C0.34 4.32 -0.32 5.64 -1 7 C-1.04254356 5.00045254 -1.04080783 2.99958364 -1 1 C-0.67 0.67 -0.34 0.34 0 0 Z " fill="#B9B9B9" transform="translate(38,226)"/>
</svg>
