<?xml version="1.0" encoding="UTF-8"?>
<svg version="1.1" xmlns="http://www.w3.org/2000/svg" width="52" height="106">
<path d="M0 0 C2.92539135 0.09751305 3.95802762 0.95929951 6.0625 3 C17.70820993 21.03206698 16.95890804 56.76545265 13.1328125 77.5546875 C11.00696998 86.99303002 11.00696998 86.99303002 9 89 C6.5625 89.1875 6.5625 89.1875 4 89 C3.34 88.34 2.68 87.68 2 87 C2.171875 84.71484375 2.171875 84.71484375 2.75 81.9375 C2.94851562 80.94363281 3.14703125 79.94976562 3.3515625 78.92578125 C3.73671161 77.18796989 4.14098024 75.45393654 4.5859375 73.73046875 C8.11293468 59.95473338 5.4018925 44.93881681 4 31 C3.92523438 30.22140625 3.85046875 29.4428125 3.7734375 28.640625 C3.06368683 21.43797002 2.10194617 15.28734483 -1.171875 8.80078125 C-2.26708454 6.41921711 -2.46805156 4.5742836 -2 2 C-1.34 1.34 -0.68 0.68 0 0 Z " fill="#FFFFFF" transform="translate(30,8)"/>
<path d="M0 0 C1.9609375 0.05078125 1.9609375 0.05078125 4 1 C5.4140625 3.29296875 5.4140625 3.29296875 6.625 6.1875 C7.25535156 7.68603516 7.25535156 7.68603516 7.8984375 9.21484375 C14.06956754 24.81773637 12.95651908 42.3124452 10.625 58.6875 C10.49899414 59.57775879 10.37298828 60.46801758 10.24316406 61.38525391 C9.6264217 65.32486875 9.25800215 67.61299678 7 71 C4.4375 71.25 4.4375 71.25 2 71 C1 70 1 70 0.875 66.83984375 C0.99022407 63.30030442 1.40875006 60.04841113 2 56.5625 C3.9433122 42.4101177 5.05671819 27.1947961 -0.03515625 13.640625 C-1.47112416 9.71060756 -1.86316161 6.17357094 -2 2 C-1.34 1.34 -0.68 0.68 0 0 Z " fill="#FFFFFF" transform="translate(20,15)"/>
<path d="M0 0 C1.9375 0.0625 1.9375 0.0625 4 1 C11.36706378 10.13515908 10.73389681 22.94351093 10 34 C8.99855491 42.00144509 8.99855491 42.00144509 6 45 C3.375 44.625 3.375 44.625 1 44 C0.24422011 41.73266034 -0.06433422 40.29087864 0.45703125 37.93359375 C1.21025925 33.86399499 1.22414397 29.88050107 1.25 25.75 C1.270625 24.94175781 1.29125 24.13351563 1.3125 23.30078125 C1.34607988 18.05392466 0.55245977 13.81818691 -1.32202148 8.9128418 C-2.17701777 6.50056385 -2.38350716 4.53114726 -2 2 C-1.34 1.34 -0.68 0.68 0 0 Z " fill="#FFFFFF" transform="translate(12,29)"/>
</svg>
