<?xml version="1.0" encoding="UTF-8"?>
<svg version="1.1" xmlns="http://www.w3.org/2000/svg" width="428" height="190">
<path d="M0 0 C1.50046875 0.00386719 1.50046875 0.00386719 3.03125 0.0078125 C4.0315625 0.00523437 5.031875 0.00265625 6.0625 0 C8.53125 0.1328125 8.53125 0.1328125 9.53125 1.1328125 C11.32575165 1.23180259 13.1241574 1.26080396 14.92138672 1.26220703 C16.64855423 1.26693527 16.64855423 1.26693527 18.41061401 1.27175903 C19.66472076 1.2697348 20.91882751 1.26771057 22.2109375 1.265625 C24.12919846 1.26706009 24.12919846 1.26706009 26.08621216 1.26852417 C28.79820966 1.27000116 31.51017428 1.26784727 34.22216797 1.26318359 C37.69810046 1.25749766 41.17395555 1.26075806 44.64988518 1.26675606 C47.9619088 1.27124118 51.27391168 1.26809909 54.5859375 1.265625 C55.83599579 1.26764923 57.08605408 1.26967346 58.37399292 1.27175903 C59.53174225 1.26860687 60.68949158 1.26545471 61.88232422 1.26220703 C63.41335281 1.26101364 63.41335281 1.26101364 64.97531128 1.25979614 C67.65301919 1.24153609 67.65301919 1.24153609 70.53125 0.1328125 C71.52125 0.6278125 71.52125 0.6278125 72.53125 1.1328125 C73.98519799 1.24057083 75.44377924 1.28901231 76.90161133 1.30639648 C77.8062764 1.31988632 78.71094147 1.33337616 79.64302063 1.34727478 C80.62320663 1.35771317 81.60339264 1.36815155 82.61328125 1.37890625 C84.68034271 1.41184875 86.7473999 1.44506032 88.81445312 1.47851562 C92.07980361 1.52591072 95.34513726 1.57032919 98.6105957 1.60961914 C101.75751056 1.64937516 104.90406529 1.70091696 108.05078125 1.75390625 C109.51195122 1.76652748 109.51195122 1.76652748 111.00263977 1.77940369 C115.58761844 1.86287531 119.37992171 1.93601988 123.53125 4.1328125 C123.53125 3.4728125 123.53125 2.8128125 123.53125 2.1328125 C125.18125 2.1328125 126.83125 2.1328125 128.53125 2.1328125 C128.53125 2.7928125 128.53125 3.4528125 128.53125 4.1328125 C129.52125 4.1328125 130.51125 4.1328125 131.53125 4.1328125 C131.53125 4.7928125 131.53125 5.4528125 131.53125 6.1328125 C132.19125 6.1328125 132.85125 6.1328125 133.53125 6.1328125 C133.53125 6.7928125 133.53125 7.4528125 133.53125 8.1328125 C137.49125 8.6278125 137.49125 8.6278125 141.53125 9.1328125 C141.53125 9.7928125 141.53125 10.4528125 141.53125 11.1328125 C142.52125 11.1328125 143.51125 11.1328125 144.53125 11.1328125 C144.53125 11.7928125 144.53125 12.4528125 144.53125 13.1328125 C146.18125 13.7928125 147.83125 14.4528125 149.53125 15.1328125 C149.53125 15.7928125 149.53125 16.4528125 149.53125 17.1328125 C151.18125 17.1328125 152.83125 17.1328125 154.53125 17.1328125 C154.53125 17.7928125 154.53125 18.4528125 154.53125 19.1328125 C156.84125 19.4628125 159.15125 19.7928125 161.53125 20.1328125 C161.53125 20.7928125 161.53125 21.4528125 161.53125 22.1328125 C162.52125 22.1328125 163.51125 22.1328125 164.53125 22.1328125 C164.86125 23.4528125 165.19125 24.7728125 165.53125 26.1328125 C166.52125 26.1328125 167.51125 26.1328125 168.53125 26.1328125 C168.53125 26.7928125 168.53125 27.4528125 168.53125 28.1328125 C169.52125 28.1328125 170.51125 28.1328125 171.53125 28.1328125 C171.53125 28.7928125 171.53125 29.4528125 171.53125 30.1328125 C173.18125 30.4628125 174.83125 30.7928125 176.53125 31.1328125 C176.53125 31.7928125 176.53125 32.4528125 176.53125 33.1328125 C178.51125 33.7928125 180.49125 34.4528125 182.53125 35.1328125 C182.53125 35.7928125 182.53125 36.4528125 182.53125 37.1328125 C183.85125 37.1328125 185.17125 37.1328125 186.53125 37.1328125 C186.53125 37.7928125 186.53125 38.4528125 186.53125 39.1328125 C187.19125 39.1328125 187.85125 39.1328125 188.53125 39.1328125 C188.86125 40.4528125 189.19125 41.7728125 189.53125 43.1328125 C191.84125 43.4628125 194.15125 43.7928125 196.53125 44.1328125 C196.53125 44.7928125 196.53125 45.4528125 196.53125 46.1328125 C197.52125 46.1328125 198.51125 46.1328125 199.53125 46.1328125 C200.19125 47.1228125 200.85125 48.1128125 201.53125 49.1328125 C204.59681598 49.86624678 204.59681598 49.86624678 207.53125 50.1328125 C207.53125 50.7928125 207.53125 51.4528125 207.53125 52.1328125 C208.52125 52.1328125 209.51125 52.1328125 210.53125 52.1328125 C210.53125 52.7928125 210.53125 53.4528125 210.53125 54.1328125 C214.49125 54.6278125 214.49125 54.6278125 218.53125 55.1328125 C218.53125 55.7928125 218.53125 56.4528125 218.53125 57.1328125 C219.15 57.2771875 219.76875 57.4215625 220.40625 57.5703125 C222.53125 58.1328125 222.53125 58.1328125 224.53125 59.1328125 C224.53125 59.7928125 224.53125 60.4528125 224.53125 61.1328125 C225.52125 61.1328125 226.51125 61.1328125 227.53125 61.1328125 C227.53125 61.7928125 227.53125 62.4528125 227.53125 63.1328125 C228.52125 63.1328125 229.51125 63.1328125 230.53125 63.1328125 C230.53125 63.7928125 230.53125 64.4528125 230.53125 65.1328125 C231.129375 65.2565625 231.7275 65.3803125 232.34375 65.5078125 C234.53125 66.1328125 234.53125 66.1328125 237.53125 68.1328125 C239.84066208 73.23574022 240.05972651 78.43361024 240.34375 83.9453125 C240.40755859 84.79673828 240.47136719 85.64816406 240.53710938 86.52539062 C240.86866536 92.65684143 239.86472393 97.46285761 237.53125 103.1328125 C236.87125 103.1328125 236.21125 103.1328125 235.53125 103.1328125 C235.53125 103.7928125 235.53125 104.4528125 235.53125 105.1328125 C234.87125 105.1328125 234.21125 105.1328125 233.53125 105.1328125 C233.53125 105.7928125 233.53125 106.4528125 233.53125 107.1328125 C232.87125 107.1328125 232.21125 107.1328125 231.53125 107.1328125 C231.53125 107.7928125 231.53125 108.4528125 231.53125 109.1328125 C229.88125 109.7928125 228.23125 110.4528125 226.53125 111.1328125 C226.53125 111.7928125 226.53125 112.4528125 226.53125 113.1328125 C225.87125 113.1328125 225.21125 113.1328125 224.53125 113.1328125 C224.53125 113.7928125 224.53125 114.4528125 224.53125 115.1328125 C222.55125 115.4628125 220.57125 115.7928125 218.53125 116.1328125 C218.53125 116.7928125 218.53125 117.4528125 218.53125 118.1328125 C217.54125 118.1328125 216.55125 118.1328125 215.53125 118.1328125 C215.53125 118.7928125 215.53125 119.4528125 215.53125 120.1328125 C214.87125 120.1328125 214.21125 120.1328125 213.53125 120.1328125 C213.53125 120.7928125 213.53125 121.4528125 213.53125 122.1328125 C212.54125 122.1328125 211.55125 122.1328125 210.53125 122.1328125 C210.53125 122.7928125 210.53125 123.4528125 210.53125 124.1328125 C208.88125 124.1328125 207.23125 124.1328125 205.53125 124.1328125 C205.53125 124.7928125 205.53125 125.4528125 205.53125 126.1328125 C203.55125 126.4628125 201.57125 126.7928125 199.53125 127.1328125 C199.53125 127.7928125 199.53125 128.4528125 199.53125 129.1328125 C198.21125 129.1328125 196.89125 129.1328125 195.53125 129.1328125 C195.53125 129.7928125 195.53125 130.4528125 195.53125 131.1328125 C194.54125 131.1328125 193.55125 131.1328125 192.53125 131.1328125 C192.53125 131.7928125 192.53125 132.4528125 192.53125 133.1328125 C191.54125 133.1328125 190.55125 133.1328125 189.53125 133.1328125 C189.53125 133.7928125 189.53125 134.4528125 189.53125 135.1328125 C187.88125 135.1328125 186.23125 135.1328125 184.53125 135.1328125 C184.53125 135.7928125 184.53125 136.4528125 184.53125 137.1328125 C182.55125 137.4628125 180.57125 137.7928125 178.53125 138.1328125 C178.53125 138.7928125 178.53125 139.4528125 178.53125 140.1328125 C177.54125 140.1328125 176.55125 140.1328125 175.53125 140.1328125 C175.53125 140.7928125 175.53125 141.4528125 175.53125 142.1328125 C174.54125 142.1328125 173.55125 142.1328125 172.53125 142.1328125 C172.53125 142.7928125 172.53125 143.4528125 172.53125 144.1328125 C171.54125 144.1328125 170.55125 144.1328125 169.53125 144.1328125 C169.53125 144.7928125 169.53125 145.4528125 169.53125 146.1328125 C167.22125 146.1328125 164.91125 146.1328125 162.53125 146.1328125 C162.53125 146.7928125 162.53125 147.4528125 162.53125 148.1328125 C161.54125 148.1328125 160.55125 148.1328125 159.53125 148.1328125 C159.53125 148.7928125 159.53125 149.4528125 159.53125 150.1328125 C157.22125 150.4628125 154.91125 150.7928125 152.53125 151.1328125 C152.53125 151.7928125 152.53125 152.4528125 152.53125 153.1328125 C151.87125 153.1328125 151.21125 153.1328125 150.53125 153.1328125 C150.53125 153.7928125 150.53125 154.4528125 150.53125 155.1328125 C149.54125 155.1328125 148.55125 155.1328125 147.53125 155.1328125 C147.53125 155.7928125 147.53125 156.4528125 147.53125 157.1328125 C146.54125 157.1328125 145.55125 157.1328125 144.53125 157.1328125 C144.53125 157.7928125 144.53125 158.4528125 144.53125 159.1328125 C143.87125 159.1328125 143.21125 159.1328125 142.53125 159.1328125 C142.20125 160.1228125 141.87125 161.1128125 141.53125 162.1328125 C140.54125 162.1328125 139.55125 162.1328125 138.53125 162.1328125 C138.53125 162.7928125 138.53125 163.4528125 138.53125 164.1328125 C137.87125 164.1328125 137.21125 164.1328125 136.53125 164.1328125 C136.53125 164.7928125 136.53125 165.4528125 136.53125 166.1328125 C135.87125 166.1328125 135.21125 166.1328125 134.53125 166.1328125 C134.20125 167.4528125 133.87125 168.7728125 133.53125 170.1328125 C132.87125 170.1328125 132.21125 170.1328125 131.53125 170.1328125 C131.53125 170.7928125 131.53125 171.4528125 131.53125 172.1328125 C130.54125 172.1328125 129.55125 172.1328125 128.53125 172.1328125 C128.53125 172.7928125 128.53125 173.4528125 128.53125 174.1328125 C127.0771875 174.3184375 127.0771875 174.3184375 125.59375 174.5078125 C124.583125 174.7140625 123.5725 174.9203125 122.53125 175.1328125 C122.20125 175.7928125 121.87125 176.4528125 121.53125 177.1328125 C115.92125 177.1328125 110.31125 177.1328125 104.53125 177.1328125 C104.53125 176.4728125 104.53125 175.8128125 104.53125 175.1328125 C91.00125 175.1328125 77.47125 175.1328125 63.53125 175.1328125 C63.53125 175.7928125 63.53125 176.4528125 63.53125 177.1328125 C49.67125 177.1328125 35.81125 177.1328125 21.53125 177.1328125 C21.53125 176.4728125 21.53125 175.8128125 21.53125 175.1328125 C20.53566574 175.13947433 19.54008148 175.14613617 18.514328 175.15299988 C9.14111351 175.2137618 -0.23206113 175.25876143 -9.60542774 175.28824902 C-14.42461657 175.30391842 -19.24364667 175.32517991 -24.06274414 175.35913086 C-28.71169792 175.39167891 -33.36049882 175.4096559 -38.00955772 175.41744423 C-39.78502497 175.42299594 -41.56048367 175.43383685 -43.335886 175.45000267 C-45.81891722 175.47171667 -48.30131325 175.474782 -50.78442383 175.47338867 C-51.52169708 175.4841745 -52.25897034 175.49496033 -53.01858521 175.506073 C-57.98224295 175.47584797 -57.98224295 175.47584797 -60.44902039 173.73652649 C-61.46875 172.1328125 -61.46875 172.1328125 -61.46875 170.1328125 C-62.12875 170.1328125 -62.78875 170.1328125 -63.46875 170.1328125 C-64.10256508 168.80364689 -64.72523484 167.46916641 -65.34375 166.1328125 C-65.69179687 165.3903125 -66.03984375 164.6478125 -66.3984375 163.8828125 C-68.86039843 157.55719026 -69.83374891 151.42219147 -70.15625 144.6953125 C-70.1967749 143.92977051 -70.2372998 143.16422852 -70.27905273 142.37548828 C-70.63191302 134.25721096 -70.13436875 126.22264034 -69.46875 118.1328125 C-70.45875 118.1328125 -71.44875 118.1328125 -72.46875 118.1328125 C-72.46875 117.4728125 -72.46875 116.8128125 -72.46875 116.1328125 C-73.12875 116.1328125 -73.78875 116.1328125 -74.46875 116.1328125 C-74.46875 116.7928125 -74.46875 117.4528125 -74.46875 118.1328125 C-75.45875 118.1328125 -76.44875 118.1328125 -77.46875 118.1328125 C-77.46875 118.7928125 -77.46875 119.4528125 -77.46875 120.1328125 C-79.77875 120.1328125 -82.08875 120.1328125 -84.46875 120.1328125 C-84.46875 120.7928125 -84.46875 121.4528125 -84.46875 122.1328125 C-85.78875 122.1328125 -87.10875 122.1328125 -88.46875 122.1328125 C-88.46875 122.7928125 -88.46875 123.4528125 -88.46875 124.1328125 C-90.11875 124.1328125 -91.76875 124.1328125 -93.46875 124.1328125 C-93.46875 124.7928125 -93.46875 125.4528125 -93.46875 126.1328125 C-97.09875 126.4628125 -100.72875 126.7928125 -104.46875 127.1328125 C-104.46875 127.7928125 -104.46875 128.4528125 -104.46875 129.1328125 C-108.97228262 130.89028864 -112.64514811 131.32575658 -117.46875 131.1328125 C-117.46875 131.7928125 -117.46875 132.4528125 -117.46875 133.1328125 C-119.11875 133.1328125 -120.76875 133.1328125 -122.46875 133.1328125 C-122.46875 133.7928125 -122.46875 134.4528125 -122.46875 135.1328125 C-123.78875 135.1328125 -125.10875 135.1328125 -126.46875 135.1328125 C-126.46875 135.7928125 -126.46875 136.4528125 -126.46875 137.1328125 C-130.30599172 138.03694923 -133.84377274 138.23858148 -137.78125 138.1953125 C-138.84988281 138.18628906 -139.91851562 138.17726562 -141.01953125 138.16796875 C-141.82777344 138.15636719 -142.63601562 138.14476562 -143.46875 138.1328125 C-143.46875 138.7928125 -143.46875 139.4528125 -143.46875 140.1328125 C-145.77875 140.1328125 -148.08875 140.1328125 -150.46875 140.1328125 C-150.46875 140.7928125 -150.46875 141.4528125 -150.46875 142.1328125 C-153.10875 142.1328125 -155.74875 142.1328125 -158.46875 142.1328125 C-158.46875 142.7928125 -158.46875 143.4528125 -158.46875 144.1328125 C-164.07875 144.1328125 -169.68875 144.1328125 -175.46875 144.1328125 C-180.62263039 133.82505172 -177.50926748 115.59541666 -177.4302063 104.43078613 C-177.30437849 85.46717345 -177.40889966 66.60930464 -178.84545898 47.6940918 C-178.93899658 46.45183838 -179.03253418 45.20958496 -179.12890625 43.9296875 C-179.26244507 42.34172363 -179.26244507 42.34172363 -179.39868164 40.72167969 C-179.46875 38.1328125 -179.46875 38.1328125 -178.46875 35.1328125 C-177.80875 35.1328125 -177.14875 35.1328125 -176.46875 35.1328125 C-176.46875 34.4728125 -176.46875 33.8128125 -176.46875 33.1328125 C-170.67031531 30.55573041 -164.69757157 30.71626611 -158.46875 31.1328125 C-158.13875 31.4628125 -157.80875 31.7928125 -157.46875 32.1328125 C-155.25187006 32.29155205 -153.03019702 32.38415087 -150.80859375 32.44921875 C-150.14412735 32.46999985 -149.47966095 32.49078094 -148.7950592 32.51219177 C-146.66556457 32.57774908 -144.53594332 32.63660035 -142.40625 32.6953125 C-140.96548153 32.73849189 -139.52472601 32.78210599 -138.08398438 32.82617188 C-134.5457096 32.93343643 -131.00729131 33.03468621 -127.46875 33.1328125 C-127.46875 33.7928125 -127.46875 34.4528125 -127.46875 35.1328125 C-125.81875 35.1328125 -124.16875 35.1328125 -122.46875 35.1328125 C-122.46875 35.7928125 -122.46875 36.4528125 -122.46875 37.1328125 C-118.83875 37.1328125 -115.20875 37.1328125 -111.46875 37.1328125 C-111.46875 37.7928125 -111.46875 38.4528125 -111.46875 39.1328125 C-110.64632812 39.23078125 -109.82390625 39.32875 -108.9765625 39.4296875 C-102.41655019 40.30839585 -96.64196665 41.52589444 -90.58984375 44.23046875 C-88.56063745 45.09372226 -86.61862437 45.65993764 -84.46875 46.1328125 C-84.46875 46.7928125 -84.46875 47.4528125 -84.46875 48.1328125 C-82.80208333 48.46614583 -81.13541667 48.79947917 -79.46875 49.1328125 C-77.80208333 49.46614583 -76.13541667 49.79947917 -74.46875 50.1328125 C-74.46875 50.7928125 -74.46875 51.4528125 -74.46875 52.1328125 C-73.80875 52.1328125 -73.14875 52.1328125 -72.46875 52.1328125 C-72.44893066 51.44767578 -72.42911133 50.76253906 -72.40869141 50.05664062 C-72.31270322 46.91501639 -72.20332599 43.773991 -72.09375 40.6328125 C-72.0628125 39.55515625 -72.031875 38.4775 -72 37.3671875 C-71.71113584 29.47156701 -71.39148829 21.69646355 -66.46875 15.1328125 C-65.80875 15.1328125 -65.14875 15.1328125 -64.46875 15.1328125 C-64.0665625 13.67875 -64.0665625 13.67875 -63.65625 12.1953125 C-63.264375 11.1846875 -62.8725 10.1740625 -62.46875 9.1328125 C-61.47875 8.8028125 -60.48875 8.4728125 -59.46875 8.1328125 C-59.46875 7.4728125 -59.46875 6.8128125 -59.46875 6.1328125 C-58.47875 6.1328125 -57.48875 6.1328125 -56.46875 6.1328125 C-56.46875 5.4728125 -56.46875 4.8128125 -56.46875 4.1328125 C-54.15875 4.1328125 -51.84875 4.1328125 -49.46875 4.1328125 C-49.46875 3.4728125 -49.46875 2.8128125 -49.46875 2.1328125 C-48.49421875 2.14441406 -47.5196875 2.15601563 -46.515625 2.16796875 C-36.47097446 2.24658432 -26.4454213 2.03246795 -16.40625 1.6953125 C-14.52341309 1.63645874 -14.52341309 1.63645874 -12.60253906 1.57641602 C-11.43303711 1.53444092 -10.26353516 1.49246582 -9.05859375 1.44921875 C-8.00534912 1.41256104 -6.95210449 1.37590332 -5.86694336 1.33813477 C-3.05947538 1.09777229 -2.83750364 0.15265051 0 0 Z M2.53125 11.1328125 C2.50801568 23.19890846 2.49027856 35.26499904 2.47943783 47.33111286 C2.47423319 52.93469855 2.46717974 58.53826886 2.45581055 64.1418457 C2.44489537 69.55591672 2.43895496 74.96997301 2.43637276 80.38405418 C2.434534 82.44316019 2.43094353 84.50226544 2.42551994 86.56136513 C2.36491233 101.3751231 2.36491233 101.3751231 3.53125 116.1328125 C16.27431797 116.15594433 29.01738097 116.1737319 41.76046562 116.18462467 C47.67706924 116.18985165 53.59365853 116.19694597 59.51025391 116.20825195 C65.21605699 116.21908737 70.92184627 116.22509073 76.62765884 116.22768974 C78.80863792 116.22954281 80.98961622 116.23316116 83.17058945 116.23854256 C86.21644497 116.24576164 89.26224282 116.24680307 92.30810547 116.24633789 C93.6718782 116.2517308 93.6718782 116.2517308 95.0632019 116.25723267 C99.43403046 116.38891673 99.43403046 116.38891673 103.53125 115.1328125 C103.55613484 110.98852941 103.57419686 106.84428696 103.58618164 102.69995117 C103.5911827 101.29271689 103.5979857 99.88548773 103.60668945 98.47827148 C103.61894159 96.44513681 103.6245207 94.41207136 103.62890625 92.37890625 C103.63676147 90.54863892 103.63676147 90.54863892 103.64477539 88.68139648 C103.60114266 85.16229728 103.60114266 85.16229728 103.0369873 81.83361816 C102.55452239 78.30311158 102.37450894 74.93164627 102.32592773 71.37133789 C102.2960099 69.42010765 102.2960099 69.42010765 102.26548767 67.42945862 C102.24850972 66.0297965 102.23163069 64.63013317 102.21484375 63.23046875 C102.1942438 61.78315173 102.17324659 60.33584031 102.15187073 58.88853455 C102.09696374 55.09927948 102.0474176 51.30997298 101.99902344 47.52062988 C101.9485777 43.64586875 101.89301269 39.77118131 101.83789062 35.89648438 C101.73069345 28.30865635 101.62916495 20.72076659 101.53125 13.1328125 C96.41675409 11.56525173 92.68071696 11.00576965 87.34375 11.5703125 C80.92211448 12.2312609 80.92211448 12.2312609 78.60913086 11.64868164 C76.3392716 11.08515061 74.41479769 11.03518924 72.078125 11.0703125 C70.71240356 11.08300171 70.71240356 11.08300171 69.3190918 11.09594727 C68.316604 11.10811279 67.31411621 11.12027832 66.28125 11.1328125 C55.16187659 11.19983245 44.05607861 11.02784504 32.94030762 10.76049805 C31.12841791 10.71710046 29.31648602 10.67542901 27.5045166 10.63549805 C24.93385678 10.57824399 22.36343005 10.51472428 19.79296875 10.44921875 C19.01791489 10.43250626 18.24286102 10.41579376 17.44432068 10.39857483 C11.86666759 10.2442062 11.86666759 10.2442062 9.610672 9.49497986 C6.7809856 9.00214096 5.0808219 9.92884799 2.53125 11.1328125 Z M-41.46875 15.1328125 C-41.71235073 18.26095764 -41.71235073 18.26095764 -41.59375 21.7578125 C-41.57570312 22.94632813 -41.55765625 24.13484375 -41.5390625 25.359375 C-41.51585937 26.27460937 -41.49265625 27.18984375 -41.46875 28.1328125 C-39.48875 29.1228125 -39.48875 29.1228125 -37.46875 30.1328125 C-37.13875 29.8028125 -36.80875 29.4728125 -36.46875 29.1328125 C-34.08580791 29.08430477 -31.72550453 29.09142907 -29.34375 29.1328125 C-23.56007711 29.17881376 -17.80592958 29.09642064 -12.03125 28.7578125 C-10.79503906 28.68820313 -9.55882812 28.61859375 -8.28515625 28.546875 C-7.35574219 28.41023438 -6.42632812 28.27359375 -5.46875 28.1328125 C-3.35933714 23.91398677 -4.0378444 18.51171041 -5.40625 14.1328125 C-6.31243245 12.19155863 -6.31243245 12.19155863 -7.46875 11.1328125 C-10.39696473 11.00327214 -13.28979036 10.94252381 -16.21875 10.9453125 C-17.07460693 10.94611816 -17.93046387 10.94692383 -18.81225586 10.94775391 C-31.03472555 10.54473438 -31.03472555 10.54473438 -41.46875 15.1328125 Z M109.53125 13.1328125 C108.38016024 22.50452372 108.47009612 31.80143216 108.6171875 41.21875 C108.63900821 42.85014365 108.66045535 44.48154234 108.68154907 46.11294556 C108.72674331 49.51009331 108.77593223 52.90715197 108.828125 56.30419922 C108.894665 60.65168361 108.95183974 64.99923144 109.00615501 69.34688377 C109.04902345 72.70640226 109.09643268 76.06584471 109.14525223 79.42528152 C109.16808382 81.02879657 109.18960067 82.63233092 109.20975876 84.23588181 C109.23863627 86.47294226 109.27354164 88.70983025 109.31005859 90.94677734 C109.32861908 92.21709808 109.34717957 93.48741882 109.36630249 94.79623413 C109.43769932 98.04774509 109.43769932 98.04774509 110.10757446 100.8319397 C110.57196846 103.353944 110.23669966 104.70213033 109.53125 107.1328125 C109.44787893 108.59805289 109.41340813 110.06657569 109.41772461 111.53417969 C109.41780014 112.3947699 109.41787567 113.25536011 109.41795349 114.14202881 C109.42311478 115.06195618 109.42827606 115.98188354 109.43359375 116.9296875 C109.4350087 117.87845764 109.43642365 118.82722778 109.43788147 119.80474854 C109.44347258 122.83080212 109.45602348 125.85678133 109.46875 128.8828125 C109.47376615 130.93619685 109.47832885 132.98958236 109.48242188 135.04296875 C109.49343911 140.07294526 109.51069767 145.10286628 109.53125 150.1328125 C110.85125 150.4628125 112.17125 150.7928125 113.53125 151.1328125 C113.53125 151.7928125 113.53125 152.4528125 113.53125 153.1328125 C114.85125 153.1328125 116.17125 153.1328125 117.53125 153.1328125 C117.53125 153.7928125 117.53125 154.4528125 117.53125 155.1328125 C118.19125 155.1328125 118.85125 155.1328125 119.53125 155.1328125 C120.52125 158.5978125 120.52125 158.5978125 121.53125 162.1328125 C122.19125 162.1328125 122.85125 162.1328125 123.53125 162.1328125 C123.87903833 150.28868768 123.46115562 138.02053577 120.9375 126.3984375 C120.46586949 123.76819043 120.65172625 121.59500485 120.96875 118.9453125 C121.73766023 111.45592719 121.64537659 104.2562735 121.04321289 96.75415039 C120.4896972 89.16906563 120.31193107 81.60681753 120.21484375 74.00390625 C120.19417076 72.59773801 120.17317253 71.19157451 120.15187073 69.78541565 C120.10838584 66.86356375 120.0674052 63.94169267 120.02856445 61.01977539 C119.97928638 57.31312743 119.92575761 53.60655747 119.87058926 49.89999294 C119.81729202 46.30965035 119.76592512 42.71928095 119.71484375 39.12890625 C119.69610703 37.81812607 119.6773703 36.50734589 119.6580658 35.15684509 C119.55091919 27.1482868 119.50893423 19.14206211 119.53125 11.1328125 C115.67479879 10.91244386 113.03901784 11.52926149 109.53125 13.1328125 Z M-54.46875 15.1328125 C-57.51951843 18.16937208 -57.51951843 18.16937208 -58.46875 22.1328125 C-59.12875 22.1328125 -59.78875 22.1328125 -60.46875 22.1328125 C-60.60152344 23.18082031 -60.73429687 24.22882812 -60.87109375 25.30859375 C-61.04932235 26.68752028 -61.22771641 28.06642543 -61.40625 29.4453125 C-61.49326172 30.13560547 -61.58027344 30.82589844 -61.66992188 31.53710938 C-62.06085135 34.53423538 -62.5102504 37.25731369 -63.46875 40.1328125 C-63.5660386 42.25599314 -63.59852619 44.38240941 -63.59375 46.5078125 C-63.59632812 47.62929688 -63.59890625 48.75078125 -63.6015625 49.90625 C-63.54119846 53.287637 -63.26654384 56.62979427 -62.97363281 59.99853516 C-62.41270966 67.17325739 -62.29988975 74.31393745 -62.2578125 81.5078125 C-62.24479262 82.84815238 -62.23097074 84.18848468 -62.21640015 85.52880859 C-62.15574886 91.14479077 -62.10085502 96.76073672 -62.06738281 102.37695312 C-62.046205 105.84160985 -62.01074695 109.3058876 -61.96662521 112.77032471 C-61.94600062 114.69364307 -61.94046747 116.61710493 -61.93545532 118.54052734 C-61.78214705 129.63016756 -60.36963745 140.5438704 -54.46875 150.1328125 C-53.47875 150.4628125 -52.48875 150.7928125 -51.46875 151.1328125 C-49.77416529 149.43822779 -50.34266154 147.29717641 -50.34176636 144.9768219 C-50.33894653 143.85925507 -50.33612671 142.74168823 -50.33322144 141.59025574 C-50.33524567 140.35334488 -50.3372699 139.11643402 -50.33935547 137.84204102 C-50.33760315 136.54788269 -50.33585083 135.25372437 -50.33404541 133.92034912 C-50.32947114 130.36046077 -50.33126072 126.80060128 -50.3344245 123.2407124 C-50.33694867 119.5220413 -50.33461035 115.80337274 -50.33303833 112.08470154 C-50.33121658 105.83763178 -50.33362286 99.59057383 -50.33837891 93.34350586 C-50.34381916 86.11410531 -50.34206062 78.88473297 -50.3365525 71.6553331 C-50.3320187 65.45745367 -50.33137221 59.25958275 -50.33399117 53.06170219 C-50.33555278 49.35605179 -50.33575092 45.65041465 -50.33245468 41.94476509 C-50.32903743 37.8141525 -50.33377009 33.68358874 -50.33935547 29.55297852 C-50.33733124 28.31809189 -50.33530701 27.08320526 -50.33322144 25.81089783 C-50.33604126 24.69051117 -50.33886108 23.57012451 -50.34176636 22.41578674 C-50.34214338 21.43814141 -50.34252041 20.46049608 -50.34290886 19.45322514 C-50.315724 17.10709634 -50.315724 17.10709634 -51.46875 15.1328125 C-52.45875 15.1328125 -53.44875 15.1328125 -54.46875 15.1328125 Z M130.53125 15.1328125 C127.47252375 18.19153875 128.04839452 21.82163305 127.90625 25.9453125 C127.86902832 26.92064941 127.83180664 27.89598633 127.79345703 28.90087891 C126.91891452 55.28626992 127.55711066 81.72125702 127.93741608 108.11142731 C127.96876084 110.3210766 127.99855504 112.53074232 128.02801514 114.74041748 C128.08408374 118.90648082 128.14889534 123.07236249 128.21484375 127.23828125 C128.23156631 128.51053055 128.24828888 129.78277985 128.26551819 131.09358215 C128.28545334 132.25661362 128.30538849 133.41964508 128.32592773 134.61791992 C128.34147202 135.63883224 128.3570163 136.65974457 128.37303162 137.71159363 C128.3746995 140.14299353 128.3746995 140.14299353 129.53125 142.1328125 C131.18125 142.1328125 132.83125 142.1328125 134.53125 142.1328125 C134.53125 141.4728125 134.53125 140.8128125 134.53125 140.1328125 C135.52125 140.1328125 136.51125 140.1328125 137.53125 140.1328125 C137.53125 139.4728125 137.53125 138.8128125 137.53125 138.1328125 C142.48125 137.6378125 142.48125 137.6378125 147.53125 137.1328125 C147.53125 136.4728125 147.53125 135.8128125 147.53125 135.1328125 C148.85125 135.1328125 150.17125 135.1328125 151.53125 135.1328125 C151.53125 134.4728125 151.53125 133.8128125 151.53125 133.1328125 C153.18125 133.1328125 154.83125 133.1328125 156.53125 133.1328125 C156.53125 132.4728125 156.53125 131.8128125 156.53125 131.1328125 C157.52125 131.1328125 158.51125 131.1328125 159.53125 131.1328125 C159.53125 130.4728125 159.53125 129.8128125 159.53125 129.1328125 C160.85125 129.1328125 162.17125 129.1328125 163.53125 129.1328125 C163.53125 128.4728125 163.53125 127.8128125 163.53125 127.1328125 C166.17125 126.8028125 168.81125 126.4728125 171.53125 126.1328125 C171.53125 125.4728125 171.53125 124.8128125 171.53125 124.1328125 C173.18125 124.1328125 174.83125 124.1328125 176.53125 124.1328125 C176.53125 123.4728125 176.53125 122.8128125 176.53125 122.1328125 C177.645 121.91625 177.645 121.91625 178.78125 121.6953125 C181.05152739 121.23093758 183.28884479 120.71417681 185.53125 120.1328125 C185.53125 119.4728125 185.53125 118.8128125 185.53125 118.1328125 C186.85125 118.1328125 188.17125 118.1328125 189.53125 118.1328125 C189.53125 117.4728125 189.53125 116.8128125 189.53125 116.1328125 C192.17125 115.8028125 194.81125 115.4728125 197.53125 115.1328125 C197.53125 114.4728125 197.53125 113.8128125 197.53125 113.1328125 C198.85125 113.1328125 200.17125 113.1328125 201.53125 113.1328125 C201.53125 112.4728125 201.53125 111.8128125 201.53125 111.1328125 C202.85125 111.1328125 204.17125 111.1328125 205.53125 111.1328125 C205.53125 110.4728125 205.53125 109.8128125 205.53125 109.1328125 C206.52125 109.1328125 207.51125 109.1328125 208.53125 109.1328125 C208.53125 108.4728125 208.53125 107.8128125 208.53125 107.1328125 C209.85125 107.1328125 211.17125 107.1328125 212.53125 107.1328125 C212.53125 106.4728125 212.53125 105.8128125 212.53125 105.1328125 C213.19125 105.1328125 213.85125 105.1328125 214.53125 105.1328125 C214.53125 104.4728125 214.53125 103.8128125 214.53125 103.1328125 C217.50976562 103.18164062 217.50976562 103.18164062 220.48828125 103.23046875 C222.73430461 103.21544467 222.73430461 103.21544467 225.53125 102.1328125 C225.53125 101.4728125 225.53125 100.8128125 225.53125 100.1328125 C226.52125 100.1328125 227.51125 100.1328125 228.53125 100.1328125 C228.53125 99.4728125 228.53125 98.8128125 228.53125 98.1328125 C229.19125 98.1328125 229.85125 98.1328125 230.53125 98.1328125 C232.17749411 93.80162263 232.80310655 90.19843757 232.78125 85.5703125 C232.78640625 84.47589844 232.7915625 83.38148437 232.796875 82.25390625 C232.53287841 79.15194636 231.84626748 76.93505213 230.53125 74.1328125 C229.87125 74.1328125 229.21125 74.1328125 228.53125 74.1328125 C228.53125 73.4728125 228.53125 72.8128125 228.53125 72.1328125 C227.87125 72.1328125 227.21125 72.1328125 226.53125 72.1328125 C226.53125 71.4728125 226.53125 70.8128125 226.53125 70.1328125 C222.2675219 67.77370897 222.2675219 67.77370897 217.53125 67.1328125 C217.53125 66.4728125 217.53125 65.8128125 217.53125 65.1328125 C216.21125 65.1328125 214.89125 65.1328125 213.53125 65.1328125 C213.53125 64.4728125 213.53125 63.8128125 213.53125 63.1328125 C212.26433493 62.45872942 210.99254251 61.79380753 209.71875 61.1328125 C209.01105469 60.7615625 208.30335938 60.3903125 207.57421875 60.0078125 C205.44204271 58.93595892 205.44204271 58.93595892 202.53125 59.1328125 C202.53125 58.4728125 202.53125 57.8128125 202.53125 57.1328125 C200.88125 57.1328125 199.23125 57.1328125 197.53125 57.1328125 C197.53125 56.4728125 197.53125 55.8128125 197.53125 55.1328125 C194.56125 54.1428125 191.59125 53.1528125 188.53125 52.1328125 C188.53125 51.4728125 188.53125 50.8128125 188.53125 50.1328125 C187.87125 50.1328125 187.21125 50.1328125 186.53125 50.1328125 C186.53125 49.4728125 186.53125 48.8128125 186.53125 48.1328125 C184.84917068 46.76461769 184.84917068 46.76461769 182.71875 45.5078125 C182.01105469 45.06179687 181.30335938 44.61578125 180.57421875 44.15625 C178.46503793 42.90886386 178.46503793 42.90886386 175.53125 43.1328125 C175.53125 42.4728125 175.53125 41.8128125 175.53125 41.1328125 C174.21125 41.1328125 172.89125 41.1328125 171.53125 41.1328125 C171.53125 40.4728125 171.53125 39.8128125 171.53125 39.1328125 C170.87125 39.1328125 170.21125 39.1328125 169.53125 39.1328125 C169.53125 38.4728125 169.53125 37.8128125 169.53125 37.1328125 C168.54125 37.1328125 167.55125 37.1328125 166.53125 37.1328125 C166.325 36.5346875 166.11875 35.9365625 165.90625 35.3203125 C163.98243502 32.25969775 161.84374876 31.457812 158.53125 30.1328125 C157.21125 30.1328125 155.89125 30.1328125 154.53125 30.1328125 C154.53125 29.4728125 154.53125 28.8128125 154.53125 28.1328125 C153.54125 28.1328125 152.55125 28.1328125 151.53125 28.1328125 C151.53125 27.4728125 151.53125 26.8128125 151.53125 26.1328125 C150.21125 26.1328125 148.89125 26.1328125 147.53125 26.1328125 C147.53125 25.4728125 147.53125 24.8128125 147.53125 24.1328125 C145.55125 23.4728125 143.57125 22.8128125 141.53125 22.1328125 C141.53125 21.4728125 141.53125 20.8128125 141.53125 20.1328125 C138.56125 19.6378125 138.56125 19.6378125 135.53125 19.1328125 C135.53125 18.4728125 135.53125 17.8128125 135.53125 17.1328125 C134.54125 17.1328125 133.55125 17.1328125 132.53125 17.1328125 C132.53125 16.4728125 132.53125 15.8128125 132.53125 15.1328125 C131.87125 15.1328125 131.21125 15.1328125 130.53125 15.1328125 Z M-41.46875 35.1328125 C-41.46875 35.7928125 -41.46875 36.4528125 -41.46875 37.1328125 C-42.12875 37.1328125 -42.78875 37.1328125 -43.46875 37.1328125 C-43.46875 38.4528125 -43.46875 39.7728125 -43.46875 41.1328125 C-42.80875 41.1328125 -42.14875 41.1328125 -41.46875 41.1328125 C-41.46875 41.7928125 -41.46875 42.4528125 -41.46875 43.1328125 C-29.58875 43.1328125 -17.70875 43.1328125 -5.46875 43.1328125 C-3.95409976 37.67196989 -3.95409976 37.67196989 -5.46875 35.1328125 C-17.34875 35.1328125 -29.22875 35.1328125 -41.46875 35.1328125 Z M-167.46875 44.1328125 C-167.56201716 45.69828298 -167.58620582 47.26794022 -167.58227539 48.83618164 C-167.58219986 49.83714371 -167.58212433 50.83810577 -167.58204651 51.86940002 C-167.57688522 52.9579277 -167.57172394 54.04645538 -167.56640625 55.16796875 C-167.5649913 56.27635605 -167.56357635 57.38474335 -167.56211853 58.52671814 C-167.55650033 62.08294319 -167.54394475 65.63910633 -167.53125 69.1953125 C-167.52623734 71.59960847 -167.52167403 74.00390542 -167.51757812 76.40820312 C-167.50652499 82.31642754 -167.48976917 88.2246156 -167.46875 94.1328125 C-164.82875 94.1328125 -162.18875 94.1328125 -159.46875 94.1328125 C-158.46765485 97.44352088 -158.36518866 100.43366019 -158.40625 103.8828125 C-158.41527344 104.86765625 -158.42429688 105.8525 -158.43359375 106.8671875 C-158.44519531 107.61484375 -158.45679688 108.3625 -158.46875 109.1328125 C-162.14443464 110.05173366 -163.63255575 110.09186106 -167.46875 109.1328125 C-167.46875 112.1028125 -167.46875 115.0728125 -167.46875 118.1328125 C-164.16875 118.1328125 -160.86875 118.1328125 -157.46875 118.1328125 C-157.46875 117.4728125 -157.46875 116.8128125 -157.46875 116.1328125 C-150.20875 115.8028125 -142.94875 115.4728125 -135.46875 115.1328125 C-135.46875 114.4728125 -135.46875 113.8128125 -135.46875 113.1328125 C-131.17875 113.1328125 -126.88875 113.1328125 -122.46875 113.1328125 C-122.46875 112.4728125 -122.46875 111.8128125 -122.46875 111.1328125 C-120.81875 111.1328125 -119.16875 111.1328125 -117.46875 111.1328125 C-117.46875 110.4728125 -117.46875 109.8128125 -117.46875 109.1328125 C-113.83875 109.1328125 -110.20875 109.1328125 -106.46875 109.1328125 C-106.46875 108.4728125 -106.46875 107.8128125 -106.46875 107.1328125 C-102.83875 107.1328125 -99.20875 107.1328125 -95.46875 107.1328125 C-95.46875 106.4728125 -95.46875 105.8128125 -95.46875 105.1328125 C-94.14875 105.1328125 -92.82875 105.1328125 -91.46875 105.1328125 C-91.46875 104.4728125 -91.46875 103.8128125 -91.46875 103.1328125 C-90.86546875 103.14441406 -90.2621875 103.15601563 -89.640625 103.16796875 C-88.84140625 103.17699219 -88.0421875 103.18601563 -87.21875 103.1953125 C-86.03539063 103.21271484 -86.03539063 103.21271484 -84.828125 103.23046875 C-82.56183998 103.13666556 -80.6398605 102.76522313 -78.46875 102.1328125 C-78.46875 101.4728125 -78.46875 100.8128125 -78.46875 100.1328125 C-75.49875 100.1328125 -72.52875 100.1328125 -69.46875 100.1328125 C-69.34325191 91.18061561 -69.52094549 82.26493376 -69.90625 73.3203125 C-69.94548584 72.34755371 -69.98472168 71.37479492 -70.02514648 70.37255859 C-70.08810913 69.00671631 -70.08810913 69.00671631 -70.15234375 67.61328125 C-70.18900146 66.79754639 -70.22565918 65.98181152 -70.26342773 65.14135742 C-70.35616099 63.06304314 -70.35616099 63.06304314 -71.46875 61.1328125 C-72.12875 61.1328125 -72.78875 61.1328125 -73.46875 61.1328125 C-73.46875 60.4728125 -73.46875 59.8128125 -73.46875 59.1328125 C-75.44875 59.1328125 -77.42875 59.1328125 -79.46875 59.1328125 C-79.46875 58.4728125 -79.46875 57.8128125 -79.46875 57.1328125 C-86.74559954 54.35437904 -94.02467171 53.04267029 -101.67578125 51.78125 C-104.33781487 51.32615465 -106.86571386 50.81123848 -109.46875 50.1328125 C-109.46875 49.4728125 -109.46875 48.8128125 -109.46875 48.1328125 C-111.44875 48.1328125 -113.42875 48.1328125 -115.46875 48.1328125 C-115.46875 47.4728125 -115.46875 46.8128125 -115.46875 46.1328125 C-142.75966395 40.48550644 -142.75966395 40.48550644 -167.46875 44.1328125 Z M-42.16757202 49.86238098 C-43.65758134 52.46230518 -43.84332513 53.93722514 -43.84106445 56.91381836 C-43.84729324 57.85837387 -43.85352203 58.80292938 -43.85993958 59.77610779 C-43.85072983 60.78971878 -43.84152008 61.80332977 -43.83203125 62.84765625 C-43.83252975 63.89554825 -43.83302826 64.94344025 -43.83354187 66.02308655 C-43.83120264 68.2379852 -43.82148307 70.45288657 -43.80493164 72.66772461 C-43.78136272 76.05411626 -43.78436925 79.43971916 -43.79101562 82.82617188 C-43.78543788 84.97917135 -43.7783274 87.13216752 -43.76953125 89.28515625 C-43.77044266 90.29674301 -43.77135406 91.30832977 -43.77229309 92.35057068 C-43.76276108 93.29827835 -43.75322906 94.24598602 -43.7434082 95.22241211 C-43.73880081 96.05195908 -43.73419342 96.88150604 -43.72944641 97.7361908 C-43.52091474 100.65202113 -43.52091474 100.65202113 -41.46875 105.1328125 C-29.25875 105.1328125 -17.04875 105.1328125 -4.46875 105.1328125 C-3.81745908 99.27119423 -3.36623664 94.45515564 -3.58984375 88.7109375 C-3.61345474 88.04423035 -3.63706573 87.37752319 -3.66139221 86.69061279 C-3.73682439 84.58772767 -3.82099351 82.48532009 -3.90625 80.3828125 C-4.01244189 77.61730468 -4.11445948 74.85166167 -4.21484375 72.0859375 C-4.25283585 71.08028748 -4.25283585 71.08028748 -4.29159546 70.05432129 C-4.48528315 64.59852174 -4.47965931 59.15604955 -4.39086914 53.69824219 C-4.3494703 51.01182584 -4.3494703 51.01182584 -5.46875 48.1328125 C-10.39829646 48.03395542 -15.32726647 47.96135125 -20.25756836 47.91308594 C-21.93475392 47.89296685 -23.61186931 47.86566799 -25.28881836 47.83105469 C-27.699232 47.78254681 -30.10871872 47.75984786 -32.51953125 47.7421875 C-33.64467888 47.71121979 -33.64467888 47.71121979 -34.79255676 47.67962646 C-38.91674313 47.6078065 -38.91674313 47.6078065 -42.16757202 49.86238098 Z M-8.46875 111.1328125 C-8.46875 111.7928125 -8.46875 112.4528125 -8.46875 113.1328125 C-20.01875 113.1328125 -31.56875 113.1328125 -43.46875 113.1328125 C-43.46875 114.7828125 -43.46875 116.4328125 -43.46875 118.1328125 C-30.92875 118.1328125 -18.38875 118.1328125 -5.46875 118.1328125 C-5.46875 117.4728125 -5.46875 116.8128125 -5.46875 116.1328125 C-4.80875 116.1328125 -4.14875 116.1328125 -3.46875 116.1328125 C-3.96375 114.1528125 -3.96375 114.1528125 -4.46875 112.1328125 C-5.78875 111.8028125 -7.10875 111.4728125 -8.46875 111.1328125 Z M78.53125 122.1328125 C78.20125 122.7928125 77.87125 123.4528125 77.53125 124.1328125 C77.86125 124.7928125 78.19125 125.4528125 78.53125 126.1328125 C84.80125 126.4628125 91.07125 126.7928125 97.53125 127.1328125 C97.59183594 128.84210938 97.65242188 130.55140625 97.71484375 132.3125 C97.79923879 134.54427994 97.88388731 136.7760503 97.96875 139.0078125 C98.00806641 140.13574219 98.04738281 141.26367188 98.08789062 142.42578125 C98.12978516 143.50214844 98.17167969 144.57851562 98.21484375 145.6875 C98.25150146 146.68249512 98.28815918 147.67749023 98.32592773 148.70263672 C98.38084532 151.14060751 98.38084532 151.14060751 99.53125 153.1328125 C100.85125 153.1328125 102.17125 153.1328125 103.53125 153.1328125 C104.96634221 150.26262809 104.64283506 147.79737527 104.62890625 144.59375 C104.62568359 143.29179687 104.62246094 141.98984375 104.61914062 140.6484375 C104.61078466 139.26822851 104.60231971 137.88802018 104.59375 136.5078125 C104.58873501 135.11979324 104.5841721 133.73177228 104.58007812 132.34375 C104.56825985 128.94008577 104.5503239 125.5364438 104.53125 122.1328125 C95.95125 122.1328125 87.37125 122.1328125 78.53125 122.1328125 Z M-41.46875 124.1328125 C-41.46875 124.7928125 -41.46875 125.4528125 -41.46875 126.1328125 C-42.12875 126.1328125 -42.78875 126.1328125 -43.46875 126.1328125 C-43.46875 127.1228125 -43.46875 128.1128125 -43.46875 129.1328125 C-30.26875 129.1328125 -17.06875 129.1328125 -3.46875 129.1328125 C-3.46875 127.4828125 -3.46875 125.8328125 -3.46875 124.1328125 C-16.00875 124.1328125 -28.54875 124.1328125 -41.46875 124.1328125 Z M48.53125 122.1328125 C48.53125 122.7928125 48.53125 123.4528125 48.53125 124.1328125 C34.01125 124.1328125 19.49125 124.1328125 4.53125 124.1328125 C2.84559202 128.34695744 2.2766176 130.05335752 2.265625 134.29296875 C2.26304687 135.25138672 2.26046875 136.20980469 2.2578125 137.19726562 C2.26554688 138.18662109 2.27328125 139.17597656 2.28125 140.1953125 C2.27351562 141.18853516 2.26578125 142.18175781 2.2578125 143.20507812 C2.26039063 144.16220703 2.26296875 145.11933594 2.265625 146.10546875 C2.26788086 146.97437744 2.27013672 147.84328613 2.27246094 148.73852539 C2.54812298 151.28891938 3.2472238 152.93167028 4.53125 155.1328125 C5.52125 155.1328125 6.51125 155.1328125 7.53125 155.1328125 C8.32871733 150.22775552 8.66647696 145.55595771 8.65625 140.5703125 C8.66011719 138.68119141 8.66011719 138.68119141 8.6640625 136.75390625 C8.54268616 133.44461616 8.10801308 130.38634048 7.53125 127.1328125 C8.34577637 127.13804932 9.16030273 127.14328613 9.99951172 127.14868164 C25.20674408 127.23341654 40.356322 127.28429755 55.53125 126.1328125 C55.53125 125.4728125 55.53125 124.8128125 55.53125 124.1328125 C54.54125 124.1328125 53.55125 124.1328125 52.53125 124.1328125 C52.53125 123.4728125 52.53125 122.8128125 52.53125 122.1328125 C51.21125 122.1328125 49.89125 122.1328125 48.53125 122.1328125 Z M57.53125 130.1328125 C55.51530418 130.36709028 53.492776 130.54617374 51.46875 130.6953125 C49.81166016 130.82099609 49.81166016 130.82099609 48.12109375 130.94921875 C47.26644531 131.00980469 46.41179687 131.07039062 45.53125 131.1328125 C45.53125 131.7928125 45.53125 132.4528125 45.53125 133.1328125 C42.05173477 132.99462718 38.57274505 132.84598649 35.09375 132.6953125 C34.10052734 132.65599609 33.10730469 132.61667969 32.08398438 132.57617188 C31.13974609 132.53427734 30.19550781 132.49238281 29.22265625 132.44921875 C28.34810791 132.41256104 27.47355957 132.37590332 26.57250977 132.33813477 C24.53125 132.1328125 24.53125 132.1328125 23.53125 131.1328125 C20.05696972 130.74678136 18.21610595 130.63172827 15.34765625 132.73046875 C12.92821214 135.9303787 13.12271571 137.91945536 13.28125 141.8828125 C13.31734375 143.05328125 13.3534375 144.22375 13.390625 145.4296875 C13.43703125 146.32171875 13.4834375 147.21375 13.53125 148.1328125 C12.87125 148.1328125 12.21125 148.1328125 11.53125 148.1328125 C11.86125 149.7828125 12.19125 151.4328125 12.53125 153.1328125 C22.79698581 153.20222308 33.0626661 153.25557814 43.32858849 153.28824902 C48.09511967 153.30392683 52.8614907 153.32520349 57.62792969 153.35913086 C62.2250082 153.39164916 66.82193236 153.40964956 71.41911697 153.41744423 C73.17587338 153.42300132 74.93262103 153.43385253 76.68931198 153.45000267 C79.14381128 153.47167728 81.59766701 153.47478367 84.05224609 153.47338867 C84.78376389 153.4841745 85.51528168 153.49496033 86.26896667 153.506073 C88.49982479 153.52752905 88.49982479 153.52752905 91.53125 153.1328125 C95.35209702 147.40154197 93.67032961 139.68252027 92.53125 133.1328125 C91.87125 133.1328125 91.21125 133.1328125 90.53125 133.1328125 C90.53125 132.4728125 90.53125 131.8128125 90.53125 131.1328125 C89.46003906 131.07222656 88.38882813 131.01164063 87.28515625 130.94921875 C85.88800609 130.86482713 84.49087143 130.78017844 83.09375 130.6953125 C82.38669922 130.65599609 81.67964844 130.61667969 80.95117188 130.57617188 C75.64453125 130.24609375 75.64453125 130.24609375 74.53125 129.1328125 C71.8539362 129.03300036 69.20820825 128.99401375 66.53125 129.0078125 C65.78101563 129.00394531 65.03078125 129.00007812 64.2578125 128.99609375 C60.59518883 128.65605709 60.59518883 128.65605709 57.53125 130.1328125 Z M-31.28125 136.0703125 C-32.90184326 136.20034668 -32.90184326 136.20034668 -34.55517578 136.33300781 C-36.06893799 136.46400879 -36.06893799 136.46400879 -37.61328125 136.59765625 C-38.97996948 136.71548462 -38.97996948 136.71548462 -40.37426758 136.83569336 C-42.45280748 136.91660893 -42.45280748 136.91660893 -43.46875 138.1328125 C-43.55526611 139.54851373 -43.57579904 140.9684075 -43.56640625 142.38671875 C-43.56318359 143.24072266 -43.55996094 144.09472656 -43.55664062 144.97460938 C-43.54826172 145.87244141 -43.53988281 146.77027344 -43.53125 147.6953125 C-43.52673828 148.59701172 -43.52222656 149.49871094 -43.51757812 150.42773438 C-43.50575225 152.66282564 -43.4892722 154.89778687 -43.46875 157.1328125 C-41.81875 157.1328125 -40.16875 157.1328125 -38.46875 157.1328125 C-38.46875 156.4728125 -38.46875 155.8128125 -38.46875 155.1328125 C-26.58875 155.1328125 -14.70875 155.1328125 -2.46875 155.1328125 C-2.46875 149.1928125 -2.46875 143.2528125 -2.46875 137.1328125 C-4.28639055 134.89815403 -4.28639055 134.89815403 -6.8828125 134.8671875 C-15.05250251 134.90694268 -23.13947112 135.41202562 -31.28125 136.0703125 Z " fill="#F7F7F7" transform="translate(182.46875,5.8671875)"/>
<path d="M0 0 C2.64 0 5.28 0 8 0 C8 0.66 8 1.32 8 2 C11.63 2.33 15.26 2.66 19 3 C19 3.66 19 4.32 19 5 C20.32 5 21.64 5 23 5 C23 5.66 23 6.32 23 7 C23.66386719 6.97679688 24.32773437 6.95359375 25.01171875 6.9296875 C33.78207381 6.75043937 33.78207381 6.75043937 38 9 C38 9.66 38 10.32 38 11 C38.99 11 39.98 11 41 11 C42.5730805 13.81344717 43.27764569 15.97407196 43.44921875 19.1875 C43.49240234 19.96867187 43.53558594 20.74984375 43.58007812 21.5546875 C43.61552734 22.36164063 43.65097656 23.16859375 43.6875 24 C43.73455078 24.80695313 43.78160156 25.61390625 43.83007812 26.4453125 C44.01988745 30.21660606 44.05840755 33.34358963 43 37 C40.94921875 37.22786458 38.8984375 37.45572917 36.84765625 37.68359375 C34.98859771 37.81886614 34.98859771 37.81886614 34 39 C27.12145917 40.00064226 20.37859641 40.12221824 13.4375 40.0625 C12.42880859 40.05798828 11.42011719 40.05347656 10.38085938 40.04882812 C7.92050853 40.03716769 5.46028761 40.02080378 3 40 C3 38.35 3 36.7 3 35 C2.34 35 1.68 35 1 35 C-2.56626506 5.13253012 -2.56626506 5.13253012 0 0 Z M11 11 C11.42317594 15.51387673 13.41300109 18.53488247 15.84375 22.23046875 C17 24 17 24 18 26 C20.32156597 26.40729228 22.6568787 26.74438677 25 27 C25 27.66 25 28.32 25 29 C26.45880109 28.85892253 27.91703551 28.71197585 29.375 28.5625 C30.18710937 28.48128906 30.99921875 28.40007812 31.8359375 28.31640625 C34.04272805 28.10909886 34.04272805 28.10909886 36 27 C36 24.03 36 21.06 36 18 C35.34 18 34.68 18 34 18 C34 17.34 34 16.68 34 16 C33.19175781 15.86722656 32.38351562 15.73445313 31.55078125 15.59765625 C29.94783203 15.33275391 29.94783203 15.33275391 28.3125 15.0625 C27.25675781 14.88847656 26.20101563 14.71445313 25.11328125 14.53515625 C22.39750396 14.06832879 19.69875765 13.55577384 17 13 C17 12.34 17 11.68 17 11 C15.02 11 13.04 11 11 11 Z " fill="#F7F7F7" transform="translate(342,58)"/>
<path d="M0 0 C1.65 0 3.3 0 5 0 C7.48887372 4.68493876 6.85687773 7.9444214 6 13 C4.02 13 2.04 13 0 13 C-1.18306728 10.63386544 -1.13354608 9.13219264 -1.125 6.5 C-1.12757812 5.7059375 -1.13015625 4.911875 -1.1328125 4.09375 C-1 2 -1 2 0 0 Z " fill="#ECECEC" transform="translate(89,89)"/>
<path d="M0 0 C1.65 0 3.3 0 5 0 C6.47193312 2.94386623 5.84936173 5.37390036 5.5625 8.625 C5.46066406 9.81351563 5.35882813 11.00203125 5.25390625 12.2265625 C5.17011719 13.14179687 5.08632813 14.05703125 5 15 C3.35 14.67 1.7 14.34 0 14 C-1.13016601 8.97703996 -0.77916092 5.02125926 0 0 Z " fill="#EBEBEB" transform="translate(32,98)"/>
<path d="M0 0 C8.58 0 17.16 0 26 0 C26 1.32 26 2.64 26 4 C25.01 4 24.02 4 23 4 C23 3.34 23 2.68 23 2 C18.71 2 14.42 2 10 2 C10 2.66 10 3.32 10 4 C7.69 4 5.38 4 3 4 C3 3.34 3 2.68 3 2 C2.01 2 1.02 2 0 2 C0 1.34 0 0.68 0 0 Z " fill="#D1D1D1" transform="translate(235,128)"/>
<path d="M0 0 C1.32 0 2.64 0 4 0 C5.52491998 3.04983996 5.23562548 5.6423369 5 9 C3.5 10.9375 3.5 10.9375 2 12 C1.01 11.67 0.02 11.34 -1 11 C-1.0270043 9.54176788 -1.04639787 8.08339325 -1.0625 6.625 C-1.07410156 5.81289062 -1.08570312 5.00078125 -1.09765625 4.1640625 C-1 2 -1 2 0 0 Z " fill="#E4E4E4" transform="translate(72,93)"/>
<path d="M0 0 C1.4540625 0.0309375 1.4540625 0.0309375 2.9375 0.0625 C2.9375 2.3725 2.9375 4.6825 2.9375 7.0625 C0.9575 7.0625 -1.0225 7.0625 -3.0625 7.0625 C-3.44383299 5.0710944 -3.77575582 3.06970923 -4.0625 1.0625 C-3.0625 0.0625 -3.0625 0.0625 0 0 Z " fill="#EAEAEA" transform="translate(57.0625,96.9375)"/>
<path d="M0 0 C4.95 0 9.9 0 15 0 C15 1.32 15 2.64 15 4 C14.01 4 13.02 4 12 4 C12 3.34 12 2.68 12 2 C8.37 2 4.74 2 1 2 C0.67 1.34 0.34 0.68 0 0 Z " fill="#D9D9D9" transform="translate(246,128)"/>
</svg>
