<?xml version="1.0" encoding="UTF-8"?>
<svg version="1.1" xmlns="http://www.w3.org/2000/svg" width="239" height="106">
<path d="M0 0 C2.59615401 1.31525383 3.0794007 2.34741483 4.06640625 5.046875 C5.9385493 11.00591856 6.3703286 17.03930402 6.625 23.25 C7.02156348 26.66114778 7.74880137 29.61416758 8.640625 32.91796875 C10.40534082 40.33157537 10.17036198 47.15772009 9.60302734 54.68725586 C9.44036965 56.87330651 9.31194511 59.05952101 9.1875 61.24804688 C8.1665349 77.41529572 8.1665349 77.41529572 2.87890625 83.609375 C-1.0032512 85.59358881 -3.86127888 85.0148276 -7.93359375 84.046875 C-8.80628906 83.84578125 -9.67898437 83.6446875 -10.578125 83.4375 C-25.67602143 79.63663097 -25.67602143 79.63663097 -29.71466064 75.0037384 C-32.48408093 72.56140375 -33.76266613 72.55474924 -37.40917969 72.5769043 C-38.51691742 72.57401398 -39.62465515 72.57112366 -40.76596069 72.56814575 C-41.97112335 72.58561859 -43.17628601 72.60309143 -44.41796875 72.62109375 C-45.68186432 72.62406464 -46.94575989 72.62703552 -48.24795532 72.63009644 C-51.68163321 72.63907534 -55.11463964 72.67330517 -58.54808807 72.71251297 C-61.39569205 72.74166504 -64.24327885 72.75544044 -67.09099388 72.76884747 C-87.48630399 72.86566881 -107.88133793 73.19188327 -128.26855469 73.77807617 C-129.66791763 73.81543381 -129.66791763 73.81543381 -131.09555054 73.85354614 C-132.79868766 73.89955481 -134.50170513 73.95043817 -136.20449829 74.00778198 C-143.07542254 74.18940878 -149.66607233 73.42479524 -156.43359375 72.296875 C-159.93652148 71.86806833 -161.97084624 72.32146962 -165.18359375 73.734375 C-170.54328342 75.8139724 -174.73271884 74.14106717 -180.015625 72.41796875 C-183.04778258 70.99322001 -184.69462852 69.49743474 -186.93359375 67.046875 C-187.79984375 66.53125 -188.66609375 66.015625 -189.55859375 65.484375 C-191.93359375 64.046875 -191.93359375 64.046875 -193.93359375 61.046875 C-194.12109375 57.921875 -194.12109375 57.921875 -193.93359375 55.046875 C-193.43859375 54.551875 -193.43859375 54.551875 -192.93359375 54.046875 C-185.53909834 54.64320528 -185.53909834 54.64320528 -181.93359375 57.046875 C-178.5005221 57.28958325 -178.5005221 57.28958325 -174.74609375 57.171875 C-173.47378906 57.15382812 -172.20148438 57.13578125 -170.890625 57.1171875 C-169.91480469 57.09398437 -168.93898437 57.07078125 -167.93359375 57.046875 C-172.09006319 54.64469482 -176.26486594 54.31852982 -180.9609375 53.70703125 C-184.14030393 53.00096959 -186.19830821 51.76805808 -188.93359375 50.046875 C-191.64312926 49.79491371 -191.64312926 49.79491371 -193.93359375 50.046875 C-194.92359375 52.521875 -194.92359375 52.521875 -195.93359375 55.046875 C-197.58359375 54.716875 -199.23359375 54.386875 -200.93359375 54.046875 C-206.13934077 39.60829365 -206.13934077 39.60829365 -202.8046875 31.88671875 C-202.51722656 31.27957031 -202.22976562 30.67242187 -201.93359375 30.046875 C-201.54171875 29.20125 -201.14984375 28.355625 -200.74609375 27.484375 C-193.73815958 18.0599118 -183.98593015 13.1972655 -172.58544922 11.4284668 C-166.00390532 10.7407443 -159.42351537 10.78962796 -152.81225586 10.84106445 C-150.34413539 10.85957721 -147.87638652 10.86157175 -145.40820312 10.86132812 C-143.832028 10.86623571 -142.2558554 10.87206069 -140.6796875 10.87890625 C-139.94535995 10.88001907 -139.21103241 10.8811319 -138.45445251 10.88227844 C-135.34684898 10.91135793 -132.90441852 11.05660008 -129.93359375 12.046875 C-129.76859375 11.345625 -129.60359375 10.644375 -129.43359375 9.921875 C-126.92835737 5.12017194 -122.47959198 1.91624025 -117.37109375 0.171875 C-116.56671875 0.130625 -115.76234375 0.089375 -114.93359375 0.046875 C-113.41765625 -0.13875 -113.41765625 -0.13875 -111.87109375 -0.328125 C-106.12229888 0.21937927 -100.87787342 2.04822866 -95.93359375 5.046875 C-95.299375 6.08714844 -94.66515625 7.12742187 -94.01171875 8.19921875 C-92.18243859 11.38783972 -92.18243859 11.38783972 -88.6484375 11.66796875 C-87.40191406 11.60738281 -86.15539062 11.54679687 -84.87109375 11.484375 C-83.64261719 11.44183594 -82.41414063 11.39929687 -81.1484375 11.35546875 C-78.91992534 11.21332639 -76.70677715 11.02298528 -74.48583984 10.7890625 C-65.62975612 9.86489282 -56.85733069 10.04687925 -47.96484375 10.26171875 C-38.1622984 10.37841572 -33.04904337 8.94316553 -25.18359375 2.921875 C-16.83137334 -3.44727632 -9.80725568 -2.76260723 0 0 Z M-25.99609375 10.671875 C-31.45018039 15.57950209 -36.10195081 16.12121388 -43.296875 16.05078125 C-50.54203945 16.02127224 -57.75797636 16.24914254 -64.99609375 16.546875 C-71.96895533 16.83274301 -78.91118652 17.06838459 -85.890625 16.98828125 C-90.33474688 16.97008283 -94.25846536 17.24645925 -98.55859375 18.484375 C-100.00105469 18.88462891 -100.00105469 18.88462891 -101.47265625 19.29296875 C-103.30069252 19.85298621 -105.11981246 20.44228124 -106.93359375 21.046875 C-114.08214637 21.44401681 -120.89858038 20.24797484 -127.93359375 19.046875 C-128.42859375 17.066875 -128.42859375 17.066875 -128.93359375 15.046875 C-129.67996094 15.17964844 -130.42632812 15.31242187 -131.1953125 15.44921875 C-141.66855805 17.08529018 -152.08347514 17.42189607 -162.67651367 17.61694336 C-172.75335449 17.85425904 -182.2117968 18.50277361 -189.8203125 25.875 C-195.81432667 32.40837379 -195.81432667 32.40837379 -197.99609375 40.734375 C-196.4633028 44.07044941 -194.23248474 44.67233709 -190.93359375 46.046875 C-190.60359375 46.376875 -190.27359375 46.706875 -189.93359375 47.046875 C-188.54494941 47.35243726 -187.14678111 47.61488308 -185.74609375 47.859375 C-181.52364482 48.642686 -177.55126644 49.78402196 -173.46435547 51.09448242 C-166.06530881 53.22495828 -159.2898008 53.58165871 -151.62890625 53.47265625 C-150.2939402 53.46770298 -148.95896704 53.46442335 -147.62399292 53.46269226 C-144.13796663 53.45320534 -140.65260994 53.4189994 -137.16680908 53.37982178 C-134.38434191 53.35283569 -131.60196252 53.34405943 -128.81938553 53.33615303 C-114.65380519 53.29448979 -100.50583942 53.09693081 -86.35916138 52.29890442 C-81.67639026 52.05448287 -77.56439814 52.16269847 -72.93359375 53.046875 C-70.75153187 52.97197289 -70.75153187 52.97197289 -68.6875 52.625 C-55.80103031 50.9545816 -43.07259281 51.63941547 -30.4140625 54.375 C-25.49268905 55.32502944 -19.57653181 56.36834403 -14.93359375 54.046875 C-14.91377441 53.4391626 -14.89395508 52.8314502 -14.87353516 52.20532227 C-14.52130207 41.87477358 -14.16269709 31.56638685 -12.93359375 21.296875 C-12.80911865 20.25382202 -12.80911865 20.25382202 -12.68212891 19.18969727 C-12.31636229 16.33506488 -11.84670098 13.7861967 -10.93359375 11.046875 C-10.86693999 9.65247836 -10.84821176 8.25517625 -10.87109375 6.859375 C-10.90203125 4.9721875 -10.90203125 4.9721875 -10.93359375 3.046875 C-17.02224741 3.046875 -21.67652236 6.64643785 -25.99609375 10.671875 Z M-4.93359375 5.046875 C-7.49882867 9.56757587 -8.56525403 13.61852609 -9.05859375 18.734375 C-9.1364209 19.46624023 -9.21424805 20.19810547 -9.29443359 20.95214844 C-10.16959424 29.63036612 -10.63130265 38.33180283 -10.93359375 47.046875 C-10.97613281 48.25730469 -11.01867187 49.46773437 -11.0625 50.71484375 C-11.24713438 61.01744229 -9.9603288 70.5291376 -5.93359375 80.046875 C-3.95359375 80.046875 -1.97359375 80.046875 0.06640625 80.046875 C3.14080547 74.00787653 3.81113557 68.44663461 4.31640625 61.734375 C4.40664062 60.75275391 4.496875 59.77113281 4.58984375 58.75976562 C5.1150779 52.3595334 4.86197038 46.40452974 4.06640625 40.046875 C3.89342744 38.26101681 3.72688562 36.47452477 3.56640625 34.6875 C3.48390625 33.79933594 3.40140625 32.91117188 3.31640625 31.99609375 C3.14830466 30.18112191 2.98166218 28.3660144 2.81640625 26.55078125 C2.13084795 19.21316507 1.44521019 12.67452888 -1.93359375 6.046875 C-2.92359375 5.716875 -3.91359375 5.386875 -4.93359375 5.046875 Z M-119.93359375 10.046875 C-119.60359375 11.036875 -119.27359375 12.026875 -118.93359375 13.046875 C-113.3080715 15.52162191 -108.53304663 15.19134632 -102.93359375 13.046875 C-102.93359375 12.056875 -102.93359375 11.066875 -102.93359375 10.046875 C-108.42651385 7.21181947 -114.74063046 6.58489947 -119.93359375 10.046875 Z M-74.23764038 55.34855652 C-75.45612167 55.38061943 -75.45612167 55.38061943 -76.69921875 55.41333008 C-77.94155273 55.44591415 -77.94155273 55.44591415 -79.20898438 55.47915649 C-80.89961042 55.52428134 -82.59020381 55.57064659 -84.28076172 55.61825562 C-100.18036237 56.06584016 -116.06692307 56.11914791 -131.97192383 56.00976562 C-132.84685989 56.00553589 -133.72179596 56.00130615 -134.62324524 55.99694824 C-136.24639228 55.98887888 -137.869527 55.97663132 -139.49259949 55.95910645 C-144.39483429 55.93727516 -149.09847382 56.19219566 -153.93359375 57.046875 C-154.26359375 57.706875 -154.59359375 58.366875 -154.93359375 59.046875 C-153.94359375 59.376875 -152.95359375 59.706875 -151.93359375 60.046875 C-151.93359375 60.706875 -151.93359375 61.366875 -151.93359375 62.046875 C-160.96127931 63.55148926 -169.85646742 62.68335096 -178.93359375 62.046875 C-178.93359375 63.036875 -178.93359375 64.026875 -178.93359375 65.046875 C-167.93292263 68.11682973 -157.54001931 69.07139703 -146.2109375 67.26171875 C-141.54626349 66.82165516 -136.80861901 67.0907362 -132.12890625 67.20703125 C-128.83982417 67.40032068 -128.83982417 67.40032068 -126.93359375 65.046875 C-133.92377179 64.23135423 -140.91835227 63.60477068 -147.93359375 63.046875 C-147.60359375 62.386875 -147.27359375 61.726875 -146.93359375 61.046875 C-145.83821289 61.05211182 -144.74283203 61.05734863 -143.61425781 61.06274414 C-122.58255451 61.15439407 -101.61562289 61.07256759 -80.6015625 60.13671875 C-78.16519038 60.05467401 -75.74573678 60.04835187 -73.30859375 60.078125 C-70.17048498 60.10530853 -67.14862449 59.88679456 -64.03125 59.52734375 C-58.76594351 58.9524842 -53.65232715 59.07610532 -48.37109375 59.359375 C-47.49001953 59.39482422 -46.60894531 59.43027344 -45.70117188 59.46679688 C-37.74599584 59.86015244 -29.81491357 60.74605011 -22.93359375 65.046875 C-22.60359375 66.036875 -22.27359375 67.026875 -21.93359375 68.046875 C-22.70703125 67.6859375 -23.48046875 67.325 -24.27734375 66.953125 C-30.53613083 64.1645565 -35.09823894 62.54055242 -41.93359375 63.046875 C-42.92359375 62.551875 -42.92359375 62.551875 -43.93359375 62.046875 C-45.37252144 61.95148642 -46.81572805 61.91614022 -48.2578125 61.9140625 C-49.12212891 61.91277344 -49.98644531 61.91148438 -50.87695312 61.91015625 C-52.23530273 61.91595703 -52.23530273 61.91595703 -53.62109375 61.921875 C-54.50732422 61.91800781 -55.39355469 61.91414063 -56.30664062 61.91015625 C-61.28079554 61.91751991 -66.01631044 62.20230344 -70.93359375 63.046875 C-72.06796875 63.2325 -73.20234375 63.418125 -74.37109375 63.609375 C-75.21671875 63.75375 -76.06234375 63.898125 -76.93359375 64.046875 C-76.93359375 64.376875 -76.93359375 64.706875 -76.93359375 65.046875 C-70.37593734 65.76573359 -63.93043245 66.10541807 -57.33203125 65.96875 C-56.0171875 65.94296875 -54.70234375 65.9171875 -53.34765625 65.890625 C-51.32217798 65.84742527 -49.29811368 65.79650287 -47.2734375 65.72460938 C-38.19039652 65.41834113 -31.60657889 65.99477061 -23.93359375 71.046875 C-22.7741626 71.80049316 -22.7741626 71.80049316 -21.59130859 72.56933594 C-20.2888441 73.43597698 -18.99789172 74.32033133 -17.72265625 75.2265625 C-15.42115777 76.28183473 -14.26853742 75.88004873 -11.93359375 75.046875 C-12.20976908 73.10612639 -12.20976908 73.10612639 -12.93359375 71.046875 C-13.92359375 70.386875 -14.91359375 69.726875 -15.93359375 69.046875 C-15.41796875 68.675625 -14.90234375 68.304375 -14.37109375 67.921875 C-12.58428845 66.02473578 -12.58428845 66.02473578 -13.18359375 62.921875 C-13.64292899 60.16896659 -13.64292899 60.16896659 -14.93359375 59.046875 C-34.6568625 54.14901699 -54.13327127 54.81956118 -74.23764038 55.34855652 Z " fill="#D4D4D4" transform="translate(212.93359375,9.953125)"/>
<path d="M0 0 C2.10504732 3.15757099 2.24910726 3.89801718 2.23046875 7.5 C2.22942139 8.38212158 2.22837402 9.26424316 2.22729492 10.1730957 C2.2141626 11.10597412 2.20103027 12.03885254 2.1875 13 C2.17887939 13.95028076 2.17025879 14.90056152 2.16137695 15.87963867 C1.87321285 38.4628078 1.87321285 38.4628078 -4.1875 45.5625 C-8.06965745 47.54671381 -10.92768513 46.9679526 -15 46 C-15.87269531 45.79890625 -16.74539062 45.5978125 -17.64453125 45.390625 C-33.22034325 41.46944156 -33.22034325 41.46944156 -36.45629883 36.97924805 C-40.48471409 33.84474738 -44.69752581 34.28594779 -49.671875 34.171875 C-50.70942932 34.1331427 -51.74698364 34.0944104 -52.815979 34.05450439 C-56.12698585 33.93503218 -59.43813232 33.8421964 -62.75 33.75 C-64.99615407 33.67362882 -67.24224993 33.59552464 -69.48828125 33.515625 C-74.99167043 33.32364269 -80.49541079 33.15351596 -86 33 C-85.01 32.505 -85.01 32.505 -84 32 C-84 31.01 -84 30.02 -84 29 C-74.35859471 27.40019292 -65.02873969 26.60896708 -55.25 26.5625 C-54.01378906 26.52962891 -52.77757812 26.49675781 -51.50390625 26.46289062 C-43.41679426 26.4156227 -37.82581453 27.64336472 -31 32 C-30.21592773 32.49250244 -29.43185547 32.98500488 -28.62402344 33.49243164 C-27.30223469 34.338821 -25.99021934 35.20079064 -24.69140625 36.08203125 C-22.88129124 37.23850114 -22.88129124 37.23850114 -20 37 C-20 36.01 -20 35.02 -20 34 C-21.32 33.34 -22.64 32.68 -24 32 C-23.484375 31.46375 -22.96875 30.9275 -22.4375 30.375 C-20.52337133 27.21252654 -21.27130892 25.52281118 -22 22 C-41.32832174 17.91818976 -60.32978446 17.20329161 -80 17 C-79.67 16.34 -79.34 15.68 -79 15 C-62.39099205 11.38143677 -36.50469449 11.24765275 -21 19 C-21 17.68 -21 16.36 -21 15 C-20.34 15 -19.68 15 -19 15 C-17.3078482 20.31819136 -16.37980115 25.60062131 -15.5078125 31.109375 C-14.90966196 34.5142319 -14.0471024 37.70910676 -13 41 C-11.02 41 -9.04 41 -7 41 C-4.72526805 35.37051631 -4.34727537 29.80110651 -3.875 23.8125 C-3.74544922 22.34586914 -3.74544922 22.34586914 -3.61328125 20.84960938 C-3.06115335 14.21969263 -2.89723535 7.65115682 -3 1 C-2.01 0.67 -1.02 0.34 0 0 Z " fill="#DDDDDD" transform="translate(220,48)"/>
<path d="M0 0 C0.88107422 0.03544922 1.76214844 0.07089844 2.66992188 0.10742188 C11.57995049 0.54799156 18.86475256 1.85383142 26.4375 6.6875 C26.4375 7.6775 26.4375 8.6675 26.4375 9.6875 C23.04098096 9.2831525 20.58945434 8.77008388 17.5625 7.125 C13.53593292 5.27277914 10.83924685 5.54077511 6.4375 5.6875 C5.4475 5.1925 5.4475 5.1925 4.4375 4.6875 C2.99857231 4.59211142 1.5553657 4.55676522 0.11328125 4.5546875 C-0.75103516 4.55339844 -1.61535156 4.55210938 -2.50585938 4.55078125 C-3.86420898 4.55658203 -3.86420898 4.55658203 -5.25 4.5625 C-6.13623047 4.55863281 -7.02246094 4.55476563 -7.93554688 4.55078125 C-12.91885954 4.55815847 -17.65065712 4.84086224 -22.5625 5.6875 C-21.5725 6.0175 -20.5825 6.3475 -19.5625 6.6875 C-18.5725 7.0175 -17.5825 7.3475 -16.5625 7.6875 C-19.08725462 8.94987731 -20.87450466 8.78606404 -23.6875 8.75 C-24.59757812 8.74097656 -25.50765625 8.73195313 -26.4453125 8.72265625 C-27.14398438 8.71105469 -27.84265625 8.69945313 -28.5625 8.6875 C-28.5625 9.6775 -28.5625 10.6675 -28.5625 11.6875 C-15.6925 12.1825 -15.6925 12.1825 -2.5625 12.6875 C-2.5625 13.0175 -2.5625 13.3475 -2.5625 13.6875 C-13.43783497 13.94995789 -24.31320623 14.21085343 -35.18862534 14.46980286 C-40.23953824 14.59011582 -45.29043755 14.71094911 -50.34130859 14.83300781 C-55.22367711 14.95097474 -60.10607759 15.0675275 -64.9885025 15.18313599 C-66.84304234 15.22729038 -68.6975705 15.27193807 -70.55208588 15.31710815 C-80.22366911 15.55235243 -89.88710139 15.76460212 -99.5625 15.6875 C-98.923125 15.378125 -98.28375 15.06875 -97.625 14.75 C-95.62639179 13.8529837 -95.62639179 13.8529837 -94.5625 12.6875 C-92.93575222 12.59409566 -91.30495949 12.57004829 -89.67553711 12.57397461 C-88.63453354 12.57405014 -87.59352997 12.57412567 -86.52098083 12.57420349 C-85.3887056 12.57936478 -84.25643036 12.58452606 -83.08984375 12.58984375 C-81.93706436 12.5912587 -80.78428497 12.59267365 -79.59657288 12.59413147 C-75.89768936 12.59974995 -72.19886536 12.61230558 -68.5 12.625 C-65.99934983 12.63001262 -63.49869871 12.63457594 -60.99804688 12.63867188 C-54.85284412 12.64972538 -48.70767631 12.66648148 -42.5625 12.6875 C-43.0575 10.7075 -43.0575 10.7075 -43.5625 8.6875 C-46.45839652 8.66043555 -49.35403795 8.64062971 -52.25 8.625 C-53.06662109 8.61662109 -53.88324219 8.60824219 -54.72460938 8.59960938 C-58.83568949 8.58296533 -62.53741584 8.77270815 -66.5625 9.6875 C-68.24746271 9.79913852 -69.93639341 9.86195049 -71.625 9.875 C-72.46160156 9.88917969 -73.29820313 9.90335938 -74.16015625 9.91796875 C-76.75811601 9.66873359 -78.32015608 8.9846839 -80.5625 7.6875 C-83.04543714 6.44603143 -85.04510296 6.39921344 -87.8125 6.1875 C-91.77440038 5.85951088 -95.65203206 5.42731826 -99.5625 4.6875 C-99.2325 3.6975 -98.9025 2.7075 -98.5625 1.6875 C-97.46711914 1.69273682 -96.37173828 1.69797363 -95.24316406 1.70336914 C-74.21146076 1.79501907 -53.24452914 1.71319259 -32.23046875 0.77734375 C-29.79409663 0.69529901 -27.37464303 0.68897687 -24.9375 0.71875 C-21.79939123 0.74593353 -18.77753074 0.52741956 -15.66015625 0.16796875 C-10.39484976 -0.4068908 -5.2812334 -0.28326968 0 0 Z " fill="#D7D7D7" transform="translate(164.5625,68.3125)"/>
<path d="M0 0 C5.79152098 0.36771562 5.79152098 0.36771562 8 1 C8.66 1.99 9.32 2.98 10 4 C13.2001106 4.51254128 13.2001106 4.51254128 16.9765625 4.51171875 C18.00443375 4.53864555 18.00443375 4.53864555 19.05307007 4.56611633 C21.24365059 4.62033708 23.4340119 4.65415053 25.625 4.6875 C27.10940559 4.72066294 28.59378221 4.75515165 30.078125 4.79101562 C33.71853912 4.87606815 37.35902944 4.94282356 41 5 C41 6.32 41 7.64 41 9 C32.40793559 10.35664175 22.34174493 10.78058164 14 8 C14 8.99 14 9.98 14 11 C24.37356697 12.92996595 34.73659749 13.95960719 45.25 12.5 C52.16068856 11.57857486 58.81694768 11.92082392 65.7109375 12.7734375 C70.93141096 13.29013965 76.09821805 13.31054127 81.27734375 12.46484375 C85.44679641 11.94420905 89.26648427 12.10549783 93.4375 12.4375 C94.16904297 12.48970703 94.90058594 12.54191406 95.65429688 12.59570312 C97.43668622 12.72384876 99.2184257 12.8609816 101 13 C101.495 14.98 101.495 14.98 102 17 C96.44029181 18.1803706 91.037997 18.11074273 85.38671875 18.0625 C84.37656204 18.05871338 83.36640533 18.05492676 82.32563782 18.05102539 C79.11288108 18.03884627 75.9002157 18.02020122 72.6875 18 C68.44140893 17.97351907 64.19536076 17.9534926 59.94921875 17.9375 C58.96700851 17.92920166 57.98479828 17.92090332 56.9728241 17.91235352 C55.62055473 17.90739868 55.62055473 17.90739868 54.2409668 17.90234375 C53.44409958 17.89710693 52.64723236 17.89187012 51.82621765 17.88647461 C49.98038911 17.79898675 49.98038911 17.79898675 49 19 C44.71680335 19.15297131 40.78916344 18.98846902 36.5625 18.3125 C33.01834767 17.84155642 31.00307504 18.24829678 27.75 19.6875 C22.39031033 21.7670974 18.20087491 20.09419217 12.91796875 18.37109375 C9.88581117 16.94634501 8.23896523 15.45055974 6 13 C5.13375 12.484375 4.2675 11.96875 3.375 11.4375 C1 10 1 10 -1 7 C-1.1875 3.875 -1.1875 3.875 -1 1 C-0.67 0.67 -0.34 0.34 0 0 Z " fill="#DBDBDB" transform="translate(20,64)"/>
<path d="M0 0 C6.00821984 0.93188716 11.71259603 2.18716032 17.50439453 4.05151367 C24.89029378 6.18360771 31.65595374 6.53461068 39.3046875 6.42578125 C40.63965355 6.42082798 41.97462671 6.41754835 43.30960083 6.41581726 C46.79562712 6.40633034 50.28098381 6.3721244 53.76678467 6.33294678 C56.54925184 6.30596069 59.33163123 6.29718443 62.11420822 6.28927803 C76.27978856 6.24761479 90.42775433 6.05005581 104.57443237 5.25202942 C109.25714776 5.00761078 113.3691945 5.11579949 118 6 C120.1484413 5.9181526 120.1484413 5.9181526 122.18359375 5.56640625 C127.48811791 4.87315713 132.72019406 4.88917016 138.0625 4.9375 C139.02349609 4.94201172 139.98449219 4.94652344 140.97460938 4.95117188 C143.31647422 4.96282294 145.65820181 4.97917975 148 5 C148 5.33 148 5.66 148 6 C133.645 6.99 133.645 6.99 119 8 C121.97 8.33 124.94 8.66 128 9 C128 9.33 128 9.66 128 10 C122.22944565 10.17719301 116.45863294 10.34276855 110.6875 10.5 C109.80707031 10.52400879 108.92664063 10.54801758 108.01953125 10.57275391 C91.66642413 11.00635902 75.32546428 11.0753577 58.9675293 10.96289062 C58.09174728 10.95866089 57.21596527 10.95443115 56.31364441 10.95007324 C54.68927667 10.94200832 53.06492116 10.92976676 51.44062805 10.91223145 C46.53769965 10.89039347 41.84681174 11.22946739 37 12 C36.67 12.33 36.34 12.66 36 13 C33.92737924 13.08767112 31.85179706 13.10695873 29.77734375 13.09765625 C28.51728516 13.09443359 27.25722656 13.09121094 25.95898438 13.08789062 C24.61848891 13.07953403 23.27799412 13.07106907 21.9375 13.0625 C20.59310058 13.0574866 19.2486994 13.05292342 17.90429688 13.04882812 C14.60282059 13.03699488 11.30143197 13.02050971 8 13 C7.67 12.34 7.34 11.68 7 11 C12.28 11 17.56 11 23 11 C18.54447686 8.77223843 14.8555224 8.29597826 9.97265625 7.66015625 C6.79189628 6.95378511 4.74622217 5.70486947 2 4 C-1.20916171 3.74863967 -1.20916171 3.74863967 -4 4 C-4 3.34 -4 2.68 -4 2 C-2.68 2 -1.36 2 0 2 C0 1.34 0 0.68 0 0 Z " fill="#B2B2B2" transform="translate(22,56)"/>
<path d="M0 0 C0 0.33 0 0.66 0 1 C-8.91 1 -17.82 1 -27 1 C-27 1.99 -27 2.98 -27 4 C-13.14 4 0.72 4 15 4 C15 4.33 15 4.66 15 5 C5.16898355 6.05790424 -4.64510533 6.31142459 -14.52539062 6.51757812 C-24.46204042 6.79287475 -34.11714253 7.3242854 -41.6640625 14.60546875 C-45.35618238 18.72500152 -49 22.99118423 -49 28.75 C-48.17036254 31.25141103 -48.17036254 31.25141103 -45.4375 32.3125 C-44.633125 32.539375 -43.82875 32.76625 -43 33 C-43 33.99 -43 34.98 -43 36 C-44.32 36 -45.64 36 -47 36 C-47.33 38.31 -47.66 40.62 -48 43 C-49.65 42.67 -51.3 42.34 -53 42 C-58.20574702 27.56141865 -58.20574702 27.56141865 -54.87109375 19.83984375 C-54.58363281 19.23269531 -54.29617187 18.62554687 -54 18 C-53.608125 17.154375 -53.21625 16.30875 -52.8125 15.4375 C-46.48233434 6.9245186 -37.48380351 1.63484687 -27.125 -0.3125 C-18.00591063 -1.5533517 -9.09627989 -1.21283732 0 0 Z " fill="#DCDCDC" transform="translate(65,22)"/>
<path d="M0 0 C0 0.66 0 1.32 0 2 C1.98 2 3.96 2 6 2 C4 4 4 4 1.6171875 4.1953125 C0.71226562 4.17210938 -0.19265625 4.14890625 -1.125 4.125 C-2.03507812 4.10695313 -2.94515625 4.08890625 -3.8828125 4.0703125 C-4.58148438 4.04710938 -5.28015625 4.02390625 -6 4 C-6 4.99 -6 5.98 -6 7 C6.87 7.495 6.87 7.495 20 8 C20 8.33 20 8.66 20 9 C9.12466503 9.26245789 -1.75070623 9.52335343 -12.62612534 9.78230286 C-17.67703824 9.90261582 -22.72793755 10.02344911 -27.77880859 10.14550781 C-32.66117711 10.26347474 -37.54357759 10.3800275 -42.4260025 10.49563599 C-44.28054234 10.53979038 -46.1350705 10.58443807 -47.98958588 10.62960815 C-57.66116911 10.86485243 -67.32460139 11.07710212 -77 11 C-76.360625 10.690625 -75.72125 10.38125 -75.0625 10.0625 C-73.06389179 9.1654837 -73.06389179 9.1654837 -72 8 C-70.37325222 7.90659566 -68.74245949 7.88254829 -67.11303711 7.88647461 C-66.07203354 7.88655014 -65.03102997 7.88662567 -63.95848083 7.88670349 C-62.8262056 7.89186478 -61.69393036 7.89702606 -60.52734375 7.90234375 C-59.37456436 7.9037587 -58.22178497 7.90517365 -57.03407288 7.90663147 C-53.33518936 7.91224995 -49.63636536 7.92480558 -45.9375 7.9375 C-43.43684983 7.94251262 -40.93619871 7.94707594 -38.43554688 7.95117188 C-32.29034412 7.96222538 -26.14517631 7.97898148 -20 8 C-20.495 6.02 -20.495 6.02 -21 4 C-23.89589652 3.97293555 -26.79153795 3.95312971 -29.6875 3.9375 C-30.50412109 3.92912109 -31.32074219 3.92074219 -32.16210938 3.91210938 C-36.27318949 3.89546533 -39.97491584 4.08520815 -44 5 C-45.68496271 5.11163852 -47.37389341 5.17445049 -49.0625 5.1875 C-49.89910156 5.20167969 -50.73570313 5.21585937 -51.59765625 5.23046875 C-54.20722887 4.98011951 -55.79516602 4.39950486 -58 3 C-58.33 2.34 -58.66 1.68 -59 1 C-39.33101109 -0.14259687 -19.69303008 -0.10630736 0 0 Z " fill="#BCBCBC" transform="translate(142,73)"/>
<path d="M0 0 C1.95486328 0.0009668 1.95486328 0.0009668 3.94921875 0.00195312 C13.46805246 0.04652623 13.46805246 0.04652623 15.75 1.1875 C15.42 2.8375 15.09 4.4875 14.75 6.1875 C-0.62685253 7.50958388 -15.85004901 6.91322968 -31.25 6.1875 C-30.59 5.8575 -29.93 5.5275 -29.25 5.1875 C-29.25 4.1975 -29.25 3.2075 -29.25 2.1875 C-19.40377778 0.50808541 -9.99196693 -0.09735763 0 0 Z " fill="#F6F6F6" transform="translate(165.25,74.8125)"/>
<path d="M0 0 C0.83595703 0.05220703 1.67191406 0.10441406 2.53320312 0.15820312 C4.58500789 0.28717371 6.63631306 0.42405021 8.6875 0.5625 C9.1825 2.5425 9.1825 2.5425 9.6875 4.5625 C4.45836572 5.63733628 -0.55756799 5.69180634 -5.8671875 5.66015625 C-7.21950974 5.65803383 -7.21950974 5.65803383 -8.59915161 5.65586853 C-11.461969 5.6502974 -14.32470648 5.63775026 -17.1875 5.625 C-19.13541553 5.61998127 -21.0833323 5.61541901 -23.03125 5.61132812 C-27.79169718 5.60033742 -32.55208507 5.58309277 -37.3125 5.5625 C-37.3125 4.9025 -37.3125 4.2425 -37.3125 3.5625 C-38.6325 3.2325 -39.9525 2.9025 -41.3125 2.5625 C-41.3125 2.2325 -41.3125 1.9025 -41.3125 1.5625 C-23.66114672 0.41577635 -23.66114672 0.41577635 -16.390625 0.625 C-14.27510187 0.63258983 -14.27510187 0.63258983 -12.12890625 0.03515625 C-8.0455069 -0.65012991 -4.11592074 -0.28262439 0 0 Z " fill="#EFEFEF" transform="translate(112.3125,76.4375)"/>
<path d="M0 0 C0 0.33 0 0.66 0 1 C-8.91 1 -17.82 1 -27 1 C-27 1.99 -27 2.98 -27 4 C-13.14 4 0.72 4 15 4 C15 4.33 15 4.66 15 5 C5.16898355 6.05790424 -4.64510533 6.31142459 -14.52539062 6.51757812 C-26.192176 6.74957583 -26.192176 6.74957583 -36.875 11.0625 C-40 13 -40 13 -42 14 C-42.12375 13.195625 -42.2475 12.39125 -42.375 11.5625 C-42.684375 10.2940625 -42.684375 10.2940625 -43 9 C-43.66 8.67 -44.32 8.34 -45 8 C-40.53995931 2.64795118 -31.66368247 0.16662783 -24.9375 -0.8125 C-16.51800803 -1.21342819 -8.36003318 -1.11467109 0 0 Z " fill="#C2C2C2" transform="translate(65,22)"/>
<path d="M0 0 C0.74476089 0.00141495 1.48952179 0.0028299 2.2568512 0.00428772 C4.61007898 0.00983636 6.96320775 0.02237892 9.31640625 0.03515625 C10.92252466 0.0401779 12.52864457 0.04473964 14.13476562 0.04882812 C18.04951668 0.0597889 21.96419474 0.07701741 25.87890625 0.09765625 C26.37390625 2.07765625 26.37390625 2.07765625 26.87890625 4.09765625 C16.50399501 4.71573607 6.14921749 5.19978428 -4.24609375 5.22265625 C-5.53338379 5.22942383 -5.53338379 5.22942383 -6.84667969 5.23632812 C-12.87308748 5.22165938 -12.87308748 5.22165938 -15.12109375 4.09765625 C-15.12109375 3.10765625 -15.12109375 2.11765625 -15.12109375 1.09765625 C-10.04947925 0.26059366 -5.14345236 -0.0375178 0 0 Z " fill="#EEEEEE" transform="translate(53.12109375,21.90234375)"/>
<path d="M0 0 C1.43472656 0.00676758 1.43472656 0.00676758 2.8984375 0.01367188 C5.22402758 0.02529983 7.5494776 0.04163898 9.875 0.0625 C9.875 0.7225 9.875 1.3825 9.875 2.0625 C8.885 2.3925 7.895 2.7225 6.875 3.0625 C7.37 4.5475 7.37 4.5475 7.875 6.0625 C4.76291309 7.0998623 2.39339996 7.26330286 -0.875 7.37890625 C-2.03290039 7.42088135 -3.19080078 7.46285645 -4.38378906 7.50610352 C-6.23568848 7.56495728 -6.23568848 7.56495728 -8.125 7.625 C-9.37764648 7.6674585 -10.63029297 7.70991699 -11.92089844 7.75366211 C-21.99227163 8.07411489 -32.04978208 8.17417113 -42.125 8.0625 C-42.125 7.4025 -42.125 6.7425 -42.125 6.0625 C-32.225 6.0625 -22.325 6.0625 -12.125 6.0625 C-12.125 5.0725 -12.125 4.0825 -12.125 3.0625 C-15.095 2.7325 -18.065 2.4025 -21.125 2.0625 C-21.125 1.7325 -21.125 1.4025 -21.125 1.0625 C-14.05611222 0.21035221 -7.1161168 -0.06496455 0 0 Z " fill="#B2B2B2" transform="translate(157.125,19.9375)"/>
<path d="M0 0 C1.31871094 -0.01417969 2.63742188 -0.02835937 3.99609375 -0.04296875 C7.5625 0.1875 7.5625 0.1875 11.5625 2.1875 C7.9325 2.5175 4.3025 2.8475 0.5625 3.1875 C1.5525 3.8475 2.5425 4.5075 3.5625 5.1875 C-2.7550474 7.71451896 -8.31396285 7.52873405 -14.875 6.5 C-19.27859448 5.92098066 -22.36997227 6.92470549 -26.39453125 8.69140625 C-28.4375 9.1875 -28.4375 9.1875 -30.69921875 8.27734375 C-31.27285156 7.91769531 -31.84648438 7.55804688 -32.4375 7.1875 C-30.1275 7.1875 -27.8175 7.1875 -25.4375 7.1875 C-26.58923355 4.71949953 -27.48533565 3.13966435 -29.4375 1.1875 C-28.87764404 1.19273682 -28.31778809 1.19797363 -27.7409668 1.20336914 C-25.20232263 1.22416691 -22.66369641 1.23716904 -20.125 1.25 C-19.24392578 1.25837891 -18.36285156 1.26675781 -17.45507812 1.27539062 C-16.60751953 1.27861328 -15.75996094 1.28183594 -14.88671875 1.28515625 C-14.10643311 1.29039307 -13.32614746 1.29562988 -12.5222168 1.30102539 C-8.30126721 1.07116925 -4.35101847 0.00417164 0 0 Z " fill="#CFCFCF" transform="translate(71.4375,75.8125)"/>
<path d="M0 0 C2.15669572 3.23504358 2.24833577 4.12190963 2.23046875 7.8515625 C2.22853516 8.78484375 2.22660156 9.718125 2.22460938 10.6796875 C2.21236328 11.65164062 2.20011719 12.62359375 2.1875 13.625 C2.18685547 14.6046875 2.18621094 15.584375 2.18554688 16.59375 C2.14026024 23.85973976 2.14026024 23.85973976 1 25 C0.50216679 27.73808268 0.09967498 30.48494038 -0.3046875 33.23828125 C-1.03907142 36.15518817 -2.04407411 37.75015082 -4 40 C-4.85048858 36.44428052 -5.03283622 33.4982034 -4.66015625 29.8671875 C-4.56669922 28.89523438 -4.47324219 27.92328125 -4.37695312 26.921875 C-4.27318359 25.91640625 -4.16941406 24.9109375 -4.0625 23.875 C-3.28356796 16.21633913 -2.85535992 8.70090271 -3 1 C-2.01 0.67 -1.02 0.34 0 0 Z " fill="#EEEEEE" transform="translate(220,48)"/>
<path d="M0 0 C8.54730344 1.32570421 16.72241148 3.51068141 25 6 C23.02 6.99 23.02 6.99 21 8 C24.40351338 10.03219488 27.3232927 10.36891039 31.25 10.625 C32.32765625 10.69976562 33.4053125 10.77453125 34.515625 10.8515625 C35.74539062 10.92503906 35.74539062 10.92503906 37 11 C36.67 11.66 36.34 12.32 36 13 C26.76 13 17.52 13 8 13 C7.67 12.34 7.34 11.68 7 11 C12.28 11 17.56 11 23 11 C18.54447686 8.77223843 14.8555224 8.29597826 9.97265625 7.66015625 C6.79189628 6.95378511 4.74622217 5.70486947 2 4 C-1.20916171 3.74863967 -1.20916171 3.74863967 -4 4 C-4 3.34 -4 2.68 -4 2 C-2.68 2 -1.36 2 0 2 C0 1.34 0 0.68 0 0 Z " fill="#ABABAB" transform="translate(22,56)"/>
<path d="M0 0 C13.53 0 27.06 0 41 0 C41 0.66 41 1.32 41 2 C32.09427469 3.39307435 23.32801743 4.22622711 14.3125 4.3125 C13.46397461 4.32990234 12.61544922 4.34730469 11.74121094 4.36523438 C7.01268643 4.36145004 3.83907851 4.08846438 0 1 C0 0.67 0 0.34 0 0 Z " fill="#DDDDDD" transform="translate(42,63)"/>
<path d="M0 0 C11.88 0 23.76 0 36 0 C36 0.99 36 1.98 36 3 C24.12 3 12.24 3 0 3 C0 2.01 0 1.02 0 0 Z " fill="#939393" transform="translate(106,73)"/>
<path d="M0 0 C0.80179688 0.00064453 1.60359375 0.00128906 2.4296875 0.00195312 C5.77640473 0.02713745 8.55565645 0.12271882 11.75 1.1875 C11.75 2.1775 11.75 3.1675 11.75 4.1875 C2.3320037 5.55462849 -6.8025582 4.85643651 -16.25 4.1875 C-16.25 3.5275 -16.25 2.8675 -16.25 2.1875 C-10.69579389 0.30887146 -5.84056176 -0.09095957 0 0 Z " fill="#E5E5E5" transform="translate(133.25,21.8125)"/>
<path d="M0 0 C0.33 0 0.66 0 1 0 C1.144375 1.134375 1.28875 2.26875 1.4375 3.4375 C1.61171478 6.80777201 1.61171478 6.80777201 3 8 C3.33 6.02 3.66 4.04 4 2 C4.33 2 4.66 2 5 2 C5.11039334 10.40215965 4.95458649 18.64736824 4 27 C3.67 27 3.34 27 3 27 C3 25.35 3 23.7 3 22 C2.34 22 1.68 22 1 22 C1 23.32 1 24.64 1 26 C-1.31 25.67 -3.62 25.34 -6 25 C-2.25 23 -2.25 23 0 23 C0 15.41 0 7.82 0 0 Z " fill="#C4C4C4" transform="translate(198,41)"/>
<path d="M0 0 C23.58238484 -0.20638953 23.58238484 -0.20638953 35 1 C35 1.33 35 1.66 35 2 C33.02 2.33 31.04 2.66 29 3 C32.96 3.33 36.92 3.66 41 4 C41 4.33 41 4.66 41 5 C30.44 5 19.88 5 9 5 C9 4.67 9 4.34 9 4 C14.445 3.505 14.445 3.505 20 3 C20 2.34 20 1.68 20 1 C19.01 1.495 19.01 1.495 18 2 C11.96673831 2.30708218 5.91839382 2.31519863 0 1 C0 0.67 0 0.34 0 0 Z " fill="#A9A9A9" transform="translate(63,62)"/>
<path d="M0 0 C7.59 0 15.18 0 23 0 C23 0.66 23 1.32 23 2 C26.63 2 30.26 2 34 2 C34 2.33 34 2.66 34 3 C33.04738281 2.98839844 32.09476563 2.97679688 31.11328125 2.96484375 C29.85902344 2.95582031 28.60476562 2.94679688 27.3125 2.9375 C26.07113281 2.92589844 24.82976562 2.91429688 23.55078125 2.90234375 C20.51493439 2.98583789 17.94837971 3.36541496 15 4 C13.31503729 4.11163852 11.62610659 4.17445049 9.9375 4.1875 C9.10089844 4.20167969 8.26429687 4.21585937 7.40234375 4.23046875 C4.79277113 3.98011951 3.20483398 3.39950486 1 2 C0.67 1.34 0.34 0.68 0 0 Z " fill="#CCCCCC" transform="translate(83,74)"/>
<path d="M0 0 C1.31871094 -0.01417969 2.63742188 -0.02835937 3.99609375 -0.04296875 C7.5625 0.1875 7.5625 0.1875 11.5625 2.1875 C7.9325 2.5175 4.3025 2.8475 0.5625 3.1875 C1.5525 3.8475 2.5425 4.5075 3.5625 5.1875 C-0.26070557 6.61008812 -3.35031305 7.42792276 -7.4375 7.1875 C-7.4375 6.5275 -7.4375 5.8675 -7.4375 5.1875 C-9.0875 5.1875 -10.7375 5.1875 -12.4375 5.1875 C-12.4375 4.5275 -12.4375 3.8675 -12.4375 3.1875 C-11.7775 3.1875 -11.1175 3.1875 -10.4375 3.1875 C-10.4375 2.5275 -10.4375 1.8675 -10.4375 1.1875 C-6.90252138 0.00917379 -3.67856929 0.00352691 0 0 Z " fill="#CACACA" transform="translate(71.4375,75.8125)"/>
<path d="M0 0 C0.33 0 0.66 0 1 0 C2.07891919 7.53785434 2.31925076 14.64892448 0 22 C-0.66 22.33 -1.32 22.66 -2 23 C-3.65497356 19.69005287 -3.10084335 16.00877 -3.0625 12.375 C-3.05798828 11.57320312 -3.05347656 10.77140625 -3.04882812 9.9453125 C-3.03703168 7.96350994 -3.01909605 5.98174567 -3 4 C-2.01 3.67 -1.02 3.34 0 3 C0 2.01 0 1.02 0 0 Z " fill="#D1D1D1" transform="translate(202,27)"/>
<path d="M0 0 C0.80824219 0.10183594 1.61648437 0.20367187 2.44921875 0.30859375 C3.06410156 0.39238281 3.67898437 0.47617188 4.3125 0.5625 C4.3125 1.2225 4.3125 1.8825 4.3125 2.5625 C5.6325 2.8925 6.9525 3.2225 8.3125 3.5625 C8.3125 4.5525 8.3125 5.5425 8.3125 6.5625 C5.6725 6.5625 3.0325 6.5625 0.3125 6.5625 C0.3125 5.9025 0.3125 5.2425 0.3125 4.5625 C-1.6675 4.5625 -3.6475 4.5625 -5.6875 4.5625 C-6.3475 3.2425 -7.0075 1.9225 -7.6875 0.5625 C-4.59271121 -0.46909626 -3.16118607 -0.41232862 0 0 Z " fill="#F0F0F0" transform="translate(103.6875,11.4375)"/>
<path d="M0 0 C20.295 0.495 20.295 0.495 41 1 C41 1.33 41 1.66 41 2 C31.43 2.33 21.86 2.66 12 3 C13.32 3.66 14.64 4.32 16 5 C4.47835991 4.03644647 4.47835991 4.03644647 -1 3 C-0.67 2.01 -0.34 1.02 0 0 Z " fill="#B1B1B1" transform="translate(66,70)"/>
<path d="M0 0 C0.99 0.99 1.98 1.98 3 3 C3.66 2.34 4.32 1.68 5 1 C7.125 1.375 7.125 1.375 9 2 C8.01 2.33 7.02 2.66 6 3 C3.92120965 6.91772027 3.44537934 10.9531722 2.875 15.3125 C2.70742187 16.56675781 2.53984375 17.82101563 2.3671875 19.11328125 C2.24601563 20.06589844 2.12484375 21.01851562 2 22 C1.67 22 1.34 22 1 22 C0.67 20.35 0.34 18.7 0 17 C-0.66 17 -1.32 17 -2 17 C-1.38273804 11.32644329 -0.72054048 5.66138945 0 0 Z " fill="#B7B7B7" transform="translate(202,13)"/>
<path d="M0 0 C-1.98 0.99 -1.98 0.99 -4 2 C-0.59648662 4.03219488 2.3232927 4.36891039 6.25 4.625 C7.32765625 4.69976562 8.4053125 4.77453125 9.515625 4.8515625 C10.33546875 4.90054688 11.1553125 4.94953125 12 5 C11.67 5.66 11.34 6.32 11 7 C1.76 7 -7.48 7 -17 7 C-17.33 6.34 -17.66 5.68 -18 5 C-12.72 5 -7.44 5 -2 5 C-6.39828259 2.8008587 -9.18550592 2.48144941 -14 2 C-14 1.67 -14 1.34 -14 1 C-8.83430559 -0.79217969 -5.48946087 -1.12029814 0 0 Z " fill="#979797" transform="translate(47,62)"/>
<path d="M0 0 C4.19360449 0.67097672 7.40334352 2.8558394 11 5 C10.360625 5.45375 9.72125 5.9075 9.0625 6.375 C6.90297594 7.83921726 6.90297594 7.83921726 6 10 C5.34 10 4.68 10 4 10 C3.45859375 9.35546875 2.9171875 8.7109375 2.359375 8.046875 C-0.82111319 5.28764352 -3.72158188 5.33376673 -7.75 5.25 C-8.44738281 5.22035156 -9.14476562 5.19070312 -9.86328125 5.16015625 C-11.57490813 5.08981542 -13.28745815 5.04260054 -15 5 C-15 4.67 -15 4.34 -15 4 C-10.38 3.67 -5.76 3.34 -1 3 C-0.67 2.01 -0.34 1.02 0 0 Z " fill="#CDCDCD" transform="translate(181,77)"/>
<path d="M0 0 C3.93743833 -0.05797565 7.87476719 -0.09358789 11.8125 -0.125 C12.93205078 -0.14175781 14.05160156 -0.15851563 15.20507812 -0.17578125 C16.27822266 -0.18222656 17.35136719 -0.18867187 18.45703125 -0.1953125 C19.9416687 -0.21102295 19.9416687 -0.21102295 21.45629883 -0.22705078 C24 0 24 0 27 2 C24.52030495 4.47969505 17.95612803 3.23402337 14.625 3.25 C13.02398437 3.2809375 13.02398437 3.2809375 11.390625 3.3125 C9.85535156 3.32023437 9.85535156 3.32023437 8.2890625 3.328125 C7.34756348 3.3374707 6.40606445 3.34681641 5.43603516 3.35644531 C2.60544452 2.94226789 1.74446632 2.20698662 0 0 Z " fill="#D1D1D1" transform="translate(107,70)"/>
<path d="M0 0 C4.62 0 9.24 0 14 0 C14 1.32 14 2.64 14 4 C5.88303369 5.28162626 -1.85315786 4.6976874 -10 4 C-9.67 3.34 -9.34 2.68 -9 2 C-5.37 2 -1.74 2 2 2 C1.34 1.34 0.68 0.68 0 0 Z " fill="#D3D3D3" transform="translate(47,69)"/>
<path d="M0 0 C0 0.99 0 1.98 0 3 C-3.52029806 3.19859939 -7.04123805 3.38186528 -10.5625 3.5625 C-11.55314453 3.61857422 -12.54378906 3.67464844 -13.56445312 3.73242188 C-18.88310883 3.99747116 -23.76247369 3.99167749 -29 3 C-29 2.67 -29 2.34 -29 2 C-23.79573463 0.99135573 -18.65652319 0.68532532 -13.375 0.4375 C-12.529375 0.39431641 -11.68375 0.35113281 -10.8125 0.30664062 C-7.19888218 0.12709968 -3.62005633 0 0 0 Z " fill="#E4E4E4" transform="translate(138,62)"/>
<path d="M0 0 C1.06863281 0.01804687 2.13726562 0.03609375 3.23828125 0.0546875 C4.04652344 0.07789062 4.85476562 0.10109375 5.6875 0.125 C5.3575 1.445 5.0275 2.765 4.6875 4.125 C1.69269083 4.9973412 -0.94825911 5.23329766 -4.0625 5.1875 C-4.86171875 5.17847656 -5.6609375 5.16945313 -6.484375 5.16015625 C-7.08765625 5.14855469 -7.6909375 5.13695312 -8.3125 5.125 C-8.3125 4.465 -8.3125 3.805 -8.3125 3.125 C-9.3025 2.795 -10.2925 2.465 -11.3125 2.125 C-7.38392246 0.27368517 -4.32474888 -0.09504943 0 0 Z " fill="#F4F4F4" transform="translate(173.3125,20.875)"/>
<path d="M0 0 C0 3 0 3 -1 6 C-0.34 6.33 0.32 6.66 1 7 C0.67 6.01 0.34 5.02 0 4 C0.66 4 1.32 4 2 4 C2.33 4.99 2.66 5.98 3 7 C-2.84286153 12.14171815 -9.60833245 12.30170072 -17 12 C-17 11.67 -17 11.34 -17 11 C-16.05125 10.855625 -15.1025 10.71125 -14.125 10.5625 C-11.1065506 10.17064601 -11.1065506 10.17064601 -9 9 C-8.01 9.33 -7.02 9.66 -6 10 C-5.67 8.68 -5.34 7.36 -5 6 C-6.32 5.67 -7.64 5.34 -9 5 C-7.88625 4.54625 -6.7725 4.0925 -5.625 3.625 C-2.03800992 2.27534014 -2.03800992 2.27534014 0 0 Z " fill="#BFBFBF" transform="translate(184,15)"/>
<path d="M0 0 C10.01025998 0.62029389 10.01025998 0.62029389 13 4 C13 4.99 13 5.98 13 7 C4.96858639 7.30890052 4.96858639 7.30890052 2 5 C0.75 2.375 0.75 2.375 0 0 Z " fill="#F5F5F5" transform="translate(33,76)"/>
<path d="M0 0 C1.77119803 0.14133499 3.54195287 0.28823208 5.3125 0.4375 C6.29863281 0.51871094 7.28476563 0.59992187 8.30078125 0.68359375 C11 1 11 1 14 2 C13.67 2.99 13.34 3.98 13 5 C8.38 5 3.76 5 -1 5 C-0.67 3.35 -0.34 1.7 0 0 Z " fill="#F4F4F4" transform="translate(147,21)"/>
<path d="M0 0 C1.65 0.33 3.3 0.66 5 1 C5 1.99 5 2.98 5 4 C3.68 4 2.36 4 1 4 C0.67 6.31 0.34 8.62 0 11 C-1.32 11 -2.64 11 -4 11 C-4 9.02 -4 7.04 -4 5 C-3.01 5 -2.02 5 -1 5 C-0.67 3.35 -0.34 1.7 0 0 Z " fill="#E1E1E1" transform="translate(17,54)"/>
<path d="M0 0 C0.33 0 0.66 0 1 0 C1.3738613 6.75719691 1.00847323 11.87560807 -2 18 C-4.1875 20 -4.1875 20 -6 21 C-6 20.01 -6 19.02 -6 18 C-7.98 18 -9.96 18 -12 18 C-12 17.67 -12 17.34 -12 17 C-11.195625 16.87625 -10.39125 16.7525 -9.5625 16.625 C-8.716875 16.41875 -7.87125 16.2125 -7 16 C-6.67 15.34 -6.34 14.68 -6 14 C-5.34 14 -4.68 14 -4 14 C-1.24297811 9.20517932 -0.46671627 5.41390868 0 0 Z " fill="#BCBCBC" transform="translate(220,73)"/>
<path d="M0 0 C1.77174819 0.08723378 3.54247377 0.19541655 5.3125 0.3125 C6.29863281 0.37050781 7.28476562 0.42851562 8.30078125 0.48828125 C11.24384457 1.04622813 12.18182999 1.68540132 14 4 C12.25093341 4.19601608 10.50068154 4.38147403 8.75 4.5625 C7.77546875 4.66691406 6.8009375 4.77132813 5.796875 4.87890625 C3.2368648 4.98974468 1.41851841 4.77738092 -1 4 C-0.67 2.68 -0.34 1.36 0 0 Z " fill="#F4F4F4" transform="translate(51,22)"/>
<path d="M0 0 C0 0.66 0 1.32 0 2 C-0.639375 2.37125 -1.27875 2.7425 -1.9375 3.125 C-5.11375748 6.0125068 -4.7245919 8.80002643 -5 13 C-5.33 12.34 -5.66 11.68 -6 11 C-7.32 11.33 -8.64 11.66 -10 12 C-10.33 11.01 -10.66 10.02 -11 9 C-17.93 8.505 -17.93 8.505 -25 8 C-25 7.67 -25 7.34 -25 7 C-22.56242587 6.97301578 -20.12515085 6.95316901 -17.6875 6.9375 C-16.99720703 6.92912109 -16.30691406 6.92074219 -15.59570312 6.91210938 C-12.4516975 6.89692094 -10.00579981 6.99806673 -7 8 C-6.731875 7.236875 -6.46375 6.47375 -6.1875 5.6875 C-4.80876015 2.56719402 -3.66285015 0 0 0 Z " fill="#A9A9A9" transform="translate(90,14)"/>
<path d="M0 0 C1.32 0 2.64 0 4 0 C4.33 0.99 4.66 1.98 5 3 C4.01 3 3.02 3 2 3 C1.67 4.65 1.34 6.3 1 8 C0.01 8.33 -0.98 8.66 -2 9 C-2.33 9.33 -2.66 9.66 -3 10 C-3.99 9.67 -4.98 9.34 -6 9 C-2.25 2.25 -2.25 2.25 0 0 Z " fill="#D5D5D5" transform="translate(188,12)"/>
<path d="M0 0 C2.01696222 3.02544334 2.25811096 3.61067382 2.1875 7 C2.18105469 7.680625 2.17460937 8.36125 2.16796875 9.0625 C2 11 2 11 1 14 C0.34 14 -0.32 14 -1 14 C-2.45184478 9.46298506 -3.23509196 5.81938524 -3 1 C-2.01 0.67 -1.02 0.34 0 0 Z " fill="#EAEAEA" transform="translate(220,48)"/>
<path d="M0 0 C1.89796206 3.38152192 2.80223042 6.73436548 3.6875 10.5 C3.95949219 11.6240625 4.23148438 12.748125 4.51171875 13.90625 C4.9634571 16.7684642 4.97784414 18.32241337 4 21 C3.34 19.68 2.68 18.36 2 17 C0.68 17 -0.64 17 -2 17 C-2 14.69 -2 12.38 -2 10 C-0.68 10.33 0.64 10.66 2 11 C1.67 10.113125 1.34 9.22625 1 8.3125 C0.08777857 5.29076653 -0.18330958 3.11626294 0 0 Z " fill="#C3C3C3" transform="translate(218,33)"/>
<path d="M0 0 C5.28 0 10.56 0 16 0 C16.33 0.99 16.66 1.98 17 3 C18.65 3 20.3 3 22 3 C20 5 20 5 16.8125 5.046875 C14.9253125 4.89992188 14.9253125 4.89992188 13 4.75 C11.741875 4.66234375 10.48375 4.5746875 9.1875 4.484375 C6 4 6 4 4 2 C2.68 1.34 1.36 0.68 0 0 Z " fill="#B9B9B9" transform="translate(127,69)"/>
<path d="M0 0 C5.70709064 0.46588495 9.15939723 1.93757784 14 5 C14 5.99 14 6.98 14 8 C9.43545749 7.45660208 6.0271824 6.20536179 2 4 C2 3.34 2 2.68 2 2 C1.34 1.34 0.68 0.68 0 0 Z " fill="#B6B6B6" transform="translate(177,70)"/>
<path d="M0 0 C3.3 0 6.6 0 10 0 C10.33 1.32 10.66 2.64 11 4 C7.04 4 3.08 4 -1 4 C-0.67 2.68 -0.34 1.36 0 0 Z " fill="#F3F3F3" transform="translate(111,77)"/>
<path d="M0 0 C-0.969375 0.309375 -1.93875 0.61875 -2.9375 0.9375 C-5.84065792 1.69523342 -5.84065792 1.69523342 -7 3 C-8.51928038 3.07179964 -10.04167482 3.08392007 -11.5625 3.0625 C-12.38878906 3.05347656 -13.21507812 3.04445313 -14.06640625 3.03515625 C-14.70449219 3.02355469 -15.34257812 3.01195313 -16 3 C-15.34 2.67 -14.68 2.34 -14 2 C-14 1.01 -14 0.02 -14 -1 C-12.41870971 -1.22331199 -10.83478911 -1.42804644 -9.25 -1.625 C-8.36828125 -1.74101563 -7.4865625 -1.85703125 -6.578125 -1.9765625 C-3.77140122 -2.00207817 -2.36615134 -1.44843844 0 0 Z " fill="#EFEFEF" transform="translate(150,78)"/>
<path d="M0 0 C1.98738098 0.01761863 3.97253109 0.16698176 5.953125 0.33203125 C5.293125 1.98203125 4.633125 3.63203125 3.953125 5.33203125 C0.653125 5.33203125 -2.646875 5.33203125 -6.046875 5.33203125 C-3.15469741 0.51173527 -3.15469741 0.51173527 0 0 Z " fill="#E9E9E9" transform="translate(149.046875,75.66796875)"/>
<path d="M0 0 C1.98 0 3.96 0 6 0 C5.67 1.32 5.34 2.64 5 4 C-3.25 3.67 -11.5 3.34 -20 3 C-20 2.67 -20 2.34 -20 2 C-13.4 2 -6.8 2 0 2 C0 1.34 0 0.68 0 0 Z " fill="#B1B1B1" transform="translate(171,62)"/>
<path d="M0 0 C0.99 0.495 0.99 0.495 2 1 C2 2.32 2 3.64 2 5 C2.66 5 3.32 5 4 5 C4.33 4.01 4.66 3.02 5 2 C5 4.97 5 7.94 5 11 C4.67 10.34 4.34 9.68 4 9 C3.34 9 2.68 9 2 9 C1.67 10.65 1.34 12.3 1 14 C0.67 14 0.34 14 0 14 C0 9.38 0 4.76 0 0 Z " fill="#C0C0C0" transform="translate(217,57)"/>
<path d="M0 0 C1.65 0 3.3 0 5 0 C7.39073445 3.82517513 7.55966552 7.59665524 8 12 C5.5178139 10.05741957 5.02916421 9.19998316 4.5625 6 C4.2908033 2.88558982 4.2908033 2.88558982 1.9375 1.125 C1.298125 0.75375 0.65875 0.3825 0 0 Z M1 6 C1.66 6 2.32 6 3 6 C3.33 7.98 3.66 9.96 4 12 C1 8.25 1 8.25 1 6 Z " fill="#BBBBBB" transform="translate(210,11)"/>
<path d="M0 0 C5.28 0.33 10.56 0.66 16 1 C16 1.33 16 1.66 16 2 C12.32612505 2.85298376 8.9552607 3.10789471 5.1875 3.0625 C3.72376953 3.04896484 3.72376953 3.04896484 2.23046875 3.03515625 C1.12638672 3.01775391 1.12638672 3.01775391 0 3 C0 2.01 0 1.02 0 0 Z " fill="#727272" transform="translate(106,73)"/>
<path d="M0 0 C1.43655854 -0.08131463 2.8744483 -0.13933559 4.3125 -0.1875 C5.51326172 -0.23970703 5.51326172 -0.23970703 6.73828125 -0.29296875 C9.47851584 0.06198392 10.29171079 0.89366282 12 3 C10.56465159 3.2226746 9.12654475 3.42761906 7.6875 3.625 C6.88699219 3.74101563 6.08648437 3.85703125 5.26171875 3.9765625 C3 4 3 4 0 2 C0 1.34 0 0.68 0 0 Z " fill="#DCDCDC" transform="translate(168,70)"/>
<path d="M0 0 C0 0.99 0 1.98 0 3 C-3.3 3.33 -6.6 3.66 -10 4 C-9.67 2.68 -9.34 1.36 -9 0 C-5.67465243 -1.10844919 -3.37817425 -0.84454356 0 0 Z " fill="#F6F6F6" transform="translate(145,23)"/>
<path d="M0 0 C5.53846154 0.61538462 5.53846154 0.61538462 7.875 2.5625 C8.431875 3.2740625 8.431875 3.2740625 9 4 C7.02 4.99 7.02 4.99 5 6 C4.67 5.34 4.34 4.68 4 4 C3.01 4 2.02 4 1 4 C0.34 4.66 -0.32 5.32 -1 6 C-1.33 5.01 -1.66 4.02 -2 3 C-1.34 3 -0.68 3 0 3 C0 2.01 0 1.02 0 0 Z " fill="#F1F1F1" transform="translate(206,11)"/>
<path d="M0 0 C2.97 0.33 5.94 0.66 9 1 C8.01 1.495 8.01 1.495 7 2 C7 2.66 7 3.32 7 4 C8.65 4 10.3 4 12 4 C12 4.66 12 5.32 12 6 C10.0412957 5.85923685 8.08303907 5.7122324 6.125 5.5625 C5.03445312 5.48128906 3.94390625 5.40007812 2.8203125 5.31640625 C0 5 0 5 -2 4 C-0.35 3.34 1.3 2.68 3 2 C2.01 1.34 1.02 0.68 0 0 Z " fill="#ADADAD" transform="translate(52,77)"/>
<path d="M0 0 C1.32 0.33 2.64 0.66 4 1 C4 4.3 4 7.6 4 11 C3.34 11 2.68 11 2 11 C2 8.69 2 6.38 2 4 C0.68 3.67 -0.64 3.34 -2 3 C-1.34 2.01 -0.68 1.02 0 0 Z " fill="#EDEDED" transform="translate(200,77)"/>
<path d="M0 0 C0.66 1.32 1.32 2.64 2 4 C1.01 5.485 1.01 5.485 0 7 C-1.9453125 7.29296875 -1.9453125 7.29296875 -4.125 7.1875 C-5.40375 7.125625 -6.6825 7.06375 -8 7 C-8 6.67 -8 6.34 -8 6 C-5.69 6 -3.38 6 -1 6 C-1 5.01 -1 4.02 -1 3 C-3.97 2.67 -6.94 2.34 -10 2 C-10 1.67 -10 1.34 -10 1 C-6.7 0.67 -3.4 0.34 0 0 Z " fill="#C3C3C3" transform="translate(146,20)"/>
<path d="M0 0 C2.97 0 5.94 0 9 0 C8.67 1.32 8.34 2.64 8 4 C5.69 4 3.38 4 1 4 C0.67 2.68 0.34 1.36 0 0 Z " fill="#F7F7F7" transform="translate(172,77)"/>
<path d="M0 0 C0 0.33 0 0.66 0 1 C-5.28 1 -10.56 1 -16 1 C-16 0.34 -16 -0.32 -16 -1 C-10.15154554 -2.37610693 -5.51398918 -2.59481844 0 0 Z " fill="#F4F4F4" transform="translate(52,71)"/>
<path d="M0 0 C0.33 0.99 0.66 1.98 1 3 C1.99 3 2.98 3 4 3 C3.01 5.97 2.02 8.94 1 12 C0.34 11.67 -0.32 11.34 -1 11 C-0.67 7.37 -0.34 3.74 0 0 Z " fill="#E3E3E3" transform="translate(216,76)"/>
<path d="M0 0 C0.33 0.99 0.66 1.98 1 3 C-2.63 3 -6.26 3 -10 3 C-10 2.34 -10 1.68 -10 1 C-3.375 -1.125 -3.375 -1.125 0 0 Z " fill="#F6F6F6" transform="translate(127,23)"/>
<path d="M0 0 C-1.98 0.99 -1.98 0.99 -4 2 C-2.68 2.66 -1.36 3.32 0 4 C-0.99 4.495 -0.99 4.495 -2 5 C-2.53625 4.71125 -3.0725 4.4225 -3.625 4.125 C-7.03308451 2.51064418 -10.2538129 2.37461871 -14 2 C-14 1.67 -14 1.34 -14 1 C-8.83430559 -0.79217969 -5.48946087 -1.12029814 0 0 Z " fill="#9D9D9D" transform="translate(47,62)"/>
<path d="M0 0 C0.99 0 1.98 0 3 0 C4.31223496 3.93670488 3.24296256 6.12488144 2 10 C0 8 0 8 -0.1953125 6.0546875 C-0.13020833 4.03645833 -0.06510417 2.01822917 0 0 Z " fill="#F6F6F6" transform="translate(199,40)"/>
<path d="M0 0 C0.33 0 0.66 0 1 0 C1.66 3.96 2.32 7.92 3 12 C1.68 11.67 0.36 11.34 -1 11 C-1.14285714 3.57142857 -1.14285714 3.57142857 0 0 Z " fill="#EFEFEF" transform="translate(217,32)"/>
<path d="M0 0 C-0.66 1.32 -1.32 2.64 -2 4 C-4.64 3.67 -7.28 3.34 -10 3 C-10 2.34 -10 1.68 -10 1 C-6.78548731 -0.60725635 -3.56387464 -0.05748185 0 0 Z " fill="#F1F1F1" transform="translate(69,78)"/>
<path d="M0 0 C5.15171623 -0.09038099 9.91913204 0.15318867 15 1 C15 1.33 15 1.66 15 2 C12.69 2 10.38 2 8 2 C8 2.66 8 3.32 8 4 C6.35 4 4.7 4 3 4 C3.33 3.34 3.66 2.68 4 2 C2.68 1.34 1.36 0.68 0 0 Z " fill="#C5C5C5" transform="translate(150,75)"/>
<path d="M0 0 C3.63 0 7.26 0 11 0 C11 0.66 11 1.32 11 2 C7.78548731 3.60725635 4.56387464 3.05748185 1 3 C0.67 2.01 0.34 1.02 0 0 Z " fill="#858585" transform="translate(83,74)"/>
<path d="M0 0 C0.28875 0.598125 0.5775 1.19625 0.875 1.8125 C2.04742026 4.19327792 2.04742026 4.19327792 4 7 C4.125 9.6875 4.125 9.6875 4 12 C3.01 12.495 3.01 12.495 2 13 C1.46605821 11.5882217 0.94834896 10.17029756 0.4375 8.75 C0.14746094 7.96109375 -0.14257812 7.1721875 -0.44140625 6.359375 C-1.04522837 3.80896548 -0.8473932 2.44677771 0 0 Z " fill="#F1F1F1" transform="translate(214,16)"/>
<path d="M0 0 C4.62 0 9.24 0 14 0 C14 1.32 14 2.64 14 4 C11.69 4 9.38 4 7 4 C7 3.67 7 3.34 7 3 C8.65 2.67 10.3 2.34 12 2 C8.04 1.67 4.08 1.34 0 1 C0 0.67 0 0.34 0 0 Z " fill="#B8B8B8" transform="translate(47,69)"/>
<path d="M0 0 C0.33 0 0.66 0 1 0 C1 3.3 1 6.6 1 10 C0.34 10 -0.32 10 -1 10 C-1 10.66 -1 11.32 -1 12 C-1.66 12 -2.32 12 -3 12 C-3 9.69 -3 7.38 -3 5 C-2.01 5.495 -2.01 5.495 -1 6 C-0.67 4.02 -0.34 2.04 0 0 Z " fill="#CECECE" transform="translate(202,43)"/>
<path d="M0 0 C0.66 0 1.32 0 2 0 C2 0.66 2 1.32 2 2 C4.97 2.495 4.97 2.495 8 3 C5.08596738 4.94268841 2.14191424 6.46395304 -1 8 C-1 7.01 -1 6.02 -1 5 C-0.34 4.67 0.32 4.34 1 4 C1 3.34 1 2.68 1 2 C0.34 1.67 -0.32 1.34 -1 1 C-0.67 0.67 -0.34 0.34 0 0 Z " fill="#C4C4C4" transform="translate(191,10)"/>
<path d="M0 0 C2.64 0 5.28 0 8 0 C7.67 0.66 7.34 1.32 7 2 C5.68 2 4.36 2 3 2 C3 2.66 3 3.32 3 4 C1.35 4 -0.3 4 -2 4 C-1.34 2.68 -0.68 1.36 0 0 Z " fill="#F9F9F9" transform="translate(86,78)"/>
<path d="M0 0 C0.99 0 1.98 0 3 0 C4.20272819 2.40545638 4.10071472 3.94996953 4.0625 6.625 C4.05347656 7.44226563 4.04445312 8.25953125 4.03515625 9.1015625 C4.02355469 9.72804688 4.01195312 10.35453125 4 11 C3.67 11 3.34 11 3 11 C2.67 9.35 2.34 7.7 2 6 C1.34 6 0.68 6 0 6 C0 4.02 0 2.04 0 0 Z " fill="#C1C1C1" transform="translate(200,24)"/>
<path d="M0 0 C7.38461538 -0.49230769 7.38461538 -0.49230769 10.5 2 C10.995 2.66 11.49 3.32 12 4 C9.125 4.125 9.125 4.125 6 4 C5.34 3.34 4.68 2.68 4 2 C2.68252676 1.30251417 1.35085807 0.63040043 0 0 Z " fill="#C2C2C2" transform="translate(127,69)"/>
<path d="M0 0 C-0.33 0.66 -0.66 1.32 -1 2 C-5.57462259 3.19811544 -9.38032292 2.83154187 -14 2 C-14 1.67 -14 1.34 -14 1 C-9.23692563 0.04738513 -4.8333472 -0.08333357 0 0 Z " fill="#F4F4F4" transform="translate(123,63)"/>
<path d="M0 0 C6.625 -0.25 6.625 -0.25 10 2 C9.34 2 8.68 2 8 2 C7.67 2.99 7.34 3.98 7 5 C6.34 5 5.68 5 5 5 C4.67 3.68 4.34 2.36 4 1 C2.68 0.67 1.36 0.34 0 0 Z " fill="#E8E8E8" transform="translate(117,76)"/>
<path d="M0 0 C1.95803507 -0.05389087 3.91648909 -0.09274217 5.875 -0.125 C7.51082031 -0.15980469 7.51082031 -0.15980469 9.1796875 -0.1953125 C12 0 12 0 14 2 C10.52487282 3.15837573 8.86329714 2.77265943 5.3125 2.0625 C4.31863281 1.86785156 3.32476562 1.67320313 2.30078125 1.47265625 C1.54152344 1.31667969 0.78226563 1.16070312 0 1 C0 0.67 0 0.34 0 0 Z " fill="#B1B1B1" transform="translate(167,75)"/>
<path d="M0 0 C1.4391134 0.28359887 2.87625518 0.57721399 4.3125 0.875 C5.11300781 1.03742187 5.91351563 1.19984375 6.73828125 1.3671875 C9 2 9 2 12 4 C7.53160785 4.21278058 4.17737474 3.59138085 0 2 C0 1.34 0 0.68 0 0 Z " fill="#EBEBEB" transform="translate(25,58)"/>
<path d="M0 0 C0.33 1.65 0.66 3.3 1 5 C-1.31 4.34 -3.62 3.68 -6 3 C-4.60722783 0.21445565 -3.01148006 0 0 0 Z " fill="#F2F2F2" transform="translate(192,83)"/>
<path d="M0 0 C0 0.99 0 1.98 0 3 C-2.31 3 -4.62 3 -7 3 C-6.67 2.01 -6.34 1.02 -6 0 C-3.42525708 -0.99667468 -2.51072708 -1.25536354 0 0 Z " fill="#EFEFEF" transform="translate(46,80)"/>
<path d="M0 0 C0.66 0 1.32 0 2 0 C2 0.99 2 1.98 2 3 C2.66 3.33 3.32 3.66 4 4 C1.03 4 -1.94 4 -5 4 C-5 3.34 -5 2.68 -5 2 C-3.35 2 -1.7 2 0 2 C0 1.34 0 0.68 0 0 Z " fill="#F8F8F8" transform="translate(158,77)"/>
<path d="M0 0 C-3.31114834 1.12880057 -6.58978257 2.21302675 -10 3 C-9.67 1.68 -9.34 0.36 -9 -1 C-5.22102349 -2.0497157 -3.35080929 -2.10976881 0 0 Z " fill="#F5F5F5" transform="translate(150,78)"/>
<path d="M0 0 C1.9451 2.91765 2.45276317 4.62537285 3 8 C1.35 8 -0.3 8 -2 8 C-1.34 5.36 -0.68 2.72 0 0 Z " fill="#C7C7C7" transform="translate(204,82)"/>
<path d="M0 0 C0.66 0 1.32 0 2 0 C2 2.64 2 5.28 2 8 C0.68 8 -0.64 8 -2 8 C-2 7.01 -2 6.02 -2 5 C-1.34 4.67 -0.68 4.34 0 4 C0 2.68 0 1.36 0 0 Z " fill="#D1D1D1" transform="translate(200,81)"/>
<path d="M0 0 C2.475 0.495 2.475 0.495 5 1 C5.33 2.32 5.66 3.64 6 5 C4.68 5 3.36 5 2 5 C2 4.34 2 3.68 2 3 C1.34 3 0.68 3 0 3 C0 2.01 0 1.02 0 0 Z " fill="#EAEAEA" transform="translate(160,77)"/>
<path d="M0 0 C2.31 0 4.62 0 7 0 C7 0.66 7 1.32 7 2 C2.545 2.495 2.545 2.495 -2 3 C-1.34 2.67 -0.68 2.34 0 2 C0 1.34 0 0.68 0 0 Z " fill="#B5B5B5" transform="translate(94,74)"/>
<path d="M0 0 C-0.99 0.495 -0.99 0.495 -2 1 C-3.13350534 3.01669827 -3.13350534 3.01669827 -4 5 C-4.66 4.67 -5.32 4.34 -6 4 C-5.67 3.34 -5.34 2.68 -5 2 C-5.99 1.67 -6.98 1.34 -8 1 C-5.07175348 0.02391783 -3.04386724 -0.08226668 0 0 Z " fill="#E6E6E6" transform="translate(88,77)"/>
<path d="M0 0 C0.99 0 1.98 0 3 0 C3 0.66 3 1.32 3 2 C3.99 2.33 4.98 2.66 6 3 C3.29120665 4.35439668 0.99066732 4.06501451 -2 4 C-1.34 3.67 -0.68 3.34 0 3 C0 2.01 0 1.02 0 0 Z " fill="#E8E8E8" transform="translate(169,77)"/>
<path d="M0 0 C2.97 0 5.94 0 9 0 C9 0.33 9 0.66 9 1 C7.35 1 5.7 1 4 1 C4 1.66 4 2.32 4 3 C3.34 3 2.68 3 2 3 C1.67 3.99 1.34 4.98 1 6 C0.67 4.02 0.34 2.04 0 0 Z " fill="#CECECE" transform="translate(32,69)"/>
<path d="M0 0 C3.37462715 0.54723683 5.08235 1.0549 8 3 C5.36 3 2.72 3 0 3 C0 2.01 0 1.02 0 0 Z " fill="#EFEFEF" transform="translate(176,63)"/>
<path d="M0 0 C0.99 0.33 1.98 0.66 3 1 C2.34 1 1.68 1 1 1 C1.33 2.65 1.66 4.3 2 6 C1.67 5.34 1.34 4.68 1 4 C0.67 4.99 0.34 5.98 0 7 C-0.99 6.67 -1.98 6.34 -3 6 C-2.01 4.02 -1.02 2.04 0 0 Z " fill="#F4F4F4" transform="translate(185,15)"/>
<path d="M0 0 C2.475 0.495 2.475 0.495 5 1 C5 1.99 5 2.98 5 4 C3.35 3.67 1.7 3.34 0 3 C0 2.01 0 1.02 0 0 Z " fill="#D7D7D7" transform="translate(186,74)"/>
<path d="M0 0 C0.33 0.66 0.66 1.32 1 2 C0.67 2.66 0.34 3.32 0 4 C-0.66 4 -1.32 4 -2 4 C-2 4.99 -2 5.98 -2 7 C-2.99 7.33 -3.98 7.66 -5 8 C-3.375 2.25 -3.375 2.25 0 0 Z " fill="#B9B9B9" transform="translate(16,34)"/>
<path d="M0 0 C0.33 0 0.66 0 1 0 C0.67 2.97 0.34 5.94 0 9 C-0.66 8.67 -1.32 8.34 -2 8 C-2 6.35 -2 4.7 -2 3 C-1.34 3 -0.68 3 0 3 C0 2.01 0 1.02 0 0 Z " fill="#F7F7F7" transform="translate(202,27)"/>
<path d="M0 0 C3.3 0 6.6 0 10 0 C9.34 1.32 8.68 2.64 8 4 C7.34 3.34 6.68 2.68 6 2 C4.01178687 1.60235737 2.01055661 1.26224651 0 1 C0 0.67 0 0.34 0 0 Z " fill="#DBDBDB" transform="translate(169,21)"/>
</svg>
