<?xml version="1.0" encoding="UTF-8"?>
<svg version="1.1" xmlns="http://www.w3.org/2000/svg" width="104" height="106">
<path d="M0 0 C2.64 0 5.28 0 8 0 C8 0.66 8 1.32 8 2 C8.86625 2.2165625 8.86625 2.2165625 9.75 2.4375 C10.4925 2.623125 11.235 2.80875 12 3 C12.70640625 3.17660156 13.4128125 3.35320313 14.140625 3.53515625 C14.75421875 3.68855469 15.3678125 3.84195312 16 4 C18.29404158 12.16621092 19.39311398 19.83858157 19.62084961 28.29052734 C19.75335234 32.33713316 20.18226927 36.09657009 21.015625 40.0625 C22.27904405 46.61951378 22.2659033 53.13681256 22.20581055 59.78759766 C22.18758741 61.86503519 22.1853016 63.94202203 22.18554688 66.01953125 C22.11083845 94.55603271 22.11083845 94.55603271 17.25 103.0625 C15 105 15 105 12.4375 105.5625 C7.37246828 104.73367663 2.75449646 102.89503062 -2 101 C-2 100.01 -2 99.02 -2 98 C-2.99 98.33 -3.98 98.66 -5 99 C-5.66 97.68 -6.32 96.36 -7 95 C-7.66 95 -8.32 95 -9 95 C-9.99 92.03 -10.98 89.06 -12 86 C-15.69475846 85.73608868 -17.58381603 85.75028962 -20.8125 87.6875 C-24.97990108 89.40348868 -26.88928522 88.4581053 -30.94921875 86.859375 C-31.62597656 86.57578125 -32.30273438 86.2921875 -33 86 C-34.485 85.505 -34.485 85.505 -36 85 C-39 81.55555556 -39 81.55555556 -39 79 C-39.99 79 -40.98 79 -42 79 C-44.41685712 74.77050005 -45.34833144 71.87664009 -45 67 C-46.65 67 -48.3 67 -50 67 C-54.38337925 56.95943898 -54.66517562 47.77974761 -51.23828125 37.44921875 C-50 35 -50 35 -47 34 C-46.28752268 32.3523962 -45.62599617 30.68236471 -45 29 C-43.5625 26.6875 -43.5625 26.6875 -42 25 C-41.01 25 -40.02 25 -39 25 C-39 24.34 -39 23.68 -39 23 C-32.66105982 18.79402753 -27.15707562 18.07098163 -19.67578125 17.48632812 C-17.26496185 17.20639886 -15.24434852 16.92978512 -13 16 C-11.35614321 13.7167896 -10.8309388 11.74395834 -10 9 C-9.34 8.67 -8.68 8.34 -8 8 C-7.67 7.01 -7.34 6.02 -7 5 C-6.01 5 -5.02 5 -4 5 C-3.67 4.01 -3.34 3.02 -3 2 C-2.01 2 -1.02 2 0 2 C0 1.34 0 0.68 0 0 Z M0 10 C0 10.66 0 11.32 0 12 C-0.598125 12.226875 -1.19625 12.45375 -1.8125 12.6875 C-4.59348403 14.35609042 -5.5641916 16.1283832 -7 19 C-7 19.66 -7 20.32 -7 21 C-7.99 21.33 -8.98 21.66 -10 22 C-10.33 22.66 -10.66 23.32 -11 24 C-13.9140625 24.81640625 -13.9140625 24.81640625 -17.625 25.5625 C-18.83414063 25.81128906 -20.04328125 26.06007813 -21.2890625 26.31640625 C-23.78565386 26.77630466 -26.29363762 27.17779225 -28.80859375 27.5234375 C-31.68529928 27.95300675 -33.53359959 28.52015975 -36 30 C-36 30.66 -36 31.32 -36 32 C-36.99 32.33 -37.98 32.66 -39 33 C-43.21307801 37.91953926 -46.16822339 44.58506531 -47 51 C-46.34 51.99 -45.68 52.98 -45 54 C-44.01 54 -43.02 54 -42 54 C-41.67 54.99 -41.34 55.98 -41 57 C-39.02 57 -37.04 57 -35 57 C-34.67 57.66 -34.34 58.32 -34 59 C-28.79968628 61.84727921 -23.63677503 63.67394431 -17.734375 64.203125 C-16.91453125 64.28046875 -16.0946875 64.3578125 -15.25 64.4375 C-14.08210938 64.52837891 -14.08210938 64.52837891 -12.890625 64.62109375 C-12.26671875 64.74613281 -11.6428125 64.87117188 -11 65 C-10.67 65.66 -10.34 66.32 -10 67 C-6.50615721 68.16461426 -3.66344611 68.13568319 0 68 C1.7093136 66.2906864 1.1900763 64.03705146 1.24609375 61.69921875 C1.29358765 60.02956055 1.29358765 60.02956055 1.34204102 58.32617188 C1.37354248 57.12541016 1.40504395 55.92464844 1.4375 54.6875 C1.72591734 45.2538235 2.28695447 35.93825107 3.33520508 26.56030273 C3.97786664 20.69008535 4.24391138 14.90807571 4 9 C2.63106761 8.94729537 2.63106761 8.94729537 0 10 Z M10 11 C7.91911424 16.21332233 7.58079906 20.96759576 7.3671875 26.5 C7.32562531 27.41273682 7.28406311 28.32547363 7.24124146 29.26586914 C7.15500049 31.19546183 7.07288249 33.12524266 6.99462891 35.05517578 C6.87650173 37.96303294 6.74607837 40.87012343 6.61328125 43.77734375 C5.97605473 58.11125168 5.41886248 72.12577016 7.5 86.375 C7.64308594 87.40882812 7.78617188 88.44265625 7.93359375 89.5078125 C8.28063714 92.00652492 8.63610362 94.50369663 9 97 C10.32 97.33 11.64 97.66 13 98 C15.35001335 94.28548208 15.45111582 90.50381816 15.66796875 86.234375 C15.73386955 85.10603241 15.73386955 85.10603241 15.80110168 83.95489502 C15.89178923 82.36486275 15.97809133 80.77457508 16.06030273 79.18408203 C16.18637036 76.77161711 16.32941379 74.3605994 16.47460938 71.94921875 C16.56091996 70.39849416 16.64623791 68.84771394 16.73046875 67.296875 C16.77310349 66.58513123 16.81573822 65.87338745 16.85966492 65.14007568 C17.09742094 60.28622513 16.6678098 55.81374458 16 51 C15.88878563 49.10826081 15.8042749 47.21464848 15.75390625 45.3203125 C15.72103516 44.30839844 15.68816406 43.29648437 15.65429688 42.25390625 C15.59333123 40.17588579 15.53601129 38.09775502 15.48242188 36.01953125 C15.18938719 27.31695403 14.02190475 19.20231289 11 11 C10.67 11 10.34 11 10 11 Z M-44 61 C-44 62.32 -44 63.64 -44 65 C-41.36 65.33 -38.72 65.66 -36 66 C-36 66.66 -36 67.32 -36 68 C-33.47524538 69.26237731 -31.68799534 69.09856404 -28.875 69.0625 C-27.96492188 69.05347656 -27.05484375 69.04445313 -26.1171875 69.03515625 C-25.41851562 69.02355469 -24.71984375 69.01195313 -24 69 C-26.81665045 66.64425599 -28.88657111 65.59398831 -32.5 65 C-36.09439925 64.30468998 -38.17301368 63.39206535 -41 61 C-41.99 61 -42.98 61 -44 61 Z M-18 67 C-18 67.99 -18 68.98 -18 70 C-17.01 70 -16.02 70 -15 70 C-14.67 70.66 -14.34 71.32 -14 72 C-13.01 71.67 -12.02 71.34 -11 71 C-11 70.34 -11 69.68 -11 69 C-13.31 68.34 -15.62 67.68 -18 67 Z M-10 73 C-10 73.66 -10 74.32 -10 75 C-9.34 75 -8.68 75 -8 75 C-8 75.66 -8 76.32 -8 77 C-7.34 77 -6.68 77 -6 77 C-5.67 77.66 -5.34 78.32 -5 79 C-4.67 79 -4.34 79 -4 79 C-4 81.97 -4 84.94 -4 88 C-2.68 88.33 -1.36 88.66 0 89 C1.25 91.0625 1.25 91.0625 2 93 C2.66 92.67 3.32 92.34 4 92 C3.67 91.01 3.34 90.02 3 89 C2.34 88.67 1.68 88.34 1 88 C1.51038056 85.44809718 2.02213171 82.9070468 2.625 80.375 C3.20892371 77.85957587 3.20892371 77.85957587 2 75 C0.02 75 -1.96 75 -4 75 C-4.33 74.34 -4.66 73.68 -5 73 C-6.65 73 -8.3 73 -10 73 Z M-32 75 C-32 75.66 -32 76.32 -32 77 C-27.82262526 78.59138085 -24.46839215 79.21278058 -20 79 C-20 78.01 -20 77.02 -20 76 C-23.96 75.67 -27.92 75.34 -32 75 Z M-10 81 C-9 83 -9 83 -9 83 Z " fill="#ABABAB" transform="translate(63,1)"/>
<path d="M0 0 C2.25 -0.1875 2.25 -0.1875 5 0 C5.82951172 0.72896484 5.82951172 0.72896484 6.67578125 1.47265625 C9.94649965 3.62198548 13.14191598 3.52812092 16.9375 3.625 C21.37316419 3.78762747 25.66317137 3.96459277 30 5 C30 5.66 30 6.32 30 7 C30.99 7.33 31.98 7.66 33 8 C27.375 9.125 27.375 9.125 24 8 C21.93854893 7.931009 19.87498599 7.91532273 17.8125 7.9375 C16.72582031 7.94652344 15.63914062 7.95554687 14.51953125 7.96484375 C13.68808594 7.97644531 12.85664063 7.98804687 12 8 C12 8.66 12 9.32 12 10 C12.86882813 10.06058594 13.73765625 10.12117188 14.6328125 10.18359375 C15.78523438 10.26738281 16.93765625 10.35117188 18.125 10.4375 C19.26195313 10.51871094 20.39890625 10.59992188 21.5703125 10.68359375 C30.22273629 11.48182419 30.22273629 11.48182419 34 14 C34.6875 16.125 34.6875 16.125 35 18 C36.65 18.33 38.3 18.66 40 19 C40 19.66 40 20.32 40 21 C40.556875 21.061875 41.11375 21.12375 41.6875 21.1875 C44.94987173 22.33373872 46.68667874 24.49390197 49 27 C49 26.01 49 25.02 49 24 C49.66 24 50.32 24 51 24 C51.66 26.31 52.32 28.62 53 31 C55.31 31 57.62 31 60 31 C60.33 30.34 60.66 29.68 61 29 C60.45276317 32.37462715 59.9451 34.08235 58 37 C52.14357233 37.71711359 47.38579128 36.05173001 42 34 C42 33.01 42 32.02 42 31 C41.01 31.33 40.02 31.66 39 32 C38.34 30.68 37.68 29.36 37 28 C36.34 28 35.68 28 35 28 C34.01 25.03 33.02 22.06 32 19 C28.30524154 18.73608868 26.41618397 18.75028962 23.1875 20.6875 C19.10075224 22.37027849 17.14345378 21.78157717 13.11328125 20.23046875 C10.20330777 18.5361219 8.74177683 16.49972676 7.0703125 13.62109375 C5.93828455 11.67810685 5.93828455 11.67810685 3 10 C3 9.34 3 8.68 3 8 C2.34 8 1.68 8 1 8 C0.67 5.36 0.34 2.72 0 0 Z " fill="#E4E4E4" transform="translate(19,68)"/>
<path d="M0 0 C3.41793104 7.41354057 3.33919904 16.44172533 3.6550293 24.47998047 C3.82656172 28.63644489 4.17783388 32.54570625 5.0625 36.625 C6.55103026 43.67070991 6.16174667 50.83821684 6 58 C5.34 58 4.68 58 4 58 C4.02320312 59.22074219 4.04640625 60.44148438 4.0703125 61.69921875 C4.19630865 71.37237608 3.91368197 80.48284948 2 90 C0.515 90.495 0.515 90.495 -1 91 C-1.1136468 80.54449456 -0.96982628 70.16366207 -0.26782227 59.72753906 C0.00559287 55.25645093 -0.22178298 51.42816443 -1 47 C-1.28350546 42.04411563 -1.39074269 37.07923732 -1.51757812 32.1171875 C-1.73896159 20.50715545 -1.73896159 20.50715545 -6 10 C-6.99 11.485 -6.99 11.485 -8 13 C-8.33 11.68 -8.66 10.36 -9 9 C-9.66 9.66 -10.32 10.32 -11 11 C-11.33 8.36 -11.66 5.72 -12 3 C-12.7425 3.33 -13.485 3.66 -14.25 4 C-17 5 -17 5 -21 5 C-19.63016497 1.83884224 -19.0109362 1.0072908 -16 -1 C-10.44870486 -2.50035004 -5.13618387 -2.82490113 0 0 Z " fill="#BDBDBD" transform="translate(79,5)"/>
<path d="M0 0 C0.66 0.33 1.32 0.66 2 1 C1.76991867 2.58635022 1.51500488 4.16910884 1.25 5.75 C1.11078125 6.63171875 0.9715625 7.5134375 0.828125 8.421875 C-0.21172864 11.65915519 -1.28945134 12.94792074 -4 15 C-7.20703125 16.01171875 -7.20703125 16.01171875 -10.8125 16.6875 C-11.99457031 16.91824219 -13.17664062 17.14898438 -14.39453125 17.38671875 C-17.92278747 17.98686634 -21.4565718 18.49873455 -25 19 C-26.33917261 19.30903983 -27.67653254 19.62942911 -29 20 C-29 20.66 -29 21.32 -29 22 C-29.8353125 22.7425 -29.8353125 22.7425 -30.6875 23.5 C-35.02890096 28.19340645 -38.2951968 34.59269816 -39 41 C-38.484375 41.845625 -37.96875 42.69125 -37.4375 43.5625 C-36 46 -36 46 -36.5625 48.1875 C-38.19136245 50.24128309 -39.58580282 51.03432113 -42 52 C-43.17571451 48.32589215 -43.07366746 44.83070817 -43 41 C-43.66 41 -44.32 41 -45 41 C-46.72805471 34.37579029 -44.84964058 30.07841789 -42 24 C-41.34 24 -40.68 24 -40 24 C-39.5978125 22.88625 -39.5978125 22.88625 -39.1875 21.75 C-38.0392528 19.09090121 -36.96498625 17.12218515 -35 15 C-34.01 15 -33.02 15 -32 15 C-32 14.34 -32 13.68 -32 13 C-26.43908416 9.3403162 -21.81298122 8.19320649 -15.25 7.4375 C-13.56630008 7.2394928 -11.88386805 7.03030314 -10.203125 6.80859375 C-9.46739258 6.72407959 -8.73166016 6.63956543 -7.97363281 6.55249023 C-5.58743188 5.88450747 -4.6710329 4.77794307 -3 3 C-2.34 3 -1.68 3 -1 3 C-0.67 2.01 -0.34 1.02 0 0 Z " fill="#AEAEAE" transform="translate(56,11)"/>
<path d="M0 0 C0.66 0 1.32 0 2 0 C2 0.99 2 1.98 2 3 C2.66 3 3.32 3 4 3 C4.66 6.3 5.32 9.6 6 13 C7.32 12.01 8.64 11.02 10 10 C10 8.68 10 7.36 10 6 C10.66 6 11.32 6 12 6 C12.33 6.66 12.66 7.32 13 8 C14.82303662 8.61166193 14.82303662 8.61166193 16.9375 9 C19.90810715 9.60382577 20.78691174 9.78691174 23 12 C24.52056618 12.59834554 26.06612088 13.13506656 27.625 13.625 C28.44226563 13.88539062 29.25953125 14.14578125 30.1015625 14.4140625 C30.72804688 14.60742188 31.35453125 14.80078125 32 15 C30.02 15.99 30.02 15.99 28 17 C28 17.66 28 18.32 28 19 C30.64 19.33 33.28 19.66 36 20 C36 20.66 36 21.32 36 22 C36.99 22 37.98 22 39 22 C39 22.66 39 23.32 39 24 C35.74899223 23.9189487 32.49983665 23.80612351 29.25 23.6875 C28.32960938 23.66494141 27.40921875 23.64238281 26.4609375 23.61914062 C25.57148437 23.58369141 24.68203125 23.54824219 23.765625 23.51171875 C22.94868164 23.48553467 22.13173828 23.45935059 21.29003906 23.43237305 C18.52503661 22.91032408 17.16739941 21.7475293 15 20 C12.35065178 19.28566879 12.35065178 19.28566879 10 19 C10.33 21.64 10.66 24.28 11 27 C11.66 27 12.32 27 13 27 C14.7265625 28.75 14.7265625 28.75 16.625 31 C17.57246094 32.11375 17.57246094 32.11375 18.5390625 33.25 C19.26222656 34.11625 19.26222656 34.11625 20 35 C19.34 35.66 18.68 36.32 18 37 C15 33.25 15 33.25 15 31 C14.01 31 13.02 31 12 31 C9.58314288 26.77050005 8.65166856 23.87664009 9 19 C7.35 19 5.7 19 4 19 C2.14845433 14.93126728 1.45353704 11.10917594 0.875 6.6875 C0.70742187 5.43324219 0.53984375 4.17898437 0.3671875 2.88671875 C0.24601563 1.93410156 0.12484375 0.98148438 0 0 Z M10 13 C10 14.32 10 15.64 10 17 C12.64 17.33 15.28 17.66 18 18 C18 18.66 18 19.32 18 20 C20.52475462 21.26237731 22.31200466 21.09856404 25.125 21.0625 C26.03507812 21.05347656 26.94515625 21.04445313 27.8828125 21.03515625 C28.58148438 21.02355469 29.28015625 21.01195312 30 21 C27.18334955 18.64425599 25.11342889 17.59398831 21.5 17 C17.90560075 16.30468998 15.82698632 15.39206535 13 13 C12.01 13 11.02 13 10 13 Z " fill="#8B8B8B" transform="translate(9,49)"/>
<path d="M0 0 C2.25 -0.1875 2.25 -0.1875 5 0 C5.82951172 0.72896484 5.82951172 0.72896484 6.67578125 1.47265625 C9.94649965 3.62198548 13.14191598 3.52812092 16.9375 3.625 C21.37316419 3.78762747 25.66317137 3.96459277 30 5 C30 5.66 30 6.32 30 7 C30.99 7.33 31.98 7.66 33 8 C27.375 9.125 27.375 9.125 24 8 C21.93854893 7.931009 19.87498599 7.91532273 17.8125 7.9375 C16.72582031 7.94652344 15.63914062 7.95554687 14.51953125 7.96484375 C13.68808594 7.97644531 12.85664063 7.98804687 12 8 C12.26404798 9.97445397 12.26404798 9.97445397 13 12 C15.99615946 13.3045656 15.99615946 13.3045656 19 14 C19 14.66 19 15.32 19 16 C18.34 16 17.68 16 17 16 C17 16.66 17 17.32 17 18 C18.32 18.33 19.64 18.66 21 19 C15.11497082 18.74357171 11.33724121 18.33724121 7 14 C6.236875 13.29875 5.47375 12.5975 4.6875 11.875 C3 10 3 10 3 8 C2.34 8 1.68 8 1 8 C0.67 5.36 0.34 2.72 0 0 Z " fill="#EDEDED" transform="translate(19,68)"/>
<path d="M0 0 C0.66 0 1.32 0 2 0 C2.37087134 32.10097515 2.37087134 32.10097515 -2.75 41.0625 C-5 43 -5 43 -8.25 43.3125 C-9.1575 43.209375 -10.065 43.10625 -11 43 C-11 42.67 -11 42.34 -11 42 C-9.35 42 -7.7 42 -6 42 C-5.34 40.02 -4.68 38.04 -4 36 C-5.11375 36.20625 -6.2275 36.4125 -7.375 36.625 C-8.57125 36.74875 -9.7675 36.8725 -11 37 C-13 35 -13 35 -13.125 31.875 C-13.08375 30.92625 -13.0425 29.9775 -13 29 C-13.66 29 -14.32 29 -15 29 C-15 29.99 -15 30.98 -15 32 C-15.66 32 -16.32 32 -17 32 C-17 30.68 -17 29.36 -17 28 C-17.99 27.34 -18.98 26.68 -20 26 C-19.75 23.625 -19.75 23.625 -19 21 C-16.9375 19.6875 -16.9375 19.6875 -15 19 C-15 16.69 -15 14.38 -15 12 C-14.34 12 -13.68 12 -13 12 C-12.01 19.59 -11.02 27.18 -10 35 C-9.01 35 -8.02 35 -7 35 C-6.34 34.01 -5.68 33.02 -5 32 C-4.34 32 -3.68 32 -3 32 C-1.03130951 21.35378054 -0.43333176 10.79908353 0 0 Z " fill="#979797" transform="translate(83,63)"/>
<path d="M0 0 C0.97557365 2.79641784 1.11868185 5.38454044 1.09765625 8.328125 C1.09443359 9.12734375 1.09121094 9.9265625 1.08789062 10.75 C1.07951172 11.575 1.07113281 12.4 1.0625 13.25 C1.05798828 14.09046875 1.05347656 14.9309375 1.04882812 15.796875 C1.03707961 17.86461401 1.01914522 19.93231624 1 22 C0.67 22 0.34 22 0 22 C-0.12117188 21.31292969 -0.24234375 20.62585938 -0.3671875 19.91796875 C-0.53476563 19.01691406 -0.70234375 18.11585937 -0.875 17.1875 C-1.03742188 16.29417969 -1.19984375 15.40085937 -1.3671875 14.48046875 C-1.91188449 11.77272154 -1.91188449 11.77272154 -4 9 C-4 8.01 -4 7.02 -4 6 C-4.66 6 -5.32 6 -6 6 C-6.33 8.31 -6.66 10.62 -7 13 C-7.66 11.68 -8.32 10.36 -9 9 C-9.66 9.66 -10.32 10.32 -11 11 C-11.33 8.36 -11.66 5.72 -12 3 C-12.7425 3.33 -13.485 3.66 -14.25 4 C-17 5 -17 5 -21 5 C-19.63016497 1.83884224 -19.0109362 1.0072908 -16 -1 C-10.51317334 -2.48292612 -5.06133066 -2.89218895 0 0 Z " fill="#BFBFBF" transform="translate(79,5)"/>
<path d="M0 0 C10.55808656 -0.18451025 10.55808656 -0.18451025 15 1 C15 1.66 15 2.32 15 3 C15.66 3 16.32 3 17 3 C16.67 4.32 16.34 5.64 16 7 C16 6.01 16 5.02 16 4 C15.113125 4.020625 14.22625 4.04125 13.3125 4.0625 C10.37830369 4.00713781 7.84506304 3.6694266 5 3 C5.33 3.33 5.66 3.66 6 4 C6 4.66 6 5.32 6 6 C7.65 6.66 9.3 7.32 11 8 C11 10.31 11 12.62 11 15 C9.02 15 7.04 15 5 15 C4.67 14.01 4.34 13.02 4 12 C4.33 11.34 4.66 10.68 5 10 C1.17679443 8.57741188 -1.91281305 7.75957724 -6 8 C-6 7.01 -6 6.02 -6 5 C-9.63 5 -13.26 5 -17 5 C-16.67 4.34 -16.34 3.68 -16 3 C-14.41676312 2.972807 -12.83338938 2.95351694 -11.25 2.9375 C-9.92742188 2.92009766 -9.92742188 2.92009766 -8.578125 2.90234375 C-6 3 -6 3 -3.796875 3.56640625 C-1.91327065 4.22519495 -1.91327065 4.22519495 0 3 C0 2.01 0 1.02 0 0 Z " fill="#9A9A9A" transform="translate(49,72)"/>
<path d="M0 0 C2.97 0.99 5.94 1.98 9 3 C9 2.01 9 1.02 9 0 C9.66 0 10.32 0 11 0 C11.66 2.31 12.32 4.62 13 7 C15.31 7 17.62 7 20 7 C20.33 6.34 20.66 5.68 21 5 C20.45276317 8.37462715 19.9451 10.08235 18 13 C12.25220682 13.68973518 8.19739223 12.18837568 3 10 C3 8.68 3 7.36 3 6 C2.01 5.67 1.02 5.34 0 5 C0 3.35 0 1.7 0 0 Z " fill="#E2E2E2" transform="translate(59,92)"/>
<path d="M0 0 C0.66 0.33 1.32 0.66 2 1 C1.77082032 2.60727327 1.51579198 4.21087416 1.25 5.8125 C1.11078125 6.70582031 0.9715625 7.59914063 0.828125 8.51953125 C-0.18958863 11.56787159 -1.23691022 12.426854 -4 14 C-10.62301364 15.30094911 -17.27147674 15.10092785 -24 15 C-23.49609375 13.08984375 -23.49609375 13.08984375 -22 11 C-18.59759379 10.17438892 -15.32263854 9.70622933 -11.85351562 9.31054688 C-9.4330268 9.00579721 -9.4330268 9.00579721 -6 8 C-4.0881016 5.5285316 -4.0881016 5.5285316 -3 3 C-2.34 3 -1.68 3 -1 3 C-0.67 2.01 -0.34 1.02 0 0 Z " fill="#F1F1F1" transform="translate(56,11)"/>
<path d="M0 0 C0.33 0.99 0.66 1.98 1 3 C3.31 3.33 5.62 3.66 8 4 C8 4.66 8 5.32 8 6 C10.31 6 12.62 6 15 6 C15 6.66 15 7.32 15 8 C15.66 8 16.32 8 17 8 C16.67 10.97 16.34 13.94 16 17 C15.34 17 14.68 17 14 17 C14 14.69 14 12.38 14 10 C13.34 10 12.68 10 12 10 C12 9.34 12 8.68 12 8 C8.04 8 4.08 8 0 8 C0 7.01 0 6.02 0 5 C-7.425 4.01 -7.425 4.01 -15 3 C-15.33 2.01 -15.66 1.02 -16 0 C-10.42289352 -1.06795656 -5.60563042 -0.82622671 0 0 Z " fill="#D7D7D7" transform="translate(52,65)"/>
<path d="M0 0 C0.66 0.33 1.32 0.66 2 1 C1.5247412 2.64696604 1.04468109 4.29254728 0.5625 5.9375 C0.29566406 6.85402344 0.02882813 7.77054688 -0.24609375 8.71484375 C-1 11 -1 11 -2 12 C-2.04092937 14.33297433 -2.04241723 16.66705225 -2 19 C-1.01 19.33 -0.02 19.66 1 20 C1.6875 22.0625 1.6875 22.0625 2 24 C0.35 25.32 -1.3 26.64 -3 28 C-5.32590854 24.36576791 -5.16265833 21.22911669 -5 17 C-5.66 17 -6.32 17 -7 17 C-7.33 15.35 -7.66 13.7 -8 12 C-7.34 12 -6.68 12 -6 12 C-5.67 10.02 -5.34 8.04 -5 6 C-4.34 6 -3.68 6 -3 6 C-2.814375 5.071875 -2.814375 5.071875 -2.625 4.125 C-2 2 -2 2 0 0 Z " fill="#E9E9E9" transform="translate(18,35)"/>
<path d="M0 0 C0 0.99 0 1.98 0 3 C-1.96875 4.75390625 -1.96875 4.75390625 -4.5 6.5625 C-6.03357952 7.6629853 -7.54284143 8.80015713 -9 10 C-9 10.66 -9 11.32 -9 12 C-6.61435923 11.42415568 -4.33317216 10.77772405 -2 10 C-2 10.66 -2 11.32 -2 12 C-2.556875 12.495 -3.11375 12.99 -3.6875 13.5 C-8.06832469 18.23602669 -11.20456751 24.56229968 -12 31 C-11.67 31.99 -11.34 32.98 -11 34 C-11.99 34.495 -11.99 34.495 -13 35 C-14.56929255 31.8614149 -14.27716493 29.49227809 -14 26 C-13.05036084 23.55807072 -11.96964697 21.25038683 -10.77734375 18.91796875 C-10.52082031 18.28503906 -10.26429687 17.65210937 -10 17 C-10.33 16.34 -10.66 15.68 -11 15 C-11.45375 15.825 -11.9075 16.65 -12.375 17.5 C-13.179375 18.7375 -13.179375 18.7375 -14 20 C-14.66 20 -15.32 20 -16 20 C-16.33 21.98 -16.66 23.96 -17 26 C-17.66 26 -18.32 26 -19 26 C-18.57811541 24.1838018 -18.13700835 22.37205927 -17.6875 20.5625 C-17.44386719 19.55316406 -17.20023438 18.54382813 -16.94921875 17.50390625 C-16.63597656 16.67761719 -16.32273437 15.85132813 -16 15 C-15.01 14.67 -14.02 14.34 -13 14 C-12.28752268 12.3523962 -11.62599617 10.68236471 -11 9 C-9.5625 6.6875 -9.5625 6.6875 -8 5 C-7.01 5 -6.02 5 -5 5 C-5 4.34 -5 3.68 -5 3 C-2.5 1.375 -2.5 1.375 0 0 Z " fill="#9F9F9F" transform="translate(29,21)"/>
<path d="M0 0 C0.66 0 1.32 0 2 0 C3.96189209 3.6678852 5.39301257 6.87248551 6 11 C6.33 8.36 6.66 5.72 7 3 C9.62892127 6.95934701 9.40879324 11.16129085 9.5625 15.75 C9.78996787 21.55769032 10.20434742 27.23973836 11 33 C10.34 33 9.68 33 9 33 C8.67 31.35 8.34 29.7 8 28 C7.01 28.33 6.02 28.66 5 29 C4.95512451 28.44127197 4.91024902 27.88254395 4.86401367 27.30688477 C4.64997788 24.72432835 4.41883023 22.14356254 4.1875 19.5625 C4.11724609 18.68400391 4.04699219 17.80550781 3.97460938 16.90039062 C3.42184003 10.90837097 2.16042 5.616062 0 0 Z " fill="#B0B0B0" transform="translate(73,11)"/>
<path d="M0 0 C2.64 0 5.28 0 8 0 C8 0.66 8 1.32 8 2 C7.31292969 2.17015625 6.62585938 2.3403125 5.91796875 2.515625 C5.01691406 2.75796875 4.11585937 3.0003125 3.1875 3.25 C2.29417969 3.48203125 1.40085937 3.7140625 0.48046875 3.953125 C-2.37646099 5.15888432 -3.38369034 6.40101703 -5 9 C-4.45730469 8.77183594 -3.91460937 8.54367187 -3.35546875 8.30859375 C-2.64003906 8.02113281 -1.92460938 7.73367187 -1.1875 7.4375 C-0.47980469 7.14746094 0.22789063 6.85742188 0.95703125 6.55859375 C3 6 3 6 6 7 C5.67 7.33 5.34 7.66 5 8 C4.92851801 9.35243917 4.91600546 10.70834367 4.9375 12.0625 C4.958125 13.361875 4.97875 14.66125 5 16 C4.67 16 4.34 16 4 16 C3.67 14.02 3.34 12.04 3 10 C2.01 10 1.02 10 0 10 C0 10.66 0 11.32 0 12 C-1.95927063 13.7143618 -3.95880212 15.38405168 -6 17 C-6 15.02 -6 13.04 -6 11 C-8.475 12.485 -8.475 12.485 -11 14 C-10.625 11.5625 -10.625 11.5625 -10 9 C-9.34 8.67 -8.68 8.34 -8 8 C-7.67 7.01 -7.34 6.02 -7 5 C-6.01 5 -5.02 5 -4 5 C-3.67 4.01 -3.34 3.02 -3 2 C-2.01 2 -1.02 2 0 2 C0 1.34 0 0.68 0 0 Z " fill="#898989" transform="translate(63,1)"/>
<path d="M0 0 C0.66 0 1.32 0 2 0 C2.37087134 32.10097515 2.37087134 32.10097515 -2.75 41.0625 C-5 43 -5 43 -8.25 43.3125 C-9.1575 43.209375 -10.065 43.10625 -11 43 C-11 42.67 -11 42.34 -11 42 C-9.35 42 -7.7 42 -6 42 C-4.18698242 37.56906802 -4.18698242 37.56906802 -5 33 C-4.01 32.505 -4.01 32.505 -3 32 C-0.29551297 21.71234347 -0.42401903 10.56700047 0 0 Z " fill="#8C8C8C" transform="translate(83,63)"/>
<path d="M0 0 C0.33 0 0.66 0 1 0 C1 9.24 1 18.48 1 28 C0.34 28 -0.32 28 -1 28 C-1.33 24.37 -1.66 20.74 -2 17 C-2.66 17.33 -3.32 17.66 -4 18 C-4.59244521 11.33499135 -2.48322845 6.13047025 0 0 Z " fill="#A0A0A0" transform="translate(70,10)"/>
<path d="M0 0 C0.33 0 0.66 0 1 0 C1.33 3.3 1.66 6.6 2 10 C2.66 10 3.32 10 4 10 C5.00496852 13.01490557 5.10335303 15.04181692 5.0625 18.1875 C5.05347656 19.08855469 5.04445313 19.98960938 5.03515625 20.91796875 C5.02355469 21.60503906 5.01195313 22.29210937 5 23 C4.67 22.34 4.34 21.68 4 21 C3.34 21 2.68 21 2 21 C1.67 21.66 1.34 22.32 1 23 C0.95101562 22.14535156 0.90203125 21.29070313 0.8515625 20.41015625 C0.73941406 18.75306641 0.73941406 18.75306641 0.625 17.0625 C0.55539063 15.96035156 0.48578125 14.85820313 0.4140625 13.72265625 C0.27742188 12.82417969 0.14078125 11.92570312 0 11 C-0.66 10.67 -1.32 10.34 -2 10 C-1.33333333 6.66666667 -0.66666667 3.33333333 0 0 Z " fill="#ECECEC" transform="translate(80,34)"/>
<path d="M0 0 C0.66 0 1.32 0 2 0 C2 0.66 2 1.32 2 2 C2.928125 2.12375 2.928125 2.12375 3.875 2.25 C6 3 6 3 7.25 5.0625 C7.4975 5.701875 7.745 6.34125 8 7 C6.02 6.34 4.04 5.68 2 5 C2.34444881 7.47266765 2.34444881 7.47266765 3 10 C3.66 10.33 4.32 10.66 5 11 C4.67 12.32 4.34 13.64 4 15 C4 14.01 4 13.02 4 12 C3.01 12.33 2.02 12.66 1 13 C0.34 11.68 -0.32 10.36 -1 9 C-1.66 9 -2.32 9 -3 9 C-3.66 7.35 -4.32 5.7 -5 4 C-3.35 3.67 -1.7 3.34 0 3 C0 2.01 0 1.02 0 0 Z " fill="#A8A8A8" transform="translate(57,87)"/>
<path d="M0 0 C0.66 0 1.32 0 2 0 C2 0.99 2 1.98 2 3 C2.66 3 3.32 3 4 3 C4.66 6.3 5.32 9.6 6 13 C7.32 12.34 8.64 11.68 10 11 C9.33333333 13.66666667 8.66666667 16.33333333 8 19 C6.68 19 5.36 19 4 19 C2.14845433 14.93126728 1.45353704 11.10917594 0.875 6.6875 C0.70742187 5.43324219 0.53984375 4.17898437 0.3671875 2.88671875 C0.24601563 1.93410156 0.12484375 0.98148438 0 0 Z " fill="#B6B6B6" transform="translate(9,49)"/>
<path d="M0 0 C0 0.66 0 1.32 0 2 C2.31 2 4.62 2 7 2 C7 2.66 7 3.32 7 4 C7.66 4 8.32 4 9 4 C8.67 6.97 8.34 9.94 8 13 C7.34 13 6.68 13 6 13 C6 10.69 6 8.38 6 6 C5.34 6 4.68 6 4 6 C4 5.34 4 4.68 4 4 C0.04 4 -3.92 4 -8 4 C-8 3.01 -8 2.02 -8 1 C-5.10765685 0.17361624 -3.11257569 0 0 0 Z " fill="#E9E9E9" transform="translate(60,69)"/>
<path d="M0 0 C2.15470208 1.69298021 2.1631408 2.77605213 2.75 5.375 C3.74 5.705 4.73 6.035 5.75 6.375 C5.75 7.365 5.75 8.355 5.75 9.375 C4.1 9.705 2.45 10.035 0.75 10.375 C0.5025 9.570625 0.255 8.76625 0 7.9375 C-0.97238859 5.203919 -0.97238859 5.203919 -3.375 4.5625 C-3.99375 4.500625 -4.6125 4.43875 -5.25 4.375 C-5.25 3.715 -5.25 3.055 -5.25 2.375 C-5.91 2.045 -6.57 1.715 -7.25 1.375 C-2.89285714 -0.80357143 -2.89285714 -0.80357143 0 0 Z " fill="#F5F5F5" transform="translate(51.25,80.625)"/>
<path d="M0 0 C1.98 0.66 3.96 1.32 6 2 C5.34 3.98 4.68 5.96 4 8 C6.31 8.33 8.62 8.66 11 9 C11 9.66 11 10.32 11 11 C11.66 11 12.32 11 13 11 C13 11.66 13 12.32 13 13 C8.545 12.01 8.545 12.01 4 11 C3.67 9.35 3.34 7.7 3 6 C2.01 5.67 1.02 5.34 0 5 C0 3.35 0 1.7 0 0 Z " fill="#C9C9C9" transform="translate(59,92)"/>
<path d="M0 0 C0.763125 0.20625 1.52625 0.4125 2.3125 0.625 C2.3125 1.285 2.3125 1.945 2.3125 2.625 C0.9925 2.955 -0.3275 3.285 -1.6875 3.625 C-1.6875 4.285 -1.6875 4.945 -1.6875 5.625 C-5.84017176 8.73950382 -5.84017176 8.73950382 -9 8.3125 C-9.556875 8.085625 -10.11375 7.85875 -10.6875 7.625 C-4.09477273 -0.57136364 -4.09477273 -0.57136364 0 0 Z " fill="#EBEBEB" transform="translate(28.6875,25.375)"/>
<path d="M0 0 C0.99 0.33 1.98 0.66 3 1 C3.33 4.3 3.66 7.6 4 11 C4.66 11 5.32 11 6 11 C6.33 12.65 6.66 14.3 7 16 C5.35 15.67 3.7 15.34 2 15 C0.2520497 9.75614911 -0.19392201 5.52677733 0 0 Z " fill="#A2A2A2" transform="translate(78,44)"/>
<path d="M0 0 C0.33 0 0.66 0 1 0 C1.33 6.93 1.66 13.86 2 21 C0.68 20.34 -0.64 19.68 -2 19 C-2.19818283 12.29481414 -2.30844801 6.34823202 0 0 Z " fill="#EDEDED" transform="translate(68,21)"/>
<path d="M0 0 C1.65 0 3.3 0 5 0 C5.33776684 1.7491497 5.67003671 3.49936145 6 5.25 C6.185625 6.22453125 6.37125 7.1990625 6.5625 8.203125 C7 11 7 11 7 15 C6.34 15 5.68 15 5 15 C4.67 13.35 4.34 11.7 4 10 C3.01 10.33 2.02 10.66 1 11 C0.67 7.37 0.34 3.74 0 0 Z " fill="#B5B5B5" transform="translate(77,29)"/>
<path d="M0 0 C0 2.31 0 4.62 0 7 C-1.98 7 -3.96 7 -6 7 C-6.33 6.01 -6.66 5.02 -7 4 C-6.67 3.34 -6.34 2.68 -6 2 C-7.32 1.34 -8.64 0.68 -10 0 C-2.25 -1.125 -2.25 -1.125 0 0 Z " fill="#AFAFAF" transform="translate(60,80)"/>
<path d="M0 0 C0.66 0 1.32 0 2 0 C2.027193 1.58323688 2.04648306 3.16661062 2.0625 4.75 C2.07410156 5.63171875 2.08570312 6.5134375 2.09765625 7.421875 C2.00826198 9.7818838 1.66912821 11.74498524 1 14 C-0.32 13.67 -1.64 13.34 -3 13 C-3.33 11.68 -3.66 10.36 -4 9 C-2.68 8.34 -1.36 7.68 0 7 C0 4.69 0 2.38 0 0 Z " fill="#BDBDBD" transform="translate(68,75)"/>
<path d="M0 0 C0 0.99 0 1.98 0 3 C-3.81615468 5.47045803 -7.84744248 5.43831912 -12.25 5.625 C-12.99507812 5.66367187 -13.74015625 5.70234375 -14.5078125 5.7421875 C-16.3381524 5.83605108 -18.16904143 5.91909718 -20 6 C-20 5.34 -20 4.68 -20 4 C-19.42967041 3.91435791 -18.85934082 3.82871582 -18.27172852 3.74047852 C-15.70132184 3.352072 -13.13192106 2.95737171 -10.5625 2.5625 C-9.66466797 2.42779297 -8.76683594 2.29308594 -7.84179688 2.15429688 C-6.98779297 2.02216797 -6.13378906 1.89003906 -5.25390625 1.75390625 C-4.46314697 1.63345947 -3.6723877 1.5130127 -2.85766602 1.38891602 C-0.99297383 1.17537558 -0.99297383 1.17537558 0 0 Z " fill="#8F8F8F" transform="translate(51,16)"/>
<path d="M0 0 C0.33 0.99 0.66 1.98 1 3 C-0.41396902 3.50757862 -1.83131729 4.00574925 -3.25 4.5 C-4.43335937 4.91765625 -4.43335937 4.91765625 -5.640625 5.34375 C-8 6 -8 6 -12 6 C-9.40401988 0.00927665 -6.20086134 -0.23399477 0 0 Z " fill="#F2F2F2" transform="translate(70,4)"/>
<path d="M0 0 C0.66 0.165 1.32 0.33 2 0.5 C5.75634115 1.12605686 9.19113754 1.12696208 13 1 C13.33 0.67 13.66 0.34 14 0 C16.33297433 -0.04092937 18.66705225 -0.04241723 21 0 C21 0.66 21 1.32 21 2 C20.29875 1.938125 19.5975 1.87625 18.875 1.8125 C15.87266599 1.78385172 15.87266599 1.78385172 13.25 3.6875 C9.01443195 5.39801787 7.01017499 4.48111947 2.85546875 2.95703125 C1 2 1 2 0 0 Z " fill="#929292" transform="translate(29,85)"/>
<path d="M0 0 C2.475 0.495 2.475 0.495 5 1 C5 1.99 5 2.98 5 4 C4.34 4 3.68 4 3 4 C3.01160156 4.80824219 3.02320312 5.61648437 3.03515625 6.44921875 C3.04869141 8.05216797 3.04869141 8.05216797 3.0625 9.6875 C3.07410156 10.74324219 3.08570312 11.79898438 3.09765625 12.88671875 C3.00865425 15.72410262 2.64939838 18.2438919 2 21 C1.67 21 1.34 21 1 21 C0.67 14.07 0.34 7.14 0 0 Z " fill="#F2F2F2" transform="translate(80,59)"/>
<path d="M0 0 C3.63 0.33 7.26 0.66 11 1 C11 1.66 11 2.32 11 3 C11.99 3.33 12.98 3.66 14 4 C9.54629322 4.95627638 6.09182255 4.90623315 1.625 4.0625 C0.56539062 3.86785156 -0.49421875 3.67320313 -1.5859375 3.47265625 C-2.38257813 3.31667969 -3.17921875 3.16070312 -4 3 C-2.68 2.67 -1.36 2.34 0 2 C0 1.34 0 0.68 0 0 Z " fill="#E4E4E4" transform="translate(38,72)"/>
<path d="M0 0 C0.99 0 1.98 0 3 0 C3 5.94 3 11.88 3 18 C2.67 18 2.34 18 2 18 C1.46818825 15.75256955 0.94992874 13.50192898 0.4375 11.25 C0.00244141 9.37054687 0.00244141 9.37054687 -0.44140625 7.453125 C-0.93444283 4.40526252 -1.07666879 2.82358172 0 0 Z " fill="#E5E5E5" transform="translate(77,9)"/>
<path d="M0 0 C0.66 0.33 1.32 0.66 2 1 C1.34 4.3 0.68 7.6 0 11 C-0.99 11.33 -1.98 11.66 -3 12 C-3 10.68 -3 9.36 -3 8 C-3.66 7.67 -4.32 7.34 -5 7 C-4.34 5.68 -3.68 4.36 -3 3 C-2.34 3 -1.68 3 -1 3 C-0.67 2.01 -0.34 1.02 0 0 Z " fill="#A7A7A7" transform="translate(56,11)"/>
<path d="M0 0 C1.33332095 2.6666419 0.67102033 4.16680303 0 7 C-2.31 7 -4.62 7 -7 7 C-7.33 6.34 -7.66 5.68 -8 5 C-7.34 5 -6.68 5 -6 5 C-6 4.01 -6 3.02 -6 2 C-4.02 1.34 -2.04 0.68 0 0 Z " fill="#E8E8E8" transform="translate(53,18)"/>
<path d="M0 0 C0.66 0 1.32 0 2 0 C2.33 3.96 2.66 7.92 3 12 C2.01 12.33 1.02 12.66 0 13 C0 8.71 0 4.42 0 0 Z " fill="#B5B5B5" transform="translate(78,83)"/>
<path d="M0 0 C0.66 0 1.32 0 2 0 C1.731875 0.61875 1.46375 1.2375 1.1875 1.875 C0.14817362 4.61006941 -0.79926932 7.33807437 -1.6875 10.125 C-2.09548828 11.39730469 -2.09548828 11.39730469 -2.51171875 12.6953125 C-3.23340151 15.1431098 -3.23340151 15.1431098 -2 18 C-2.66 18.33 -3.32 18.66 -4 19 C-5.5107487 15.9785026 -5.55699908 13.2649627 -5 10 C-3.55805467 6.53630616 -1.84056753 3.26700737 0 0 Z " fill="#858585" transform="translate(20,37)"/>
<path d="M0 0 C3.9492568 0.55105909 7.34920174 1.38935371 11 3 C11 3.66 11 4.32 11 5 C4.64948454 5.36637589 4.64948454 5.36637589 1.5625 3.625 C0 2 0 2 0 0 Z " fill="#DFDFDF" transform="translate(24,60)"/>
<path d="M0 0 C0.99 0 1.98 0 3 0 C3 3.3 3 6.6 3 10 C2.67 9.34 2.34 8.68 2 8 C1.34 8 0.68 8 0 8 C-0.33 8.66 -0.66 9.32 -1 10 C-0.67 6.7 -0.34 3.4 0 0 Z " fill="#C9C9C9" transform="translate(82,47)"/>
<path d="M0 0 C0.33 0.99 0.66 1.98 1 3 C6.94 3.99 6.94 3.99 13 5 C12.01 6.485 12.01 6.485 11 8 C9.53984709 7.71758359 8.08190207 7.42373386 6.625 7.125 C5.81289063 6.96257812 5.00078125 6.80015625 4.1640625 6.6328125 C2 6 2 6 0 4 C0 2.68 0 1.36 0 0 Z " fill="#929292" transform="translate(30,75)"/>
<path d="M0 0 C-0.33 0.33 -0.66 0.66 -1 1 C-1.07148199 2.35243917 -1.08399454 3.70834367 -1.0625 5.0625 C-1.041875 6.361875 -1.02125 7.66125 -1 9 C-1.33 9 -1.66 9 -2 9 C-2.33 7.02 -2.66 5.04 -3 3 C-3.99 3 -4.98 3 -6 3 C-6 3.66 -6 4.32 -6 5 C-6.66 5 -7.32 5 -8 5 C-7.75 3.125 -7.75 3.125 -7 1 C-4.09342573 -1.03460199 -3.47133392 -1.15711131 0 0 Z " fill="#656565" transform="translate(69,8)"/>
<path d="M0 0 C0.33 0 0.66 0 1 0 C1 8.58 1 17.16 1 26 C0.67 26 0.34 26 0 26 C0 17.42 0 8.84 0 0 Z " fill="#A9A9A9" transform="translate(62,42)"/>
<path d="M0 0 C0.33 0 0.66 0 1 0 C1 8.58 1 17.16 1 26 C0.67 26 0.34 26 0 26 C0 17.42 0 8.84 0 0 Z " fill="#B4B4B4" transform="translate(86,47)"/>
<path d="M0 0 C1.4540625 0.0309375 1.4540625 0.0309375 2.9375 0.0625 C1.88875002 2.68437494 1.28818687 3.85621361 -1.1875 5.3125 C-1.80625 5.56 -2.425 5.8075 -3.0625 6.0625 C-3.44468767 4.40635343 -3.77645102 2.73792976 -4.0625 1.0625 C-3.0625 0.0625 -3.0625 0.0625 0 0 Z " fill="#F3F3F3" transform="translate(17.0625,56.9375)"/>
<path d="M0 0 C0.66 0 1.32 0 2 0 C1.67 1.98 1.34 3.96 1 6 C0.34 6 -0.32 6 -1 6 C-1.33 7.98 -1.66 9.96 -2 12 C-2.66 12 -3.32 12 -4 12 C-3.52494322 10.18641846 -3.04483958 8.37415821 -2.5625 6.5625 C-2.29566406 5.55316406 -2.02882813 4.54382812 -1.75390625 3.50390625 C-1 1 -1 1 0 0 Z " fill="#9B9B9B" transform="translate(14,35)"/>
<path d="M0 0 C5.53846154 -0.36923077 5.53846154 -0.36923077 7.875 1.5 C8.24625 1.995 8.6175 2.49 9 3 C5.99727245 3.96516243 3.95784231 4.22393475 1 3 C0.67 2.01 0.34 1.02 0 0 Z " fill="#DEDEDE" transform="translate(36,65)"/>
<path d="M0 0 C0.66 0 1.32 0 2 0 C5.61601216 5.57468542 5.30720059 10.60567654 5 17 C4.67 17 4.34 17 4 17 C3.87882812 16.35933594 3.75765625 15.71867187 3.6328125 15.05859375 C2.64320773 9.95071067 1.51489049 4.97749731 0 0 Z " fill="#666666" transform="translate(73,11)"/>
<path d="M0 0 C0.66 0 1.32 0 2 0 C1.47784461 3.7595188 0.82726947 6.36771463 -2 9 C-5.1875 9.25 -5.1875 9.25 -8 9 C-8 8.67 -8 8.34 -8 8 C-6.35 8 -4.7 8 -3 8 C-1.58622659 5.36095629 -0.62759865 2.92879371 0 0 Z " fill="#878787" transform="translate(80,97)"/>
<path d="M0 0 C0.6875 1.8125 0.6875 1.8125 1 4 C-0.1875 5.75 -0.1875 5.75 -2 7 C-3.32 7 -4.64 7 -6 7 C-6 6.34 -6 5.68 -6 5 C-5.01 5 -4.02 5 -3 5 C-2.67 4.01 -2.34 3.02 -2 2 C-1.34 2 -0.68 2 0 2 C0 1.34 0 0.68 0 0 Z " fill="#EFEFEF" transform="translate(79,97)"/>
<path d="M0 0 C2.97 0.495 2.97 0.495 6 1 C6 1.99 6 2.98 6 4 C4.35 4.33 2.7 4.66 1 5 C0.67 3.35 0.34 1.7 0 0 Z " fill="#E6E6E6" transform="translate(51,86)"/>
<path d="M0 0 C0.66 0 1.32 0 2 0 C2.33 0.66 2.66 1.32 3 2 C6.02934491 2.65772428 6.02934491 2.65772428 9 3 C9 3.66 9 4.32 9 5 C6.03 5 3.06 5 0 5 C0 3.35 0 1.7 0 0 Z " fill="#959595" transform="translate(19,55)"/>
<path d="M0 0 C1.4540625 0.0309375 1.4540625 0.0309375 2.9375 0.0625 C2.6075 1.7125 2.2775 3.3625 1.9375 5.0625 C0.6175 4.7325 -0.7025 4.4025 -2.0625 4.0625 C-2.0625 3.4025 -2.0625 2.7425 -2.0625 2.0625 C-2.7225 1.7325 -3.3825 1.4025 -4.0625 1.0625 C-3.0625 0.0625 -3.0625 0.0625 0 0 Z " fill="#A1A1A1" transform="translate(46.0625,63.9375)"/>
<path d="M0 0 C2.8125 -0.1875 2.8125 -0.1875 6 0 C6.99 0.99 7.98 1.98 9 3 C6.03 3 3.06 3 0 3 C0 2.01 0 1.02 0 0 Z " fill="#565656" transform="translate(43,77)"/>
<path d="M0 0 C2 3.75 2 3.75 2 6 C1.34 6 0.68 6 0 6 C0 6.66 0 7.32 0 8 C-0.99 8 -1.98 8 -3 8 C-2.67 6.68 -2.34 5.36 -2 4 C-1.34 4 -0.68 4 0 4 C0 2.68 0 1.36 0 0 Z " fill="#E4E4E4" transform="translate(67,56)"/>
<path d="M0 0 C0.33 0 0.66 0 1 0 C1 2.97 1 5.94 1 9 C1.99 9 2.98 9 4 9 C4 9.99 4 10.98 4 12 C2.68 11.34 1.36 10.68 0 10 C0 6.7 0 3.4 0 0 Z " fill="#D1D1D1" transform="translate(66,30)"/>
<path d="M0 0 C0.33 0.66 0.66 1.32 1 2 C3.64 2 6.28 2 9 2 C9 2.99 9 3.98 9 5 C4.545 4.01 4.545 4.01 0 3 C0 2.01 0 1.02 0 0 Z " fill="#F7F7F7" transform="translate(63,97)"/>
<path d="M0 0 C0.33 0 0.66 0 1 0 C1 5.61 1 11.22 1 17 C0.67 17 0.34 17 0 17 C0 11.39 0 5.78 0 0 Z " fill="#A4A4A4" transform="translate(71,39)"/>
<path d="M0 0 C0.66 0.33 1.32 0.66 2 1 C1.67 2.65 1.34 4.3 1 6 C-0.32 5.67 -1.64 5.34 -3 5 C-1.125 1.125 -1.125 1.125 0 0 Z " fill="#F1F1F1" transform="translate(18,35)"/>
<path d="M0 0 C0.66 0.33 1.32 0.66 2 1 C1.67 2.32 1.34 3.64 1 5 C-2 5 -2 5 -4 4 C-3.01 3.67 -2.02 3.34 -1 3 C-0.67 2.01 -0.34 1.02 0 0 Z " fill="#EEEEEE" transform="translate(56,11)"/>
<path d="M0 0 C0.33 0 0.66 0 1 0 C1 4.29 1 8.58 1 13 C0.67 13 0.34 13 0 13 C0 8.71 0 4.42 0 0 Z " fill="#BFBFBF" transform="translate(70,62)"/>
<path d="M0 0 C0.33 0 0.66 0 1 0 C1 3.96 1 7.92 1 12 C0.67 12 0.34 12 0 12 C0 8.04 0 4.08 0 0 Z " fill="#858585" transform="translate(85,79)"/>
<path d="M0 0 C0.33 0 0.66 0 1 0 C1 3.96 1 7.92 1 12 C0.67 12 0.34 12 0 12 C0 8.04 0 4.08 0 0 Z " fill="#B7B7B7" transform="translate(77,65)"/>
<path d="M0 0 C0.33 0 0.66 0 1 0 C1 3.3 1 6.6 1 10 C0.67 10 0.34 10 0 10 C0 6.7 0 3.4 0 0 Z " fill="#B2B2B2" transform="translate(63,30)"/>
<path d="M0 0 C0.33 0 0.66 0 1 0 C1 2.64 1 5.28 1 8 C0.67 8 0.34 8 0 8 C0 5.36 0 2.72 0 0 Z " fill="#A2A2A2" transform="translate(71,76)"/>
<path d="M0 0 C0.33 0 0.66 0 1 0 C1 2.31 1 4.62 1 7 C0.67 7 0.34 7 0 7 C0 4.69 0 2.38 0 0 Z " fill="#898989" transform="translate(72,27)"/>
<path d="M0 0 C0.33 0 0.66 0 1 0 C1 1.98 1 3.96 1 6 C0.67 6 0.34 6 0 6 C0 4.02 0 2.04 0 0 Z " fill="#959595" transform="translate(8,51)"/>
<path d="M0 0 C0.33 0 0.66 0 1 0 C1 1.65 1 3.3 1 5 C0.67 5 0.34 5 0 5 C0 3.35 0 1.7 0 0 Z " fill="#9F9F9F" transform="translate(16,69)"/>
<path d="M0 0 C0.33 0 0.66 0 1 0 C1 1.65 1 3.3 1 5 C0.67 5 0.34 5 0 5 C0 3.35 0 1.7 0 0 Z " fill="#979797" transform="translate(9,57)"/>
<path d="M0 0 C0.33 0 0.66 0 1 0 C1 1.65 1 3.3 1 5 C0.67 5 0.34 5 0 5 C0 3.35 0 1.7 0 0 Z " fill="#9C9C9C" transform="translate(77,53)"/>
<path d="M0 0 C0.33 0 0.66 0 1 0 C1 1.65 1 3.3 1 5 C0.67 5 0.34 5 0 5 C0 3.35 0 1.7 0 0 Z " fill="#BDBDBD" transform="translate(85,41)"/>
<path d="M0 0 C1 4 1 4 1 4 Z " fill="#7A7A7A" transform="translate(77,60)"/>
<path d="M0 0 C1 4 1 4 1 4 Z " fill="#ADADAD" transform="translate(8,45)"/>
<path d="" fill="#B0B0B0" transform="translate(0,0)"/>
<path d="" fill="#9E9E9E" transform="translate(0,0)"/>
<path d="" fill="#909090" transform="translate(0,0)"/>
<path d="" fill="#828282" transform="translate(0,0)"/>
<path d="" fill="#BFBFBF" transform="translate(0,0)"/>
<path d="" fill="#8D8D8D" transform="translate(0,0)"/>
<path d="" fill="#A7A7A7" transform="translate(0,0)"/>
<path d="" fill="#808080" transform="translate(0,0)"/>
<path d="" fill="#868686" transform="translate(0,0)"/>
<path d="" fill="#CCCCCC" transform="translate(0,0)"/>
<path d="" fill="#A3A3A3" transform="translate(0,0)"/>
<path d="" fill="#7F7F7F" transform="translate(0,0)"/>
<path d="" fill="#929292" transform="translate(0,0)"/>
<path d="" fill="#B2B2B2" transform="translate(0,0)"/>
<path d="" fill="#808080" transform="translate(0,0)"/>
<path d="" fill="#656565" transform="translate(0,0)"/>
<path d="" fill="#B1B1B1" transform="translate(0,0)"/>
<path d="" fill="#6E6E6E" transform="translate(0,0)"/>
<path d="" fill="#919191" transform="translate(0,0)"/>
<path d="" fill="#949494" transform="translate(0,0)"/>
<path d="" fill="#707070" transform="translate(0,0)"/>
<path d="" fill="#E6E6E6" transform="translate(0,0)"/>
<path d="" fill="#878787" transform="translate(0,0)"/>
<path d="" fill="#8F8F8F" transform="translate(0,0)"/>
<path d="" fill="#8F8F8F" transform="translate(0,0)"/>
<path d="" fill="#7A7A7A" transform="translate(0,0)"/>
<path d="" fill="#A0A0A0" transform="translate(0,0)"/>
<path d="" fill="#979797" transform="translate(0,0)"/>
<path d="" fill="#C0C0C0" transform="translate(0,0)"/>
<path d="" fill="#9A9A9A" transform="translate(0,0)"/>
<path d="" fill="#707070" transform="translate(0,0)"/>
<path d="" fill="#C2C2C2" transform="translate(0,0)"/>
<path d="" fill="#8C8C8C" transform="translate(0,0)"/>
<path d="" fill="#7E7E7E" transform="translate(0,0)"/>
<path d="" fill="#9C9C9C" transform="translate(0,0)"/>
<path d="" fill="#6F6F6F" transform="translate(0,0)"/>
<path d="" fill="#979797" transform="translate(0,0)"/>
<path d="" fill="#A2A2A2" transform="translate(0,0)"/>
<path d="" fill="#A3A3A3" transform="translate(0,0)"/>
<path d="" fill="#7E7E7E" transform="translate(0,0)"/>
<path d="" fill="#818181" transform="translate(0,0)"/>
<path d="" fill="#ACACAC" transform="translate(0,0)"/>
<path d="" fill="#797979" transform="translate(0,0)"/>
<path d="" fill="#AFAFAF" transform="translate(0,0)"/>
<path d="" fill="#CDCDCD" transform="translate(0,0)"/>
<path d="" fill="#7A7A7A" transform="translate(0,0)"/>
<path d="" fill="#9E9E9E" transform="translate(0,0)"/>
<path d="" fill="#8F8F8F" transform="translate(0,0)"/>
<path d="" fill="#727272" transform="translate(0,0)"/>
<path d="" fill="#848484" transform="translate(0,0)"/>
<path d="" fill="#FFFFFF" transform="translate(0,0)"/>
<path d="" fill="#727272" transform="translate(0,0)"/>
<path d="" fill="#919191" transform="translate(0,0)"/>
<path d="" fill="#9B9B9B" transform="translate(0,0)"/>
<path d="" fill="#737373" transform="translate(0,0)"/>
<path d="" fill="#AFAFAF" transform="translate(0,0)"/>
<path d="" fill="#7C7C7C" transform="translate(0,0)"/>
<path d="" fill="#767676" transform="translate(0,0)"/>
<path d="" fill="#969696" transform="translate(0,0)"/>
<path d="" fill="#7C7C7C" transform="translate(0,0)"/>
<path d="" fill="#DCDCDC" transform="translate(0,0)"/>
<path d="" fill="#A1A1A1" transform="translate(0,0)"/>
<path d="" fill="#A1A1A1" transform="translate(0,0)"/>
<path d="" fill="#888888" transform="translate(0,0)"/>
<path d="" fill="#818181" transform="translate(0,0)"/>
<path d="" fill="#797979" transform="translate(0,0)"/>
<path d="" fill="#7F7F7F" transform="translate(0,0)"/>
<path d="" fill="#6A6A6A" transform="translate(0,0)"/>
<path d="" fill="#8C8C8C" transform="translate(0,0)"/>
<path d="" fill="#A2A2A2" transform="translate(0,0)"/>
<path d="" fill="#A1A1A1" transform="translate(0,0)"/>
<path d="" fill="#A6A6A6" transform="translate(0,0)"/>
<path d="" fill="#6B6B6B" transform="translate(0,0)"/>
<path d="" fill="#8F8F8F" transform="translate(0,0)"/>
<path d="" fill="#7B7B7B" transform="translate(0,0)"/>
<path d="" fill="#828282" transform="translate(0,0)"/>
<path d="" fill="#757575" transform="translate(0,0)"/>
<path d="" fill="#7F7F7F" transform="translate(0,0)"/>
<path d="" fill="#6E6E6E" transform="translate(0,0)"/>
<path d="" fill="#878787" transform="translate(0,0)"/>
<path d="" fill="#7B7B7B" transform="translate(0,0)"/>
<path d="" fill="#B2B2B2" transform="translate(0,0)"/>
<path d="" fill="#666666" transform="translate(0,0)"/>
<path d="" fill="#585858" transform="translate(0,0)"/>
<path d="" fill="#979797" transform="translate(0,0)"/>
<path d="" fill="#A5A5A5" transform="translate(0,0)"/>
<path d="" fill="#7C7C7C" transform="translate(0,0)"/>
</svg>
